<svg width="48" height="48" viewBox="0 0 48 48" fill="none" xmlns="http://www.w3.org/2000/svg">
<g clip-path="url(#clip0_771_34620)">
<path d="M38.2992 0.00390625H9.69478C4.33744 0.00390625 0 4.34134 0 9.69869V38.3091C0 43.6605 4.33744 47.9979 9.69478 47.9979H38.3052C43.6566 47.9979 48 43.6605 48 38.3031V9.69869C47.994 4.34134 43.6566 0.00390625 38.2992 0.00390625Z" fill="url(#paint0_linear_771_34620)"/>
<path d="M23.7923 11.0313L24.7642 9.35147C25.3641 8.30156 26.7019 7.94766 27.7518 8.54756C28.8017 9.14747 29.1556 10.4853 28.5557 11.5352L19.1908 27.7452H25.964C28.1597 27.7452 29.3895 30.3249 28.4357 32.1127H8.57825C7.36644 32.1127 6.39453 31.1408 6.39453 29.9289C6.39453 28.7171 7.36644 27.7452 8.57825 27.7452H14.1456L21.2728 15.3927L19.047 11.5292C18.4471 10.4793 18.801 9.15347 19.8509 8.54156C20.9008 7.94166 22.2267 8.29556 22.8386 9.34547L23.7923 11.0313ZM15.3694 34.3624L13.2697 38.0039C12.6698 39.0538 11.332 39.4077 10.2821 38.8078C9.23216 38.2079 8.87825 36.8701 9.47816 35.8202L11.038 33.1206C12.8017 32.5747 14.2355 32.9946 15.3694 34.3624Z" fill="white"/>
<path d="M33.4506 27.7575H39.1318C40.3437 27.7575 41.3156 28.7294 41.3156 29.9412C41.3156 31.153 40.3437 32.1249 39.1318 32.1249H35.9762L38.1059 35.8205C38.7058 36.8704 38.3519 38.1962 37.302 38.8081C36.2521 39.408 34.9263 39.0541 34.3144 38.0042C30.7269 31.7829 28.0332 27.1276 26.2454 24.026C24.4156 20.8703 25.7235 17.7027 27.0133 16.6289C28.4473 19.0886 30.589 22.8022 33.4506 27.7575Z" fill="white"/>
</g>
<defs>
<linearGradient id="paint0_linear_771_34620" x1="24" y1="0.00390625" x2="24" y2="47.9979" gradientUnits="userSpaceOnUse">
<stop stop-color="#00BFFC"/>
<stop offset="1" stop-color="#0073F6"/>
</linearGradient>
<clipPath id="clip0_771_34620">
<rect width="48" height="48" fill="white"/>
</clipPath>
</defs>
</svg>
