<svg width="28" height="28" viewBox="0 0 28 28" fill="none" xmlns="http://www.w3.org/2000/svg">
<path d="M25.2969 8.0249H2.70312C2.31477 8.0249 2 8.33986 2 8.72803V23.414C2 24.84 3.15997 26 4.586 26H23.414C24.84 26 26 24.84 26 23.414V8.72807C26 8.33986 25.6852 8.0249 25.2969 8.0249Z" fill="white"/>
<path d="M25.2969 8.0249H14V26H23.414C24.84 26 26 24.84 26 23.414V8.72807C26 8.33986 25.6852 8.0249 25.2969 8.0249Z" fill="white"/>
<path d="M23.414 3.50639H4.586C3.15997 3.50639 2 4.66655 2 6.09235V8.72813C2 9.11649 2.31477 9.43125 2.70312 9.43125H25.2969C25.6852 9.43125 26 9.11649 26 8.72813V6.09235C26 4.6665 24.84 3.50639 23.414 3.50639Z" fill="#7E7C7C"/>
<path d="M23.414 3.50639H14V9.43125H25.2969C25.6852 9.43125 26 9.11649 26 8.72813V6.09235C26 4.6665 24.84 3.50639 23.414 3.50639Z" fill="#7E7C7C"/>
<path d="M11.7395 20.3516C11.5532 20.351 11.3745 20.2769 11.2426 20.1452C11.1109 20.0134 11.0368 19.8348 11.0364 19.6484C11.0364 19.4631 11.1115 19.2819 11.2426 19.151C11.3734 19.0202 11.5544 18.9453 11.7395 18.9453C11.9247 18.9453 12.1061 19.0202 12.2369 19.151C12.3682 19.2833 12.4422 19.462 12.4427 19.6484C12.4427 19.8336 12.3676 20.0144 12.2369 20.1452C12.1048 20.2769 11.9261 20.3511 11.7395 20.3516ZM7.2207 20.3516C7.03555 20.3516 6.85461 20.2765 6.72392 20.1452C6.59314 20.0144 6.51758 19.8335 6.51758 19.6484C6.51758 19.4631 6.59319 19.2819 6.72392 19.151C6.85597 19.0197 7.03449 18.9458 7.2207 18.9453C7.40712 18.9458 7.58586 19.0196 7.71819 19.151C7.84949 19.2833 7.92337 19.462 7.92383 19.6484C7.92383 19.8336 7.84892 20.0144 7.71819 20.1452C7.58607 20.2769 7.40726 20.3511 7.2207 20.3516Z" fill="#7E7C7C"/>
<path d="M16.2578 14.327C16.0727 14.327 15.8918 14.2516 15.7605 14.1206C15.6291 13.9885 15.5552 13.8099 15.5547 13.6235C15.5552 13.4372 15.6291 13.2587 15.7605 13.1266C15.8918 12.9956 16.0727 12.9204 16.2578 12.9204C16.443 12.9204 16.6244 12.9956 16.7552 13.1266C16.8865 13.2587 16.9604 13.4372 16.9609 13.6235C16.9609 13.8087 16.8861 13.9899 16.7552 14.1206C16.6244 14.2514 16.4431 14.327 16.2578 14.327ZM20.7767 14.327C20.5919 14.327 20.4105 14.2516 20.2797 14.1206C20.1481 13.9887 20.074 13.81 20.0736 13.6235C20.0736 13.4388 20.1484 13.2573 20.2797 13.1266C20.4118 12.9951 20.5904 12.921 20.7767 12.9204C20.9618 12.9204 21.1431 12.9956 21.274 13.1266C21.4054 13.2587 21.4793 13.4372 21.4798 13.6235C21.4798 13.8087 21.4048 13.9899 21.274 14.1206C21.1431 14.2514 20.9618 14.327 20.7767 14.327H20.7767Z" fill="#7E7C7C"/>
<path d="M11.739 14.327C11.5526 14.3264 11.374 14.2522 11.242 14.1206C11.1104 13.9887 11.0363 13.81 11.0359 13.6235C11.0359 13.4382 11.1109 13.2573 11.242 13.1266C11.3728 12.9956 11.5539 12.9204 11.739 12.9204C11.9241 12.9204 12.1055 12.9956 12.2363 13.1266C12.3676 13.2587 12.4415 13.4373 12.4421 13.6235C12.4421 13.8087 12.367 13.9899 12.2363 14.1206C12.1055 14.2514 11.9241 14.327 11.739 14.327ZM7.22014 14.327C7.03555 14.327 6.85405 14.2516 6.72336 14.1206C6.59203 13.9885 6.51809 13.8099 6.51758 13.6235C6.51758 13.4382 6.59244 13.2573 6.72336 13.1266C6.85535 12.9951 7.03386 12.921 7.22014 12.9204C7.40544 12.9204 7.5867 12.9956 7.71763 13.1266C7.84887 13.2587 7.92275 13.4373 7.92327 13.6235C7.92327 13.8087 7.84836 13.9899 7.71763 14.1206C7.5867 14.2514 7.40544 14.327 7.22014 14.327Z" fill="#7E7C7C"/>
<path d="M16.2598 5.66562C15.8714 5.66562 15.5566 5.35081 15.5566 4.9625V2.70312C15.5566 2.31477 15.8714 2 16.2598 2C16.6481 2 16.9629 2.31477 16.9629 2.70312V4.9625C16.9629 5.35081 16.6481 5.66562 16.2598 5.66562Z" fill="white"/>
<path d="M11.7395 5.66562C11.3512 5.66562 11.0364 5.35081 11.0364 4.9625V2.70312C11.0364 2.31477 11.3512 2 11.7395 2C12.128 2 12.4427 2.31477 12.4427 2.70312V4.9625C12.4427 5.35081 12.128 5.66562 11.7395 5.66562ZM7.2207 5.66562C6.83258 5.66562 6.51758 5.35081 6.51758 4.9625V2.70312C6.51758 2.31477 6.83258 2 7.2207 2C7.60911 2 7.92383 2.31477 7.92383 2.70312V4.9625C7.92383 5.35081 7.60911 5.66562 7.2207 5.66562Z" fill="white"/>
<path d="M20.7793 5.66562C20.3909 5.66562 20.0762 5.35081 20.0762 4.9625V2.70312C20.0762 2.31477 20.3909 2 20.7793 2C21.1674 2 21.4824 2.31477 21.4824 2.70312V4.9625C21.4824 5.35081 21.1674 5.66562 20.7793 5.66562Z" fill="white"/>
<path d="M21.2746 21.0341L19.8889 19.6485L21.2746 18.2627C21.5491 17.9883 21.5491 17.5432 21.2746 17.2685C20.9999 16.9938 20.5549 16.9938 20.2802 17.2685L18.8946 18.654L17.5089 17.2685C17.2344 16.994 16.7891 16.994 16.5147 17.2685C16.24 17.5432 16.24 17.9883 16.5147 18.2629L17.9002 19.6485L16.5146 21.0343C16.2399 21.3087 16.2399 21.7538 16.5146 22.0285C16.652 22.1658 16.8318 22.2345 17.0118 22.2345C17.1918 22.2345 17.3715 22.1658 17.5089 22.0285L18.8946 20.643L20.2802 22.0285C20.3454 22.0939 20.4229 22.1457 20.5082 22.1811C20.5935 22.2165 20.685 22.2346 20.7773 22.2345C20.9573 22.2345 21.1373 22.1658 21.2744 22.0285C21.5491 21.7538 21.5491 21.3087 21.2746 21.0341Z" fill="#7E7C7C"/>
</svg>
