<svg width="26" height="28" viewBox="0 0 26 28" fill="none" xmlns="http://www.w3.org/2000/svg">
<path d="M11.6781 20.615L9.20182 23.0825C8.70792 23.5742 8.03937 23.8502 7.34245 23.8502C6.64553 23.8502 5.97698 23.5742 5.48307 23.0825L3.00682 20.6062C1.99182 19.5912 1.99182 17.92 3.00682 16.8962L5.48307 14.42L11.6781 20.615ZM23.4293 13.7987L12.2906 2.66875C12.1962 2.56963 12.0793 2.4948 11.9498 2.45061C11.8203 2.40643 11.6821 2.39421 11.5468 2.415C11.2668 2.45875 11.0306 2.625 10.8993 2.87L5.88557 12.3462L13.7693 20.23L23.2193 15.19C23.4643 15.0675 23.6306 14.8225 23.6743 14.5512C23.7181 14.2712 23.6218 14 23.4293 13.7987ZM4.24932 24.3162L1.77307 21.84C1.42307 21.49 1.15182 21.105 0.950575 20.685C0.513075 21.91 0.793075 23.3363 1.77307 24.3162C2.23796 24.7866 2.82732 25.1146 3.47204 25.2619C4.11677 25.4091 4.7901 25.3694 5.41307 25.1475C4.97846 24.9424 4.58426 24.6609 4.24932 24.3162ZM14.4606 23.3888L12.9206 21.8487L10.4356 24.325C10.2256 24.535 9.99807 24.7188 9.75307 24.8763L11.3631 26.4862C11.7743 26.8975 12.3256 27.125 12.9118 27.125C13.4981 27.125 14.0493 26.8975 14.4606 26.4862C15.3093 25.6287 15.3093 24.2463 14.4606 23.3888ZM17.3743 3.5V1.75C17.3743 1.51794 17.2821 1.29538 17.118 1.13128C16.9539 0.967187 16.7314 0.875 16.4993 0.875C16.2673 0.875 16.0447 0.967187 15.8806 1.13128C15.7165 1.29538 15.6243 1.51794 15.6243 1.75V3.5C15.6243 3.73206 15.7165 3.95462 15.8806 4.11872C16.0447 4.28281 16.2673 4.375 16.4993 4.375C16.7314 4.375 16.9539 4.28281 17.118 4.11872C17.2821 3.95462 17.3743 3.73206 17.3743 3.5ZM25.2493 9.625C25.2493 9.39294 25.1571 9.17038 24.993 9.00628C24.8289 8.84219 24.6064 8.75 24.3743 8.75H22.6243C22.3923 8.75 22.1697 8.84219 22.0056 9.00628C21.8415 9.17038 21.7493 9.39294 21.7493 9.625C21.7493 9.85706 21.8415 10.0796 22.0056 10.2437C22.1697 10.4078 22.3923 10.5 22.6243 10.5H24.3743C24.6064 10.5 24.8289 10.4078 24.993 10.2437C25.1571 10.0796 25.2493 9.85706 25.2493 9.625ZM20.6179 6.74362L22.3679 4.99362C22.4515 4.91291 22.5182 4.81636 22.564 4.7096C22.6099 4.60285 22.634 4.48803 22.635 4.37185C22.6361 4.25567 22.6139 4.14045 22.5699 4.03292C22.5259 3.92538 22.4609 3.82769 22.3788 3.74553C22.2966 3.66337 22.1989 3.5984 22.0914 3.55441C21.9839 3.51041 21.8687 3.48827 21.7525 3.48928C21.6363 3.49029 21.5215 3.51443 21.4147 3.56029C21.308 3.60614 21.2114 3.6728 21.1307 3.75638L19.3807 5.50638C19.2971 5.58709 19.2305 5.68364 19.1846 5.7904C19.1388 5.89715 19.1146 6.01197 19.1136 6.12815C19.1126 6.24433 19.1347 6.35955 19.1787 6.46708C19.2227 6.57462 19.2877 6.67231 19.3699 6.75447C19.452 6.83663 19.5497 6.9016 19.6572 6.94559C19.7648 6.98959 19.88 7.01173 19.9962 7.01072C20.1124 7.00971 20.2272 6.98557 20.3339 6.93971C20.4407 6.89386 20.5372 6.8272 20.6179 6.74362Z" fill="black"/>
</svg>
