<svg width="25" height="27" viewBox="0 0 25 27" fill="none" xmlns="http://www.w3.org/2000/svg">
<path d="M10.9281 19.74L8.45182 22.2075C7.95792 22.6992 7.28937 22.9752 6.59245 22.9752C5.89553 22.9752 5.22698 22.6992 4.73307 22.2075L2.25682 19.7312C1.24182 18.7162 1.24182 17.045 2.25682 16.0212L4.73307 13.545L10.9281 19.74ZM22.6793 12.9237L11.5406 1.79375C11.4462 1.69463 11.3293 1.6198 11.1998 1.57561C11.0703 1.53143 10.9321 1.51921 10.7968 1.54C10.5168 1.58375 10.2806 1.75 10.1493 1.995L5.13557 11.4712L13.0193 19.355L22.4693 14.315C22.7143 14.1925 22.8806 13.9475 22.9243 13.6762C22.9681 13.3962 22.8718 13.125 22.6793 12.9237ZM3.49932 23.4412L1.02307 20.965C0.673075 20.615 0.401825 20.23 0.200575 19.81C-0.236925 21.035 0.043075 22.4613 1.02307 23.4412C1.48796 23.9116 2.07732 24.2396 2.72204 24.3869C3.36677 24.5341 4.0401 24.4944 4.66307 24.2725C4.22846 24.0674 3.83426 23.7859 3.49932 23.4412ZM13.7106 22.5138L12.1706 20.9737L9.68557 23.45C9.47557 23.66 9.24807 23.8438 9.00307 24.0013L10.6131 25.6112C11.0243 26.0225 11.5756 26.25 12.1618 26.25C12.7481 26.25 13.2993 26.0225 13.7106 25.6112C14.5593 24.7537 14.5593 23.3713 13.7106 22.5138ZM16.6243 2.625V0.875C16.6243 0.642936 16.5321 0.420376 16.368 0.256282C16.2039 0.0921872 15.9814 0 15.7493 0C15.5173 0 15.2947 0.0921872 15.1306 0.256282C14.9665 0.420376 14.8743 0.642936 14.8743 0.875V2.625C14.8743 2.85706 14.9665 3.07962 15.1306 3.24372C15.2947 3.40781 15.5173 3.5 15.7493 3.5C15.9814 3.5 16.2039 3.40781 16.368 3.24372C16.5321 3.07962 16.6243 2.85706 16.6243 2.625ZM24.4993 8.75C24.4993 8.51794 24.4071 8.29538 24.243 8.13128C24.0789 7.96719 23.8564 7.875 23.6243 7.875H21.8743C21.6423 7.875 21.4197 7.96719 21.2556 8.13128C21.0915 8.29538 20.9993 8.51794 20.9993 8.75C20.9993 8.98206 21.0915 9.20462 21.2556 9.36872C21.4197 9.53281 21.6423 9.625 21.8743 9.625H23.6243C23.8564 9.625 24.0789 9.53281 24.243 9.36872C24.4071 9.20462 24.4993 8.98206 24.4993 8.75ZM19.8679 5.86862L21.6179 4.11862C21.7015 4.03791 21.7682 3.94136 21.814 3.8346C21.8599 3.72785 21.884 3.61303 21.885 3.49685C21.8861 3.38067 21.8639 3.26545 21.8199 3.15792C21.7759 3.05038 21.7109 2.95269 21.6288 2.87053C21.5466 2.78837 21.4489 2.7234 21.3414 2.67941C21.2339 2.63541 21.1187 2.61327 21.0025 2.61428C20.8863 2.61529 20.7715 2.63943 20.6647 2.68529C20.558 2.73114 20.4614 2.7978 20.3807 2.88138L18.6307 4.63138C18.5471 4.71209 18.4805 4.80864 18.4346 4.9154C18.3888 5.02215 18.3646 5.13697 18.3636 5.25315C18.3626 5.36933 18.3847 5.48455 18.4287 5.59208C18.4727 5.69962 18.5377 5.79731 18.6199 5.87947C18.702 5.96163 18.7997 6.0266 18.9072 6.07059C19.0148 6.11459 19.13 6.13673 19.2462 6.13572C19.3624 6.13471 19.4772 6.11057 19.5839 6.06471C19.6907 6.01886 19.7872 5.9522 19.8679 5.86862Z" fill="white"/>
</svg>
