<svg width="24" height="22" viewBox="0 0 24 22" fill="none" xmlns="http://www.w3.org/2000/svg">
<path d="M20.79 15.481C20.6653 15.4855 20.5427 15.4996 20.4166 15.4996C14.9485 15.4996 10.5 11.0511 10.5 5.58301C10.5 3.66145 11.0589 1.87175 12.0086 0.350508C11.8941 0.345805 11.7822 0.333008 11.6666 0.333008C7.16341 0.333008 3.5 3.9962 3.5 8.4996V11.7523C3.5 14.061 2.4885 16.2405 0.713946 17.7407C0.48983 17.9321 0.309928 18.1698 0.186664 18.4375C0.0634002 18.7052 -0.000287063 18.9965 9.72668e-07 19.2912C9.72668e-07 20.4172 0.915798 21.333 2.04159 21.333H21.2916C22.4176 21.333 23.3334 20.4172 23.3334 19.2912C23.3334 18.6939 23.0732 18.128 22.6077 17.7302C21.8552 17.0933 21.2484 16.3257 20.79 15.481Z" fill="#FFC107"/>
</svg>
