<svg width="24" height="24" viewBox="0 0 24 24" fill="none" xmlns="http://www.w3.org/2000/svg">
<g clip-path="url(#clip0_139_6715)">
<path d="M0.750178 6.74921H1.50035V11.249H0.750178C0.651632 11.2492 0.554014 11.23 0.462926 11.1924C0.371837 11.1548 0.28907 11.0995 0.219372 11.0299C0.149675 10.9602 0.0944185 10.8775 0.0567734 10.7864C0.0191283 10.6953 -0.000164713 10.5977 1.05926e-06 10.4992V7.49908C0.000250806 7.30022 0.0793773 7.10959 0.220018 6.96901C0.360658 6.82843 0.551324 6.74938 0.750178 6.74921ZM23.2498 6.74921H22.499V11.249H23.2498C23.3484 11.2492 23.446 11.2299 23.537 11.1923C23.6281 11.1547 23.7108 11.0994 23.7805 11.0298C23.8502 10.9601 23.9055 10.8774 23.9431 10.7863C23.9808 10.6953 24.0001 10.5977 24 10.4992V7.49908C23.9998 7.3002 23.9207 7.10952 23.7801 6.96892C23.6394 6.82832 23.4487 6.7493 23.2498 6.74921ZM20.9999 5.2498V18.7495C21.0001 18.9466 20.9614 19.1417 20.8861 19.3238C20.8108 19.5058 20.7003 19.6713 20.5609 19.8106C20.4216 19.9499 20.2562 20.0604 20.0741 20.1357C19.8921 20.211 19.6969 20.2497 19.4999 20.2496V21.7496C19.5001 21.9467 19.4614 22.1418 19.3861 22.3239C19.3108 22.506 19.2003 22.6714 19.061 22.8108C18.9217 22.9501 18.7562 23.0606 18.5741 23.1359C18.392 23.2112 18.1969 23.2499 17.9998 23.2496H16.4995C16.3025 23.2497 16.1074 23.2109 15.9254 23.1355C15.7434 23.0602 15.578 22.9497 15.4387 22.8104C15.2994 22.6711 15.1889 22.5057 15.1136 22.3237C15.0382 22.1417 14.9994 21.9466 14.9995 21.7496V20.2496H9.00024V21.7496C9.0004 21.9466 8.96172 22.1418 8.88639 22.3238C8.81107 22.5059 8.70058 22.6713 8.56126 22.8107C8.42193 22.95 8.2565 23.0605 8.07443 23.1358C7.89237 23.2111 7.69723 23.2498 7.5002 23.2496H6.00079C5.80379 23.2497 5.60871 23.2109 5.4267 23.1355C5.24469 23.0602 5.07931 22.9497 4.94001 22.8104C4.80071 22.6711 4.69022 22.5057 4.61485 22.3237C4.53948 22.1417 4.50071 21.9466 4.50075 21.7496V20.2496C4.30375 20.2496 4.10867 20.2108 3.92666 20.1355C3.74465 20.0601 3.57927 19.9496 3.43997 19.8103C3.30067 19.671 3.19018 19.5056 3.11481 19.3236C3.03944 19.1416 3.00067 18.9465 3.00071 18.7495V5.2498C3.00008 2.76535 5.01606 0.75 7.5002 0.75H16.5001C18.9846 0.75 20.9999 2.76473 20.9999 5.2498ZM9.00024 3.75008H15.0001V2.25004H9.00024V3.75008ZM7.5002 17.2501C7.50045 17.0531 7.46184 16.858 7.38658 16.6759C7.31132 16.4939 7.2009 16.3284 7.06162 16.1891C6.92235 16.0498 6.75696 15.9393 6.57493 15.8639C6.3929 15.7886 6.19779 15.7499 6.00079 15.7501C5.80377 15.75 5.60865 15.7887 5.4266 15.864C5.24455 15.9394 5.07914 16.0498 4.93982 16.1892C4.80051 16.3285 4.69002 16.4939 4.61468 16.6759C4.53934 16.858 4.50062 17.0531 4.50075 17.2501C4.50075 17.6479 4.65875 18.0293 4.94001 18.3106C5.22126 18.5918 5.60272 18.7498 6.00047 18.7498C6.39822 18.7498 6.77969 18.5918 7.06094 18.3106C7.34219 18.0293 7.5002 17.6479 7.5002 17.2501ZM19.4999 17.2501C19.4999 16.4198 18.8293 15.7501 17.9998 15.7501C17.1704 15.7501 16.4998 16.4207 16.4998 17.2501C16.4998 17.648 16.6578 18.0295 16.9392 18.3108C17.2205 18.5921 17.602 18.7502 17.9998 18.7502C18.3977 18.7502 18.7792 18.5921 19.0605 18.3108C19.3418 18.0295 19.4999 17.648 19.4999 17.2501ZM19.4999 5.2498H4.50012V14.2497H19.4999V5.2498Z" fill="black"/>
</g>
<defs>
<clipPath id="clip0_139_6715">
<rect width="24" height="24" fill="white"/>
</clipPath>
</defs>
</svg>
