<svg width="70" height="70" viewBox="0 0 70 70" fill="none" xmlns="http://www.w3.org/2000/svg">
<g filter="url(#filter0_f_672_5270)">
<path fill-rule="evenodd" clip-rule="evenodd" d="M10.209 30.0935C10.209 16.6772 21.4203 5.83337 34.9815 5.83337C48.581 5.83337 59.7923 16.6772 59.7923 30.0935C59.7923 36.8541 57.3336 43.1306 53.2867 48.4505C48.8222 54.3186 43.3194 59.4314 37.1256 63.4446C35.708 64.3721 34.4286 64.4421 32.8728 63.4446C26.6436 59.4314 21.1409 54.3186 16.7146 48.4505C12.6648 43.1306 10.209 36.8541 10.209 30.0935ZM26.8172 30.8489C26.8172 35.3433 30.4847 38.8782 34.9815 38.8782C39.4814 38.8782 43.1842 35.3433 43.1842 30.8489C43.1842 26.3894 39.4814 22.6825 34.9815 22.6825C30.4847 22.6825 26.8172 26.3894 26.8172 30.8489Z" fill="#30EC43"/>
<ellipse cx="34.5" cy="32" rx="9.5" ry="10" fill="#30EC43"/>
</g>
<g filter="url(#filter1_i_672_5270)">
<path fill-rule="evenodd" clip-rule="evenodd" d="M13.75 30.7944C13.75 19.2947 23.3597 10 34.9836 10C46.6403 10 56.25 19.2947 56.25 30.7944C56.25 36.5892 54.1425 41.9691 50.6737 46.5289C46.847 51.5588 42.1304 55.9412 36.8214 59.3811C35.6063 60.176 34.5097 60.236 33.1761 59.3811C27.8368 55.9412 23.1202 51.5588 19.3263 46.5289C15.855 41.9691 13.75 36.5892 13.75 30.7944ZM27.9856 31.4419C27.9856 35.2943 31.1291 38.3242 34.9836 38.3242C38.8406 38.3242 42.0144 35.2943 42.0144 31.4419C42.0144 27.6195 38.8406 24.4421 34.9836 24.4421C31.1291 24.4421 27.9856 27.6195 27.9856 31.4419Z" fill="#3AA7CE"/>
<ellipse cx="34.5" cy="32" rx="9.5" ry="10" fill="#3AA7CE"/>
</g>
<g clip-path="url(#clip0_672_5270)">
<path d="M21.8752 28.8743H22.7504V34.1241H21.8752C21.7602 34.1243 21.6463 34.1019 21.5401 34.058C21.4338 34.0141 21.3372 33.9497 21.2559 33.8684C21.1746 33.7871 21.1102 33.6906 21.0662 33.5844C21.0223 33.4781 20.9998 33.3642 21 33.2493V29.7492C21.0003 29.5172 21.0926 29.2948 21.2567 29.1308C21.4208 28.9667 21.6432 28.8745 21.8752 28.8743ZM48.1248 28.8743H47.2489V34.1241H48.1248C48.2398 34.1243 48.3536 34.1018 48.4599 34.0579C48.5661 34.014 48.6627 33.9496 48.744 33.8683C48.8253 33.787 48.8897 33.6905 48.9337 33.5843C48.9776 33.4781 49.0001 33.3642 49 33.2493V29.7492C48.9998 29.5171 48.9075 29.2947 48.7434 29.1306C48.5793 28.9666 48.3568 28.8744 48.1248 28.8743ZM45.4999 27.125V42.8747C45.5001 43.1046 45.455 43.3322 45.3671 43.5446C45.2792 43.757 45.1503 43.95 44.9878 44.1126C44.8252 44.2751 44.6322 44.404 44.4198 44.4919C44.2074 44.5798 43.9797 44.6249 43.7499 44.6247V46.3748C43.7501 46.6047 43.705 46.8324 43.6171 47.0448C43.5293 47.2572 43.4004 47.4502 43.2378 47.6128C43.0753 47.7753 42.8823 47.9042 42.6698 47.9921C42.4574 48.08 42.2297 48.1251 41.9998 48.1248H40.2494C40.0196 48.1249 39.792 48.0796 39.5796 47.9917C39.3673 47.9038 39.1743 47.7749 39.0118 47.6124C38.8493 47.4498 38.7204 47.2569 38.6325 47.0446C38.5445 46.8322 38.4993 46.6046 38.4994 46.3748V44.6247H31.5003V46.3748C31.5005 46.6047 31.4553 46.8323 31.3675 47.0447C31.2796 47.2571 31.1507 47.4501 30.9881 47.6127C30.8256 47.7752 30.6326 47.9041 30.4202 47.992C30.2078 48.0799 29.9801 48.125 29.7502 48.1248H28.0009C27.7711 48.1249 27.5435 48.0796 27.3311 47.9917C27.1188 47.9038 26.9259 47.7749 26.7633 47.6124C26.6008 47.4498 26.4719 47.2569 26.384 47.0446C26.2961 46.8322 26.2508 46.6046 26.2509 46.3748V44.6247C26.021 44.6248 25.7934 44.5796 25.5811 44.4916C25.3688 44.4037 25.1758 44.2748 25.0133 44.1123C24.8508 43.9498 24.7219 43.7568 24.6339 43.5445C24.546 43.3321 24.5008 43.1045 24.5008 42.8747V27.125C24.5001 24.2265 26.8521 21.8752 29.7502 21.8752H40.2501C43.1487 21.8752 45.4999 24.2258 45.4999 27.125ZM31.5003 25.3753H38.5001V23.6253H31.5003V25.3753ZM29.7502 41.1254C29.7505 40.8955 29.7055 40.6679 29.6177 40.4555C29.5299 40.2431 29.401 40.0501 29.2386 39.8875C29.0761 39.725 28.8831 39.5961 28.6707 39.5082C28.4584 39.4203 28.2308 39.3751 28.0009 39.3753C27.7711 39.3752 27.5434 39.4204 27.331 39.5083C27.1186 39.5962 26.9257 39.7251 26.7631 39.8876C26.6006 40.0501 26.4717 40.2431 26.3838 40.4555C26.2959 40.6679 26.2507 40.8955 26.2509 41.1254C26.2509 41.5894 26.4352 42.0345 26.7633 42.3626C27.0915 42.6907 27.5365 42.8751 28.0006 42.8751C28.4646 42.8751 28.9096 42.6907 29.2378 42.3626C29.5659 42.0345 29.7502 41.5894 29.7502 41.1254ZM43.7499 41.1254C43.7499 40.1566 42.9675 39.3753 41.9998 39.3753C41.0322 39.3753 40.2498 40.1577 40.2498 41.1254C40.2498 41.5895 40.4342 42.0347 40.7624 42.3629C41.0905 42.691 41.5357 42.8754 41.9998 42.8754C42.464 42.8754 42.9091 42.691 43.2373 42.3629C43.5655 42.0347 43.7499 41.5895 43.7499 41.1254ZM43.7499 27.125H26.2501V37.6249H43.7499V27.125Z" fill="white"/>
</g>
<defs>
<filter id="filter0_f_672_5270" x="-4" y="-4" width="78" height="78" filterUnits="userSpaceOnUse" color-interpolation-filters="sRGB">
<feFlood flood-opacity="0" result="BackgroundImageFix"/>
<feBlend mode="normal" in="SourceGraphic" in2="BackgroundImageFix" result="shape"/>
<feGaussianBlur stdDeviation="2" result="effect1_foregroundBlur_672_5270"/>
</filter>
<filter id="filter1_i_672_5270" x="5" y="5" width="60" height="64" filterUnits="userSpaceOnUse" color-interpolation-filters="sRGB">
<feFlood flood-opacity="0" result="BackgroundImageFix"/>
<feBlend mode="normal" in="SourceGraphic" in2="BackgroundImageFix" result="shape"/>
<feColorMatrix in="SourceAlpha" type="matrix" values="0 0 0 0 0 0 0 0 0 0 0 0 0 0 0 0 0 0 127 0" result="hardAlpha"/>
<feOffset dy="4"/>
<feGaussianBlur stdDeviation="2"/>
<feComposite in2="hardAlpha" operator="arithmetic" k2="-1" k3="1"/>
<feColorMatrix type="matrix" values="0 0 0 0 0 0 0 0 0 0 0 0 0 0 0 0 0 0 0.25 0"/>
<feBlend mode="normal" in2="shape" result="effect1_innerShadow_672_5270"/>
</filter>
<clipPath id="clip0_672_5270">
<rect width="28" height="28" fill="white" transform="translate(21 21)"/>
</clipPath>
</defs>
</svg>
