<svg width="28" height="28" viewBox="0 0 28 28" fill="none" xmlns="http://www.w3.org/2000/svg">
<g clip-path="url(#clip0_220_1319)">
<path d="M24.8645 12.0239L22.8813 6.55237C22.8018 6.33362 22.657 6.14463 22.4664 6.01108C22.2758 5.87753 22.0487 5.80589 21.816 5.80591H1.1333C0.506206 5.80591 0 6.31287 0 6.93921V18.2722C0 18.8978 0.506206 19.4055 1.1333 19.4055H2.26055C2.62472 20.9989 4.04814 22.1941 5.75111 22.1941C6.56275 22.1927 7.34994 21.9162 7.98417 21.4097C8.6184 20.9032 9.06222 20.1967 9.24317 19.4055H18.7553C18.9358 20.1965 19.3792 20.903 20.013 21.4095C20.6469 21.916 21.4338 22.1926 22.2451 22.1941C23.9496 22.1941 25.3723 20.9989 25.7379 19.4055H26.8659C27.1665 19.4055 27.4548 19.2861 27.6673 19.0735C27.8798 18.861 27.9992 18.5727 27.9992 18.2722V16.1945C28.0015 14.218 26.6733 12.549 24.8645 12.0239ZM2.26659 11.8502V8.0725H5.24188V11.8502H2.26659ZM5.75262 19.9283C5.40235 19.9283 5.06644 19.7892 4.81876 19.5415C4.57109 19.2938 4.43195 18.9579 4.43195 18.6076C4.43195 18.2573 4.57113 17.9213 4.81887 17.6735C5.06662 17.4258 5.40263 17.2866 5.753 17.2866C6.10336 17.2866 6.43937 17.4258 6.68712 17.6735C6.93486 17.9213 7.07404 18.2573 7.07404 18.6076C7.07404 19.3367 6.48246 19.9283 5.75262 19.9283ZM10.7187 11.8502H7.50772V8.0725H10.7187V11.8502ZM16.1971 11.8502H12.9861V8.0725H16.1971V11.8502ZM18.4637 11.8502V8.0725H21.0219L22.3909 11.8502H18.4637ZM22.2481 19.9283C21.8977 19.9285 21.5615 19.7895 21.3135 19.5418C21.0656 19.2941 20.9262 18.9581 20.926 18.6076C20.9258 18.2572 21.0648 17.921 21.3125 17.673C21.5601 17.4251 21.8962 17.2857 22.2466 17.2855C22.5971 17.2853 22.9333 17.4243 23.1812 17.672C23.4292 17.9196 23.5686 18.2557 23.5688 18.6061C23.569 18.9566 23.43 19.2928 23.1823 19.5407C22.9346 19.7887 22.5986 19.9281 22.2481 19.9283Z" fill="white"/>
</g>
<defs>
<clipPath id="clip0_220_1319">
<rect width="28" height="28" fill="white"/>
</clipPath>
</defs>
</svg>
