<svg width="24" height="24" viewBox="0 0 24 24" fill="none" xmlns="http://www.w3.org/2000/svg">
<g clip-path="url(#clip0_215_5748)">
<path d="M0.750178 6.74946H1.50035V11.2493H0.750178C0.651632 11.2495 0.554014 11.2302 0.462926 11.1926C0.371837 11.155 0.28907 11.0998 0.219372 11.0301C0.149675 10.9604 0.0944185 10.8777 0.0567734 10.7866C0.0191283 10.6956 -0.000164713 10.5979 1.05926e-06 10.4994V7.49932C0.000250806 7.30047 0.0793773 7.10983 0.220018 6.96925C0.360658 6.82867 0.551324 6.74962 0.750178 6.74946ZM23.2498 6.74946H22.499V11.2493H23.2498C23.3484 11.2494 23.446 11.2301 23.537 11.1925C23.6281 11.1549 23.7108 11.0997 23.7805 11.03C23.8502 10.9604 23.9055 10.8776 23.9431 10.7866C23.9808 10.6955 24.0001 10.5979 24 10.4994V7.49932C23.9998 7.30044 23.9207 7.10976 23.7801 6.96916C23.6394 6.82856 23.4487 6.74954 23.2498 6.74946ZM20.9999 5.25005V18.7498C21.0001 18.9468 20.9614 19.1419 20.8861 19.324C20.8108 19.5061 20.7003 19.6715 20.5609 19.8108C20.4216 19.9502 20.2562 20.0606 20.0741 20.136C19.8921 20.2113 19.6969 20.25 19.4999 20.2498V21.7499C19.5001 21.9469 19.4614 22.1421 19.3861 22.3241C19.3108 22.5062 19.2003 22.6717 19.061 22.811C18.9217 22.9503 18.7562 23.0608 18.5741 23.1361C18.392 23.2114 18.1969 23.2501 17.9998 23.2499H16.4995C16.3025 23.2499 16.1074 23.2112 15.9254 23.1358C15.7434 23.0604 15.578 22.9499 15.4387 22.8106C15.2994 22.6713 15.1889 22.506 15.1136 22.3239C15.0382 22.1419 14.9994 21.9469 14.9995 21.7499V20.2498H9.00024V21.7499C9.0004 21.9469 8.96172 22.142 8.88639 22.3241C8.81107 22.5062 8.70058 22.6716 8.56126 22.8109C8.42193 22.9502 8.2565 23.0607 8.07443 23.136C7.89237 23.2114 7.69723 23.2501 7.5002 23.2499H6.00079C5.80379 23.2499 5.60871 23.2112 5.4267 23.1358C5.24469 23.0604 5.07931 22.9499 4.94001 22.8106C4.80071 22.6713 4.69022 22.506 4.61485 22.3239C4.53948 22.1419 4.50071 21.9469 4.50075 21.7499V20.2498C4.30375 20.2499 4.10867 20.2111 3.92666 20.1357C3.74465 20.0603 3.57927 19.9499 3.43997 19.8106C3.30067 19.6713 3.19018 19.5059 3.11481 19.3239C3.03944 19.1419 3.00067 18.9468 3.00071 18.7498V5.25005C3.00008 2.7656 5.01606 0.750244 7.5002 0.750244H16.5001C18.9846 0.750244 20.9999 2.76497 20.9999 5.25005ZM9.00024 3.75032H15.0001V2.25028H9.00024V3.75032ZM7.5002 17.2504C7.50045 17.0534 7.46184 16.8582 7.38658 16.6762C7.31132 16.4941 7.2009 16.3287 7.06162 16.1893C6.92235 16.05 6.75696 15.9395 6.57493 15.8642C6.3929 15.7888 6.19779 15.7502 6.00079 15.7503C5.80377 15.7502 5.60865 15.7889 5.4266 15.8643C5.24455 15.9396 5.07914 16.0501 4.93982 16.1894C4.80051 16.3287 4.69002 16.4941 4.61468 16.6762C4.53934 16.8582 4.50062 17.0533 4.50075 17.2504C4.50075 17.6481 4.65875 18.0296 4.94001 18.3108C5.22126 18.5921 5.60272 18.7501 6.00047 18.7501C6.39822 18.7501 6.77969 18.5921 7.06094 18.3108C7.34219 18.0296 7.5002 17.6481 7.5002 17.2504ZM19.4999 17.2504C19.4999 16.42 18.8293 15.7503 17.9998 15.7503C17.1704 15.7503 16.4998 16.421 16.4998 17.2504C16.4998 17.6482 16.6578 18.0297 16.9392 18.3111C17.2205 18.5924 17.602 18.7504 17.9998 18.7504C18.3977 18.7504 18.7792 18.5924 19.0605 18.3111C19.3418 18.0297 19.4999 17.6482 19.4999 17.2504ZM19.4999 5.25005H4.50012V14.25H19.4999V5.25005Z" fill="white"/>
</g>
<defs>
<clipPath id="clip0_215_5748">
<rect width="24" height="24" fill="white"/>
</clipPath>
</defs>
</svg>
