<svg width="48" height="48" viewBox="0 0 48 48" fill="none" xmlns="http://www.w3.org/2000/svg">
<g clip-path="url(#clip0_830_15867)">
<path d="M46.5938 12.0498H1.40625C0.629531 12.0498 0 12.6797 0 13.4561V42.828C0 45.6801 2.31994 48 5.172 48H42.828C45.6801 48 48 45.6801 48 42.828V13.4561C48 12.6797 47.3705 12.0498 46.5938 12.0498Z" fill="#FEF4F5"/>
<path d="M46.5938 12.0498H24V48H42.828C45.6801 48 48 45.6801 48 42.828V13.4561C48 12.6797 47.3705 12.0498 46.5938 12.0498Z" fill="#D5EDED"/>
<path d="M42.828 3.0123H5.172C2.31994 3.0123 0 5.33261 0 8.18421V13.4558C0 14.2325 0.629531 14.862 1.40625 14.862H46.5938C47.3705 14.862 48 14.2325 48 13.4558V8.18421C48 5.33252 45.6801 3.0123 42.828 3.0123Z" fill="#3AA7CE"/>
<path d="M42.828 3.0123H24V14.862H46.5938C47.3705 14.862 48 14.2325 48 13.4558V8.18421C48 5.33252 45.6801 3.0123 42.828 3.0123Z" fill="#3AA7CE"/>
<path d="M19.481 36.7036C19.1083 36.7026 18.751 36.5542 18.4871 36.2909C18.2238 36.0272 18.0756 35.67 18.0748 35.2974C18.0748 34.9268 18.2249 34.5642 18.4871 34.3024C18.7487 34.0408 19.1108 33.8911 19.481 33.8911C19.8513 33.8911 20.2142 34.0409 20.4757 34.3024C20.7384 34.567 20.8863 34.9245 20.8873 35.2974C20.8873 35.6677 20.7371 36.0294 20.4757 36.2909C20.2116 36.5544 19.8541 36.7027 19.481 36.7036ZM10.4434 36.7036C10.073 36.7036 9.71117 36.5534 9.4498 36.2909C9.18823 36.0294 9.03711 35.6676 9.03711 35.2974C9.03711 34.9268 9.18833 34.5642 9.4498 34.3024C9.7139 34.0398 10.0709 33.892 10.4434 33.8911C10.8162 33.892 11.1737 34.0398 11.4383 34.3024C11.7009 34.5671 11.8487 34.9245 11.8496 35.2974C11.8496 35.6677 11.6998 36.0294 11.4383 36.2909C11.1741 36.5544 10.8165 36.7027 10.4434 36.7036Z" fill="#525252"/>
<path d="M28.5176 24.6536C28.1474 24.6536 27.7856 24.5026 27.5229 24.2408C27.2602 23.9765 27.1124 23.6192 27.1113 23.2466C27.1123 22.874 27.2602 22.5168 27.5229 22.2526C27.7856 21.9908 28.1474 21.8403 28.5176 21.8403C28.8879 21.8403 29.2507 21.9908 29.5123 22.2526C29.775 22.5169 29.9228 22.874 29.9238 23.2466C29.9238 23.6169 29.7741 23.9793 29.5123 24.2408C29.2507 24.5024 28.8882 24.6536 28.5176 24.6536ZM37.5554 24.6536C37.1858 24.6536 36.8229 24.5026 36.5614 24.2408C36.2981 23.9768 36.1499 23.6194 36.1491 23.2466C36.1491 22.877 36.2988 22.5141 36.5614 22.2526C36.8255 21.9897 37.1827 21.8416 37.5554 21.8403C37.9256 21.8403 38.2881 21.9908 38.55 22.2526C38.8127 22.5168 38.9606 22.874 38.9615 23.2466C38.9615 23.6169 38.8115 23.9793 38.55 24.2408C38.2881 24.5024 37.9256 24.6536 37.5553 24.6536H37.5554Z" fill="#1D1D1D"/>
<path d="M19.4819 24.6536C19.1091 24.6523 18.7519 24.504 18.4879 24.2408C18.2246 23.9768 18.0764 23.6194 18.0756 23.2466C18.0756 22.876 18.2257 22.5141 18.4879 22.2526C18.7495 21.9908 19.1117 21.8403 19.4819 21.8403C19.8521 21.8403 20.215 21.9908 20.4766 22.2526C20.7391 22.5169 20.887 22.874 20.8881 23.2466C20.8881 23.6169 20.7379 23.9793 20.4766 24.2408C20.215 24.5024 19.8522 24.6536 19.4819 24.6536ZM10.4442 24.6536C10.075 24.6536 9.712 24.5026 9.45062 24.2408C9.18797 23.9765 9.04009 23.6192 9.03906 23.2466C9.03906 22.876 9.18878 22.5141 9.45062 22.2526C9.71461 21.9898 10.0716 21.8416 10.4442 21.8403C10.8148 21.8403 11.1773 21.9908 11.4392 22.2526C11.7016 22.517 11.8494 22.8741 11.8504 23.2466C11.8504 23.6169 11.7006 23.9793 11.4392 24.2408C11.1773 24.5024 10.8148 24.6536 10.4442 24.6536Z" fill="#525252"/>
<path d="M28.5195 7.33125C27.7427 7.33125 27.1133 6.70162 27.1133 5.925V1.40625C27.1133 0.629531 27.7427 0 28.5195 0C29.2962 0 29.9258 0.629531 29.9258 1.40625V5.925C29.9258 6.70162 29.2962 7.33125 28.5195 7.33125Z" fill="#565555"/>
<path d="M19.481 7.33125C18.7044 7.33125 18.0748 6.70162 18.0748 5.925V1.40625C18.0748 0.629531 18.7044 0 19.481 0C20.2579 0 20.8873 0.629531 20.8873 1.40625V5.925C20.8873 6.70162 20.2579 7.33125 19.481 7.33125ZM10.4434 7.33125C9.66711 7.33125 9.03711 6.70162 9.03711 5.925V1.40625C9.03711 0.629531 9.66711 0 10.4434 0C11.2202 0 11.8496 0.629531 11.8496 1.40625V5.925C11.8496 6.70162 11.2202 7.33125 10.4434 7.33125Z" fill="#707070"/>
<path d="M37.5566 7.33125C36.7798 7.33125 36.1504 6.70162 36.1504 5.925V1.40625C36.1504 0.629531 36.7798 0 37.5566 0C38.3329 0 38.9629 0.629531 38.9629 1.40625V5.925C38.9629 6.70162 38.3329 7.33125 37.5566 7.33125Z" fill="#565555"/>
<path d="M38.5512 38.0682L35.7798 35.297L38.5512 32.5255C39.1001 31.9766 39.1001 31.0863 38.5512 30.537C38.0018 29.9877 37.1117 29.9877 36.5623 30.537L33.7912 33.3081L31.0197 30.537C30.4708 29.988 29.5802 29.988 29.0313 30.537C28.4819 31.0863 28.4819 31.9766 29.0313 32.5258L31.8023 35.297L29.0312 38.0685C28.4818 38.6174 28.4818 39.5077 29.0312 40.057C29.3059 40.3317 29.6655 40.469 30.0255 40.469C30.3855 40.469 30.745 40.3317 31.0197 40.057L33.7912 37.2859L36.5623 40.057C36.6927 40.1878 36.8477 40.2915 37.0183 40.3622C37.189 40.4329 37.3719 40.4692 37.5566 40.469C37.9166 40.469 38.2766 40.3317 38.5508 40.057C39.1002 39.5077 39.1002 38.6174 38.5512 38.0682Z" fill="#F06030"/>
</g>
<defs>
<clipPath id="clip0_830_15867">
<rect width="48" height="48" fill="white"/>
</clipPath>
</defs>
</svg>
