<svg width="20" height="20" viewBox="0 0 20 20" fill="none" xmlns="http://www.w3.org/2000/svg">
<path d="M17.4993 4.16667H2.49935C2.02713 4.16667 1.66602 3.80556 1.66602 3.33333C1.66602 2.86111 2.02713 2.5 2.49935 2.5H17.4993C17.9716 2.5 18.3327 2.86111 18.3327 3.33333C18.3327 3.80556 17.9716 4.16667 17.4993 4.16667ZM14.9993 8.61111H4.99935C4.52713 8.61111 4.16602 8.25 4.16602 7.77778C4.16602 7.30556 4.52713 6.94444 4.99935 6.94444H14.9993C15.4716 6.94444 15.8327 7.30556 15.8327 7.77778C15.8327 8.25 15.4716 8.61111 14.9993 8.61111ZM17.4993 13.0556H2.49935C2.02713 13.0556 1.66602 12.6944 1.66602 12.2222C1.66602 11.75 2.02713 11.3889 2.49935 11.3889H17.4993C17.9716 11.3889 18.3327 11.75 18.3327 12.2222C18.3327 12.6944 17.9716 13.0556 17.4993 13.0556ZM14.9993 17.5H4.99935C4.52713 17.5 4.16602 17.1389 4.16602 16.6667C4.16602 16.1944 4.52713 15.8333 4.99935 15.8333H14.9993C15.4716 15.8333 15.8327 16.1944 15.8327 16.6667C15.8327 17.1389 15.4716 17.5 14.9993 17.5Z" fill="#575757"/>
</svg>
