<svg width="73" height="73" viewBox="0 0 73 73" fill="none" xmlns="http://www.w3.org/2000/svg">
<g clip-path="url(#clip0_315_5038)">
<path d="M36.5 73C56.6584 73 73 56.6584 73 36.5C73 16.3416 56.6584 0 36.5 0C16.3416 0 0 16.3416 0 36.5C0 56.6584 16.3416 73 36.5 73Z" fill="#3AA7CE"/>
<path d="M72.9992 36.4998C72.9992 36.3102 72.9949 36.1217 72.9921 35.9328L47.343 10.2838C47.343 10.2838 28.5148 3.42167 26.3762 20.3885C24.2375 37.3553 19.1797 60.8769 19.1797 60.8769L30.918 72.5753C32.7649 72.8584 34.6307 73.0003 36.4992 72.9998C56.6576 72.9998 72.9992 56.6582 72.9992 36.4998Z" fill="#0083B1"/>
<path d="M51.07 30.3714H45.2801V20.0028C45.2801 15.162 41.3418 11.2237 36.5008 11.2237C31.6599 11.2237 27.7216 15.162 27.7216 20.0028V30.3714H21.9316V20.0028C21.9316 11.9694 28.4674 5.43359 36.5008 5.43359C44.5343 5.43359 51.07 11.9692 51.07 20.0028V30.3714Z" fill="#F5F5F5"/>
<path d="M51.0686 20.0022V30.3719H45.2785V20.0022C45.2785 15.1617 41.3405 11.2237 36.5 11.2237V5.43359C44.5329 5.43359 51.0686 11.9694 51.0686 20.0022Z" fill="#DEDEDE"/>
<path d="M47.109 63.5898H25.8899C20.5573 63.5898 16.2344 59.2668 16.2344 53.9342V29.7568H56.7645V53.9342C56.7645 59.2668 52.4415 63.5898 47.109 63.5898Z" fill="#FFC136"/>
<path d="M56.7646 29.7573V53.9343C56.7646 59.2667 52.4417 63.5897 47.1092 63.5897H36.5V29.7573H56.7646Z" fill="#F4A300"/>
<path d="M41.8381 42.795C41.8381 39.8464 39.4478 37.4561 36.4991 37.4561C33.5505 37.4561 31.1602 39.8464 31.1602 42.795C31.1602 44.7897 32.2547 46.5276 33.8751 47.4442V56.2741H39.123V47.4442C40.7435 46.5276 41.8381 44.7896 41.8381 42.795Z" fill="#8C8C8C"/>
<path d="M41.8396 42.7947C41.8396 44.7893 40.7445 46.5274 39.1234 47.4441V56.274H36.5V37.4565C39.4485 37.4565 41.8396 39.8462 41.8396 42.7947Z" fill="#4E4E4E"/>
</g>
<defs>
<clipPath id="clip0_315_5038">
<rect width="73" height="73" fill="white"/>
</clipPath>
</defs>
</svg>
