<svg width="18" height="15" viewBox="0 0 18 15" fill="none" xmlns="http://www.w3.org/2000/svg">
<path fill-rule="evenodd" clip-rule="evenodd" d="M16.9168 0.12594C17.0823 0.236278 17.1972 0.407831 17.2362 0.602865C17.2752 0.7979 17.2351 1.00044 17.1248 1.16594L8.12482 14.6659C8.06324 14.7582 7.98197 14.8356 7.88685 14.8927C7.79174 14.9497 7.68516 14.985 7.57479 14.9959C7.46441 15.0068 7.35299 14.9931 7.24856 14.9557C7.14412 14.9184 7.04926 14.8584 6.97082 14.7799L0.970823 8.77994C0.838343 8.63776 0.76622 8.44972 0.769648 8.25542C0.773076 8.06112 0.851788 7.87573 0.989201 7.73832C1.12661 7.60091 1.312 7.52219 1.5063 7.51876C1.7006 7.51534 1.88865 7.58746 2.03082 7.71994L7.38382 13.0729L15.8768 0.33394C15.9872 0.168455 16.1587 0.0535744 16.3537 0.0145675C16.5488 -0.0244393 16.7513 0.015622 16.9168 0.12594Z" fill="#3AA7CE"/>
</svg>
