<svg width="24" height="24" viewBox="0 0 24 24" fill="none" xmlns="http://www.w3.org/2000/svg">
<path d="M21.3372 7.31252H17.0485V3.65189C17.0504 3.56685 17.0347 3.4823 17.0023 3.40319C16.9699 3.32409 16.9215 3.25202 16.8599 3.19121C16.7982 3.13051 16.7245 3.08234 16.6433 3.04951C16.562 3.01669 16.4748 2.99987 16.3867 3.00005H8.24439C8.06137 2.99789 7.88472 3.06481 7.75205 3.18657C7.61938 3.30832 7.54118 3.47528 7.53411 3.65189V9.46875H5.03493C4.65941 9.46875 4.33029 9.73387 4.33029 10.0969V12H2.66275C2.48223 12.0047 2.31105 12.0785 2.18682 12.2051C2.0626 12.3316 1.99549 12.5007 2.00024 12.675V20.3484C1.99857 20.4335 2.01446 20.5179 2.04696 20.597C2.07946 20.676 2.12794 20.748 2.18955 20.8088C2.25132 20.8694 2.32497 20.9175 2.40622 20.9504C2.48747 20.9832 2.57467 21.0001 2.66275 21H21.3373C21.4255 21.0002 21.5128 20.9833 21.594 20.9504C21.6753 20.9175 21.749 20.8692 21.8106 20.8084C21.8724 20.7477 21.921 20.6756 21.9535 20.5965C21.986 20.5174 22.0017 20.4328 21.9998 20.3477V7.94242C22.0013 7.85847 21.9851 7.77511 21.9522 7.6974C21.9193 7.61969 21.8704 7.54924 21.8084 7.49033C21.7465 7.43143 21.6728 7.38529 21.5918 7.35473C21.5108 7.32416 21.4241 7.3098 21.3372 7.31252ZM15.6893 4.31254V19.6874H8.89331V10.1847C8.89331 10.1557 8.9001 10.1265 8.9001 10.0965C8.9001 10.0665 8.89331 10.0374 8.89331 10.0086V4.31254H15.6893ZM3.35943 13.3125H5.03493C5.12182 13.314 5.20813 13.2986 5.28865 13.267C5.36918 13.2355 5.44224 13.1885 5.50342 13.1289C5.56461 13.0693 5.61264 12.9984 5.64462 12.9204C5.6766 12.8423 5.69186 12.7589 5.68948 12.675V10.7812H7.53411V19.6874H3.35943V13.3125ZM20.6406 19.6874H17.0485V8.62501H20.6406V19.6874Z" fill="#8C8C8C"/>
<path d="M18.5377 15.5831H19.3351C19.5125 15.5796 19.6816 15.4945 19.8059 15.3462C19.9303 15.1979 20 14.9983 20 14.7903C20 14.5823 19.9303 14.3827 19.8059 14.2344C19.6816 14.0861 19.5125 14.001 19.3351 13.9975H18.5377C18.3604 14.001 18.1913 14.0861 18.0669 14.2344C17.9425 14.3827 17.8728 14.5823 17.8728 14.7903C17.8728 14.9983 17.9425 15.1979 18.0669 15.3462C18.1913 15.4945 18.3604 15.5796 18.5377 15.5831ZM18.5377 17.8482H19.3351C19.5125 17.8446 19.6816 17.7596 19.8059 17.6113C19.9303 17.463 20 17.2633 20 17.0554C20 16.8474 19.9303 16.6478 19.8059 16.4995C19.6816 16.3512 19.5125 16.2661 19.3351 16.2626H18.5377C18.3604 16.2661 18.1913 16.3512 18.0669 16.4995C17.9425 16.6478 17.8728 16.8474 17.8728 17.0554C17.8728 17.2633 17.9425 17.463 18.0669 17.6113C18.1913 17.7596 18.3604 17.8446 18.5377 17.8482ZM19.3351 18.4144H18.5377C18.3604 18.418 18.1913 18.503 18.0669 18.6513C17.9425 18.7996 17.8728 18.9993 17.8728 19.2072C17.8728 19.4152 17.9425 19.6148 18.0669 19.7631C18.1913 19.9114 18.3604 19.9965 18.5377 20H19.3351C19.5125 19.9965 19.6816 19.9114 19.8059 19.7631C19.9303 19.6148 20 19.4152 20 19.2072C20 18.9993 19.9303 18.7996 19.8059 18.6513C19.6816 18.503 19.5125 18.418 19.3351 18.4144ZM14.4438 11.8165C14.8173 11.8165 15.12 11.4617 15.12 11.0237V9.58817C15.12 9.1501 14.8173 8.79539 14.4438 8.79539C14.0702 8.79539 13.7675 9.1501 13.7675 9.58817V11.0237C13.7675 11.4617 14.0702 11.8165 14.4438 11.8165ZM12.5117 11.8165C12.8853 11.8165 13.1879 11.4617 13.1879 11.0237V9.58817C13.1879 9.1501 12.8853 8.79539 12.5117 8.79539C12.1381 8.79539 11.8355 9.1501 11.8355 9.58817V11.0237C11.8355 11.4617 12.1381 11.8165 12.5117 11.8165ZM10.6762 11.8165C11.0498 11.8165 11.3525 11.4617 11.3525 11.0237V9.58817C11.3525 9.1501 11.0498 8.79539 10.6762 8.79539C10.3027 8.79539 10 9.1501 10 9.58817V11.0237C10 11.4617 10.3027 11.8165 10.6762 11.8165ZM18.5377 11.0529H19.3351C19.5125 11.0494 19.6816 10.9643 19.8059 10.816C19.9303 10.6677 20 10.4681 20 10.2601C20 10.0521 19.9303 9.8525 19.8059 9.7042C19.6816 9.55591 19.5125 9.47084 19.3351 9.46733H18.5377C18.3604 9.47084 18.1913 9.55591 18.0669 9.7042C17.9425 9.8525 17.8728 10.0521 17.8728 10.2601C17.8728 10.4681 17.9425 10.6677 18.0669 10.816C18.1913 10.9643 18.3604 11.0494 18.5377 11.0529ZM18.5377 13.318H19.3351C19.5125 13.3145 19.6816 13.2294 19.8059 13.0811C19.9303 12.9328 20 12.7332 20 12.5252C20 12.3172 19.9303 12.1176 19.8059 11.9693C19.6816 11.821 19.5125 11.7359 19.3351 11.7324H18.5377C18.3604 11.7359 18.1913 11.821 18.0669 11.9693C17.9425 12.1176 17.8728 12.3172 17.8728 12.5252C17.8728 12.7332 17.9425 12.9328 18.0669 13.0811C18.1913 13.2294 18.3604 13.3145 18.5377 13.318ZM14.4438 8.02118C14.8173 8.02118 15.12 7.66635 15.12 7.2284V5.79278C15.12 5.35483 14.8173 5 14.4438 5C14.0702 5 13.7675 5.35483 13.7675 5.79278V7.2284C13.7675 7.66635 14.0702 8.02118 14.4438 8.02118ZM12.5117 8.02118C12.8853 8.02118 13.1879 7.66635 13.1879 7.2284V5.79278C13.1879 5.35483 12.8853 5 12.5117 5C12.1381 5 11.8355 5.35483 11.8355 5.79278V7.2284C11.8355 7.66635 12.1381 8.02118 12.5117 8.02118ZM10.6762 8.02118C11.0498 8.02118 11.3525 7.66635 11.3525 7.2284V5.79278C11.3525 5.35483 11.0498 5 10.6762 5C10.3027 5 10 5.35483 10 5.79278V7.2284C10 7.66635 10.3027 8.02118 10.6762 8.02118ZM14.4438 15.6118C14.8173 15.6118 15.12 15.257 15.12 14.8191V13.3836C15.12 12.9456 14.8173 12.5908 14.4438 12.5908C14.0702 12.5908 13.7675 12.9456 13.7675 13.3836V14.8192C13.7675 15.2571 14.0702 15.6118 14.4438 15.6118ZM12.5117 15.6118C12.8853 15.6118 13.1879 15.257 13.1879 14.8191V13.3836C13.1879 12.9456 12.8853 12.5908 12.5117 12.5908C12.1381 12.5908 11.8355 12.9456 11.8355 13.3836V14.8192C11.8355 15.2571 12.1381 15.6118 12.5117 15.6118ZM10.6762 15.6118C11.0498 15.6118 11.3525 15.257 11.3525 14.8191V13.3836C11.3525 12.9456 11.0498 12.5908 10.6762 12.5908C10.3027 12.5908 10 12.9456 10 13.3836V14.8192C10 15.2571 10.3027 15.6118 10.6762 15.6118ZM14.4438 19.4076C14.8173 19.4076 15.12 19.0524 15.12 18.6148V17.1788C15.117 16.9709 15.0444 16.7727 14.9179 16.6268C14.7915 16.481 14.6212 16.3993 14.4438 16.3993C14.2664 16.3993 14.0961 16.481 13.9696 16.6268C13.8431 16.7727 13.7705 16.9709 13.7675 17.1788V18.6149C13.7675 19.0524 14.0702 19.4076 14.4438 19.4076ZM12.5117 19.4076C12.8853 19.4076 13.1879 19.0524 13.1879 18.6148V17.1788C13.1849 16.9709 13.1124 16.7727 12.9859 16.6268C12.8594 16.481 12.6891 16.3993 12.5117 16.3993C12.3343 16.3993 12.164 16.481 12.0375 16.6268C11.911 16.7727 11.8385 16.9709 11.8355 17.1788V18.6149C11.8355 19.0524 12.1381 19.4076 12.5117 19.4076ZM10.6762 19.4076C11.0498 19.4076 11.3525 19.0524 11.3525 18.6148V17.1788C11.3495 16.9709 11.2769 16.7727 11.1504 16.6268C11.0239 16.481 10.8536 16.3993 10.6762 16.3993C10.4988 16.3993 10.3285 16.481 10.2021 16.6268C10.0756 16.7727 10.003 16.9709 10 17.1788V18.6149C10 19.0524 10.3027 19.4076 10.6762 19.4076Z" fill="#8C8C8C"/>
</svg>
