<svg width="70" height="70" viewBox="0 0 70 70" fill="none" xmlns="http://www.w3.org/2000/svg">
<circle cx="35" cy="35" r="35" fill="#3AA7CE"/>
<path d="M69.9634 35.5003C69.9634 54.8303 54.2947 70 34.9647 70C15.6347 70 34.9641 54.8303 34.9641 35.5003C34.9641 16.1703 15.6342 0 34.9641 0C54.2941 0 69.9634 16.1703 69.9634 35.5003Z" fill="#6FC9EA"/>
<g clip-path="url(#clip0_45_16266)">
<path d="M49.2308 44.3393L25.7198 20.8281C24.6944 19.8027 23.0319 19.8027 22.0081 20.8281L20.769 22.0653C19.7437 23.091 19.7437 24.7534 20.769 25.7772L44.2801 49.2883C45.3058 50.3137 46.9682 50.3137 47.992 49.2883L49.2292 48.0511C50.2565 47.0274 50.2565 45.3646 49.2308 44.3393Z" fill="white"/>
<path d="M44.2801 20.8284L20.769 44.3395C19.7437 45.3649 19.7437 47.0276 20.769 48.0514L22.0062 49.2886C23.0319 50.3139 24.6944 50.3139 25.7181 49.2886L49.2308 25.7791C50.2565 24.7537 50.2565 23.0913 49.2308 22.0675L47.9936 20.8303C46.9682 19.803 45.3058 19.803 44.2801 20.8284Z" fill="white"/>
</g>
<defs>
<clipPath id="clip0_45_16266">
<rect width="30" height="30" fill="white" transform="translate(20 20)"/>
</clipPath>
</defs>
</svg>
