<svg width="28" height="28" viewBox="0 0 28 28" fill="none" xmlns="http://www.w3.org/2000/svg">
<path d="M3.75 17H11.25C12.215 17 13 16.215 13 15.25V11.25C13 10.285 12.215 9.5 11.25 9.5H3.75C2.785 9.5 2 10.285 2 11.25V15.25C2 16.215 2.785 17 3.75 17ZM3.75 26H11.25C12.215 26 13 25.215 13 24.25V20.25C13 19.285 12.215 18.5 11.25 18.5H3.75C2.785 18.5 2 19.285 2 20.25V24.25C2 25.215 2.785 26 3.75 26ZM24.25 2H3.75C2.785 2 2 2.785 2 3.75V6.25C2 7.215 2.785 8 3.75 8H24.25C25.215 8 26 7.215 26 6.25V3.75C26 2.785 25.215 2 24.25 2ZM25.25 9.5H15.75C15.5511 9.5 15.3603 9.57902 15.2197 9.71967C15.079 9.86032 15 10.0511 15 10.25C15 10.4489 15.079 10.6397 15.2197 10.7803C15.3603 10.921 15.5511 11 15.75 11H25.25C25.4489 11 25.6397 10.921 25.7803 10.7803C25.921 10.6397 26 10.4489 26 10.25C26 10.0511 25.921 9.86032 25.7803 9.71967C25.6397 9.57902 25.4489 9.5 25.25 9.5ZM25.25 12.5H15.75C15.5511 12.5 15.3603 12.579 15.2197 12.7197C15.079 12.8603 15 13.0511 15 13.25C15 13.4489 15.079 13.6397 15.2197 13.7803C15.3603 13.921 15.5511 14 15.75 14H25.25C25.4489 14 25.6397 13.921 25.7803 13.7803C25.921 13.6397 26 13.4489 26 13.25C26 13.0511 25.921 12.8603 25.7803 12.7197C25.6397 12.579 25.4489 12.5 25.25 12.5ZM25.25 15.5H15.75C15.5511 15.5 15.3603 15.579 15.2197 15.7197C15.079 15.8603 15 16.0511 15 16.25C15 16.4489 15.079 16.6397 15.2197 16.7803C15.3603 16.921 15.5511 17 15.75 17H25.25C25.4489 17 25.6397 16.921 25.7803 16.7803C25.921 16.6397 26 16.4489 26 16.25C26 16.0511 25.921 15.8603 25.7803 15.7197C25.6397 15.579 25.4489 15.5 25.25 15.5ZM25.25 18.5H15.75C15.5511 18.5 15.3603 18.579 15.2197 18.7197C15.079 18.8603 15 19.0511 15 19.25C15 19.4489 15.079 19.6397 15.2197 19.7803C15.3603 19.921 15.5511 20 15.75 20H25.25C25.4489 20 25.6397 19.921 25.7803 19.7803C25.921 19.6397 26 19.4489 26 19.25C26 19.0511 25.921 18.8603 25.7803 18.7197C25.6397 18.579 25.4489 18.5 25.25 18.5ZM25.25 21.5H15.75C15.5511 21.5 15.3603 21.579 15.2197 21.7197C15.079 21.8603 15 22.0511 15 22.25C15 22.4489 15.079 22.6397 15.2197 22.7803C15.3603 22.921 15.5511 23 15.75 23H25.25C25.4489 23 25.6397 22.921 25.7803 22.7803C25.921 22.6397 26 22.4489 26 22.25C26 22.0511 25.921 21.8603 25.7803 21.7197C25.6397 21.579 25.4489 21.5 25.25 21.5ZM25.25 24.5H15.75C15.5511 24.5 15.3603 24.579 15.2197 24.7197C15.079 24.8603 15 25.0511 15 25.25C15 25.4489 15.079 25.6397 15.2197 25.7803C15.3603 25.921 15.5511 26 15.75 26H25.25C25.4489 26 25.6397 25.921 25.7803 25.7803C25.921 25.6397 26 25.4489 26 25.25C26 25.0511 25.921 24.8603 25.7803 24.7197C25.6397 24.579 25.4489 24.5 25.25 24.5Z" fill="black"/>
</svg>
