<svg width="69" height="96" viewBox="0 0 69 96" fill="none" xmlns="http://www.w3.org/2000/svg">
<path d="M45.8486 39.192H23.1498C18.7427 39.192 15.1699 35.6192 15.1699 31.2121V23.8477H53.8285V31.2121C53.8285 35.6192 50.2557 39.192 45.8486 39.192Z" fill="#414042"/>
<path d="M68.2052 76.9453V90.9832C68.2052 93.597 66.0877 95.7098 63.4786 95.7098H5.52149C2.91242 95.7098 0.794922 93.597 0.794922 90.9832V76.9453C0.794922 66.5043 9.2602 58.0391 19.7012 58.0391H49.2989C59.7399 58.0391 68.2052 66.5043 68.2052 76.9453Z" fill="#377DE2"/>
<path d="M52.6841 58.3438C56.4147 61.7974 58.7501 66.7362 58.7501 72.2205V86.2584C58.7501 88.8688 56.6341 90.9849 54.0236 90.9849H0.794922C0.794922 93.5954 2.911 95.7115 5.52148 95.7115H63.4767C66.0872 95.7115 68.2033 93.5954 68.2033 90.9849V76.947C68.2033 67.6622 61.5095 59.9404 52.6841 58.3438Z" fill="#2266D3"/>
<path d="M29.0508 47.9062V60.9828C29.0508 62.0226 29.3504 63.0412 29.9138 63.9165C32.0583 67.2478 36.9418 67.2478 39.0862 63.9165C39.6496 63.0417 39.9492 62.0233 39.9493 60.9828V47.9062H29.0508Z" fill="#FCC4AE"/>
<path d="M34.4996 61.1314C32.4449 61.1314 30.5538 60.4319 29.0508 59.2583V60.9835C29.0508 62.0233 29.3504 63.0419 29.9138 63.9173C32.0583 67.2485 36.9418 67.2485 39.0862 63.9173C39.6495 63.0424 39.9492 62.024 39.9493 60.9835V59.2578C38.3936 60.4747 36.4746 61.1344 34.4996 61.1314Z" fill="white"/>
<path d="M29.0508 52.1101C30.8075 52.6965 32.6475 52.9953 34.4996 52.9949C36.4053 52.9949 38.2364 52.681 39.9488 52.1096V47.9062H29.0508V52.1101Z" fill="#F2AD97"/>
<path d="M17.4108 39.2904C20.4509 39.2904 22.9154 36.8259 22.9154 33.7858C22.9154 30.7457 20.4509 28.2812 17.4108 28.2812C14.3707 28.2812 11.9062 30.7457 11.9062 33.7858C11.9062 36.8259 14.3707 39.2904 17.4108 39.2904Z" fill="#FFD2C0"/>
<path d="M17.4111 36.9471C19.1579 36.9471 20.5741 35.531 20.5741 33.7841C20.5741 32.0372 19.1579 30.6211 17.4111 30.6211C15.6642 30.6211 14.248 32.0372 14.248 33.7841C14.248 35.531 15.6642 36.9471 17.4111 36.9471Z" fill="#F2AD97"/>
<path d="M51.5885 39.2904C54.6286 39.2904 57.0931 36.8259 57.0931 33.7858C57.0931 30.7457 54.6286 28.2812 51.5885 28.2812C48.5485 28.2812 46.084 30.7457 46.084 33.7858C46.084 36.8259 48.5485 39.2904 51.5885 39.2904Z" fill="#FFD2C0"/>
<path d="M51.5888 36.9471C53.3357 36.9471 54.7518 35.531 54.7518 33.7841C54.7518 32.0372 53.3357 30.6211 51.5888 30.6211C49.8419 30.6211 48.4258 32.0372 48.4258 33.7841C48.4258 35.531 49.8419 36.9471 51.5888 36.9471Z" fill="#F2AD97"/>
<path d="M34.5 50.633C25.045 50.633 17.3809 42.9684 17.3809 33.5138V24.6269C17.3809 15.1724 25.0455 7.50781 34.5 7.50781C43.9545 7.50781 51.6191 15.1724 51.6191 24.6269V33.5134C51.6191 42.9684 43.9545 50.633 34.5 50.633Z" fill="#FFD2C0"/>
<path d="M45.3656 11.3984C47.8861 14.4579 49.2617 18.2999 49.256 22.2639V31.1503C49.256 40.6048 41.5914 48.2694 32.1369 48.2694C28.173 48.2752 24.3309 46.8995 21.2715 44.379C24.4113 48.1971 29.171 50.6327 34.5002 50.6327C43.9547 50.6327 51.6193 42.9681 51.6193 33.5136V24.6271C51.6193 19.2979 49.1837 14.5383 45.3656 11.3984Z" fill="#FCC4AE"/>
<path d="M26.4549 33.3473C27.6003 33.3473 28.5289 32.4187 28.5289 31.2732C28.5289 30.1278 27.6003 29.1992 26.4549 29.1992C25.3094 29.1992 24.3809 30.1278 24.3809 31.2732C24.3809 32.4187 25.3094 33.3473 26.4549 33.3473Z" fill="#995222"/>
<path d="M42.5447 33.3473C43.6902 33.3473 44.6187 32.4187 44.6187 31.2732C44.6187 30.1278 43.6902 29.1992 42.5447 29.1992C41.3993 29.1992 40.4707 30.1278 40.4707 31.2732C40.4707 32.4187 41.3993 33.3473 42.5447 33.3473Z" fill="#995222"/>
<path d="M37.5432 39.8594C38.0139 39.8594 38.3708 40.2989 38.2621 40.7574C38.0593 41.6027 37.5777 42.355 36.8951 42.8932C36.2125 43.4314 35.3685 43.7241 34.4993 43.7241C33.63 43.7241 32.7861 43.4314 32.1034 42.8932C31.4208 42.355 30.9393 41.6027 30.7365 40.7574C30.6277 40.2994 30.9841 39.8594 31.4554 39.8594H37.5432Z" fill="#E59076"/>
<path d="M15.1699 23.85L19.6105 29.4803C20.2307 30.2664 21.366 30.446 22.1766 29.8585C29.5183 24.5415 39.4796 24.5415 46.8213 29.8585C47.6324 30.446 48.7673 30.2664 49.3874 29.4803L53.828 23.85C42.7428 14.3284 26.2528 14.3237 15.1699 23.85Z" fill="#377DE2"/>
<path d="M32.1328 16.8005C38.223 17.283 44.1926 19.6331 49.1021 23.8496L45.2018 28.7951C45.7579 29.1243 46.2986 29.479 46.822 29.8581C47.6331 30.4456 48.768 30.266 49.3881 29.4799L53.8287 23.8501C47.6511 18.5436 39.7955 16.1936 32.1328 16.8005Z" fill="#2266D3"/>
<path d="M40.493 2.55078H28.505C21.14 2.55078 15.1699 8.52138 15.1699 15.8858V23.8496C26.2528 14.3228 42.7428 14.328 53.8285 23.8496V15.8863C53.8285 8.52138 47.8579 2.55078 40.493 2.55078Z" fill="#478CF7"/>
<path d="M40.4948 2.55078H28.5068C23.612 2.55078 19.333 5.1882 17.0137 9.11928C19.0633 7.90988 21.4004 7.2737 23.7802 7.27734H35.7682C43.1062 7.27734 49.0598 13.2045 49.1028 20.532C50.783 21.481 52.3663 22.5924 53.8298 23.8501V15.8858C53.8303 8.5209 47.8597 2.55078 40.4948 2.55078Z" fill="#377DE2"/>
<path d="M40.4937 2.55078H28.5057C24.221 2.55078 20.4081 4.57186 17.9688 7.71219C20.3051 5.89424 23.1821 4.90936 26.1424 4.91406H38.1304C45.4953 4.91406 51.4654 10.8847 51.4654 18.2491V22.0185C52.2835 22.5888 53.0723 23.1999 53.8287 23.8496V15.8858C53.8292 8.5209 47.8586 2.55078 40.4937 2.55078Z" fill="#2266D3"/>
<path d="M36.2206 0.308594H32.7773C32.2759 0.308594 31.795 0.507784 31.4405 0.862345C31.0859 1.21691 30.8867 1.69779 30.8867 2.19922V2.54898H38.1113V2.19922C38.1113 1.69779 37.9121 1.21691 37.5575 0.862345C37.203 0.507784 36.7221 0.308594 36.2206 0.308594Z" fill="#377DE2"/>
<path d="M56.1777 59.3047V95.6846H63.4793C66.0884 95.6846 68.2059 93.5718 68.2059 90.958V76.9201C68.2059 68.9058 63.2179 62.056 56.1777 59.3047Z" fill="#58595B"/>
<path d="M56.1777 59.332V62.6917C57.8682 65.5823 58.7568 68.8717 58.7518 72.2204V86.2583C58.7521 87.1289 58.5119 87.9827 58.0577 88.7254C57.6034 89.4681 56.9529 90.0709 56.1777 90.4673V95.6821H63.4793C64.7278 95.6823 65.9256 95.1883 66.811 94.3082C67.6964 93.4281 68.1976 92.2333 68.2049 90.9849V76.947C68.2049 68.9326 63.2179 62.0834 56.1777 59.332Z" fill="#414042"/>
<path d="M12.9663 59.2734C5.85045 61.9874 0.794922 68.8754 0.794922 76.9442V90.9821C0.794922 93.5958 2.91242 95.7086 5.52149 95.7086H12.9663V59.2734Z" fill="#58595B"/>
<path d="M3.63075 86.8895C3.50486 86.8923 3.37967 86.87 3.26254 86.8238C3.1454 86.7776 3.03867 86.7084 2.94862 86.6204C2.85857 86.5324 2.78701 86.4273 2.73815 86.3112C2.68928 86.1952 2.66409 86.0705 2.66406 85.9446C2.66403 85.8187 2.68916 85.694 2.73797 85.578C2.78677 85.4619 2.85828 85.3567 2.94828 85.2687C3.03829 85.1806 3.14498 85.1114 3.2621 85.0652C3.37921 85.0189 3.50439 84.9965 3.63027 84.9993C3.87727 85.0048 4.11231 85.1067 4.28508 85.2833C4.45785 85.4599 4.55463 85.6971 4.55469 85.9442C4.55475 86.1912 4.45809 86.4285 4.28541 86.6051C4.11273 86.7818 3.87774 86.8839 3.63075 86.8895ZM3.63075 83.1082C3.38003 83.1082 3.13959 83.0086 2.96231 82.8313C2.78503 82.6541 2.68543 82.4136 2.68543 82.1629V76.9448C2.68543 74.279 3.32825 71.6132 4.5477 69.231C5.73879 66.9008 7.47344 64.8448 9.56731 63.285C9.97379 62.9825 10.5882 63.0723 10.8907 63.4788C11.042 63.682 11.1034 63.9278 11.0656 64.1783C11.0325 64.4288 10.9002 64.651 10.697 64.8022C6.86372 67.6618 4.57606 72.204 4.57606 76.9448V82.1629C4.57606 82.4136 4.47646 82.6541 4.29918 82.8313C4.1219 83.0086 3.88146 83.1082 3.63075 83.1082Z" fill="#808285"/>
<path d="M12.9654 90.9838H0.794924C0.794246 91.691 0.952596 92.3893 1.25826 93.027C1.56392 93.6648 2.00907 94.2257 2.56077 94.6681C3.39933 95.3433 4.44397 95.7106 5.52054 95.7089H12.9654V90.9838ZM46.7173 58.0382L39.9484 54.9849V57.9205L34.4991 66.4123L29.0498 57.92V54.9844L22.2852 58.0377L30.3534 79.9368C31.7733 83.7914 37.2249 83.7918 38.6457 79.9373L46.7173 58.0382Z" fill="#414042"/>
<path d="M22.2871 58.0416L27.3885 71.8791C27.4363 72.0085 27.5158 72.1238 27.6198 72.2144C27.7239 72.3049 27.849 72.3679 27.9837 72.3975C28.1184 72.427 28.2584 72.4222 28.3908 72.3835C28.5231 72.3448 28.6437 72.2734 28.7412 72.176L34.5005 66.4157L29.0513 57.9235V54.9883L22.2871 58.0416ZM46.7187 58.0416L41.6131 71.8791C41.5653 72.0085 41.4857 72.1238 41.3817 72.2144C41.2777 72.3049 41.1526 72.3679 41.0179 72.3975C40.8832 72.427 40.7432 72.4222 40.6108 72.3835C40.4784 72.3448 40.3579 72.2734 40.2603 72.176L34.5005 66.4157L39.9498 57.9235V54.9883L46.7187 58.0416Z" fill="#58595B"/>
</svg>
