<svg width="48" height="48" viewBox="0 0 48 48" fill="none" xmlns="http://www.w3.org/2000/svg">
<path d="M18.7273 8.83138C19.504 8.83138 20.1337 8.20166 20.1337 7.42492V1.39905C20.0594 -0.467053 17.3944 -0.465646 17.3208 1.39905V7.42501C17.3208 8.20176 17.9505 8.83138 18.7273 8.83138Z" fill="white"/>
<path d="M11.7068 8.41936C12.2559 8.96854 13.1466 8.96873 13.6959 8.41936C14.2451 7.87009 14.2451 6.97961 13.6959 6.43034L12.1894 4.92392C11.6403 4.37464 10.7497 4.37464 10.2004 4.92392C9.65113 5.47319 9.65113 6.36367 10.2004 6.91294L11.7068 8.41936Z" fill="white"/>
<path d="M25.7478 8.41936L27.2542 6.91294C27.8035 6.36367 27.8035 5.47319 27.2542 4.92392C26.705 4.37464 25.8144 4.37464 25.2652 4.92392L23.7588 6.43034C23.2095 6.97961 23.2095 7.87009 23.7588 8.41936C24.3078 8.96854 25.1985 8.96873 25.7478 8.41936Z" fill="white"/>
<path d="M35.7063 21.4754C36.5095 20.6723 36.5106 19.371 35.7063 18.5669C34.903 17.7636 33.602 17.7627 32.7977 18.5669L27.9001 23.4645C27.0982 24.2664 27.0982 25.5712 27.9001 26.3731C28.7023 27.1746 30.0072 27.1747 30.8088 26.3731L35.706 21.4759C35.7061 21.4756 35.7062 21.4755 35.7063 21.4754Z" fill="white"/>
<path d="M35.7063 31.2707L39.3796 27.5974H39.3797C40.1829 26.7942 40.184 25.493 39.3797 24.6888C38.5766 23.8856 37.2754 23.8844 36.4712 24.6888L32.7977 28.3622C31.996 29.1639 31.9962 30.4687 32.798 31.271C33.601 32.0739 34.9021 32.0748 35.7063 31.2707Z" fill="white"/>
<path d="M43.0528 30.8111C42.2569 30.0151 40.9551 29.9998 40.1445 30.8104L37.6958 33.2592C36.8914 34.0637 36.8926 35.3647 37.6953 36.1674C38.5083 36.9815 39.8122 36.9601 40.6032 36.1681L43.0522 33.7191L43.0529 33.7183C43.8453 32.927 43.8657 31.6229 43.0528 30.8111Z" fill="white"/>
<path d="M34.2805 34.7135C34.2805 34.7041 34.2811 34.6947 34.2811 34.6852C32.9711 34.695 31.7347 34.1856 30.8087 33.2597C29.8517 32.3022 29.3778 31.0423 29.3858 29.785C28.127 29.7946 26.8691 29.3185 25.9113 28.3624C24.0124 26.4635 24.0124 23.3741 25.9111 21.4755L39.3797 8.00773C40.1475 7.23886 40.2117 5.93009 39.3851 5.10347C38.697 4.41542 37.3913 4.17895 36.4712 5.09915L19.1003 22.47L19.33 22.6997C23.254 26.6236 23.254 33.0083 19.33 36.9323C18.7807 37.4817 17.8901 37.4815 17.341 36.9323C16.7917 36.3831 16.7917 35.4925 17.341 34.9433C20.1681 32.1161 20.1681 27.5159 17.341 24.6887L16.1161 23.4629C15.9335 23.2799 15.8011 23.0474 15.7409 22.7865L14.1314 15.8125C13.6359 13.6648 11.3624 12.4199 9.27725 13.1851C8.72282 13.3886 8.3547 13.917 8.35526 14.5076L8.37448 34.4069L4.75705 38.0228C4.20777 38.572 4.20777 39.4625 4.75705 40.0118L12.3332 47.588C12.597 47.8517 12.9547 47.9999 13.3278 47.9999H27.2034C28.2145 47.9999 29.1656 47.6056 29.8815 46.8898L37.4811 39.2905C36.8213 39.0504 36.2164 38.6672 35.7057 38.1557C34.7868 37.2369 34.2805 36.0142 34.2805 34.7135Z" fill="white"/>
</svg>
