<svg width="24" height="24" viewBox="0 0 24 24" fill="none" xmlns="http://www.w3.org/2000/svg">
<path d="M13.2285 0.922079C13.1435 0.852272 13.0443 0.801873 12.9378 0.774409C12.8313 0.746944 12.7201 0.743078 12.612 0.763079L0.612001 3.01308C0.439951 3.04487 0.284493 3.13597 0.172674 3.27054C0.0608545 3.40511 -0.000246856 3.57462 7.49592e-07 3.74958V20.2496C7.49592e-07 20.6096 0.256501 20.9201 0.612001 20.9861L12.612 23.2361C12.6575 23.245 12.7037 23.2495 12.75 23.2496C12.9225 23.2496 13.0935 23.1896 13.2285 23.0771C13.3134 23.0067 13.3818 22.9185 13.4287 22.8186C13.4756 22.7188 13.5 22.6099 13.5 22.4996V1.49958C13.5 1.27608 13.401 1.06458 13.2285 0.922079ZM12 21.5951L1.5 19.6271V4.37208L12 2.40408V21.5951Z" fill="#4CAF50"/>
<path d="M23.25 3.74951H12.75C12.336 3.74951 12 4.08551 12 4.49951C12 4.91351 12.336 5.24951 12.75 5.24951H22.5V18.7495H12.75C12.336 18.7495 12 19.0855 12 19.4995C12 19.9135 12.336 20.2495 12.75 20.2495H23.25C23.664 20.2495 24 19.9135 24 19.4995V4.49951C24 4.08551 23.664 3.74951 23.25 3.74951Z" fill="#4CAF50"/>
<path d="M15.7498 6.74951H12.7498C12.3358 6.74951 11.9998 7.08551 11.9998 7.49951C11.9998 7.91351 12.3358 8.24951 12.7498 8.24951H15.7498C16.1638 8.24951 16.4998 7.91351 16.4998 7.49951C16.4998 7.08551 16.1638 6.74951 15.7498 6.74951ZM15.7498 9.74951H12.7498C12.3358 9.74951 11.9998 10.0855 11.9998 10.4995C11.9998 10.9135 12.3358 11.2495 12.7498 11.2495H15.7498C16.1638 11.2495 16.4998 10.9135 16.4998 10.4995C16.4998 10.0855 16.1638 9.74951 15.7498 9.74951ZM15.7498 12.7495H12.7498C12.3358 12.7495 11.9998 13.0855 11.9998 13.4995C11.9998 13.9135 12.3358 14.2495 12.7498 14.2495H15.7498C16.1638 14.2495 16.4998 13.9135 16.4998 13.4995C16.4998 13.0855 16.1638 12.7495 15.7498 12.7495ZM15.7498 15.7495H12.7498C12.3358 15.7495 11.9998 16.0855 11.9998 16.4995C11.9998 16.9135 12.3358 17.2495 12.7498 17.2495H15.7498C16.1638 17.2495 16.4998 16.9135 16.4998 16.4995C16.4998 16.0855 16.1638 15.7495 15.7498 15.7495ZM20.2498 6.74951H18.7498C18.3358 6.74951 17.9998 7.08551 17.9998 7.49951C17.9998 7.91351 18.3358 8.24951 18.7498 8.24951H20.2498C20.6638 8.24951 20.9998 7.91351 20.9998 7.49951C20.9998 7.08551 20.6638 6.74951 20.2498 6.74951ZM20.2498 9.74951H18.7498C18.3358 9.74951 17.9998 10.0855 17.9998 10.4995C17.9998 10.9135 18.3358 11.2495 18.7498 11.2495H20.2498C20.6638 11.2495 20.9998 10.9135 20.9998 10.4995C20.9998 10.0855 20.6638 9.74951 20.2498 9.74951ZM20.2498 12.7495H18.7498C18.3358 12.7495 17.9998 13.0855 17.9998 13.4995C17.9998 13.9135 18.3358 14.2495 18.7498 14.2495H20.2498C20.6638 14.2495 20.9998 13.9135 20.9998 13.4995C20.9998 13.0855 20.6638 12.7495 20.2498 12.7495ZM20.2498 15.7495H18.7498C18.3358 15.7495 17.9998 16.0855 17.9998 16.4995C17.9998 16.9135 18.3358 17.2495 18.7498 17.2495H20.2498C20.6638 17.2495 20.9998 16.9135 20.9998 16.4995C20.9998 16.0855 20.6638 15.7495 20.2498 15.7495ZM10.3153 14.506L5.06529 8.50601C4.78929 8.19251 4.31679 8.16251 4.00629 8.43551C3.69429 8.70851 3.66279 9.18251 3.93579 9.49301L9.18579 15.493C9.25601 15.5736 9.34268 15.6382 9.43997 15.6824C9.53726 15.7267 9.64291 15.7496 9.74979 15.7495C9.92529 15.7495 10.1008 15.688 10.2448 15.5635C10.5568 15.2905 10.5883 14.818 10.3153 14.506Z" fill="#4CAF50"/>
<path d="M10.2105 7.65866C9.88352 7.40216 9.41252 7.46366 9.15752 7.78916L3.90752 14.5392C3.65402 14.8662 3.71252 15.3387 4.03952 15.5922C4.17127 15.6943 4.33329 15.7498 4.50002 15.7497C4.72202 15.7497 4.94402 15.6507 5.09102 15.4617L10.341 8.71166C10.596 8.38316 10.5375 7.91216 10.2105 7.65866Z" fill="#4CAF50"/>
</svg>
