<svg width="48" height="48" viewBox="0 0 48 48" fill="none" xmlns="http://www.w3.org/2000/svg">
<g clip-path="url(#clip0_320_6370)">
<path d="M48 24C48 37.255 37.255 48 24 48C10.745 48 0 37.255 0 24C0 10.745 10.745 0 24 0C37.255 0 48 10.745 48 24Z" fill="#4A7AFF"/>
<path d="M25.0539 47.9755C37.82 47.4244 48.0007 36.9017 48.0007 24C48.0007 23.9067 47.9982 23.8137 47.997 23.7203L31.3379 7.06055L13.5254 25.6787L23.4222 35.5756L18.8588 41.7803L25.0539 47.9755Z" fill="#0053BF"/>
<path d="M31.3363 7.06084V12.4953C31.3363 12.4953 25.0968 11.5897 25.0968 15.6151V19.6405H30.7324L30.0282 25.7792H25.0968V41.7805H18.8572V25.7792L13.5234 25.6786V19.6405H18.7566V15.0112C18.7566 15.0112 18.4113 8.12462 25.1975 6.85974C28.0155 6.33427 31.3362 7.06084 31.3362 7.06084H31.3363Z" fill="white"/>
<path d="M31.3371 12.4949V7.06031C31.3371 7.06031 28.0163 6.33375 25.1984 6.85931C24.7813 6.93637 24.3699 7.04123 23.9668 7.17319V41.7801H25.0976V25.7788H30.0287L30.7332 19.6401H25.0976V15.6148C25.0976 11.5895 31.3371 12.4949 31.3371 12.4949Z" fill="#DCE1EB"/>
</g>
<defs>
<clipPath id="clip0_320_6370">
<rect width="48" height="48" fill="white"/>
</clipPath>
</defs>
</svg>
