<svg width="56" height="56" viewBox="0 0 56 56" fill="none" xmlns="http://www.w3.org/2000/svg">
<g clip-path="url(#clip0_320_6370)" filter="url(#filter0_d_320_6370)">
<path d="M52 24C52 37.255 41.255 48 28 48C14.745 48 4 37.255 4 24C4 10.745 14.745 0 28 0C41.255 0 52 10.745 52 24Z" fill="#4A7AFF"/>
<path d="M29.0539 47.9755C41.82 47.4244 52.0007 36.9017 52.0007 24C52.0007 23.9067 51.9982 23.8137 51.997 23.7203L35.3379 7.06055L17.5254 25.6787L27.4222 35.5756L22.8588 41.7803L29.0539 47.9755Z" fill="#0053BF"/>
<path d="M35.3363 7.06084V12.4953C35.3363 12.4953 29.0968 11.5897 29.0968 15.6151V19.6405H34.7324L34.0282 25.7792H29.0968V41.7805H22.8572V25.7792L17.5234 25.6786V19.6405H22.7566V15.0112C22.7566 15.0112 22.4113 8.12462 29.1975 6.85974C32.0155 6.33427 35.3362 7.06084 35.3362 7.06084H35.3363Z" fill="white"/>
<path d="M35.3371 12.4949V7.06031C35.3371 7.06031 32.0163 6.33375 29.1984 6.85931C28.7813 6.93637 28.3699 7.04123 27.9668 7.17319V41.7801H29.0976V25.7788H34.0287L34.7332 19.6401H29.0976V15.6148C29.0976 11.5895 35.3371 12.4949 35.3371 12.4949Z" fill="#DCE1EB"/>
</g>
<defs>
<filter id="filter0_d_320_6370" x="0" y="0" width="56" height="56" filterUnits="userSpaceOnUse" color-interpolation-filters="sRGB">
<feFlood flood-opacity="0" result="BackgroundImageFix"/>
<feColorMatrix in="SourceAlpha" type="matrix" values="0 0 0 0 0 0 0 0 0 0 0 0 0 0 0 0 0 0 127 0" result="hardAlpha"/>
<feOffset dy="4"/>
<feGaussianBlur stdDeviation="2"/>
<feComposite in2="hardAlpha" operator="out"/>
<feColorMatrix type="matrix" values="0 0 0 0 0 0 0 0 0 0 0 0 0 0 0 0 0 0 0.25 0"/>
<feBlend mode="normal" in2="BackgroundImageFix" result="effect1_dropShadow_320_6370"/>
<feBlend mode="normal" in="SourceGraphic" in2="effect1_dropShadow_320_6370" result="shape"/>
</filter>
<clipPath id="clip0_320_6370">
<rect width="48" height="48" fill="white" transform="translate(4)"/>
</clipPath>
</defs>
</svg>
