<svg width="28" height="28" viewBox="0 0 28 28" fill="none" xmlns="http://www.w3.org/2000/svg">
<path d="M11.8031 20.9841H3.36328" stroke="white" stroke-width="1.5" stroke-linecap="round" stroke-linejoin="round"/>
<path fill-rule="evenodd" clip-rule="evenodd" d="M24.638 20.9845C24.638 22.8402 23.1337 24.3445 21.278 24.3445C19.4223 24.3445 17.918 22.8402 17.918 20.9845C17.918 19.1275 19.4223 17.6245 21.278 17.6245C23.1337 17.6245 24.638 19.1275 24.638 20.9845Z" stroke="white" stroke-width="1.5" stroke-linecap="round" stroke-linejoin="round"/>
<path d="M16.1973 7.3059H24.6384" stroke="white" stroke-width="1.5" stroke-linecap="round" stroke-linejoin="round"/>
<path fill-rule="evenodd" clip-rule="evenodd" d="M3.36328 7.3058C3.36328 9.16286 4.8676 10.6658 6.72328 10.6658C8.57897 10.6658 10.0833 9.16286 10.0833 7.3058C10.0833 5.45011 8.57897 3.9458 6.72328 3.9458C4.8676 3.9458 3.36328 5.45011 3.36328 7.3058Z" stroke="white" stroke-width="1.5" stroke-linecap="round" stroke-linejoin="round"/>
</svg>
