<svg width="28" height="28" viewBox="0 0 28 28" fill="none" xmlns="http://www.w3.org/2000/svg">
<path d="M14 27.6719C21.5508 27.6719 27.6719 21.5508 27.6719 14C27.6719 6.44923 21.5508 0.328125 14 0.328125C6.44923 0.328125 0.328125 6.44923 0.328125 14C0.328125 21.5508 6.44923 27.6719 14 27.6719Z" fill="black"/>
<path opacity="0.49" d="M27.6719 14C27.6725 12.8005 27.5154 11.6061 27.2047 10.4475L22.6193 5.86188C22.593 5.83688 22.5598 5.82042 22.5241 5.81466C22.4883 5.8089 22.4516 5.81411 22.4188 5.82961C20.7569 6.42379 12.9439 9.24622 2.60552 13.0447C2.55875 13.0605 2.51994 13.0939 2.49729 13.1377C2.47464 13.1816 2.46992 13.2326 2.48412 13.2799L16.5922 27.4253C22.9031 26.2138 27.6719 20.6643 27.6719 14Z" fill="black"/>
<path fill-rule="evenodd" clip-rule="evenodd" d="M22.4188 5.82967C22.5699 5.76601 22.6994 5.89333 22.6778 6.04186L19.2677 22.0424C19.2599 22.0731 19.2446 22.1014 19.2232 22.1247C19.2018 22.1481 19.175 22.1658 19.1451 22.1763C19.1152 22.1868 19.0832 22.1898 19.0519 22.1849C19.0206 22.18 18.9909 22.1675 18.9657 22.1484L13.5915 18.3287L10.5915 21.1724C10.566 21.1924 10.5362 21.2063 10.5044 21.2129C10.4727 21.2195 10.4399 21.2186 10.4085 21.2104C10.3771 21.2022 10.3481 21.1868 10.3237 21.1655C10.2993 21.1442 10.2801 21.1175 10.2677 21.0875L8.21721 15.1244L2.60561 13.4055C2.5678 13.3928 2.53493 13.3685 2.51164 13.3361C2.48836 13.3038 2.47583 13.2649 2.47583 13.225C2.47583 13.1851 2.48836 13.1462 2.51164 13.1139C2.53493 13.0815 2.5678 13.0572 2.60561 13.0445C12.9439 9.24605 20.7569 6.42363 22.4189 5.82945L22.4188 5.82967ZM18.836 8.73691C18.8147 8.73401 15.6204 10.7316 9.27475 14.6999L10.613 19.029L10.8938 16.2914C16.3541 11.4319 19.0878 8.9915 19.095 8.97032C19.2246 8.84295 18.9224 8.7485 18.836 8.73691Z" fill="white"/>
</svg>
