<svg width="28" height="28" viewBox="0 0 28 28" fill="none" xmlns="http://www.w3.org/2000/svg">
<path d="M14 27.6719C21.5508 27.6719 27.6719 21.5508 27.6719 14C27.6719 6.44923 21.5508 0.328125 14 0.328125C6.44923 0.328125 0.328125 6.44923 0.328125 14C0.328125 21.5508 6.44923 27.6719 14 27.6719Z" fill="black"/>
<path opacity="0.49" fill-rule="evenodd" clip-rule="evenodd" d="M20.342 7.75176C19.5323 6.94673 18.5697 6.31181 17.5108 5.88438C16.452 5.45695 15.3184 5.24563 14.1767 5.26288C9.40761 5.26288 5.52174 9.06175 5.52174 13.7958C5.52174 15.3737 5.99276 16.8933 6.75811 18.1791L5.16846 22.7377L9.25689 26.8262C10.7753 27.3872 12.3813 27.6736 14.0001 27.6718C21.2001 27.6718 27.1001 22.1061 27.6327 15.0424L20.342 7.75176ZM10.2321 19.7571L7.40578 20.6336L8.28898 17.9451C7.37181 16.734 6.87558 15.2563 6.87585 13.7371C6.87585 9.76289 10.1731 6.54847 14.1766 6.54847C18.1802 6.54847 21.4774 9.76289 21.5363 13.7371C21.5369 15.1909 21.0888 16.6094 20.2531 17.799L18.4195 15.9654C18.3952 15.9414 18.3671 15.9217 18.3363 15.9071L17.0297 15.3117L11.7583 10.0366C11.7087 9.98923 11.6438 9.96111 11.5754 9.95731L11.0078 9.9245C10.8294 9.91473 10.654 9.97341 10.5174 10.0886C10.2419 10.3242 9.80098 10.7899 9.66333 11.3871C9.45946 12.2801 9.77353 13.3758 10.5835 14.4714C10.935 14.953 11.3233 15.4067 11.745 15.8282L16.4895 20.5734C15.4506 20.9057 14.3513 21.0049 13.2697 20.8638C12.1881 20.7227 11.1509 20.3448 10.2321 19.7571Z" fill="black"/>
<path d="M14.1767 5.26293C9.40761 5.26293 5.52174 9.0618 5.52174 13.7958C5.52174 15.3738 5.99276 16.8933 6.75811 18.1791L5.16846 22.7378L9.99638 21.2182C11.2329 21.8612 12.6458 22.2703 14.1767 22.2703C18.9458 22.2703 22.8316 18.4714 22.8316 13.7374C22.8316 9.00334 18.9458 5.20447 14.1767 5.26293ZM14.2356 20.926C12.8157 20.9344 11.4242 20.5282 10.2319 19.7571L7.40578 20.6336L8.28898 17.9452C7.37181 16.7341 6.87558 15.2564 6.87585 13.7372C6.87585 9.76295 10.1731 6.54853 14.1766 6.54853C18.1802 6.54853 21.4774 9.76295 21.5363 13.7372C21.5364 17.7116 18.2392 20.926 14.2356 20.926Z" fill="white"/>
<path fill-rule="evenodd" clip-rule="evenodd" d="M11.0078 9.9245L11.5753 9.95731C11.6303 9.96075 11.6831 9.97951 11.7279 10.0115C11.7727 10.0434 11.8077 10.0873 11.8288 10.1381L12.6553 12.0666C12.6764 12.1173 12.6829 12.1729 12.6741 12.2271C12.6654 12.2813 12.6417 12.332 12.6058 12.3735L11.8839 13.2007C11.8557 13.2335 11.8379 13.274 11.8331 13.317C11.8282 13.36 11.8364 13.4035 11.8566 13.4418C12.8099 15.2607 14.5401 15.984 15.058 16.1648C15.1008 16.18 15.1472 16.1813 15.1908 16.1685C15.2343 16.1558 15.2727 16.1296 15.3004 16.0937L16.0551 15.1185C16.0964 15.0659 16.1541 15.0286 16.2191 15.0128C16.284 14.9969 16.3524 15.0033 16.4133 15.031L18.3364 15.9076C18.3968 15.9359 18.4459 15.9837 18.4759 16.0433C18.5059 16.103 18.515 16.1709 18.5017 16.2363L18.4134 16.6578C18.3633 16.8945 18.2669 17.119 18.1298 17.3183C17.9927 17.5177 17.8175 17.6879 17.6144 17.8193C17.0909 18.1481 16.4186 18.3125 15.5591 18.0714C12.8976 17.3208 11.3933 15.5676 10.5833 14.4718C9.77329 13.376 9.45927 12.2803 9.66314 11.3874C9.8009 10.7903 10.2417 10.3245 10.5172 10.0889C10.6538 9.97378 10.8292 9.9151 11.0076 9.92488L11.0078 9.9245Z" fill="white"/>
</svg>
