<svg width="28" height="28" viewBox="0 0 28 28" fill="none" xmlns="http://www.w3.org/2000/svg">
<path d="M28 14C28 21.7321 21.7321 28 14 28C6.2679 28 0 21.7321 0 14C0 6.2679 6.2679 0 14 0C21.7321 0 28 6.2679 28 14Z" fill="black"/>
<path d="M14.6144 27.9857C22.0613 27.6642 28 21.526 28 14C28 13.9456 27.9985 13.8913 27.9978 13.8368L18.28 4.11865L7.8894 14.9793L13.6625 20.7525L11.0006 24.3718L14.6144 27.9857Z" fill="black"/>
<path d="M18.28 4.11868V7.2888C18.28 7.2888 14.6403 6.76052 14.6403 9.10869V11.4568H17.9277L17.5169 15.0377H14.6403V24.3718H11.0006V15.0377L7.88916 14.979V11.4568H10.9418V8.7564C10.9418 8.7564 10.7404 4.73922 14.699 4.00137C16.3429 3.69485 18.2799 4.11868 18.2799 4.11868H18.28Z" fill="white"/>
<path d="M18.2798 7.28878V4.1186C18.2798 4.1186 16.3427 3.69477 14.6989 4.00135C14.4556 4.0463 14.2156 4.10747 13.9805 4.18444V24.3718H14.6401V15.0377H17.5166L17.9275 11.4568H14.6401V9.10872C14.6401 6.7606 18.2798 7.28878 18.2798 7.28878Z" fill="white"/>
</svg>
