<svg width="28" height="28" viewBox="0 0 28 28" fill="none" xmlns="http://www.w3.org/2000/svg">
<path d="M14 27.6719C21.5508 27.6719 27.6719 21.5508 27.6719 14C27.6719 6.44923 21.5508 0.328125 14 0.328125C6.44923 0.328125 0.328125 6.44923 0.328125 14C0.328125 21.5508 6.44923 27.6719 14 27.6719Z" fill="black"/>
<path opacity="0.49" d="M27.6719 14C27.672 13.154 27.594 12.3099 27.4388 11.4783L22.8795 6.91892C22.8795 6.91892 21.3162 7.65464 20.4408 7.83855C19.7529 7.10284 18.7524 6.67371 17.6268 6.67371C15.1452 6.67371 13.3867 8.87942 13.8749 11.2719C10.6859 11.088 7.80935 9.61655 5.93357 7.40942C5.60856 7.96808 5.43604 8.60234 5.43329 9.24867C5.43329 10.5361 6.12115 11.701 7.12166 12.3141C6.50439 12.3121 5.89925 12.1426 5.37073 11.8237C5.35903 13.6107 6.67005 15.1933 8.43481 15.5022C7.87514 15.6121 7.2481 15.7018 6.68394 15.5635C6.94734 16.3155 7.43776 16.9672 8.08745 17.4284C8.73714 17.8897 9.51403 18.1378 10.3108 18.1386C8.77656 19.2846 6.54673 20.0492 4.62036 19.6712L12.5435 27.5946C13.0273 27.6459 13.5135 27.6717 14 27.6718C21.5507 27.6718 27.6719 21.5507 27.6719 14Z" fill="black"/>
<path fill-rule="evenodd" clip-rule="evenodd" d="M20.4408 7.83855C19.7529 7.10284 18.7524 6.67371 17.6268 6.67371C15.1452 6.67371 13.3867 8.87942 13.8749 11.2719C10.6859 11.088 7.80935 9.61655 5.93357 7.40942C5.60856 7.96808 5.43604 8.60234 5.43329 9.24867C5.43329 10.5361 6.12115 11.7011 7.12166 12.3141C6.50439 12.3121 5.89925 12.1426 5.37073 11.8237C5.35903 13.6107 6.67005 15.1933 8.43481 15.5022C7.87514 15.612 7.2481 15.7018 6.68394 15.5635C6.94734 16.3155 7.43776 16.9672 8.08745 17.4284C8.73714 17.8897 9.51403 18.1378 10.3108 18.1386C8.77656 19.2846 6.54673 20.0492 4.62036 19.6712C8.37521 21.9893 13.5071 21.8882 17.0868 19.2675C19.9731 17.1544 21.4414 13.8117 21.4414 10.2909C22.1762 9.75454 22.8291 9.11434 23.3799 8.39035C22.692 8.69692 21.9416 8.88084 21.1913 9.00345C21.9416 8.51296 22.567 7.8386 22.8796 6.91892C22.8795 6.91892 21.3162 7.65464 20.4408 7.83855Z" fill="white"/>
</svg>
