<svg width="28" height="28" viewBox="0 0 28 28" fill="none" xmlns="http://www.w3.org/2000/svg">
<path d="M28 14C28 6.26801 21.732 0 14 0C6.26801 0 0 6.26801 0 14C0 21.732 6.26801 28 14 28C21.732 28 28 21.732 28 14Z" fill="black"/>
<path opacity="0.1" d="M24.5369 4.78947C22.4959 8.53631 19.6093 12.401 16.0025 16.0079C12.3956 19.6147 8.53088 22.4958 4.78956 24.5368C4.555 24.333 4.32719 24.1205 4.10614 23.8995C2.76998 22.6079 1.70433 21.0633 0.971312 19.3556C0.238298 17.6479 -0.147404 15.8114 -0.163306 13.9532C-0.179207 12.0949 0.175011 10.2521 0.878695 8.5321C1.58238 6.81214 2.62144 5.24949 3.93531 3.93526C5.24917 2.62103 6.81153 1.58153 8.53129 0.877367C10.251 0.173204 12.0938 -0.181529 13.9521 -0.166146C15.8103 -0.150764 17.647 0.234426 19.3548 0.966964C21.0627 1.6995 22.6076 2.76472 23.8996 4.10052C24.1206 4.32158 24.3331 4.55122 24.5369 4.78947Z" fill="white"/>
<path d="M17.3158 6.63159H10.6842C9.6094 6.63159 8.5786 7.05856 7.81858 7.81858C7.05856 8.5786 6.63159 9.6094 6.63159 10.6842V17.3158C6.63159 18.3906 7.05856 19.4214 7.81858 20.1814C8.5786 20.9415 9.6094 21.3684 10.6842 21.3684H17.3158C18.3906 21.3684 19.4214 20.9415 20.1814 20.1814C20.9415 19.4214 21.3684 18.3906 21.3684 17.3158V10.6842C21.3684 9.6094 20.9415 8.5786 20.1814 7.81858C19.4214 7.05856 18.3906 6.63159 17.3158 6.63159ZM20.079 16.7337C20.079 17.6209 19.7265 18.4718 19.0992 19.0992C18.4718 19.7265 17.6209 20.079 16.7337 20.079H11.2663C10.3791 20.079 9.52823 19.7265 8.90087 19.0992C8.27351 18.4718 7.92107 17.6209 7.92107 16.7337V11.2663C7.92107 10.3791 8.27351 9.52823 8.90087 8.90087C9.52823 8.27351 10.3791 7.92107 11.2663 7.92107H16.7337C17.6209 7.92107 18.4718 8.27351 19.0992 8.90087C19.7265 9.52823 20.079 10.3791 20.079 11.2663V16.7337Z" fill="white"/>
<path d="M16.6878 11.34L16.6528 11.305L16.6233 11.2755C15.9268 10.5814 14.9835 10.1919 14.0002 10.1924C13.5036 10.1958 13.0126 10.2969 12.5551 10.4901C12.0977 10.6833 11.6828 10.9648 11.3342 11.3184C10.9855 11.672 10.71 12.0908 10.5233 12.5509C10.3365 13.011 10.2423 13.5035 10.246 14C10.2452 15.0077 10.6424 15.975 11.3512 16.6913C11.6984 17.0427 12.1121 17.3214 12.5682 17.5112C13.0242 17.701 13.5136 17.798 14.0075 17.7966C14.7485 17.781 15.4689 17.5502 16.081 17.1323C16.693 16.7143 17.1702 16.1273 17.4543 15.4428C17.7385 14.7583 17.8173 14.0059 17.6812 13.2774C17.5451 12.5489 17.1999 11.8757 16.6878 11.34ZM14.0002 16.4979C13.5047 16.5048 13.0184 16.3643 12.603 16.0941C12.1876 15.8238 11.862 15.4362 11.6676 14.9804C11.4732 14.5246 11.4187 14.0213 11.5111 13.5345C11.6035 13.0477 11.8386 12.5993 12.1865 12.2465C12.5344 11.8936 12.9794 11.6522 13.4648 11.553C13.9503 11.4537 14.4543 11.5011 14.9128 11.6891C15.3713 11.8771 15.7635 12.1972 16.0395 12.6087C16.3156 13.0202 16.463 13.5045 16.4631 14C16.4655 14.3258 16.4037 14.6488 16.2812 14.9507C16.1587 15.2526 15.978 15.5273 15.7492 15.7593C15.5205 15.9913 15.2483 16.1759 14.9482 16.3027C14.6481 16.4294 14.3259 16.4957 14.0002 16.4979ZM18.8688 10.0174C18.8698 10.1356 18.8475 10.2528 18.8031 10.3624C18.7587 10.4719 18.6931 10.5717 18.6101 10.6558C18.5271 10.74 18.4284 10.807 18.3194 10.853C18.2105 10.8989 18.0936 10.923 17.9754 10.9237C17.8582 10.9236 17.7422 10.9003 17.634 10.8551C17.5259 10.8099 17.4278 10.7437 17.3454 10.6603C17.2206 10.5337 17.1357 10.3732 17.1013 10.1988C17.0668 10.0244 17.0843 9.84368 17.1516 9.67912C17.2189 9.51456 17.333 9.37336 17.4797 9.27304C17.6265 9.17271 17.7995 9.11768 17.9773 9.11475C18.1853 9.11471 18.3868 9.18773 18.5465 9.32106L18.5649 9.33948C18.5946 9.36367 18.6218 9.39083 18.646 9.42054L18.6662 9.44264C18.7981 9.60509 18.8697 9.80815 18.8688 10.0174Z" fill="white"/>
</svg>
