<svg width="28" height="28" viewBox="0 0 28 28" fill="none" xmlns="http://www.w3.org/2000/svg">
<path d="M25.9919 20.0813C25.8737 19.884 25.6835 19.7404 25.4615 19.6808C25.2394 19.6212 25.0029 19.6503 24.8019 19.7619L20.3962 22.3037C20.4129 22.5019 20.3967 22.7015 20.3481 22.8944C20.2889 23.1169 20.1861 23.3255 20.0457 23.508C19.9053 23.6905 19.73 23.8433 19.53 23.9575C19.2661 24.1126 18.9655 24.1942 18.6594 24.1937C18.5057 24.193 18.3528 24.1725 18.2044 24.1325L12.985 22.7369C12.8724 22.7067 12.7765 22.6331 12.7182 22.5321C12.66 22.4312 12.6442 22.3113 12.6744 22.1988C12.7045 22.0862 12.7782 21.9902 12.8791 21.932C12.98 21.8737 13.0999 21.858 13.2125 21.8881L18.4319 23.2881C18.5422 23.3186 18.6576 23.3266 18.7711 23.3115C18.8846 23.2965 18.9939 23.2588 19.0925 23.2006C19.2435 23.1152 19.3656 22.9866 19.443 22.8314C19.5205 22.6761 19.5498 22.5012 19.5273 22.3292C19.5047 22.1572 19.4313 21.9958 19.3164 21.8658C19.2015 21.7357 19.0504 21.643 18.8825 21.5994L12.355 19.8494C11.9958 19.7524 11.6176 19.7494 11.2569 19.8406L8.75 20.4662V25.1038L9.70375 25.5806C10.0077 25.7338 10.3434 25.8132 10.6837 25.8125H17.2331C17.6172 25.8129 17.9945 25.7117 18.3269 25.5194L25.6769 21.2756C25.8767 21.1587 26.0221 20.9674 26.0811 20.7435C26.1402 20.5196 26.1081 20.2815 25.9919 20.0813ZM5.25 26.25H7.875V19.25H5.25V26.25ZM6.125 24.9375C6.125 24.8215 6.17109 24.7102 6.25314 24.6281C6.33519 24.5461 6.44647 24.5 6.5625 24.5C6.67853 24.5 6.78981 24.5461 6.87186 24.6281C6.95391 24.7102 7 24.8215 7 24.9375V25.375C7 25.491 6.95391 25.6023 6.87186 25.6844C6.78981 25.7664 6.67853 25.8125 6.5625 25.8125C6.44647 25.8125 6.33519 25.7664 6.25314 25.6844C6.17109 25.6023 6.125 25.491 6.125 25.375V24.9375ZM1.75 20.125H4.375V25.375H1.75V20.125Z" fill="black"/>
<path d="M14 10.9375C14.9665 10.9375 15.75 10.154 15.75 9.1875C15.75 8.221 14.9665 7.4375 14 7.4375C13.0335 7.4375 12.25 8.221 12.25 9.1875C12.25 10.154 13.0335 10.9375 14 10.9375Z" fill="black"/>
<path d="M10.2419 10.3644C10.3095 10.5842 10.3989 10.7967 10.5088 10.9987C10.5534 11.0822 10.5702 11.1776 10.5568 11.2712C10.5434 11.3649 10.5005 11.4518 10.4344 11.5194L9.35812 12.5913L10.5962 13.8294L11.6681 12.7531C11.7357 12.687 11.8226 12.6441 11.9163 12.6307C12.0099 12.6173 12.1053 12.6341 12.1888 12.6788C12.3908 12.7886 12.6033 12.878 12.8231 12.9456C12.9108 12.9742 12.9873 13.0298 13.0415 13.1045C13.0957 13.1791 13.1249 13.269 13.125 13.3612V14.875H14.875V13.3612C14.8751 13.269 14.9043 13.1791 14.9585 13.1045C15.0127 13.0298 15.0892 12.9742 15.1769 12.9456C15.3967 12.878 15.6092 12.7886 15.8112 12.6788C15.8947 12.6341 15.9901 12.6173 16.0837 12.6307C16.1774 12.6441 16.2643 12.687 16.3319 12.7531L17.4037 13.8294L18.6419 12.5913L17.5656 11.5194C17.4995 11.4518 17.4566 11.3649 17.4432 11.2712C17.4298 11.1776 17.4466 11.0822 17.4913 10.9987C17.6011 10.7967 17.6905 10.5842 17.7581 10.3644C17.7867 10.2767 17.8423 10.2002 17.917 10.146C17.9916 10.0918 18.0815 10.0626 18.1737 10.0625H19.6875V8.3125H18.1737C18.0815 8.31243 17.9916 8.2832 17.917 8.22898C17.8423 8.17477 17.7867 8.09834 17.7581 8.01062C17.6905 7.79082 17.6011 7.57831 17.4913 7.37625C17.4466 7.29285 17.4298 7.19739 17.4432 7.10376C17.4566 7.01013 17.4995 6.9232 17.5656 6.85563L18.6419 5.78375L17.4037 4.54563L16.3319 5.62188C16.2643 5.68805 16.1774 5.73094 16.0837 5.74432C15.9901 5.75769 15.8947 5.74086 15.8112 5.69625C15.6092 5.58642 15.3967 5.49702 15.1769 5.42937C15.0892 5.40077 15.0127 5.34518 14.9585 5.27053C14.9043 5.19588 14.8751 5.10601 14.875 5.01375V3.5H13.125V5.01375C13.1249 5.10601 13.0957 5.19588 13.0415 5.27053C12.9873 5.34518 12.9108 5.40077 12.8231 5.42937C12.6033 5.49702 12.3908 5.58642 12.1888 5.69625C12.1053 5.74086 12.0099 5.75769 11.9163 5.74432C11.8226 5.73094 11.7357 5.68805 11.6681 5.62188L10.5962 4.54563L9.35812 5.78375L10.4344 6.85563C10.5005 6.9232 10.5434 7.01013 10.5568 7.10376C10.5702 7.19739 10.5534 7.29285 10.5088 7.37625C10.3989 7.57831 10.3095 7.79082 10.2419 8.01062C10.2133 8.09834 10.1577 8.17477 10.083 8.22898C10.0084 8.2832 9.91851 8.31243 9.82625 8.3125H8.3125V10.0625H9.82625C9.91851 10.0626 10.0084 10.0918 10.083 10.146C10.1577 10.2002 10.2133 10.2767 10.2419 10.3644ZM14 6.5625C14.5192 6.5625 15.0267 6.71645 15.4584 7.00489C15.8901 7.29333 16.2265 7.7033 16.4252 8.18296C16.6239 8.66261 16.6758 9.19041 16.5746 9.69961C16.4733 10.2088 16.2233 10.6765 15.8562 11.0437C15.489 11.4108 15.0213 11.6608 14.5121 11.7621C14.0029 11.8633 13.4751 11.8114 12.9955 11.6127C12.5158 11.414 12.1058 11.0776 11.8174 10.6459C11.529 10.2142 11.375 9.70668 11.375 9.1875C11.3757 8.49152 11.6525 7.82424 12.1446 7.33211C12.6367 6.83998 13.304 6.56319 14 6.5625Z" fill="black"/>
<path d="M22.3125 10.0625H23.1875C23.1875 7.62582 22.2195 5.28895 20.4965 3.56596C18.7736 1.84297 16.4367 0.875 14 0.875C11.5633 0.875 9.22645 1.84297 7.50346 3.56596C5.78047 5.28895 4.8125 7.62582 4.8125 10.0625H5.6875C5.6875 7.85789 6.56328 5.74357 8.12218 4.18467C9.68107 2.62578 11.7954 1.75 14 1.75C16.2046 1.75 18.3189 2.62578 19.8778 4.18467C21.4367 5.74357 22.3125 7.85789 22.3125 10.0625ZM25.8125 12.6875C25.8125 12.2234 25.6281 11.7783 25.2999 11.4501C24.9717 11.1219 24.5266 10.9375 24.0625 10.9375V14.4375C24.5266 14.4375 24.9717 14.2531 25.2999 13.9249C25.6281 13.5967 25.8125 13.1516 25.8125 12.6875ZM21.875 17.0625H18.2538C18.1776 16.9299 18.0678 16.8197 17.9355 16.7429C17.8031 16.6661 17.653 16.6254 17.5 16.625H16.625C16.3929 16.625 16.1704 16.7172 16.0063 16.8813C15.8422 17.0454 15.75 17.2679 15.75 17.5C15.75 17.7321 15.8422 17.9546 16.0063 18.1187C16.1704 18.2828 16.3929 18.375 16.625 18.375H17.5C17.653 18.3746 17.8031 18.3339 17.9355 18.2571C18.0678 18.1803 18.1776 18.0701 18.2538 17.9375H21.875C22.2228 17.9365 22.556 17.7978 22.8019 17.5519C23.0478 17.306 23.1865 16.9728 23.1875 16.625V14.4375H23.625V10.9375H21.875V14.4375H22.3125V16.625C22.3125 16.741 22.2664 16.8523 22.1844 16.9344C22.1023 17.0164 21.991 17.0625 21.875 17.0625ZM3.9375 14.4375V10.9375C3.47337 10.9375 3.02825 11.1219 2.70006 11.4501C2.37187 11.7783 2.1875 12.2234 2.1875 12.6875C2.1875 13.1516 2.37187 13.5967 2.70006 13.9249C3.02825 14.2531 3.47337 14.4375 3.9375 14.4375ZM4.375 10.9375H6.125V14.4375H4.375V10.9375Z" fill="black"/>
</svg>
