<svg width="142" height="95" viewBox="0 0 142 95" fill="none" xmlns="http://www.w3.org/2000/svg">
<path d="M110.724 15.4961H101.006V41.0245H110.724V15.4961Z" fill="#EBEBEB"/>
<path d="M110.725 15.4961H105.865V41.0245H110.725V15.4961Z" fill="#E0E0E0"/>
<path d="M105.55 12.4609H102.117V15.4952H105.55V12.4609Z" fill="#EBEBEB"/>
<path d="M105.548 12.4609H104.73V15.4952H105.548V12.4609Z" fill="#E0E0E0"/>
<path d="M111.01 15.3203H100.197V15.497H111.01V15.3203Z" fill="#E0E0E0"/>
<path d="M103.749 16.8164H102.926V18.5568H103.749V16.8164Z" fill="white"/>
<path d="M105.866 19.2432C105.866 19.2622 104.777 19.2755 103.437 19.2755C102.095 19.2755 101.008 19.2603 101.008 19.2432C101.008 19.2242 102.095 19.2109 103.437 19.2109C104.777 19.2109 105.866 19.2261 105.866 19.2432Z" fill="#E0E0E0"/>
<path d="M108.652 16.8164H107.828V18.5568H108.652V16.8164Z" fill="#F5F5F5"/>
<path d="M110.768 19.2393C110.768 19.2583 109.68 19.2716 108.339 19.2716C106.997 19.2716 105.91 19.2564 105.91 19.2393C105.91 19.2203 106.997 19.207 108.339 19.207C109.68 19.207 110.768 19.2222 110.768 19.2393Z" fill="#EBEBEB"/>
<path d="M108.652 20.2734H107.828V22.0138H108.652V20.2734Z" fill="#F5F5F5"/>
<path d="M110.768 22.6983C110.768 22.7173 109.68 22.7306 108.339 22.7306C106.997 22.7306 105.91 22.7154 105.91 22.6983C105.91 22.6793 106.997 22.6641 108.339 22.6641C109.68 22.666 110.768 22.6812 110.768 22.6983Z" fill="#EBEBEB"/>
<path d="M108.652 23.8359H107.828V25.5763H108.652V23.8359Z" fill="#F5F5F5"/>
<path d="M110.768 26.2589C110.768 26.2779 109.68 26.2912 108.339 26.2912C106.997 26.2912 105.91 26.276 105.91 26.2589C105.91 26.2399 106.997 26.2266 108.339 26.2266C109.68 26.2266 110.768 26.2399 110.768 26.2589Z" fill="#EBEBEB"/>
<path d="M108.652 27.3945H107.828V29.1349H108.652V27.3945Z" fill="#F5F5F5"/>
<path d="M110.768 29.8194C110.768 29.8384 109.68 29.8517 108.339 29.8517C106.997 29.8517 105.91 29.8365 105.91 29.8194C105.91 29.8004 106.997 29.7852 108.339 29.7852C109.68 29.7871 110.768 29.8004 110.768 29.8194Z" fill="#EBEBEB"/>
<path d="M108.652 30.8555H107.828V32.5959H108.652V30.8555Z" fill="#F5F5F5"/>
<path d="M110.768 33.2764C110.768 33.2954 109.68 33.3087 108.339 33.3087C106.997 33.3087 105.91 33.2935 105.91 33.2764C105.91 33.2574 106.997 33.2422 108.339 33.2422C109.68 33.2441 110.768 33.2593 110.768 33.2764Z" fill="#EBEBEB"/>
<path d="M108.652 34.3242H107.828V36.0646H108.652V34.3242Z" fill="#F5F5F5"/>
<path d="M108.652 37.8438H107.828V39.5842H108.652V37.8438Z" fill="#F5F5F5"/>
<path d="M110.768 36.7471C110.768 36.7661 109.68 36.7813 108.339 36.7813C106.997 36.7813 105.91 36.7661 105.91 36.7471C105.91 36.7281 106.997 36.7148 108.339 36.7148C109.68 36.7148 110.768 36.7281 110.768 36.7471Z" fill="#EBEBEB"/>
<path d="M103.749 20.3281H102.926V22.0685H103.749V20.3281Z" fill="white"/>
<path d="M105.866 22.7512C105.866 22.7702 104.777 22.7854 103.437 22.7854C102.095 22.7854 101.008 22.7702 101.008 22.7512C101.008 22.7322 102.095 22.7189 103.437 22.7189C104.777 22.717 105.866 22.7322 105.866 22.7512Z" fill="#E0E0E0"/>
<path d="M103.749 23.8359H102.926V25.5763H103.749V23.8359Z" fill="white"/>
<path d="M105.866 26.2608C105.866 26.2798 104.777 26.2931 103.437 26.2931C102.095 26.2931 101.008 26.2779 101.008 26.2608C101.008 26.2418 102.095 26.2266 103.437 26.2266C104.777 26.2266 105.866 26.2418 105.866 26.2608Z" fill="#E0E0E0"/>
<path d="M103.749 27.3438H102.926V29.0842H103.749V27.3438Z" fill="white"/>
<path d="M105.866 29.7707C105.866 29.7897 104.777 29.803 103.437 29.803C102.095 29.803 101.008 29.7878 101.008 29.7707C101.008 29.7517 102.095 29.7384 103.437 29.7384C104.777 29.7365 105.866 29.7517 105.866 29.7707Z" fill="#E0E0E0"/>
<path d="M103.749 30.8555H102.926V32.5959H103.749V30.8555Z" fill="white"/>
<path d="M105.866 33.2764C105.866 33.2954 104.777 33.3087 103.437 33.3087C102.095 33.3087 101.008 33.2935 101.008 33.2764C101.008 33.2574 102.095 33.2422 103.437 33.2422C104.777 33.2441 105.866 33.2593 105.866 33.2764Z" fill="#E0E0E0"/>
<path d="M103.749 34.3633H102.926V36.1037H103.749V34.3633Z" fill="white"/>
<path d="M105.866 36.7881C105.866 36.8071 104.777 36.8204 103.437 36.8204C102.095 36.8204 101.008 36.8052 101.008 36.7881C101.008 36.7691 102.095 36.7539 103.437 36.7539C104.777 36.7558 105.866 36.771 105.866 36.7881Z" fill="#E0E0E0"/>
<path d="M103.749 37.8711H102.926V39.6115H103.749V37.8711Z" fill="white"/>
<path d="M87.4989 44.3828H76.0234V66.2385H87.4989V44.3828Z" fill="#E0E0E0"/>
<path d="M87.5 44.3828H82.1191V66.2385H87.5V44.3828Z" fill="#EBEBEB"/>
<path d="M79.4616 46.4414H78.4297V48.957H79.4616V46.4414Z" fill="#F5F5F5"/>
<path d="M79.4616 56.2891H78.4297V58.8047H79.4616V56.2891Z" fill="#F5F5F5"/>
<path d="M82.12 49.9461C82.12 49.967 80.7549 49.986 79.0717 49.986C77.3885 49.986 76.0234 49.9689 76.0234 49.9461C76.0234 49.9252 77.3885 49.9062 79.0717 49.9062C80.7549 49.9062 82.12 49.9252 82.12 49.9461Z" fill="#F5F5F5"/>
<path d="M79.4616 51.3984H78.4297V53.914H79.4616V51.3984Z" fill="#F5F5F5"/>
<path d="M82.12 54.9032C82.12 54.9241 80.7549 54.9431 79.0717 54.9431C77.3885 54.9431 76.0234 54.926 76.0234 54.9032C76.0234 54.8823 77.3885 54.8633 79.0717 54.8633C80.7549 54.8633 82.12 54.8804 82.12 54.9032Z" fill="#F5F5F5"/>
<path d="M84.2936 46.4414H83.2617V48.957H84.2936V46.4414Z" fill="#E0E0E0"/>
<path d="M86.5319 46.4414H85.5V48.957H86.5319V46.4414Z" fill="#E0E0E0"/>
<path d="M84.2936 51.2148H83.2617V53.7304H84.2936V51.2148Z" fill="#E0E0E0"/>
<path d="M86.5319 51.2148H85.5V53.7304H86.5319V51.2148Z" fill="#E0E0E0"/>
<path d="M84.2936 55.9883H83.2617V58.5039H84.2936V55.9883Z" fill="#E0E0E0"/>
<path d="M86.5319 55.9883H85.5V58.5039H86.5319V55.9883Z" fill="#E0E0E0"/>
<path d="M88.3624 43.8555H75.1621V44.4027H88.3624V43.8555Z" fill="#E0E0E0"/>
<path d="M87.5796 44.454C87.5796 44.4749 85.0141 44.4939 81.8523 44.4939C78.6885 44.4939 76.123 44.4768 76.123 44.454C76.123 44.4331 78.6866 44.4141 81.8523 44.4141C85.0141 44.4141 87.5796 44.4331 87.5796 44.454Z" fill="#EBEBEB"/>
<path d="M130.553 28.6445H120.742V59.8501H130.553V28.6445Z" fill="#F5F5F5"/>
<path d="M130.552 28.6445H125.646V59.7646H130.552V28.6445Z" fill="#EBEBEB"/>
<path d="M125.328 25.5781H121.863V28.6409H125.328V25.5781Z" fill="#F5F5F5"/>
<path d="M125.327 25.5781H124.502V28.6409H125.327V25.5781Z" fill="#EBEBEB"/>
<path d="M119.924 28.6434V28.4648H130.841V28.6434" fill="#E0E0E0"/>
<path d="M123.509 29.9805H122.678V31.738H123.509V29.9805Z" fill="#FAFAFA"/>
<path d="M125.648 32.4248C125.648 32.4438 124.55 32.459 123.194 32.459C121.838 32.459 120.74 32.4438 120.74 32.4248C120.74 32.4058 121.838 32.3906 123.194 32.3906C124.55 32.3906 125.648 32.4058 125.648 32.4248Z" fill="#E0E0E0"/>
<path d="M128.46 29.9805H127.629V31.738H128.46V29.9805Z" fill="#E0E0E0"/>
<path d="M130.597 32.4287C130.597 32.4477 129.499 32.4629 128.143 32.4629C126.788 32.4629 125.689 32.4477 125.689 32.4287C125.689 32.4097 126.788 32.3945 128.143 32.3945C129.499 32.3945 130.597 32.4097 130.597 32.4287Z" fill="#E0E0E0"/>
<path d="M128.46 33.4688H127.629V35.2263H128.46V33.4688Z" fill="#E0E0E0"/>
<path d="M130.597 35.917C130.597 35.936 129.499 35.9512 128.143 35.9512C126.788 35.9512 125.689 35.936 125.689 35.917C125.689 35.898 126.788 35.8828 128.143 35.8828C129.499 35.8847 130.597 35.8999 130.597 35.917Z" fill="#E0E0E0"/>
<path d="M128.46 37.0625H127.629V38.82H128.46V37.0625Z" fill="#E0E0E0"/>
<path d="M130.597 39.5108C130.597 39.5298 129.499 39.545 128.143 39.545C126.788 39.545 125.689 39.5298 125.689 39.5108C125.689 39.4918 126.788 39.4766 128.143 39.4766C129.499 39.4766 130.597 39.4918 130.597 39.5108Z" fill="#E0E0E0"/>
<path d="M128.46 40.6562H127.629V42.4138H128.46V40.6562Z" fill="#E0E0E0"/>
<path d="M130.597 43.1045C130.597 43.1235 129.499 43.1387 128.143 43.1387C126.788 43.1387 125.689 43.1235 125.689 43.1045C125.689 43.0855 126.788 43.0703 128.143 43.0703C129.499 43.0703 130.597 43.0855 130.597 43.1045Z" fill="#E0E0E0"/>
<path d="M128.46 44.1484H127.629V45.9059H128.46V44.1484Z" fill="#E0E0E0"/>
<path d="M130.597 46.5967C130.597 46.6157 129.499 46.6309 128.143 46.6309C126.788 46.6309 125.689 46.6157 125.689 46.5967C125.689 46.5777 126.788 46.5625 128.143 46.5625C129.499 46.5625 130.597 46.5777 130.597 46.5967Z" fill="#E0E0E0"/>
<path d="M128.46 47.6523H127.629V49.4098H128.46V47.6523Z" fill="#E0E0E0"/>
<path d="M128.46 51.2031H127.629V52.9606H128.46V51.2031Z" fill="#E0E0E0"/>
<path d="M130.597 50.1006C130.597 50.1196 129.499 50.1348 128.143 50.1348C126.788 50.1348 125.689 50.1196 125.689 50.1006C125.689 50.0816 126.788 50.0664 128.143 50.0664C129.499 50.0664 130.597 50.0816 130.597 50.1006Z" fill="#E0E0E0"/>
<path d="M123.509 33.5195H122.678V35.277H123.509V33.5195Z" fill="#FAFAFA"/>
<path d="M125.648 35.9678C125.648 35.9868 124.55 36.002 123.194 36.002C121.838 36.002 120.74 35.9868 120.74 35.9678C120.74 35.9488 121.838 35.9336 123.194 35.9336C124.55 35.9355 125.648 35.9507 125.648 35.9678Z" fill="#E0E0E0"/>
<path d="M123.509 37.0625H122.678V38.82H123.509V37.0625Z" fill="#FAFAFA"/>
<path d="M125.648 39.5108C125.648 39.5298 124.55 39.545 123.194 39.545C121.838 39.545 120.74 39.5298 120.74 39.5108C120.74 39.4918 121.838 39.4766 123.194 39.4766C124.55 39.4766 125.648 39.4918 125.648 39.5108Z" fill="#E0E0E0"/>
<path d="M123.509 40.6055H122.678V42.363H123.509V40.6055Z" fill="#FAFAFA"/>
<path d="M125.648 43.0537C125.648 43.0727 124.55 43.0879 123.194 43.0879C121.838 43.0879 120.74 43.0727 120.74 43.0537C120.74 43.0347 121.838 43.0195 123.194 43.0195C124.55 43.0214 125.648 43.0366 125.648 43.0537Z" fill="#E0E0E0"/>
<path d="M123.509 44.1484H122.678V45.9059H123.509V44.1484Z" fill="#FAFAFA"/>
<path d="M125.648 46.5967C125.648 46.6157 124.55 46.6309 123.194 46.6309C121.838 46.6309 120.74 46.6157 120.74 46.5967C120.74 46.5777 121.838 46.5625 123.194 46.5625C124.55 46.5625 125.648 46.5777 125.648 46.5967Z" fill="#E0E0E0"/>
<path d="M123.509 47.6914H122.678V49.4489H123.509V47.6914Z" fill="#FAFAFA"/>
<path d="M125.648 50.1358C125.648 50.1548 124.55 50.17 123.194 50.17C121.838 50.17 120.74 50.1548 120.74 50.1358C120.74 50.1168 121.838 50.1016 123.194 50.1016C124.55 50.1035 125.648 50.1168 125.648 50.1358Z" fill="#E0E0E0"/>
<path d="M123.509 51.2344H122.678V52.9919H123.509V51.2344Z" fill="#FAFAFA"/>
<path d="M136.89 45.1406H120.785V66.4548H136.89V45.1406Z" fill="#EBEBEB"/>
<path d="M136.889 45.1406H129.338V66.4548H136.889V45.1406Z" fill="#E0E0E0"/>
<path d="M125.609 48.0273H124.16V51.5575H125.609V48.0273Z" fill="#F5F5F5"/>
<path d="M125.609 61.8438H124.16V65.3739H125.609V61.8438Z" fill="#F5F5F5"/>
<path d="M129.337 52.9433C129.337 52.9832 127.423 53.0155 125.06 53.0155C122.697 53.0155 120.783 52.9832 120.783 52.9433C120.783 52.9034 122.697 52.8711 125.06 52.8711C127.423 52.8711 129.337 52.9034 129.337 52.9433Z" fill="#F5F5F5"/>
<path d="M125.609 54.9883H124.16V58.5185H125.609V54.9883Z" fill="#F5F5F5"/>
<path d="M129.337 59.9042C129.337 59.9441 127.423 59.9764 125.06 59.9764C122.697 59.9764 120.783 59.9441 120.783 59.9042C120.783 59.8643 122.697 59.832 125.06 59.832C127.423 59.8339 129.337 59.8643 129.337 59.9042Z" fill="#F5F5F5"/>
<path d="M132.39 48.0273H130.941V51.5575H132.39V48.0273Z" fill="#F5F5F5"/>
<path d="M135.53 48.0273H134.082V51.5575H135.53V48.0273Z" fill="#F5F5F5"/>
<path d="M132.39 54.7266H130.941V58.2568H132.39V54.7266Z" fill="#F5F5F5"/>
<path d="M135.53 54.7266H134.082V58.2568H135.53V54.7266Z" fill="#F5F5F5"/>
<path d="M132.39 61.4258H130.941V64.956H132.39V61.4258Z" fill="#F5F5F5"/>
<path d="M135.53 61.4258H134.082V64.956H135.53V61.4258Z" fill="#F5F5F5"/>
<path d="M138.099 44.3984H119.574V45.1679H138.099V44.3984Z" fill="#E0E0E0"/>
<path d="M137.002 45.2402C137.002 45.2801 133.403 45.3124 128.963 45.3124C124.523 45.3124 120.924 45.2801 120.924 45.2402C120.924 45.2003 124.523 45.168 128.963 45.168C133.403 45.168 137.002 45.2003 137.002 45.2402Z" fill="#EBEBEB"/>
<path d="M120.054 66.3408H103.822L103.75 40.5977H119.983L120.054 66.3408Z" fill="#EBEBEB"/>
<path d="M119.984 40.5977H111.867V66.3427H119.984V40.5977Z" fill="#E0E0E0"/>
<path d="M111.335 35.5273H105.604V40.5946H111.335V35.5273Z" fill="#EBEBEB"/>
<path d="M111.338 35.5273H109.971V40.5946H111.338V35.5273Z" fill="#E0E0E0"/>
<path d="M120.459 40.3008H102.398V40.5972H120.459V40.3008Z" fill="#E0E0E0"/>
<path d="M108.33 42.8047H106.955V45.7117H108.33V42.8047Z" fill="white"/>
<path d="M111.867 46.8559C111.867 46.8863 110.049 46.911 107.809 46.911C105.568 46.911 103.752 46.8863 103.752 46.8559C103.752 46.8255 105.568 46.8008 107.809 46.8008C110.049 46.8008 111.867 46.8255 111.867 46.8559Z" fill="#E0E0E0"/>
<path d="M116.517 42.8047H115.143V45.7117H116.517V42.8047Z" fill="#F5F5F5"/>
<path d="M120.054 46.852C120.054 46.8824 118.237 46.9071 115.997 46.9071C113.755 46.9071 111.939 46.8824 111.939 46.852C111.939 46.8216 113.755 46.7969 115.997 46.7969C118.237 46.7969 120.054 46.8216 120.054 46.852Z" fill="#EBEBEB"/>
<path d="M116.517 48.5781H115.143V51.4851H116.517V48.5781Z" fill="#F5F5F5"/>
<path d="M120.054 52.6254C120.054 52.6558 118.237 52.6805 115.997 52.6805C113.755 52.6805 111.939 52.6558 111.939 52.6254C111.939 52.595 113.755 52.5703 115.997 52.5703C118.237 52.5703 120.054 52.595 120.054 52.6254Z" fill="#EBEBEB"/>
<path d="M116.517 54.5273H115.143V57.4343H116.517V54.5273Z" fill="#F5F5F5"/>
<path d="M120.054 58.5747C120.054 58.6051 118.237 58.6298 115.997 58.6298C113.755 58.6298 111.939 58.6051 111.939 58.5747C111.939 58.5443 113.755 58.5196 115.997 58.5196C118.237 58.5177 120.054 58.5424 120.054 58.5747Z" fill="#EBEBEB"/>
<path d="M116.517 60.4727H115.143V63.3797H116.517V60.4727Z" fill="#F5F5F5"/>
<path d="M120.054 64.5199C120.054 64.5503 118.237 64.575 115.997 64.575C113.755 64.575 111.939 64.5503 111.939 64.5199C111.939 64.4895 113.755 64.4648 115.997 64.4648C118.237 64.4648 120.054 64.4895 120.054 64.5199Z" fill="#EBEBEB"/>
<path d="M108.33 48.668H106.955V51.575H108.33V48.668Z" fill="white"/>
<path d="M111.867 52.7153C111.867 52.7457 110.049 52.7704 107.809 52.7704C105.568 52.7704 103.752 52.7457 103.752 52.7153C103.752 52.6849 105.568 52.6602 107.809 52.6602C110.049 52.6602 111.867 52.6849 111.867 52.7153Z" fill="#E0E0E0"/>
<path d="M108.33 54.5273H106.955V57.4343H108.33V54.5273Z" fill="white"/>
<path d="M111.867 58.5747C111.867 58.6051 110.049 58.6298 107.809 58.6298C105.568 58.6298 103.752 58.6051 103.752 58.5747C103.752 58.5443 105.568 58.5196 107.809 58.5196C110.049 58.5177 111.867 58.5443 111.867 58.5747Z" fill="#E0E0E0"/>
<path d="M108.33 60.3867H106.955V63.2937H108.33V60.3867Z" fill="white"/>
<path d="M111.867 64.434C111.867 64.4644 110.049 64.4891 107.809 64.4891C105.568 64.4891 103.752 64.4644 103.752 64.434C103.752 64.4036 105.568 64.3789 107.809 64.3789C110.049 64.3789 111.867 64.4036 111.867 64.434Z" fill="#E0E0E0"/>
<path d="M100.03 18.8633H86.6973V66.388H100.03V18.8633Z" fill="#EBEBEB"/>
<path d="M88.9664 20.5039H87.7793V23.0157H88.9664V20.5039Z" fill="white"/>
<path d="M91.4625 20.5039H90.2754V23.0157H91.4625V20.5039Z" fill="white"/>
<path d="M93.9566 20.5039H92.7695V23.0157H93.9566V20.5039Z" fill="white"/>
<path d="M96.4508 20.5039H95.2637V23.0157H96.4508V20.5039Z" fill="white"/>
<path d="M98.9469 20.5039H97.7598V23.0157H98.9469V20.5039Z" fill="white"/>
<path d="M88.9664 24.0156H87.7793V26.5274H88.9664V24.0156Z" fill="white"/>
<path d="M91.4625 24.0156H90.2754V26.5274H91.4625V24.0156Z" fill="white"/>
<path d="M93.9566 24.0156H92.7695V26.5274H93.9566V24.0156Z" fill="white"/>
<path d="M96.4508 24.0156H95.2637V26.5274H96.4508V24.0156Z" fill="white"/>
<path d="M98.9469 24.0156H97.7598V26.5274H98.9469V24.0156Z" fill="white"/>
<path d="M88.9664 27.5312H87.7793V30.0431H88.9664V27.5312Z" fill="white"/>
<path d="M91.4625 27.5312H90.2754V30.0431H91.4625V27.5312Z" fill="white"/>
<path d="M93.9566 27.5312H92.7695V30.0431H93.9566V27.5312Z" fill="white"/>
<path d="M96.4508 27.5312H95.2637V30.0431H96.4508V27.5312Z" fill="white"/>
<path d="M98.9469 27.5312H97.7598V30.0431H98.9469V27.5312Z" fill="white"/>
<path d="M88.9664 31.0469H87.7793V33.5587H88.9664V31.0469Z" fill="white"/>
<path d="M91.4625 31.0469H90.2754V33.5587H91.4625V31.0469Z" fill="white"/>
<path d="M93.9566 31.0469H92.7695V33.5587H93.9566V31.0469Z" fill="white"/>
<path d="M96.4508 31.0469H95.2637V33.5587H96.4508V31.0469Z" fill="white"/>
<path d="M98.9469 31.0469H97.7598V33.5587H98.9469V31.0469Z" fill="white"/>
<path d="M88.9664 34.5586H87.7793V37.0704H88.9664V34.5586Z" fill="white"/>
<path d="M91.4625 34.5586H90.2754V37.0704H91.4625V34.5586Z" fill="white"/>
<path d="M93.9566 34.5586H92.7695V37.0704H93.9566V34.5586Z" fill="white"/>
<path d="M96.4508 34.5586H95.2637V37.0704H96.4508V34.5586Z" fill="white"/>
<path d="M98.9469 34.5586H97.7598V37.0704H98.9469V34.5586Z" fill="white"/>
<path d="M88.9664 38.0703H87.7793V40.5821H88.9664V38.0703Z" fill="white"/>
<path d="M91.4625 38.0703H90.2754V40.5821H91.4625V38.0703Z" fill="white"/>
<path d="M93.9566 38.0703H92.7695V40.5821H93.9566V38.0703Z" fill="white"/>
<path d="M96.4508 38.0703H95.2637V40.5821H96.4508V38.0703Z" fill="white"/>
<path d="M98.9469 38.0703H97.7598V40.5821H98.9469V38.0703Z" fill="white"/>
<path d="M88.9664 41.5859H87.7793V44.0977H88.9664V41.5859Z" fill="white"/>
<path d="M91.4625 41.5859H90.2754V44.0977H91.4625V41.5859Z" fill="white"/>
<path d="M93.9566 41.5859H92.7695V44.0977H93.9566V41.5859Z" fill="white"/>
<path d="M96.4508 41.5859H95.2637V44.0977H96.4508V41.5859Z" fill="white"/>
<path d="M98.9469 41.5859H97.7598V44.0977H98.9469V41.5859Z" fill="white"/>
<path d="M88.9664 45.0977H87.7793V47.6095H88.9664V45.0977Z" fill="white"/>
<path d="M91.4625 45.0977H90.2754V47.6095H91.4625V45.0977Z" fill="white"/>
<path d="M93.9566 45.0977H92.7695V47.6095H93.9566V45.0977Z" fill="white"/>
<path d="M96.4508 45.0977H95.2637V47.6095H96.4508V45.0977Z" fill="white"/>
<path d="M98.9469 45.0977H97.7598V47.6095H98.9469V45.0977Z" fill="white"/>
<path d="M88.9664 48.6133H87.7793V51.1251H88.9664V48.6133Z" fill="white"/>
<path d="M91.4625 48.6133H90.2754V51.1251H91.4625V48.6133Z" fill="white"/>
<path d="M93.9566 48.6133H92.7695V51.1251H93.9566V48.6133Z" fill="white"/>
<path d="M96.4508 48.6133H95.2637V51.1251H96.4508V48.6133Z" fill="white"/>
<path d="M98.9469 48.6133H97.7598V51.1251H98.9469V48.6133Z" fill="white"/>
<path d="M88.9664 52.125H87.7793V54.6368H88.9664V52.125Z" fill="white"/>
<path d="M91.4625 52.125H90.2754V54.6368H91.4625V52.125Z" fill="white"/>
<path d="M93.9566 52.125H92.7695V54.6368H93.9566V52.125Z" fill="white"/>
<path d="M96.4508 52.125H95.2637V54.6368H96.4508V52.125Z" fill="white"/>
<path d="M98.9469 52.125H97.7598V54.6368H98.9469V52.125Z" fill="white"/>
<path d="M88.9664 55.6406H87.7793V58.1524H88.9664V55.6406Z" fill="white"/>
<path d="M91.4625 55.6406H90.2754V58.1524H91.4625V55.6406Z" fill="white"/>
<path d="M93.9566 55.6406H92.7695V58.1524H93.9566V55.6406Z" fill="white"/>
<path d="M96.4508 55.6406H95.2637V58.1524H96.4508V55.6406Z" fill="white"/>
<path d="M98.9469 55.6406H97.7598V58.1524H98.9469V55.6406Z" fill="white"/>
<path d="M88.9664 59.1523H87.7793V61.6641H88.9664V59.1523Z" fill="white"/>
<path d="M91.4625 59.1523H90.2754V61.6641H91.4625V59.1523Z" fill="white"/>
<path d="M93.9566 59.1523H92.7695V61.6641H93.9566V59.1523Z" fill="white"/>
<path d="M96.4508 59.1523H95.2637V61.6641H96.4508V59.1523Z" fill="white"/>
<path d="M98.9469 59.1523H97.7598V61.6641H98.9469V59.1523Z" fill="white"/>
<path d="M88.9664 62.4727H87.7793V64.9845H88.9664V62.4727Z" fill="white"/>
<path d="M91.4625 62.4727H90.2754V64.9845H91.4625V62.4727Z" fill="white"/>
<path d="M93.9566 62.4727H92.7695V64.9845H93.9566V62.4727Z" fill="white"/>
<path d="M96.4508 62.4727H95.2637V64.9845H96.4508V62.4727Z" fill="white"/>
<path d="M98.9469 62.4727H97.7598V64.9845H98.9469V62.4727Z" fill="white"/>
<path d="M105.853 18.8633H100.029V66.388H105.853V18.8633Z" fill="#E0E0E0"/>
<path d="M93.9586 20.5039H92.7715V23.0157H93.9586V20.5039Z" fill="white"/>
<path d="M96.4508 20.5039H95.2637V23.0157H96.4508V20.5039Z" fill="white"/>
<path d="M98.9469 20.5039H97.7598V23.0157H98.9469V20.5039Z" fill="white"/>
<path d="M93.9586 24.0156H92.7715V26.5274H93.9586V24.0156Z" fill="white"/>
<path d="M96.4508 24.0156H95.2637V26.5274H96.4508V24.0156Z" fill="white"/>
<path d="M98.9469 24.0156H97.7598V26.5274H98.9469V24.0156Z" fill="white"/>
<path d="M93.9586 27.5273H92.7715V30.0391H93.9586V27.5273Z" fill="white"/>
<path d="M96.4508 27.5273H95.2637V30.0391H96.4508V27.5273Z" fill="white"/>
<path d="M98.9469 27.5273H97.7598V30.0391H98.9469V27.5273Z" fill="white"/>
<path d="M93.9586 31.043H92.7715V33.5548H93.9586V31.043Z" fill="white"/>
<path d="M96.4508 31.043H95.2637V33.5548H96.4508V31.043Z" fill="white"/>
<path d="M98.9469 31.043H97.7598V33.5548H98.9469V31.043Z" fill="white"/>
<path d="M93.9586 34.5586H92.7715V37.0704H93.9586V34.5586Z" fill="white"/>
<path d="M96.4508 34.5586H95.2637V37.0704H96.4508V34.5586Z" fill="white"/>
<path d="M98.9469 34.5586H97.7598V37.0704H98.9469V34.5586Z" fill="white"/>
<path d="M93.9586 38.0703H92.7715V40.5821H93.9586V38.0703Z" fill="white"/>
<path d="M96.4508 38.0703H95.2637V40.5821H96.4508V38.0703Z" fill="white"/>
<path d="M98.9469 38.0703H97.7598V40.5821H98.9469V38.0703Z" fill="white"/>
<path d="M93.9586 41.5859H92.7715V44.0977H93.9586V41.5859Z" fill="white"/>
<path d="M96.4508 41.5859H95.2637V44.0977H96.4508V41.5859Z" fill="white"/>
<path d="M98.9469 41.5859H97.7598V44.0977H98.9469V41.5859Z" fill="white"/>
<path d="M93.9586 45.0977H92.7715V47.6095H93.9586V45.0977Z" fill="white"/>
<path d="M96.4508 45.0977H95.2637V47.6095H96.4508V45.0977Z" fill="white"/>
<path d="M98.9469 45.0977H97.7598V47.6095H98.9469V45.0977Z" fill="white"/>
<path d="M93.9586 48.6133H92.7715V51.1251H93.9586V48.6133Z" fill="white"/>
<path d="M96.4508 48.6133H95.2637V51.1251H96.4508V48.6133Z" fill="white"/>
<path d="M98.9469 48.6133H97.7598V51.1251H98.9469V48.6133Z" fill="white"/>
<path d="M93.9586 52.125H92.7715V54.6368H93.9586V52.125Z" fill="white"/>
<path d="M96.4508 52.125H95.2637V54.6368H96.4508V52.125Z" fill="white"/>
<path d="M98.9469 52.125H97.7598V54.6368H98.9469V52.125Z" fill="white"/>
<path d="M93.9586 55.6406H92.7715V58.1524H93.9586V55.6406Z" fill="white"/>
<path d="M96.4508 55.6406H95.2637V58.1524H96.4508V55.6406Z" fill="white"/>
<path d="M98.9469 55.6406H97.7598V58.1524H98.9469V55.6406Z" fill="white"/>
<path d="M93.9586 59.1523H92.7715V61.6641H93.9586V59.1523Z" fill="white"/>
<path d="M96.4508 59.1523H95.2637V61.6641H96.4508V59.1523Z" fill="white"/>
<path d="M98.9469 59.1523H97.7598V61.6641H98.9469V59.1523Z" fill="white"/>
<path d="M93.9586 62.4727H92.7715V64.9845H93.9586V62.4727Z" fill="white"/>
<path d="M96.4508 62.4727H95.2637V64.9845H96.4508V62.4727Z" fill="white"/>
<path d="M98.9469 62.4727H97.7598V64.9845H98.9469V62.4727Z" fill="white"/>
<path d="M102.535 20.5039H101.348V23.0157H102.535V20.5039Z" fill="#EBEBEB"/>
<path d="M105.031 20.5039H103.844V23.0157H105.031V20.5039Z" fill="#EBEBEB"/>
<path d="M102.535 24.0156H101.348V26.5274H102.535V24.0156Z" fill="#EBEBEB"/>
<path d="M105.031 24.0156H103.844V26.5274H105.031V24.0156Z" fill="#EBEBEB"/>
<path d="M102.535 27.5273H101.348V30.0391H102.535V27.5273Z" fill="#EBEBEB"/>
<path d="M105.031 27.5273H103.844V30.0391H105.031V27.5273Z" fill="#EBEBEB"/>
<path d="M102.535 31.043H101.348V33.5548H102.535V31.043Z" fill="#EBEBEB"/>
<path d="M105.031 31.043H103.844V33.5548H105.031V31.043Z" fill="#EBEBEB"/>
<path d="M102.535 34.5586H101.348V37.0704H102.535V34.5586Z" fill="#EBEBEB"/>
<path d="M105.031 34.5586H103.844V37.0704H105.031V34.5586Z" fill="#EBEBEB"/>
<path d="M102.535 38.0703H101.348V40.5821H102.535V38.0703Z" fill="#EBEBEB"/>
<path d="M105.031 38.0703H103.844V40.5821H105.031V38.0703Z" fill="#EBEBEB"/>
<path d="M102.535 41.5859H101.348V44.0977H102.535V41.5859Z" fill="#EBEBEB"/>
<path d="M105.031 41.5859H103.844V44.0977H105.031V41.5859Z" fill="#EBEBEB"/>
<path d="M102.535 45.0977H101.348V47.6095H102.535V45.0977Z" fill="#EBEBEB"/>
<path d="M105.031 45.0977H103.844V47.6095H105.031V45.0977Z" fill="#EBEBEB"/>
<path d="M102.535 48.6133H101.348V51.1251H102.535V48.6133Z" fill="#EBEBEB"/>
<path d="M105.031 48.6133H103.844V51.1251H105.031V48.6133Z" fill="#EBEBEB"/>
<path d="M102.535 52.125H101.348V54.6368H102.535V52.125Z" fill="#EBEBEB"/>
<path d="M105.031 52.125H103.844V54.6368H105.031V52.125Z" fill="#EBEBEB"/>
<path d="M102.535 55.6406H101.348V58.1524H102.535V55.6406Z" fill="#EBEBEB"/>
<path d="M105.031 55.6406H103.844V58.1524H105.031V55.6406Z" fill="#EBEBEB"/>
<path d="M102.535 59.1523H101.348V61.6641H102.535V59.1523Z" fill="#EBEBEB"/>
<path d="M105.031 59.1523H103.844V61.6641H105.031V59.1523Z" fill="#EBEBEB"/>
<path d="M102.535 62.4727H101.348V64.9845H102.535V62.4727Z" fill="#EBEBEB"/>
<path d="M105.031 62.4727H103.844V64.9845H105.031V62.4727Z" fill="#EBEBEB"/>
<path d="M116.919 30.082C116.974 30.082 117.017 31.2087 117.017 32.5957C117.017 33.9846 116.974 35.1113 116.919 35.1113C116.866 35.1113 116.82 33.9865 116.82 32.5957C116.82 31.2068 116.864 30.082 116.919 30.082Z" fill="#E0E0E0"/>
<path d="M121.902 35.5039L107.926 39.4844V66.4549H121.902V35.5039Z" fill="#E0E0E0"/>
<path d="M110.021 38.8701V34.0859H118.627V36.4191L110.021 38.8701Z" fill="#E0E0E0"/>
<path d="M108.992 39.7523L109.102 64.553H120.471V36.4805L108.992 39.7523Z" fill="white"/>
<path d="M112.065 65.12C112.01 65.12 111.967 59.1692 111.967 51.8276C111.967 44.486 112.01 38.5352 112.065 38.5352C112.118 38.5352 112.164 44.486 112.164 51.8276C112.164 59.1673 112.12 65.12 112.065 65.12Z" fill="#E0E0E0"/>
<path d="M116.843 65.1196C116.788 65.1196 116.744 58.8363 116.744 51.0881C116.744 43.3361 116.788 37.0547 116.843 37.0547C116.896 37.0547 116.941 43.3361 116.941 51.0881C116.941 58.8363 116.898 65.1196 116.843 65.1196Z" fill="#E0E0E0"/>
<path d="M121.255 43.5363C121.255 43.5914 118.424 43.6351 114.933 43.6351C111.44 43.6351 108.611 43.5914 108.611 43.5363C108.611 43.4831 111.442 43.4375 114.933 43.4375C118.424 43.4375 121.255 43.4812 121.255 43.5363Z" fill="#E0E0E0"/>
<path d="M121.138 51.1261C121.138 51.1812 118.307 51.2249 114.816 51.2249C111.323 51.2249 108.494 51.1812 108.494 51.1261C108.494 51.071 111.325 51.0273 114.816 51.0273C118.305 51.0292 121.138 51.0729 121.138 51.1261Z" fill="#E0E0E0"/>
<path d="M121.846 58.7746C121.846 58.8297 118.909 58.8734 115.287 58.8734C111.663 58.8734 108.729 58.8297 108.729 58.7746C108.729 58.7195 111.665 58.6758 115.287 58.6758C118.909 58.6777 121.846 58.7214 121.846 58.7746Z" fill="#E0E0E0"/>
<path d="M121.849 35.5024C121.864 35.5537 118.771 36.4809 114.94 37.5715C111.11 38.6621 107.994 39.5038 107.979 39.4525C107.963 39.4012 111.057 38.474 114.887 37.3834C118.718 36.2909 121.834 35.4492 121.849 35.5024Z" fill="#E0E0E0"/>
<path d="M112.705 49.2064C112.667 49.1684 113.354 48.416 114.24 47.5268C115.126 46.6376 115.876 45.9479 115.914 45.9859C115.952 46.0239 115.264 46.7763 114.378 47.6655C113.492 48.5547 112.742 49.2444 112.705 49.2064Z" fill="#E0E0E0"/>
<path d="M114.84 46.1525C114.878 46.1924 114.629 46.4888 114.287 46.8156C113.944 47.1424 113.637 47.3761 113.6 47.3362C113.562 47.2963 113.81 46.9999 114.152 46.6731C114.495 46.3463 114.804 46.1145 114.84 46.1525Z" fill="#E0E0E0"/>
<path d="M115.629 54.74C115.667 54.778 115.08 55.4411 114.319 56.2201C113.556 56.9991 112.907 57.5995 112.869 57.5615C112.831 57.5235 113.418 56.8604 114.179 56.0814C114.94 55.3024 115.59 54.702 115.629 54.74Z" fill="#E0E0E0"/>
<path d="M114.557 55.0741C114.597 55.1102 114.402 55.3914 114.122 55.703C113.841 56.0146 113.582 56.2369 113.54 56.2008C113.501 56.1647 113.696 55.8835 113.976 55.5719C114.258 55.2622 114.517 55.038 114.557 55.0741Z" fill="#E0E0E0"/>
<path d="M119.384 39.7564C119.426 39.7925 119.134 40.201 118.733 40.6722C118.331 41.1434 117.973 41.4968 117.932 41.4607C117.89 41.4246 118.182 41.0161 118.583 40.5449C118.984 40.0737 119.342 39.7203 119.384 39.7564Z" fill="#E0E0E0"/>
<path d="M119.059 39.2576C119.099 39.2937 118.892 39.5882 118.597 39.9169C118.302 40.2437 118.029 40.4793 117.989 40.4432C117.95 40.4071 118.156 40.1126 118.453 39.7839C118.747 39.4571 119.019 39.2215 119.059 39.2576Z" fill="#E0E0E0"/>
<path d="M111.015 61.4635C111.059 61.4958 110.881 61.8245 110.616 62.1988C110.351 62.5731 110.101 62.8505 110.057 62.8201C110.014 62.7897 110.192 62.4591 110.457 62.0848C110.722 61.7086 110.972 61.4312 111.015 61.4635Z" fill="#E0E0E0"/>
<path d="M110.679 61.013C110.718 61.051 110.561 61.2828 110.328 61.5317C110.096 61.7806 109.874 61.9535 109.834 61.9174C109.795 61.8813 109.952 61.6476 110.185 61.3987C110.417 61.1479 110.639 60.975 110.679 61.013Z" fill="#E0E0E0"/>
<path d="M59.52 32.8984H50.9395V60.1881H59.52V32.8984Z" fill="#F5F5F5"/>
<path d="M59.5208 32.8984H55.2305V60.114H59.5208V32.8984Z" fill="#EBEBEB"/>
<path d="M54.9493 30.2188H51.9199V32.8977H54.9493V30.2188Z" fill="#F5F5F5"/>
<path d="M54.9479 30.2188H54.2266V32.8977H54.9479V30.2188Z" fill="#EBEBEB"/>
<path d="M50.2246 32.8999V32.7422H59.7727V32.8999" fill="#E0E0E0"/>
<path d="M53.3618 34.0664H52.6348V35.6035H53.3618V34.0664Z" fill="#FAFAFA"/>
<path d="M55.2297 36.2084C55.2297 36.2255 54.2698 36.2369 53.0846 36.2369C51.8994 36.2369 50.9395 36.2236 50.9395 36.2084C50.9395 36.1913 51.8994 36.1799 53.0846 36.1799C54.2698 36.178 55.2297 36.1913 55.2297 36.2084Z" fill="#E0E0E0"/>
<path d="M57.688 34.0664H56.9609V35.6035H57.688V34.0664Z" fill="#E0E0E0"/>
<path d="M59.5579 36.2084C59.5579 36.2255 58.5979 36.2369 57.4127 36.2369C56.2275 36.2369 55.2676 36.2236 55.2676 36.2084C55.2676 36.1913 56.2275 36.1799 57.4127 36.1799C58.5961 36.178 59.5579 36.1913 59.5579 36.2084Z" fill="#E0E0E0"/>
<path d="M57.688 37.1211H56.9609V38.6582H57.688V37.1211Z" fill="#E0E0E0"/>
<path d="M59.5579 39.2592C59.5579 39.2763 58.5979 39.2877 57.4127 39.2877C56.2275 39.2877 55.2676 39.2744 55.2676 39.2592C55.2676 39.244 56.2275 39.2306 57.4127 39.2306C58.5961 39.2287 59.5579 39.2421 59.5579 39.2592Z" fill="#E0E0E0"/>
<path d="M57.688 40.2617H56.9609V41.7988H57.688V40.2617Z" fill="#E0E0E0"/>
<path d="M59.5579 42.3996C59.5579 42.4167 58.5979 42.4281 57.4127 42.4281C56.2275 42.4281 55.2676 42.4148 55.2676 42.3996C55.2676 42.3825 56.2275 42.3711 57.4127 42.3711C58.5961 42.3711 59.5579 42.3844 59.5579 42.3996Z" fill="#E0E0E0"/>
<path d="M57.688 43.4062H56.9609V44.9433H57.688V43.4062Z" fill="#E0E0E0"/>
<path d="M59.5579 45.5482C59.5579 45.5653 58.5979 45.5767 57.4127 45.5767C56.2275 45.5767 55.2676 45.5634 55.2676 45.5482C55.2676 45.533 56.2275 45.5197 57.4127 45.5197C58.5961 45.5178 59.5579 45.5311 59.5579 45.5482Z" fill="#E0E0E0"/>
<path d="M57.688 46.457H56.9609V47.9941H57.688V46.457Z" fill="#E0E0E0"/>
<path d="M59.5579 48.599C59.5579 48.6161 58.5979 48.6275 57.4127 48.6275C56.2275 48.6275 55.2676 48.6142 55.2676 48.599C55.2676 48.5838 56.2275 48.5705 57.4127 48.5705C58.5961 48.5686 59.5579 48.5819 59.5579 48.599Z" fill="#E0E0E0"/>
<path d="M57.688 49.5234H56.9609V51.0605H57.688V49.5234Z" fill="#E0E0E0"/>
<path d="M57.688 52.6289H56.9609V54.166H57.688V52.6289Z" fill="#E0E0E0"/>
<path d="M59.5579 51.6613C59.5579 51.6784 58.5979 51.6898 57.4127 51.6898C56.2275 51.6898 55.2676 51.6765 55.2676 51.6613C55.2676 51.6442 56.2275 51.6328 57.4127 51.6328C58.5961 51.6328 59.5579 51.6461 59.5579 51.6613Z" fill="#E0E0E0"/>
<path d="M53.3618 37.1641H52.6348V38.7012H53.3618V37.1641Z" fill="#FAFAFA"/>
<path d="M55.2297 39.3058C55.2297 39.3229 54.2698 39.3343 53.0846 39.3343C51.8994 39.3343 50.9395 39.321 50.9395 39.3058C50.9395 39.2887 51.8994 39.2773 53.0846 39.2773C54.2698 39.2773 55.2297 39.2906 55.2297 39.3058Z" fill="#E0E0E0"/>
<path d="M53.3618 40.2617H52.6348V41.7988H53.3618V40.2617Z" fill="#FAFAFA"/>
<path d="M55.2297 42.4037C55.2297 42.4208 54.2698 42.4322 53.0846 42.4322C51.8994 42.4322 50.9395 42.4189 50.9395 42.4037C50.9395 42.3866 51.8994 42.3752 53.0846 42.3752C54.2698 42.3733 55.2297 42.3866 55.2297 42.4037Z" fill="#E0E0E0"/>
<path d="M53.3618 43.3594H52.6348V44.8965H53.3618V43.3594Z" fill="#FAFAFA"/>
<path d="M55.2297 45.5012C55.2297 45.5183 54.2698 45.5297 53.0846 45.5297C51.8994 45.5297 50.9395 45.5164 50.9395 45.5012C50.9395 45.4841 51.8994 45.4727 53.0846 45.4727C54.2698 45.4727 55.2297 45.486 55.2297 45.5012Z" fill="#E0E0E0"/>
<path d="M53.3618 46.457H52.6348V47.9941H53.3618V46.457Z" fill="#FAFAFA"/>
<path d="M55.2297 48.599C55.2297 48.6161 54.2698 48.6275 53.0846 48.6275C51.8994 48.6275 50.9395 48.6142 50.9395 48.599C50.9395 48.5838 51.8994 48.5705 53.0846 48.5705C54.2698 48.5686 55.2297 48.5819 55.2297 48.599Z" fill="#E0E0E0"/>
<path d="M53.3618 49.5586H52.6348V51.0957H53.3618V49.5586Z" fill="#FAFAFA"/>
<path d="M55.2297 51.6965C55.2297 51.7136 54.2698 51.725 53.0846 51.725C51.8994 51.725 50.9395 51.7117 50.9395 51.6965C50.9395 51.6794 51.8994 51.668 53.0846 51.668C54.2698 51.668 55.2297 51.6813 55.2297 51.6965Z" fill="#E0E0E0"/>
<path d="M53.3618 52.6523H52.6348V54.1894H53.3618V52.6523Z" fill="#FAFAFA"/>
<path d="M64.5441 45.0273H48.4395V66.3415H64.5441V45.0273Z" fill="#EBEBEB"/>
<path d="M64.5428 45.0273H56.9922V66.3415H64.5428V45.0273Z" fill="#E0E0E0"/>
<path d="M53.2629 47.9141H51.8145V51.4443H53.2629V47.9141Z" fill="#F5F5F5"/>
<path d="M53.2629 61.7305H51.8145V65.2607H53.2629V61.7305Z" fill="#F5F5F5"/>
<path d="M56.9916 52.83C56.9916 52.8699 55.0774 52.9022 52.7145 52.9022C50.3517 52.9022 48.4375 52.8699 48.4375 52.83C48.4375 52.7901 50.3517 52.7578 52.7145 52.7578C55.0774 52.7597 56.9916 52.792 56.9916 52.83Z" fill="#F5F5F5"/>
<path d="M53.2629 54.875H51.8145V58.4052H53.2629V54.875Z" fill="#F5F5F5"/>
<path d="M56.9916 59.791C56.9916 59.8309 55.0774 59.8632 52.7145 59.8632C50.3517 59.8632 48.4375 59.8309 48.4375 59.791C48.4375 59.7511 50.3517 59.7188 52.7145 59.7188C55.0774 59.7188 56.9916 59.7511 56.9916 59.791Z" fill="#F5F5F5"/>
<path d="M60.0441 47.9141H58.5957V51.4443H60.0441V47.9141Z" fill="#F5F5F5"/>
<path d="M63.1847 47.9141H61.7363V51.4443H63.1847V47.9141Z" fill="#F5F5F5"/>
<path d="M60.0441 54.6133H58.5957V58.1435H60.0441V54.6133Z" fill="#F5F5F5"/>
<path d="M63.1847 54.6133H61.7363V58.1435H63.1847V54.6133Z" fill="#F5F5F5"/>
<path d="M60.0441 61.3125H58.5957V64.8427H60.0441V61.3125Z" fill="#F5F5F5"/>
<path d="M63.1847 61.3125H61.7363V64.8427H63.1847V61.3125Z" fill="#F5F5F5"/>
<path d="M65.7548 44.2852H47.2305V45.0547H65.7548V44.2852Z" fill="#E0E0E0"/>
<path d="M64.6563 45.1269C64.6563 45.1668 61.0571 45.1991 56.6172 45.1991C52.1774 45.1991 48.5781 45.1668 48.5781 45.1269C48.5781 45.087 52.1774 45.0547 56.6172 45.0547C61.0571 45.0547 64.6563 45.087 64.6563 45.1269Z" fill="#EBEBEB"/>
<path d="M18.9808 23.4414H7.42578V60.1912H18.9808V23.4414Z" fill="#F5F5F5"/>
<path d="M18.9816 23.4414H13.2051V60.0886H18.9816V23.4414Z" fill="#EBEBEB"/>
<path d="M12.8262 19.832H8.74609V23.4401H12.8262V19.832Z" fill="#F5F5F5"/>
<path d="M12.8286 19.832H11.8555V23.4401H12.8286V19.832Z" fill="#EBEBEB"/>
<path d="M6.46484 23.4414V23.2305H19.3206V23.4414" fill="#E0E0E0"/>
<path d="M10.6878 25.0117H9.70898V27.0808H10.6878V25.0117Z" fill="#FAFAFA"/>
<path d="M13.2042 27.8954C13.2042 27.9182 11.9111 27.9353 10.315 27.9353C8.71893 27.9353 7.42578 27.9182 7.42578 27.8954C7.42578 27.8745 8.71893 27.8555 10.315 27.8555C11.9111 27.8555 13.2042 27.8726 13.2042 27.8954Z" fill="#E0E0E0"/>
<path d="M16.514 25.0117H15.5352V27.0808H16.514V25.0117Z" fill="#E0E0E0"/>
<path d="M19.0324 27.8954C19.0324 27.9182 17.7392 27.9353 16.1431 27.9353C14.5471 27.9353 13.2539 27.9182 13.2539 27.8954C13.2539 27.8745 14.5471 27.8555 16.1431 27.8555C17.7392 27.8555 19.0324 27.8726 19.0324 27.8954Z" fill="#E0E0E0"/>
<path d="M16.514 29.1211H15.5352V31.1902H16.514V29.1211Z" fill="#E0E0E0"/>
<path d="M19.0324 32.0047C19.0324 32.0256 17.7392 32.0446 16.1431 32.0446C14.5471 32.0446 13.2539 32.0275 13.2539 32.0047C13.2539 31.9838 14.5471 31.9648 16.1431 31.9648C17.7392 31.9648 19.0324 31.9819 19.0324 32.0047Z" fill="#E0E0E0"/>
<path d="M16.514 33.3555H15.5352V35.4246H16.514V33.3555Z" fill="#E0E0E0"/>
<path d="M19.0324 36.2352C19.0324 36.2561 17.7392 36.2751 16.1431 36.2751C14.5471 36.2751 13.2539 36.258 13.2539 36.2352C13.2539 36.2143 14.5471 36.1953 16.1431 36.1953C17.7392 36.1972 19.0324 36.2143 19.0324 36.2352Z" fill="#E0E0E0"/>
<path d="M16.514 37.5898H15.5352V39.6589H16.514V37.5898Z" fill="#E0E0E0"/>
<path d="M19.0324 40.4696C19.0324 40.4924 17.7392 40.5095 16.1431 40.5095C14.5471 40.5095 13.2539 40.4924 13.2539 40.4696C13.2539 40.4487 14.5471 40.4297 16.1431 40.4297C17.7392 40.4316 19.0324 40.4487 19.0324 40.4696Z" fill="#E0E0E0"/>
<path d="M16.514 41.6992H15.5352V43.7683H16.514V41.6992Z" fill="#E0E0E0"/>
<path d="M19.0324 44.5829C19.0324 44.6038 17.7392 44.6228 16.1431 44.6228C14.5471 44.6228 13.2539 44.6057 13.2539 44.5829C13.2539 44.562 14.5471 44.543 16.1431 44.543C17.7392 44.543 19.0324 44.5601 19.0324 44.5829Z" fill="#E0E0E0"/>
<path d="M16.514 45.8281H15.5352V47.8972H16.514V45.8281Z" fill="#E0E0E0"/>
<path d="M16.514 50.0117H15.5352V52.0808H16.514V50.0117Z" fill="#E0E0E0"/>
<path d="M19.0324 48.7079C19.0324 48.7288 17.7392 48.7478 16.1431 48.7478C14.5471 48.7478 13.2539 48.7307 13.2539 48.7079C13.2539 48.687 14.5471 48.668 16.1431 48.668C17.7392 48.6699 19.0324 48.687 19.0324 48.7079Z" fill="#E0E0E0"/>
<path d="M10.6878 29.1875H9.70898V31.2566H10.6878V29.1875Z" fill="#FAFAFA"/>
<path d="M13.2042 32.0672C13.2042 32.0881 11.9111 32.1071 10.315 32.1071C8.71893 32.1071 7.42578 32.09 7.42578 32.0672C7.42578 32.0444 8.71893 32.0273 10.315 32.0273C11.9111 32.0273 13.2042 32.0444 13.2042 32.0672Z" fill="#E0E0E0"/>
<path d="M10.6878 33.3555H9.70898V35.4246H10.6878V33.3555Z" fill="#FAFAFA"/>
<path d="M13.2042 36.2391C13.2042 36.2619 11.9111 36.279 10.315 36.279C8.71893 36.279 7.42578 36.2619 7.42578 36.2391C7.42578 36.2182 8.71893 36.1992 10.315 36.1992C11.9111 36.1992 13.2042 36.2182 13.2042 36.2391Z" fill="#E0E0E0"/>
<path d="M10.6878 37.5273H9.70898V39.5964H10.6878V37.5273Z" fill="#FAFAFA"/>
<path d="M13.2042 40.411C13.2042 40.4338 11.9111 40.4509 10.315 40.4509C8.71893 40.4509 7.42578 40.4338 7.42578 40.411C7.42578 40.3901 8.71893 40.3711 10.315 40.3711C11.9111 40.3711 13.2042 40.3882 13.2042 40.411Z" fill="#E0E0E0"/>
<path d="M10.6878 41.6992H9.70898V43.7683H10.6878V41.6992Z" fill="#FAFAFA"/>
<path d="M13.2042 44.5829C13.2042 44.6038 11.9111 44.6228 10.315 44.6228C8.71893 44.6228 7.42578 44.6057 7.42578 44.5829C7.42578 44.562 8.71893 44.543 10.315 44.543C11.9111 44.543 13.2042 44.5601 13.2042 44.5829Z" fill="#E0E0E0"/>
<path d="M10.6878 45.8711H9.70898V47.9402H10.6878V45.8711Z" fill="#FAFAFA"/>
<path d="M13.2042 48.7547C13.2042 48.7775 11.9111 48.7946 10.315 48.7946C8.71893 48.7946 7.42578 48.7775 7.42578 48.7547C7.42578 48.7338 8.71893 48.7148 10.315 48.7148C11.9111 48.7148 13.2042 48.7338 13.2042 48.7547Z" fill="#E0E0E0"/>
<path d="M10.6878 50.043H9.70898V52.1121H10.6878V50.043Z" fill="#FAFAFA"/>
<path d="M20.4426 45.0273H4.33789V66.3415H20.4426V45.0273Z" fill="#EBEBEB"/>
<path d="M20.4432 45.0273H12.8926V66.3415H20.4432V45.0273Z" fill="#E0E0E0"/>
<path d="M9.16324 47.9141H7.71484V51.4443H9.16324V47.9141Z" fill="#F5F5F5"/>
<path d="M9.16324 61.7305H7.71484V65.2607H9.16324V61.7305Z" fill="#F5F5F5"/>
<path d="M12.892 52.83C12.892 52.8699 10.9778 52.9022 8.61493 52.9022C6.25205 52.9022 4.33789 52.8699 4.33789 52.83C4.33789 52.7901 6.25205 52.7578 8.61493 52.7578C10.9759 52.7597 12.892 52.792 12.892 52.83Z" fill="#F5F5F5"/>
<path d="M9.16324 54.875H7.71484V58.4052H9.16324V54.875Z" fill="#F5F5F5"/>
<path d="M12.892 59.791C12.892 59.8309 10.9778 59.8632 8.61493 59.8632C6.25205 59.8632 4.33789 59.8309 4.33789 59.791C4.33789 59.7511 6.25205 59.7188 8.61493 59.7188C10.9759 59.7188 12.892 59.7511 12.892 59.791Z" fill="#F5F5F5"/>
<path d="M15.9445 47.9141H14.4961V51.4443H15.9445V47.9141Z" fill="#F5F5F5"/>
<path d="M19.0851 47.9141H17.6367V51.4443H19.0851V47.9141Z" fill="#F5F5F5"/>
<path d="M15.9445 54.6133H14.4961V58.1435H15.9445V54.6133Z" fill="#F5F5F5"/>
<path d="M19.0851 54.6133H17.6367V58.1435H19.0851V54.6133Z" fill="#F5F5F5"/>
<path d="M15.9445 61.3125H14.4961V64.8427H15.9445V61.3125Z" fill="#F5F5F5"/>
<path d="M19.0851 61.3125H17.6367V64.8427H19.0851V61.3125Z" fill="#F5F5F5"/>
<path d="M21.6533 44.2852H3.12891V45.0547H21.6533V44.2852Z" fill="#E0E0E0"/>
<path d="M20.5547 45.1269C20.5547 45.1668 16.9555 45.1991 12.5157 45.1991C8.07579 45.1991 4.47656 45.1668 4.47656 45.1269C4.47656 45.087 8.07579 45.0547 12.5157 45.0547C16.9555 45.0547 20.5547 45.087 20.5547 45.1269Z" fill="#EBEBEB"/>
<path d="M48.3993 66.3447H32.1677L32.0977 40.6016H48.3292L48.3993 66.3447Z" fill="#EBEBEB"/>
<path d="M48.3296 40.6016H40.2129V66.3466H48.3296V40.6016Z" fill="#E0E0E0"/>
<path d="M39.6823 35.5312H33.9512V40.5985H39.6823V35.5312Z" fill="#EBEBEB"/>
<path d="M39.6853 35.5312H38.3184V40.5985H39.6853V35.5312Z" fill="#E0E0E0"/>
<path d="M48.8046 40.3047H30.7441V40.6011H48.8046V40.3047Z" fill="#E0E0E0"/>
<path d="M36.6753 42.8086H35.3008V45.7156H36.6753V42.8086Z" fill="white"/>
<path d="M40.2125 46.8598C40.2125 46.8902 38.3949 46.9149 36.1551 46.9149C33.9134 46.9149 32.0977 46.8902 32.0977 46.8598C32.0977 46.8294 33.9134 46.8047 36.1551 46.8047C38.3968 46.8047 40.2125 46.8294 40.2125 46.8598Z" fill="#E0E0E0"/>
<path d="M44.8628 42.8086H43.4883V45.7156H44.8628V42.8086Z" fill="#F5F5F5"/>
<path d="M48.4 46.8559C48.4 46.8863 46.5824 46.911 44.3426 46.911C42.1009 46.911 40.2852 46.8863 40.2852 46.8559C40.2852 46.8255 42.1009 46.8008 44.3426 46.8008C46.5843 46.8008 48.4 46.8255 48.4 46.8559Z" fill="#EBEBEB"/>
<path d="M44.8628 48.582H43.4883V51.489H44.8628V48.582Z" fill="#F5F5F5"/>
<path d="M48.4 52.6293C48.4 52.6597 46.5824 52.6844 44.3426 52.6844C42.1009 52.6844 40.2852 52.6597 40.2852 52.6293C40.2852 52.5989 42.1009 52.5742 44.3426 52.5742C46.5843 52.5742 48.4 52.5989 48.4 52.6293Z" fill="#EBEBEB"/>
<path d="M44.8628 54.5312H43.4883V57.4382H44.8628V54.5312Z" fill="#F5F5F5"/>
<path d="M48.4 58.5786C48.4 58.609 46.5824 58.6337 44.3426 58.6337C42.1009 58.6337 40.2852 58.609 40.2852 58.5786C40.2852 58.5482 42.1009 58.5235 44.3426 58.5235C46.5843 58.5216 48.4 58.5463 48.4 58.5786Z" fill="#EBEBEB"/>
<path d="M44.8628 60.4766H43.4883V63.3836H44.8628V60.4766Z" fill="#F5F5F5"/>
<path d="M48.4 64.5239C48.4 64.5543 46.5824 64.579 44.3426 64.579C42.1009 64.579 40.2852 64.5543 40.2852 64.5239C40.2852 64.4935 42.1009 64.4688 44.3426 64.4688C46.5843 64.4688 48.4 64.4935 48.4 64.5239Z" fill="#EBEBEB"/>
<path d="M36.6753 48.6719H35.3008V51.5789H36.6753V48.6719Z" fill="white"/>
<path d="M40.2125 52.7192C40.2125 52.7496 38.3949 52.7743 36.1551 52.7743C33.9134 52.7743 32.0977 52.7496 32.0977 52.7192C32.0977 52.6888 33.9134 52.6641 36.1551 52.6641C38.3968 52.6641 40.2125 52.6888 40.2125 52.7192Z" fill="#E0E0E0"/>
<path d="M36.6753 54.5312H35.3008V57.4382H36.6753V54.5312Z" fill="white"/>
<path d="M40.2125 58.5786C40.2125 58.609 38.3949 58.6337 36.1551 58.6337C33.9134 58.6337 32.0977 58.609 32.0977 58.5786C32.0977 58.5482 33.9134 58.5235 36.1551 58.5235C38.3968 58.5216 40.2125 58.5482 40.2125 58.5786Z" fill="#E0E0E0"/>
<path d="M36.6753 60.3906H35.3008V63.2976H36.6753V60.3906Z" fill="white"/>
<path d="M40.2125 64.4379C40.2125 64.4683 38.3949 64.493 36.1551 64.493C33.9134 64.493 32.0977 64.4683 32.0977 64.4379C32.0977 64.4075 33.9134 64.3828 36.1551 64.3828C38.3968 64.3828 40.2125 64.4075 40.2125 64.4379Z" fill="#E0E0E0"/>
<path d="M43.8875 14.4141C43.9424 14.4141 43.986 15.5408 43.986 16.9278C43.986 18.3167 43.9424 19.4434 43.8875 19.4434C43.8345 19.4434 43.7891 18.3186 43.7891 16.9278C43.7891 15.5389 43.8326 14.4141 43.8875 14.4141Z" fill="#E0E0E0"/>
<path d="M48.8712 19.832L34.8965 23.8125V50.7849H48.8712V19.832Z" fill="#E0E0E0"/>
<path d="M36.9922 23.2003V18.418H45.5955V20.7493L36.9922 23.2003Z" fill="#E0E0E0"/>
<path d="M35.9609 24.0843L36.0708 48.885H47.4402V20.8125L35.9609 24.0843Z" fill="#F4F4F4"/>
<path d="M39.036 49.4481C38.981 49.4481 38.9375 43.4973 38.9375 36.1557C38.9375 28.8141 38.981 22.8633 39.036 22.8633C39.0909 22.8633 39.1344 28.8141 39.1344 36.1557C39.1325 43.4973 39.089 49.4481 39.036 49.4481Z" fill="#E0E0E0"/>
<path d="M43.8113 49.4477C43.7564 49.4477 43.7129 43.1644 43.7129 35.4162C43.7129 27.6642 43.7564 21.3828 43.8113 21.3828C43.8644 21.3828 43.9098 27.6642 43.9098 35.4162C43.9098 43.1663 43.8663 49.4477 43.8113 49.4477Z" fill="#E0E0E0"/>
<path d="M48.2238 27.8683C48.2238 27.9234 45.3932 27.9671 41.9019 27.9671C38.4087 27.9671 35.5801 27.9234 35.5801 27.8683C35.5801 27.8151 38.4106 27.7695 41.9019 27.7695C45.3932 27.7695 48.2238 27.8132 48.2238 27.8683Z" fill="#E0E0E0"/>
<path d="M48.1066 35.4582C48.1066 35.5133 45.276 35.557 41.7847 35.557C38.2915 35.557 35.4629 35.5133 35.4629 35.4582C35.4629 35.405 38.2934 35.3594 41.7847 35.3594C45.276 35.3613 48.1066 35.405 48.1066 35.4582Z" fill="#E0E0E0"/>
<path d="M48.8143 43.1066C48.8143 43.1598 45.8777 43.2054 42.2558 43.2054C38.6319 43.2054 35.6973 43.1617 35.6973 43.1066C35.6973 43.0515 38.6338 43.0078 42.2558 43.0078C45.8777 43.0078 48.8143 43.0534 48.8143 43.1066Z" fill="#E0E0E0"/>
<path d="M48.8179 19.8343C48.833 19.8856 45.7393 20.8128 41.9091 21.9034C38.0789 22.994 34.9625 23.8357 34.9473 23.7844C34.9322 23.7331 38.0259 22.8059 41.8561 21.7153C45.6863 20.6247 48.8027 19.783 48.8179 19.8343Z" fill="#E0E0E0"/>
<path d="M39.6734 33.5384C39.6355 33.5004 40.3228 32.748 41.2089 31.8588C42.0949 30.9696 42.8447 30.2799 42.8826 30.3179C42.9204 30.3559 42.2332 31.1083 41.3471 31.9975C40.461 32.8867 39.7112 33.5764 39.6734 33.5384Z" fill="#E0E0E0"/>
<path d="M41.8084 30.4849C41.8463 30.5248 41.5982 30.8212 41.2556 31.148C40.9129 31.4748 40.6061 31.7085 40.5683 31.6686C40.5304 31.6287 40.7784 31.3323 41.1211 31.0055C41.4638 30.6787 41.7724 30.445 41.8084 30.4849Z" fill="#E0E0E0"/>
<path d="M42.5982 39.072C42.636 39.11 42.0491 39.7731 41.288 40.5521C40.525 41.3311 39.8755 41.9315 39.8377 41.8935C39.7998 41.8555 40.3867 41.1924 41.1479 40.4134C41.909 39.6363 42.5584 39.034 42.5982 39.072Z" fill="#E0E0E0"/>
<path d="M41.5258 39.4062C41.5655 39.4423 41.3705 39.7235 41.0903 40.0351C40.8101 40.3467 40.5507 40.569 40.5091 40.5329C40.4693 40.4968 40.6643 40.2156 40.9445 39.904C41.2266 39.5924 41.486 39.3701 41.5258 39.4062Z" fill="#E0E0E0"/>
<path d="M46.3526 24.0882C46.3943 24.1243 46.1027 24.5328 45.7013 25.004C45.2999 25.4752 44.9421 25.8286 44.9004 25.7925C44.8588 25.7564 45.1504 25.3479 45.5518 24.8767C45.9531 24.4074 46.311 24.054 46.3526 24.0882Z" fill="#E0E0E0"/>
<path d="M46.0278 23.5896C46.0675 23.6257 45.8611 23.9202 45.5658 24.2489C45.2704 24.5757 44.9978 24.8113 44.958 24.7752C44.9183 24.7391 45.1246 24.4446 45.4219 24.1159C45.7154 23.7891 45.988 23.5535 46.0278 23.5896Z" fill="#E0E0E0"/>
<path d="M37.9841 45.7952C38.0277 45.8275 37.8497 46.1562 37.5846 46.5305C37.3196 46.9048 37.0696 47.1822 37.0261 47.1518C36.9825 47.1214 37.1605 46.7908 37.4256 46.4165C37.6906 46.0422 37.9406 45.7648 37.9841 45.7952Z" fill="#E0E0E0"/>
<path d="M37.6475 45.3407C37.6872 45.3787 37.5301 45.6105 37.2972 45.8594C37.0643 46.1083 36.8428 46.2812 36.803 46.2451C36.7633 46.209 36.9204 45.9753 37.1533 45.7264C37.3862 45.4775 37.6077 45.3046 37.6475 45.3407Z" fill="#E0E0E0"/>
<path d="M136.08 78.6623H135.211C134.921 78.6623 134.687 78.7497 134.687 78.858V80.3362C134.687 80.4635 134.963 80.568 135.304 80.568H135.809V80.6554C135.652 80.91 135.143 81.4629 133.662 81.4838C132.757 81.4971 131.627 81.499 130.925 81.499V73.0516C130.97 73.0516 130.928 70.8875 130.925 69.947L128.842 69.0179H127.214H115.808H112.429C112.459 69.0464 112.485 69.073 112.514 69.1015H111.645C110.494 68.0565 107.729 67.3269 104.526 67.344C101.4 67.3611 98.7456 68.085 97.6247 69.1015H96.449C96.4773 69.073 96.502 69.0445 96.5322 69.0179H95.7882H76.5216H57.4368H53.2052H52.978C53.0083 69.0464 53.0348 69.073 53.0632 69.1015H52.0389C50.8878 68.0565 48.1235 67.3269 44.92 67.344C41.7941 67.3611 39.1396 68.0831 38.0188 69.1015H36.9983C37.0267 69.073 37.0513 69.0445 37.0816 69.0179H36.8676H25.9431L14.2461 69.7608L14.2707 70.2301H14.2461L14.3597 72.0142C14.3748 72.626 14.3957 73.2378 14.4619 73.8325L14.3938 72.5405L14.4619 73.8306L18.0896 81.7403C18.1104 82.1412 18.9832 82.4623 20.0548 82.4642L26.1078 82.8062L26.7686 83.0323C27.1435 83.1596 27.632 83.2318 28.1394 83.2318H36.7351C37.2917 83.2318 37.8257 83.1463 38.2081 82.9943L38.6341 82.8271L56.9256 82.8575V82.8746H67.3295L82.9419 82.8993L83.3887 83.1843C83.7257 83.399 84.343 83.532 85.0094 83.532H116.382C116.939 83.532 117.463 83.4332 117.796 83.2679L118.491 82.9221L128.643 82.9145C129.72 82.9145 130.925 82.4642 130.925 82.0595V81.9493H133.263C134.976 81.9493 136.489 81.4325 136.523 80.7941L136.605 80.796V78.858C136.605 78.7497 136.37 78.6623 136.08 78.6623Z" fill="#F5F5F5"/>
<path d="M15.9434 74.6169C15.9434 74.6169 24.9424 78.1319 26.6918 77.9799C28.4413 77.8279 35.9975 77.5676 35.9975 77.5676L43.3513 80.334C43.3513 80.334 49.2282 80.3492 50.7125 78.7456C52.1969 77.1401 52.5074 77.0261 52.5074 77.0261H98.3658L105.951 80.0604C105.951 80.0604 112.117 78.6145 113.567 77.4764H128.831V75.6752C128.831 75.6752 40.7782 71.1361 40.4355 70.872C40.0928 70.606 15.9434 74.6169 15.9434 74.6169Z" fill="#E0E0E0"/>
<path d="M79.6498 31.0876C79.5135 30.7209 79.3734 30.3485 79.1424 30.0331C78.9114 29.7158 78.5763 29.4574 78.1882 29.4099C77.8 29.3624 77.3702 29.5714 77.2453 29.9438C77.1904 29.1078 77.0711 28.2509 76.6546 27.5251C76.238 26.7993 75.4599 26.2293 74.6268 26.2806C73.8411 26.3281 73.1689 26.9152 72.796 27.6087C72.423 28.3041 72.2942 29.1002 72.1712 29.8811C71.8739 29.5144 71.2453 29.6303 70.9348 29.9856C70.6243 30.3409 70.5448 30.8387 70.4785 31.3061H79.8448L79.6498 31.0876Z" fill="#F5F5F5"/>
<path d="M98.0627 10.9954C97.9624 10.7256 97.8601 10.452 97.6897 10.2202C97.5212 9.98843 97.2732 9.79843 96.9892 9.76233C96.7052 9.72813 96.389 9.88203 96.2962 10.1537C96.2546 9.54003 96.1694 8.91113 95.8627 8.37723C95.5559 7.84523 94.986 7.42533 94.3745 7.46333C93.797 7.49943 93.3048 7.92883 93.0302 8.43803C92.7557 8.94913 92.661 9.53433 92.572 10.1062C92.3543 9.83643 91.8923 9.92193 91.6632 10.1822C91.4342 10.4425 91.3774 10.8073 91.3281 11.1512H98.2066L98.0627 10.9954Z" fill="#F5F5F5"/>
<path d="M125.213 18.5561C125.067 18.1666 124.919 17.7733 124.675 17.437C124.431 17.1026 124.075 16.8271 123.664 16.7777C123.253 16.7264 122.799 16.9506 122.664 17.342C122.606 16.4566 122.481 15.5484 122.039 14.7789C121.598 14.0094 120.775 13.4071 119.891 13.4603C119.059 13.5116 118.346 14.131 117.95 14.8682C117.554 15.6054 117.418 16.449 117.289 17.2755C116.973 16.8879 116.308 17.0095 115.979 17.3857C115.649 17.7619 115.566 18.2882 115.496 18.786H125.419L125.213 18.5561Z" fill="#F5F5F5"/>
<path d="M133.288 23.0116C133.216 22.8197 133.144 22.6259 133.023 22.4606C132.902 22.2953 132.726 22.1604 132.523 22.1357C132.321 22.111 132.095 22.2212 132.031 22.415C132.002 21.978 131.94 21.5296 131.722 21.1515C131.505 20.7715 131.097 20.4751 130.662 20.5017C130.251 20.5264 129.901 20.8323 129.704 21.1952C129.509 21.5581 129.441 21.9742 129.378 22.3827C129.223 22.1908 128.894 22.2516 128.733 22.4378C128.57 22.624 128.528 22.8843 128.494 23.1275H133.388L133.288 23.0116Z" fill="#F5F5F5"/>
<path d="M131.991 11.7544C131.883 11.4656 131.773 11.173 131.591 10.9241C131.41 10.6752 131.145 10.4719 130.84 10.4339C130.535 10.3959 130.196 10.5612 130.097 10.8538C130.054 10.1964 129.961 9.52185 129.634 8.94995C129.306 8.37805 128.693 7.92965 128.038 7.97145C127.42 8.00945 126.89 8.46925 126.597 9.01645C126.303 9.56365 126.201 10.1907 126.104 10.8044C125.87 10.5156 125.376 10.6068 125.131 10.8861C124.887 11.1654 124.825 11.5568 124.773 11.9254H132.146L131.991 11.7544Z" fill="#EBEBEB"/>
<path d="M65.0334 13.3001C64.9331 13.0303 64.8308 12.7567 64.6604 12.5249C64.4919 12.2931 64.2439 12.1031 63.9599 12.067C63.6759 12.0328 63.3597 12.1867 63.2669 12.4584C63.2253 11.8447 63.1401 11.2158 62.8334 10.6819C62.5266 10.1499 61.9567 9.73002 61.3452 9.76802C60.7677 9.80412 60.2755 10.2335 60.0009 10.7427C59.7264 11.2538 59.6317 11.839 59.5427 12.4109C59.325 12.1411 58.863 12.2266 58.6339 12.4869C58.4049 12.7472 58.3481 13.112 58.2988 13.4559H65.1773L65.0334 13.3001Z" fill="#F5F5F5"/>
<path d="M30.5705 24.7064C30.4702 24.4366 30.3679 24.163 30.1975 23.9312C30.029 23.6994 29.781 23.5094 29.497 23.4733C29.213 23.4391 28.8968 23.593 28.804 23.8647C28.7624 23.251 28.6772 22.6221 28.3705 22.0882C28.0638 21.5562 27.4939 21.1363 26.8823 21.1743C26.3048 21.2104 25.8126 21.6398 25.538 22.149C25.2635 22.6601 25.1688 23.2453 25.0799 23.8172C24.8621 23.5474 24.4002 23.6329 24.1711 23.8932C23.9439 24.1535 23.8852 24.5183 23.8359 24.8622H30.7144L30.5705 24.7064Z" fill="#EBEBEB"/>
<path d="M20.6122 12.2957C20.4721 11.9214 20.3301 11.5395 20.0934 11.2165C19.8586 10.8935 19.514 10.6275 19.1183 10.58C18.7226 10.5306 18.2834 10.7453 18.1546 11.1253C18.0978 10.2722 17.9767 9.39438 17.5507 8.65338C17.1247 7.91238 16.3295 7.32908 15.4793 7.38228C14.6766 7.43168 13.9893 8.03018 13.6068 8.74078C13.2244 9.45138 13.0937 10.2646 12.9688 11.0626C12.664 10.6883 12.0221 10.8061 11.704 11.169C11.386 11.5319 11.3064 12.0411 11.2383 12.518H20.811L20.6122 12.2957Z" fill="#F5F5F5"/>
<path d="M63.3056 21.8525C63.1617 21.4668 63.0159 21.0773 62.7735 20.7448C62.5312 20.4123 62.179 20.1406 61.772 20.0912C61.3649 20.0418 60.9143 20.2622 60.7818 20.6498C60.7231 19.7739 60.6 18.8733 60.1626 18.1133C59.7253 17.3514 58.9093 16.7548 58.0364 16.808C57.2128 16.8593 56.5066 17.473 56.1147 18.2007C55.7228 18.9303 55.5884 19.7663 55.4596 20.5833C55.1472 20.1995 54.4883 20.3192 54.1627 20.6935C53.837 21.0659 53.7537 21.5884 53.6855 22.0786H63.5101L63.3056 21.8525Z" fill="#EBEBEB"/>
<path d="M140.005 66.5416C140.005 66.5682 109.112 66.591 71.0124 66.591C32.8996 66.591 2.01367 66.5682 2.01367 66.5416C2.01367 66.515 32.8996 66.4922 71.0124 66.4922C109.112 66.4922 140.005 66.515 140.005 66.5416Z" fill="#263238"/>
<path d="M140.005 68.1471C140.005 68.1737 109.112 68.1965 71.0124 68.1965C32.8996 68.1965 2.01367 68.1737 2.01367 68.1471C2.01367 68.1205 32.8996 68.0977 71.0124 68.0977C109.112 68.0977 140.005 68.1205 140.005 68.1471Z" fill="#263238"/>
<path d="M31.4339 89.651C31.4339 89.6776 28.5561 89.7004 25.0079 89.7004C21.4579 89.7004 18.5801 89.6776 18.5801 89.651C18.5801 89.6244 21.4579 89.6016 25.0079 89.6016C28.5561 89.6016 31.4339 89.6244 31.4339 89.651Z" fill="#263238"/>
<path d="M44.6371 88.2955C44.6371 88.3221 40.0003 88.3449 34.2843 88.3449C28.5646 88.3449 23.9297 88.3221 23.9297 88.2955C23.9297 88.2689 28.5646 88.2461 34.2843 88.2461C40.0022 88.2461 44.6371 88.267 44.6371 88.2955Z" fill="#263238"/>
<path d="M108.74 89.651C108.74 89.6776 106.701 89.7004 104.186 89.7004C101.672 89.7004 99.6328 89.6776 99.6328 89.651C99.6328 89.6244 101.672 89.6016 104.186 89.6016C106.701 89.6016 108.74 89.6244 108.74 89.651Z" fill="#263238"/>
<path d="M115.322 88.2955C115.322 88.3221 112.923 88.3449 109.966 88.3449C107.006 88.3449 104.609 88.3221 104.609 88.2955C104.609 88.2689 107.006 88.2461 109.966 88.2461C112.923 88.2461 115.322 88.267 115.322 88.2955Z" fill="#263238"/>
<path d="M33.8275 14.5872C33.8256 14.5948 33.7101 14.5473 33.4924 14.4979C33.2746 14.4504 32.949 14.4086 32.5552 14.4618C32.1633 14.515 31.6994 14.6727 31.2923 15.009C30.8872 15.3396 30.5388 15.8374 30.4006 16.4302C30.3987 16.4359 30.3987 16.4416 30.3968 16.4454L30.3703 16.5461L30.3305 16.4492C30.1033 15.8868 29.7 15.4403 29.2627 15.1553C28.8234 14.8665 28.352 14.7468 27.9582 14.7183C27.5625 14.6898 27.2406 14.7468 27.0266 14.8038C26.8108 14.8608 26.6972 14.9102 26.6953 14.9045C26.6953 14.9026 26.7218 14.8893 26.7767 14.8646C26.8297 14.8399 26.913 14.8095 27.0191 14.7772C27.233 14.7126 27.5568 14.648 27.9601 14.6689C28.3596 14.6898 28.8442 14.8076 29.2949 15.1002C29.7436 15.3871 30.1582 15.845 30.3911 16.4207L30.3267 16.4264C30.3286 16.4207 30.3286 16.415 30.3305 16.4093C30.4725 15.8013 30.8304 15.2902 31.2488 14.9558C31.6672 14.6138 32.1462 14.458 32.5457 14.4105C32.949 14.3611 33.2784 14.4124 33.4962 14.4694C33.606 14.4979 33.6893 14.5264 33.7442 14.5473C33.801 14.572 33.8294 14.5853 33.8275 14.5872Z" fill="#263238"/>
<path d="M43.2023 9.42624C43.2004 9.43194 43.136 9.40724 43.0167 9.38254C42.8975 9.35784 42.7195 9.33694 42.5036 9.36734C42.2897 9.39774 42.0379 9.48514 41.8164 9.66754C41.5967 9.84804 41.4074 10.1197 41.3317 10.4408L41.3298 10.4522L41.3033 10.5529L41.2635 10.456C41.1404 10.1501 40.9208 9.90694 40.6823 9.75114C40.4437 9.59344 40.1862 9.52694 39.9723 9.50984C39.7564 9.49274 39.5803 9.52314 39.4629 9.55164C39.3456 9.58014 39.2812 9.60674 39.2793 9.60104C39.2793 9.59914 39.2925 9.58964 39.3228 9.57634C39.3531 9.56304 39.3967 9.54404 39.4554 9.52504C39.5728 9.48704 39.7526 9.44904 39.976 9.46044C40.1976 9.46994 40.4664 9.53454 40.7163 9.69604C40.9663 9.85564 41.1972 10.1083 41.326 10.4294L41.2616 10.4351L41.2635 10.4256C41.343 10.0874 41.5418 9.80434 41.7747 9.61814C42.0076 9.42814 42.2745 9.34264 42.4961 9.31794C42.7195 9.29324 42.9012 9.32174 43.0205 9.35404C43.0811 9.36924 43.1265 9.38634 43.1568 9.39964C43.189 9.41674 43.2042 9.42434 43.2023 9.42624Z" fill="#263238"/>
<path d="M37.0733 7.31266C37.0771 7.31646 37.009 7.38676 36.8935 7.51786C36.778 7.64896 36.6189 7.84846 36.4542 8.11446C36.121 8.63886 35.7896 9.47486 35.801 10.4344C35.801 10.4439 35.801 10.4553 35.801 10.4629L35.7328 10.4686C35.6628 10.0012 35.5075 9.57176 35.3106 9.21266C35.1156 8.85356 34.8846 8.56096 34.6669 8.34056C34.4492 8.12016 34.2523 7.96436 34.1084 7.86556C33.9664 7.76676 33.8831 7.71736 33.8868 7.71166C33.8887 7.70976 33.9096 7.71926 33.9493 7.74206C33.9891 7.76486 34.0497 7.79526 34.1235 7.84276C34.2712 7.93586 34.4757 8.08596 34.701 8.30636C34.9263 8.52486 35.1629 8.81746 35.3655 9.18226C35.5681 9.54516 35.7291 9.98216 35.801 10.4591L35.7328 10.4648C35.7328 10.4553 35.7328 10.4458 35.7328 10.4344C35.7215 9.45776 36.068 8.61226 36.4144 8.08786C36.5867 7.82186 36.7534 7.62616 36.8764 7.49886C36.9351 7.43426 36.9881 7.38866 37.0222 7.35636C37.0525 7.32596 37.0714 7.31076 37.0733 7.31266Z" fill="#263238"/>
<path d="M78.4333 19.8502C80.8299 19.8502 82.7728 17.9005 82.7728 15.4954C82.7728 13.0903 80.8299 11.1406 78.4333 11.1406C76.0366 11.1406 74.0938 13.0903 74.0938 15.4954C74.0938 17.9005 76.0366 19.8502 78.4333 19.8502Z" fill="#F06030"/>
<path opacity="0.9" d="M78.4333 19.8502C80.8299 19.8502 82.7728 17.9005 82.7728 15.4954C82.7728 13.0903 80.8299 11.1406 78.4333 11.1406C76.0366 11.1406 74.0938 13.0903 74.0938 15.4954C74.0938 17.9005 76.0366 19.8502 78.4333 19.8502Z" fill="white"/>
<path d="M82.1999 16.3936C82.6954 14.3071 81.4115 12.2126 79.3323 11.7154C77.2531 11.2182 75.1659 12.5066 74.6705 14.5931C74.1751 16.6796 75.459 18.7741 77.5381 19.2713C79.6173 19.7685 81.7045 18.4801 82.1999 16.3936Z" fill="#F06030"/>
<path opacity="0.6" d="M82.1999 16.3936C82.6954 14.3071 81.4115 12.2126 79.3323 11.7154C77.2531 11.2182 75.1659 12.5066 74.6705 14.5931C74.1751 16.6796 75.459 18.7741 77.5381 19.2713C79.6173 19.7685 81.7045 18.4801 82.1999 16.3936Z" fill="white"/>
<path d="M78.4335 18.7294C80.2121 18.7294 81.654 17.2825 81.654 15.4975C81.654 13.7126 80.2121 12.2656 78.4335 12.2656C76.6548 12.2656 75.2129 13.7126 75.2129 15.4975C75.2129 17.2825 76.6548 18.7294 78.4335 18.7294Z" fill="#F06030"/>
<path opacity="0.3" d="M78.4335 18.7294C80.2121 18.7294 81.654 17.2825 81.654 15.4975C81.654 13.7126 80.2121 12.2656 78.4335 12.2656C76.6548 12.2656 75.2129 13.7126 75.2129 15.4975C75.2129 17.2825 76.6548 18.7294 78.4335 18.7294Z" fill="white"/>
<path d="M79.4134 17.8923C80.7311 17.35 81.3611 15.8383 80.8206 14.516C80.2801 13.1937 78.7738 12.5615 77.4561 13.1039C76.1385 13.6463 75.5085 15.1579 76.0489 16.4802C76.5894 17.8025 78.0957 18.4347 79.4134 17.8923Z" fill="#F06030"/>
<path d="M51.5852 62.5234H31.7695V75.4415H51.5852V62.5234Z" fill="#3AA7CE"/>
<path opacity="0.3" d="M51.5852 62.5234H31.7695V75.4415H51.5852V62.5234Z" fill="black"/>
<path d="M113.601 62.5234H93.7852V75.4415H113.601V62.5234Z" fill="#3AA7CE"/>
<path opacity="0.3" d="M113.601 62.5234H93.7852V75.4415H113.601V62.5234Z" fill="black"/>
<path d="M133.628 39.6797H130.512V40.9375C130.512 40.9375 132.566 40.9223 134.043 40.9774C136.044 41.0515 136.337 43.6355 136.337 43.6355L137.019 43.6431V42.9572C137.019 41.1522 135.429 39.6797 133.628 39.6797Z" fill="#3AA7CE"/>
<path d="M136.274 42.9172V43.5252H135.749C135.395 43.5252 135.107 43.814 135.107 44.1693V48.2847C135.107 48.5868 135.352 48.8319 135.653 48.8319H136.556C136.857 48.8319 137.101 48.5868 137.101 48.2847V42.8906L136.274 42.9172Z" fill="#3AA7CE"/>
<path d="M136.276 45.8084C136.249 45.8084 136.227 45.2441 136.227 44.5468C136.227 43.8495 136.249 43.2852 136.276 43.2852C136.302 43.2852 136.325 43.8495 136.325 44.5468C136.325 45.2441 136.302 45.8084 136.276 45.8084Z" fill="#263238"/>
<path d="M118.287 36.9739L117.564 36.0087C117.218 35.5451 116.672 35.2734 116.095 35.2734H83.5107C82.8197 35.2734 82.1778 35.6401 81.8276 36.2386L81.3637 37.029L12.7285 37.3311C11.6152 37.3368 10.7102 38.2298 10.6875 39.347L10.0059 73.6097L22.1554 75.6769H33.5021H33.7236C33.1803 74.3412 32.9474 72.8459 33.1216 71.2784C33.5949 67.0281 37.0862 63.6765 41.3367 63.3782C46.5491 63.0115 50.8924 67.1478 50.8924 72.3006C50.8924 73.4957 50.6576 74.6338 50.2335 75.675H50.4702H94.7022H95.4747C94.9313 74.3393 94.6984 72.844 94.8726 71.2765C95.346 67.0262 98.8373 63.6746 103.088 63.3763C108.302 63.0096 112.643 67.1459 112.643 72.2987C112.643 73.4938 112.409 74.6319 111.985 75.6731H129.034L131.196 73.0891V39.3736C131.196 38.2507 129.947 36.9967 128.828 36.9967L118.287 36.9739Z" fill="#3AA7CE"/>
<path d="M13.0645 41.8398V57.5604C13.0645 59.2153 14.4011 60.5586 16.0521 60.5586H53.4341V42.2578L13.0645 41.8398Z" fill="#263238"/>
<path d="M14.4355 43.0742V51.9225L16.6091 53.3418H32.8028V43.0875L14.4355 43.0742Z" fill="#455A64"/>
<path d="M34.2754 54.8618V43.0742H52.4344V59.209L49.2876 56.0512C48.5152 55.276 47.4662 54.8409 46.3719 54.8428L34.2754 54.8618Z" fill="#455A64"/>
<path opacity="0.2" d="M36 54.8599L49.0413 43.0875L52.4341 43.0742L39.6295 54.8542L36 54.8599Z" fill="white"/>
<path d="M113.569 41.8398H76.2988V60.5586H113.569V41.8398Z" fill="#263238"/>
<path d="M94.112 42.7227H77.1875V59.4712H94.112V42.7227Z" fill="#455A64"/>
<path d="M112.491 42.7227H95.5664V59.4712H112.491V42.7227Z" fill="#455A64"/>
<path d="M90.8783 75.6707C90.8783 75.6707 90.8745 75.6099 90.8745 75.494C90.8726 75.3762 90.8726 75.2071 90.8707 74.9886C90.8688 74.544 90.865 73.898 90.8593 73.0772C90.8536 71.4318 90.8461 69.0815 90.8385 66.2486L90.8801 66.2904C87.563 66.2923 83.5719 66.2961 79.2816 66.298H79.2797L79.3289 66.2486C79.327 69.6534 79.3251 72.8701 79.3232 75.6707L79.2797 75.627C82.7218 75.6365 85.6148 75.6441 87.652 75.6498C88.6706 75.6555 89.4734 75.6593 90.0263 75.6612C90.2989 75.6631 90.5109 75.665 90.6567 75.6669C90.7268 75.6688 90.7798 75.6688 90.8196 75.6688C90.8574 75.6688 90.8764 75.6707 90.8783 75.6707C90.8783 75.6707 90.8612 75.6726 90.8271 75.6726C90.7874 75.6726 90.7363 75.6745 90.6681 75.6745C90.5242 75.6764 90.3159 75.6783 90.0452 75.6802C89.4942 75.6821 88.6933 75.6878 87.6804 75.6916C85.6356 75.6973 82.7331 75.7049 79.2797 75.7144H79.2361V75.6707C79.2343 72.8701 79.2324 69.6534 79.2305 66.2486V66.1992H79.2797H79.2816C83.5719 66.203 87.5611 66.2049 90.8801 66.2068H90.9218V66.2486C90.9123 69.0929 90.9048 71.4508 90.901 73.1038C90.8972 73.9208 90.8934 74.5649 90.8896 75.0057C90.8877 75.2204 90.8858 75.3876 90.8858 75.5035C90.8801 75.6156 90.8783 75.6707 90.8783 75.6707Z" fill="#263238"/>
<path d="M32.182 75.6744C32.1801 75.6744 32.1782 75.6516 32.1782 75.6079C32.1763 75.5604 32.1763 75.4958 32.1744 75.4141C32.1725 75.2393 32.1706 74.9866 32.1668 74.6636C32.163 74.0043 32.1592 73.0524 32.1536 71.863C32.1498 69.4709 32.1441 66.1212 32.1365 62.268L32.1838 62.3155C30.8263 62.3155 29.3798 62.3174 27.8898 62.3174C23.0163 62.3117 18.603 62.306 15.4051 62.3022C13.8109 62.2965 12.5197 62.2908 11.6222 62.287C11.1792 62.2832 10.8327 62.2794 10.5942 62.2775C10.4806 62.2756 10.3916 62.2737 10.3272 62.2718C10.2666 62.2699 10.2363 62.2661 10.2363 62.2661C10.2363 62.2661 10.2666 62.2623 10.3272 62.2604C10.3916 62.2585 10.4806 62.2585 10.5942 62.2547C10.8346 62.2528 11.1792 62.249 11.6222 62.2452C12.5197 62.2414 13.8109 62.2357 15.4051 62.23C18.603 62.2262 23.0163 62.2205 27.8898 62.2148C29.3798 62.2148 30.8263 62.2167 32.1838 62.2167H32.2312V62.2642C32.2236 66.1174 32.2179 69.469 32.2141 71.8592C32.2085 73.0505 32.2028 74.0005 32.2009 74.6598C32.1971 74.9828 32.1952 75.2355 32.1933 75.4103C32.1914 75.492 32.1895 75.5566 32.1895 75.6041C32.1857 75.6516 32.1838 75.6744 32.182 75.6744Z" fill="#263238"/>
<path d="M22.6488 62.5234C22.6753 62.5234 22.6981 65.4646 22.6981 69.0936C22.6981 72.7226 22.6753 75.6638 22.6488 75.6638C22.6223 75.6638 22.5996 72.7226 22.5996 69.0936C22.5996 65.4646 22.6223 62.5234 22.6488 62.5234Z" fill="#263238"/>
<path d="M13.432 62.3711C13.4585 62.3711 13.4813 65.0083 13.4813 68.263C13.4813 71.5177 13.4585 74.1549 13.432 74.1549C13.4055 74.1549 13.3828 71.5177 13.3828 68.263C13.3828 65.0083 13.4055 62.3711 13.432 62.3711Z" fill="#263238"/>
<path d="M30.8717 72.7923C30.8717 72.7923 30.8698 72.7771 30.8698 72.7505C30.8698 72.7201 30.8679 72.6821 30.8679 72.6327C30.866 72.5244 30.8641 72.3724 30.8622 72.1767C30.8603 71.7758 30.8566 71.1944 30.8509 70.461C30.8452 68.9885 30.8376 66.8985 30.8282 64.4057L30.8717 64.4494C28.7303 64.4513 26.2482 64.4532 23.6146 64.4551C23.6032 64.4646 23.7073 64.362 23.6638 64.4076V64.4095V64.4133V64.4228V64.4418V64.4779V64.5501V64.6945V64.9833C23.6638 65.1752 23.6638 65.3652 23.6638 65.5552C23.6638 65.9352 23.6638 66.3114 23.6638 66.6819C23.6638 67.4248 23.6619 68.1506 23.6619 68.8555C23.66 70.2634 23.6581 71.5877 23.6562 72.7923L23.6146 72.7505C25.7919 72.76 27.6 72.7676 28.8705 72.7714C29.5028 72.7752 30.0008 72.779 30.3454 72.7828C30.512 72.7847 30.6426 72.7866 30.7354 72.7885C30.8225 72.7904 30.8717 72.7923 30.8717 72.7923C30.8717 72.7923 30.8301 72.7961 30.743 72.7961C30.6521 72.798 30.5233 72.798 30.3605 72.8018C30.0178 72.8037 29.5237 72.8075 28.8951 72.8132C27.619 72.8189 25.8014 72.8265 23.6127 72.8341H23.571V72.7923C23.5691 71.5877 23.5672 70.2634 23.5653 68.8555C23.5653 68.1506 23.5634 67.4248 23.5634 66.6819C23.5634 66.3095 23.5634 65.9352 23.5634 65.5552C23.5634 65.3652 23.5634 65.1752 23.5634 64.9833V64.6945V64.5501V64.4779V64.4418V64.4228V64.4133V64.4095V64.4076C23.5199 64.4513 23.624 64.3449 23.6127 64.3563C26.2482 64.3582 28.7303 64.3601 30.8698 64.362H30.9134V64.4057C30.9039 66.9099 30.8963 69.0094 30.8906 70.4895C30.885 71.2191 30.8812 71.7948 30.8793 72.1957C30.8774 72.3876 30.8755 72.5377 30.8736 72.6422C30.8717 72.6897 30.8717 72.7258 30.8717 72.7562C30.8717 72.7809 30.8717 72.7942 30.8717 72.7923Z" fill="#263238"/>
<path d="M24.4965 64.4062C24.523 64.4062 24.5457 66.2835 24.5457 68.5996C24.5457 70.9157 24.523 72.7928 24.4965 72.7928C24.47 72.7928 24.4473 70.9157 24.4473 68.5996C24.4473 66.2835 24.47 64.4062 24.4965 64.4062Z" fill="#263238"/>
<path d="M25.5942 64.4062C25.6207 64.4062 25.6434 66.2835 25.6434 68.5996C25.6434 70.9157 25.6207 72.7928 25.5942 72.7928C25.5676 72.7928 25.5449 70.9157 25.5449 68.5996C25.5449 66.2835 25.5676 64.4062 25.5942 64.4062Z" fill="#263238"/>
<path d="M26.6938 64.4062C26.7203 64.4062 26.743 66.2835 26.743 68.5996C26.743 70.9157 26.7203 72.7928 26.6938 72.7928C26.6673 72.7928 26.6445 70.9157 26.6445 68.5996C26.6445 66.2835 26.6654 64.4062 26.6938 64.4062Z" fill="#263238"/>
<path d="M27.7914 64.4062C27.8179 64.4062 27.8406 66.2835 27.8406 68.5996C27.8406 70.9157 27.8179 72.7928 27.7914 72.7928C27.7649 72.7928 27.7422 70.9157 27.7422 68.5996C27.7422 66.2835 27.763 64.4062 27.7914 64.4062Z" fill="#263238"/>
<path d="M28.8892 64.4062C28.9157 64.4062 28.9384 66.2835 28.9384 68.5996C28.9384 70.9157 28.9157 72.7928 28.8892 72.7928C28.8627 72.7928 28.84 70.9157 28.84 68.5996C28.8381 66.2835 28.8608 64.4062 28.8892 64.4062Z" fill="#263238"/>
<path d="M29.9848 64.4062C30.0113 64.4062 30.034 66.2835 30.034 68.5996C30.034 70.9157 30.0113 72.7928 29.9848 72.7928C29.9583 72.7928 29.9355 70.9157 29.9355 68.5996C29.9355 66.2835 29.9583 64.4062 29.9848 64.4062Z" fill="#263238"/>
<path d="M74.6943 44.0898H54.8711V75.6754H74.6943V44.0898Z" fill="#263238"/>
<path d="M63.5139 46.2539H55.9766V70.9615H63.5139V46.2539Z" fill="#455A64"/>
<path d="M73.4397 46.2539H65.9023V70.9615H73.4397V46.2539Z" fill="#455A64"/>
<path d="M64.7504 44.0898C64.7769 44.0898 64.7996 51.1084 64.7996 59.7648C64.7996 68.425 64.7769 75.4417 64.7504 75.4417C64.7239 75.4417 64.7012 68.425 64.7012 59.7648C64.7012 51.1103 64.722 44.0898 64.7504 44.0898Z" fill="#455A64"/>
<path opacity="0.3" d="M25.8052 43.0742L14.752 52.1353L16.6093 53.3418L28.5979 43.0742H25.8052Z" fill="white"/>
<path opacity="0.3" d="M18.7578 53.3441L30.7199 43.0898H31.4015L19.4811 53.3441H18.7578Z" fill="white"/>
<path opacity="0.3" d="M77.1862 54.2139L89.9019 42.7341L93.2928 42.7227L77.1465 57.5769L77.1862 54.2139Z" fill="white"/>
<path opacity="0.3" d="M55.9766 61.4503V64.7791L63.5158 57.8441V54.6445L55.9766 61.4503Z" fill="white"/>
<path opacity="0.3" d="M65.9004 65.4113V68.7401L73.4378 61.8051V58.6055L65.9004 65.4113Z" fill="white"/>
<path opacity="0.2" d="M69.1304 46.2539L65.9004 49.1704V52.4992L72.688 46.2539H69.1304Z" fill="white"/>
<path opacity="0.3" d="M55.9742 66.0519L55.9609 67.1406L63.5153 60.2759V59.3164L55.9742 66.0519Z" fill="white"/>
<path d="M127.347 44.0898H115.5V75.6754H127.347V44.0898Z" fill="#263238"/>
<path d="M126.051 46.2539H116.607V70.9615H126.051V46.2539Z" fill="#455A64"/>
<path opacity="0.2" d="M126.052 46.2539H122.395V66.0196H126.052V46.2539Z" fill="black"/>
<path opacity="0.3" d="M116.611 61.4503V64.7791L126.051 57.8441V54.6445L116.611 61.4503Z" fill="white"/>
<path opacity="0.3" d="M116.609 66.0519L116.594 67.1406L126.053 60.2759V59.3164L116.609 66.0519Z" fill="white"/>
<path opacity="0.2" d="M95.8601 54.3222L108.71 42.7227H112.279L95.8223 57.6852L95.8601 54.3222Z" fill="white"/>
<path opacity="0.3" d="M95.5664 59.5593L111.807 44.4258H112.491L96.2897 59.5593H95.5664Z" fill="white"/>
<path d="M52.5786 44.2578H14.4355V44.5922H52.5786V44.2578Z" fill="#263238"/>
<path d="M113.276 44.2578H76.8594V44.5922H113.276V44.2578Z" fill="#263238"/>
<path d="M113.612 65.8206H112.769C112.493 65.8206 112.268 65.5945 112.268 65.3171V65.2847C112.268 65.0073 112.493 64.7812 112.769 64.7812H113.612C113.888 64.7812 114.114 65.0073 114.114 65.2847V65.3171C114.114 65.5964 113.89 65.8206 113.612 65.8206Z" fill="#FF9A6C"/>
<path d="M93.2154 72.0002H92.3728C92.0964 72.0002 91.8711 71.7741 91.8711 71.4967V71.4644C91.8711 71.187 92.0964 70.9609 92.3728 70.9609H93.2154C93.4918 70.9609 93.7171 71.187 93.7171 71.4644V71.4967C93.7171 71.7741 93.4918 72.0002 93.2154 72.0002Z" fill="white"/>
<path d="M77.3638 72.0002H76.5213C76.2448 72.0002 76.0195 71.7741 76.0195 71.4967V71.4644C76.0195 71.187 76.2448 70.9609 76.5213 70.9609H77.3638C77.6402 70.9609 77.8655 71.187 77.8655 71.4644V71.4967C77.8655 71.7741 77.6421 72.0002 77.3638 72.0002Z" fill="#FF9A6C"/>
<path d="M52.9322 71.9143H52.0896C51.8132 71.9143 51.5879 71.6882 51.5879 71.4108V71.3785C51.5879 71.1011 51.8132 70.875 52.0896 70.875H52.9322C53.2086 70.875 53.4339 71.1011 53.4339 71.3785V71.4108C53.4339 71.6882 53.2086 71.9143 52.9322 71.9143Z" fill="#FF9A6C"/>
<path d="M15.4419 72.9534H14.5994C14.323 72.9534 14.0977 72.7273 14.0977 72.4499V72.4176C14.0977 72.1402 14.323 71.9141 14.5994 71.9141H15.4419C15.7183 71.9141 15.9437 72.1402 15.9437 72.4176V72.4499C15.9437 72.7292 15.7202 72.9534 15.4419 72.9534Z" fill="#FF9A6C"/>
<path opacity="0.2" d="M120.05 46.2539V57.956H116.611L116.607 46.2539H120.05Z" fill="black"/>
<path d="M131.203 41.0508H128.834V64.4531H131.203V41.0508Z" fill="#263238"/>
<path d="M131.203 62.4548C131.203 62.4548 129.999 62.7645 129.692 61.6815C129.383 60.6004 129.692 41.8398 129.692 41.8398H131.203V62.4548Z" fill="#455A64"/>
<path opacity="0.3" d="M129.553 53.6665L131.202 52.441C131.202 52.441 131.202 50.4365 131.202 50.2579C131.202 50.0774 129.553 51.2041 129.553 51.2041V53.6665Z" fill="white"/>
<path opacity="0.2" d="M86.3147 35.3672H85.8906V36.3837H86.3147V35.3672Z" fill="black"/>
<path opacity="0.2" d="M87.1214 35.3672H86.6973V36.3837H87.1214V35.3672Z" fill="black"/>
<path opacity="0.2" d="M87.928 35.3672H87.5039V36.3837H87.928V35.3672Z" fill="black"/>
<path opacity="0.2" d="M88.7347 35.3672H88.3105V36.3837H88.7347V35.3672Z" fill="black"/>
<path opacity="0.2" d="M89.5432 35.3672H89.1191V36.3837H89.5432V35.3672Z" fill="black"/>
<path opacity="0.2" d="M90.3499 35.3672H89.9258V36.3837H90.3499V35.3672Z" fill="black"/>
<path opacity="0.2" d="M91.1565 35.3672H90.7324V36.3837H91.1565V35.3672Z" fill="black"/>
<path opacity="0.2" d="M91.9632 35.3672H91.5391V36.3837H91.9632V35.3672Z" fill="black"/>
<path opacity="0.2" d="M92.7718 35.3672H92.3477V36.3837H92.7718V35.3672Z" fill="black"/>
<path opacity="0.2" d="M93.5784 35.3672H93.1543V36.3837H93.5784V35.3672Z" fill="black"/>
<path opacity="0.2" d="M94.3831 35.3672H93.959V36.3837H94.3831V35.3672Z" fill="black"/>
<path opacity="0.2" d="M95.1897 35.3672H94.7656V36.3837H95.1897V35.3672Z" fill="black"/>
<path opacity="0.2" d="M95.9983 35.3672H95.5742V36.3837H95.9983V35.3672Z" fill="black"/>
<path opacity="0.2" d="M96.805 35.3672H96.3809V36.3837H96.805V35.3672Z" fill="black"/>
<path d="M118.355 36.9752C118.355 37.0018 110.061 37.0246 99.831 37.0246C89.5975 37.0246 81.3047 37.0018 81.3047 36.9752C81.3047 36.9486 89.5975 36.9258 99.831 36.9258C110.061 36.9258 118.355 36.9467 118.355 36.9752Z" fill="black"/>
<path d="M131.201 40.6627C131.201 40.6893 104.215 40.7121 70.9345 40.7121C37.6421 40.7121 10.6621 40.6893 10.6621 40.6627C10.6621 40.6361 37.6421 40.6133 70.9345 40.6133C104.215 40.6133 131.201 40.6342 131.201 40.6627Z" fill="#263238"/>
<path d="M42.4339 79.8067C46.2202 79.8067 49.2896 76.7264 49.2896 72.9268C49.2896 69.1271 46.2202 66.0469 42.4339 66.0469C38.6476 66.0469 35.5781 69.1271 35.5781 72.9268C35.5781 76.7264 38.6476 79.8067 42.4339 79.8067Z" fill="#455A64"/>
<path d="M130.296 68.582H129.041V70.7613H130.296V68.582Z" fill="#FF9A6C"/>
<path d="M131.206 68.582H130.297V70.7613H131.206V68.582Z" fill="white"/>
<path d="M75.4279 37.0977H54.3418V42.7179H75.4279V37.0977Z" fill="#263238"/>
<path opacity="0.2" d="M74.6905 37.7031H54.9961V42.1168H74.6905V37.7031Z" fill="black"/>
<path d="M49.8489 72.7697C50.0351 68.4094 46.6637 64.7233 42.3187 64.5365C37.9737 64.3497 34.3005 67.733 34.1144 72.0933C33.9282 76.4536 37.2996 80.1397 41.6446 80.3265C45.9896 80.5133 49.6628 77.13 49.8489 72.7697Z" fill="#263238"/>
<path d="M34.1101 72.3008C34.1101 72.3084 34.1083 72.3141 34.1083 72.3217C34.0458 76.686 37.52 80.2732 41.8671 80.3359C46.2161 80.3986 49.7907 76.9121 49.8532 72.5497C49.8532 72.5421 49.8532 72.5364 49.8532 72.5288L34.1101 72.3008Z" fill="#263238"/>
<path d="M36.4537 72.3536C36.4102 75.4164 38.8488 77.9358 41.9008 77.9814C44.9529 78.0251 47.4634 75.5779 47.5089 72.5151C47.5524 69.4523 45.1138 66.9329 42.0618 66.8873C39.0097 66.8417 36.4991 69.2908 36.4537 72.3536Z" fill="#FAFAFA"/>
<path d="M42.0612 66.8873C39.0092 66.8436 36.4986 69.2908 36.4551 72.3536L47.5103 72.5132C47.5538 69.4504 45.1133 66.931 42.0612 66.8873Z" fill="#E0E0E0"/>
<path d="M38.6156 72.3857C38.5891 74.2515 40.0753 75.7867 41.9346 75.8133C43.7938 75.8399 45.3237 74.3484 45.3502 72.4826C45.3767 70.6168 43.8904 69.0816 42.0312 69.055C40.17 69.0303 38.6421 70.5199 38.6156 72.3857Z" fill="#263238"/>
<path d="M104.222 80.3214C108.567 80.1403 111.943 76.4588 111.763 72.0985C111.582 67.7382 107.913 64.3503 103.568 64.5314C99.2235 64.7126 95.8475 68.3941 96.028 72.7544C96.2084 77.1146 99.877 80.5025 104.222 80.3214Z" fill="#263238"/>
<path d="M96.0242 72.2969C96.0242 72.3045 96.0223 72.3102 96.0223 72.3178C95.9598 76.6821 99.4341 80.2693 103.781 80.332C108.13 80.3947 111.705 76.9082 111.767 72.5458C111.767 72.5382 111.767 72.5325 111.767 72.5249L96.0242 72.2969Z" fill="#263238"/>
<path d="M98.3678 72.3536C98.3242 75.4164 100.763 77.9358 103.815 77.9814C106.867 78.0251 109.377 75.5779 109.423 72.5151C109.466 69.4523 107.028 66.9329 103.976 66.8873C100.922 66.8417 98.4132 69.2908 98.3678 72.3536Z" fill="#FAFAFA"/>
<path d="M103.975 66.8873C100.923 66.8436 98.4127 69.2908 98.3691 72.3536L109.424 72.5132C109.466 69.4504 107.027 66.931 103.975 66.8873Z" fill="#E0E0E0"/>
<path d="M100.528 72.3818C100.501 74.2476 101.987 75.7828 103.847 75.8094C105.706 75.836 107.236 74.3445 107.262 72.4787C107.289 70.6129 105.803 69.0777 103.943 69.0511C102.084 69.0264 100.556 70.516 100.528 72.3818Z" fill="#263238"/>
<path opacity="0.2" d="M32.8047 43.0742H14.4355V43.5948H32.8047V43.0742Z" fill="black"/>
<path opacity="0.2" d="M52.4344 43.0742H34.2754V43.5948H52.4344V43.0742Z" fill="black"/>
<path opacity="0.2" d="M73.4388 46.2539H55.9766V46.7745H73.4388V46.2539Z" fill="black"/>
<path opacity="0.2" d="M112.492 42.7227H77.1875V43.2433H112.492V42.7227Z" fill="black"/>
<path d="M22.3281 37.2892L23.0154 36.6603C23.4054 36.3031 23.9128 36.1055 24.4392 36.1055H33.3682C33.9475 36.1055 34.5004 36.343 34.898 36.7648L35.3959 37.2892H22.3281Z" fill="#3AA7CE"/>
<path d="M35.998 37.2877C35.998 37.3143 32.8835 37.3371 29.04 37.3371C25.1966 37.3371 22.082 37.3143 22.082 37.2877C22.082 37.2611 25.1966 37.2383 29.04 37.2383C32.8835 37.2383 35.998 37.2611 35.998 37.2877Z" fill="#263238"/>
<path d="M11.0908 72.2985H10.0078L10.1612 65.8594H11.869V71.5176C11.869 71.9489 11.5206 72.2985 11.0908 72.2985Z" fill="white"/>
<path d="M10.2329 62.2695C10.2367 62.2695 10.2386 62.3094 10.2386 62.3854C10.2386 62.4709 10.2367 62.5811 10.2348 62.716C10.2292 63.0162 10.2216 63.4285 10.214 63.9301C10.2026 64.9675 10.1875 66.3792 10.1705 67.9391C10.1572 69.5047 10.1326 70.924 10.0966 71.95C10.0796 72.463 10.0606 72.8772 10.0436 73.1641C10.0341 73.299 10.0285 73.4073 10.0228 73.4947C10.0171 73.5707 10.0114 73.6087 10.0076 73.6087C10.0038 73.6087 10.002 73.5688 10.002 73.4928C10.002 73.4073 10.0038 73.2971 10.0057 73.1622C10.0114 72.862 10.019 72.4497 10.0266 71.9481C10.0379 70.9107 10.0531 69.499 10.072 67.9391C10.0853 66.3735 10.1099 64.9561 10.1458 63.9301C10.1629 63.4171 10.1818 63.0029 10.1989 62.716C10.2083 62.5811 10.214 62.4728 10.2197 62.3854C10.2254 62.3094 10.2292 62.2695 10.2329 62.2695Z" fill="#263238"/>
<path d="M131.202 64.4531C131.228 64.4512 131.247 64.9357 131.258 65.7185C131.27 66.5013 131.272 67.5805 131.268 68.7737C131.264 69.9669 131.253 71.048 131.241 71.8289C131.234 72.207 131.228 72.5205 131.222 72.7542C131.217 72.9727 131.209 73.0943 131.204 73.0943C131.196 73.0943 131.19 72.9727 131.185 72.7542C131.181 72.5186 131.177 72.207 131.171 71.8289C131.166 71.0461 131.164 69.9669 131.169 68.7737C131.185 66.5241 131.198 64.968 131.202 64.4531Z" fill="#263238"/>
</svg>
