<svg width="48" height="48" viewBox="0 0 48 48" fill="none" xmlns="http://www.w3.org/2000/svg">
<path opacity="0.4" d="M32.6656 44H15.3324C8.55379 44 4 39.2458 4 32.1686V15.8334C4 8.75623 8.55379 4 15.3324 4H32.6676C39.4462 4 44 8.75623 44 15.8334V32.1686C44 39.2458 39.4462 44 32.6656 44Z" fill="#3AA7CE"/>
<path fill-rule="evenodd" clip-rule="evenodd" d="M22.4902 17.3501C22.4902 20.0901 20.2602 22.3201 17.5202 22.3201C14.7782 22.3201 12.5502 20.0901 12.5502 17.3501C12.5502 14.6101 14.7782 12.3781 17.5202 12.3781C20.2602 12.3781 22.4902 14.6101 22.4902 17.3501ZM38.801 28.1753C39.267 28.6273 39.601 29.1433 39.821 29.6933C40.487 31.3573 40.141 33.3573 39.429 35.0053C38.585 36.9673 36.969 38.4493 34.933 39.0973C34.029 39.3873 33.081 39.5113 32.135 39.5113H15.373C13.705 39.5113 12.229 39.1233 11.019 38.3953C10.261 37.9393 10.127 36.8893 10.689 36.2053C11.629 35.0653 12.557 33.9213 13.493 32.7673C15.277 30.5593 16.479 29.9193 17.815 30.4813C18.357 30.7133 18.901 31.0633 19.461 31.4313C20.953 32.4193 23.027 33.7753 25.759 32.3033C27.6264 31.2821 28.7104 29.5348 29.654 28.0139L29.673 27.9833C29.7365 27.8815 29.7994 27.7797 29.8622 27.6783C30.183 27.1599 30.499 26.6493 30.857 26.1793C31.301 25.5973 32.949 23.7773 35.079 25.0733C36.437 25.8893 37.579 26.9933 38.801 28.1753Z" fill="#3AA7CE"/>
</svg>
