<svg width="48" height="48" viewBox="0 0 48 48" fill="none" xmlns="http://www.w3.org/2000/svg">
<g clip-path="url(#clip0_320_6376)">
<path d="M48 24C48 10.7452 37.2548 0 24 0C10.7452 0 0 10.7452 0 24C0 37.2548 10.7452 48 24 48C37.2548 48 48 37.2548 48 24Z" fill="url(#paint0_linear_320_6376)"/>
<path opacity="0.1" d="M42.0629 8.21052C38.5639 14.6337 33.6155 21.2589 27.4324 27.4421C21.2492 33.6253 14.6239 38.5642 8.21026 42.0632C7.80815 41.7137 7.41763 41.3495 7.03868 40.9705C4.74812 38.7564 2.92128 36.1085 1.66469 33.181C0.408093 30.2536 -0.253112 27.1053 -0.280371 23.9197C-0.307631 20.7341 0.299601 17.575 1.50592 14.6265C2.71223 11.678 4.49349 8.99912 6.74582 6.74616C8.99815 4.4932 11.6765 2.7112 14.6246 1.50406C17.5728 0.296921 20.7318 -0.311192 23.9174 -0.284822C27.103 -0.258452 30.2515 0.401874 33.1793 1.65765C36.1071 2.91343 38.7555 4.73953 40.9703 7.02947C41.3492 7.40841 41.7134 7.8021 42.0629 8.21052Z" fill="white"/>
<path d="M29.683 11.3687H18.3146C16.472 11.3687 14.7049 12.1006 13.402 13.4035C12.0991 14.7064 11.3672 16.4735 11.3672 18.316V29.6844C11.3672 31.527 12.0991 33.2941 13.402 34.597C14.7049 35.8999 16.472 36.6318 18.3146 36.6318H29.683C31.5255 36.6318 33.2926 35.8999 34.5955 34.597C35.8984 33.2941 36.6303 31.527 36.6303 29.6844V18.316C36.6303 16.4735 35.8984 14.7064 34.5955 13.4035C33.2926 12.1006 31.5255 11.3687 29.683 11.3687ZM34.4198 28.6865C34.4198 30.2075 33.8156 31.6661 32.7402 32.7416C31.6647 33.8171 30.206 34.4213 28.6851 34.4213H19.3125C17.7915 34.4213 16.3329 33.8171 15.2574 32.7416C14.1819 31.6661 13.5777 30.2075 13.5777 28.6865V19.3139C13.5777 17.793 14.1819 16.3343 15.2574 15.2588C16.3329 14.1834 17.7915 13.5792 19.3125 13.5792H28.6851C30.206 13.5792 31.6647 14.1834 32.7402 15.2588C33.8156 16.3343 34.4198 17.793 34.4198 19.3139V28.6865Z" fill="white"/>
<path d="M28.6078 19.4402L28.5478 19.3802L28.4973 19.3297C27.3032 18.1398 25.6861 17.4721 24.0004 17.4729C23.1492 17.4786 22.3074 17.6521 21.5232 17.9833C20.7391 18.3145 20.0278 18.797 19.4301 19.4031C18.8325 20.0093 18.3601 20.7273 18.04 21.5161C17.7199 22.3049 17.5584 23.149 17.5646 24.0002C17.5633 25.7278 18.2443 27.3859 19.4594 28.6139C20.0545 29.2163 20.7637 29.6941 21.5456 30.0194C22.3274 30.3447 23.1662 30.5111 24.013 30.5086C25.2833 30.482 26.5183 30.0863 27.5675 29.3698C28.6167 28.6533 29.4347 27.647 29.9219 26.4736C30.409 25.3002 30.5441 24.0104 30.3108 22.7615C30.0774 21.5126 29.4857 20.3586 28.6078 19.4402ZM24.0004 28.2823C23.151 28.2942 22.3173 28.0532 21.6053 27.59C20.8932 27.1268 20.3351 26.4622 20.0017 25.6809C19.6684 24.8996 19.575 24.0368 19.7334 23.2022C19.8918 22.3677 20.2948 21.5991 20.8912 20.9942C21.4876 20.3893 22.2505 19.9755 23.0827 19.8053C23.9149 19.6352 24.779 19.7164 25.5649 20.0387C26.3509 20.3609 27.0233 20.9097 27.4965 21.6151C27.9697 22.3205 28.2224 23.1508 28.2225 24.0002C28.2267 24.5587 28.1208 25.1125 27.9108 25.63C27.7008 26.1475 27.3909 26.6185 26.9988 27.0162C26.6067 27.4139 26.1401 27.7304 25.6256 27.9476C25.1111 28.1649 24.5589 28.2786 24.0004 28.2823ZM32.3467 17.1729C32.3484 17.3755 32.3101 17.5765 32.234 17.7643C32.1579 17.9521 32.0455 18.1231 31.9032 18.2674C31.7609 18.4117 31.5916 18.5265 31.4049 18.6053C31.2182 18.6841 31.0178 18.7253 30.8152 18.7265C30.6142 18.7264 30.4153 18.6865 30.2299 18.609C30.0445 18.5315 29.8764 18.4179 29.7352 18.275C29.5212 18.0579 29.3757 17.7828 29.3166 17.4838C29.2576 17.1848 29.2876 16.8751 29.4029 16.593C29.5182 16.3109 29.7138 16.0688 29.9654 15.8968C30.217 15.7249 30.5136 15.6305 30.8183 15.6255C31.175 15.6254 31.5203 15.7506 31.7941 15.9792L31.8257 16.0108C31.8766 16.0522 31.9232 16.0988 31.9646 16.1497L31.9994 16.1876C32.2254 16.4661 32.3481 16.8142 32.3467 17.1729Z" fill="white"/>
</g>
<defs>
<linearGradient id="paint0_linear_320_6376" x1="7.02947" y1="7.02947" x2="40.9705" y2="40.9705" gradientUnits="userSpaceOnUse">
<stop stop-color="#FAE100"/>
<stop offset="0.15" stop-color="#FCB720"/>
<stop offset="0.3" stop-color="#FF7950"/>
<stop offset="0.5" stop-color="#FF1C74"/>
<stop offset="1" stop-color="#6C1CD1"/>
</linearGradient>
<clipPath id="clip0_320_6376">
<rect width="48" height="48" fill="white"/>
</clipPath>
</defs>
</svg>
