<svg width="48" height="48" viewBox="0 0 48 48" fill="none" xmlns="http://www.w3.org/2000/svg">
<g clip-path="url(#clip0_830_15885)">
<mask id="mask0_830_15885" style="mask-type:alpha" maskUnits="userSpaceOnUse" x="0" y="7" width="48" height="34">
<path d="M15.973 37.7273H17.8655V40.3753H22.5936V37.7273H37.3472V40.3753H42.0738V37.7273H43.5863V36.0867H15.973V37.7273ZM15.973 10.8039V34.9497H43.5863V10.8039C43.5863 10.8039 40.8147 8.03086 29.8445 7.6539C18.8728 7.2754 15.973 10.8039 15.973 10.8039ZM20.3868 10.8039C20.6881 10.8039 20.9771 10.9237 21.1902 11.1367C21.4033 11.3498 21.523 11.6388 21.523 11.9402C21.523 12.2415 21.4033 12.5305 21.1902 12.7436C20.9771 12.9567 20.6881 13.0764 20.3868 13.0764C20.0854 13.0764 19.7964 12.9567 19.5833 12.7436C19.3702 12.5305 19.2505 12.2415 19.2505 11.9402C19.2505 11.6388 19.3702 11.3498 19.5833 11.1367C19.7964 10.9237 20.0854 10.8039 20.3868 10.8039ZM18.1158 15.1536H28.7075V25.4324H18.1158V15.1536ZM20.228 32.6207C19.9177 32.6207 19.6103 32.5596 19.3236 32.4407C19.0368 32.3219 18.7763 32.1478 18.5569 31.9282C18.3375 31.7087 18.1635 31.4481 18.0449 31.1612C17.9263 30.8744 17.8653 30.5671 17.8655 30.2567C17.8575 29.9413 17.9127 29.6275 18.0279 29.3337C18.143 29.04 18.3158 28.7723 18.5361 28.5463C18.7563 28.3204 19.0195 28.1409 19.3103 28.0183C19.601 27.8957 19.9133 27.8326 20.2288 27.8326C20.5443 27.8326 20.8566 27.8957 21.1473 28.0183C21.4381 28.1409 21.7013 28.3204 21.9215 28.5463C22.1418 28.7723 22.3146 29.04 22.4297 29.3337C22.5449 29.6275 22.6001 29.9413 22.5921 30.2567C22.5923 30.5672 22.5313 30.8747 22.4126 31.1616C22.2938 31.4485 22.1197 31.7092 21.9001 31.9288C21.6806 32.1483 21.4199 32.3225 21.133 32.4412C20.8461 32.5599 20.5385 32.6209 20.228 32.6207ZM35.1373 33.6921H24.5471V32.4315H35.1373V33.6921ZM35.1373 31.3586H24.5471V30.098H35.1373V31.3586ZM35.1373 28.9625H24.5471V27.7003H35.1373V28.9625ZM42.0738 30.2567C42.0734 30.8841 41.8238 31.4856 41.3799 31.9289C40.936 32.3723 40.3341 32.6211 39.7067 32.6207C39.0793 32.6203 38.4778 32.3707 38.0344 31.9268C37.5911 31.4829 37.3423 30.881 37.3427 30.2536C37.3429 29.943 37.4042 29.6354 37.5233 29.3485C37.6424 29.0615 37.8168 28.8009 38.0366 28.5813C38.2564 28.3618 38.5173 28.1877 38.8044 28.069C39.0915 27.9504 39.3991 27.8894 39.7098 27.8896C40.0204 27.8898 40.328 27.9512 40.6149 28.0702C40.9019 28.1893 41.1625 28.3637 41.382 28.5835C41.6016 28.8033 41.7756 29.0642 41.8943 29.3513C42.013 29.6384 42.074 29.946 42.0738 30.2567ZM39.0459 10.5521C39.347 10.5521 39.6358 10.6718 39.8488 10.8847C40.0617 11.0976 40.1814 11.3865 40.1814 11.6876C40.1814 11.9887 40.0617 12.2776 39.8488 12.4905C39.6358 12.7035 39.347 12.8231 39.0459 12.8231C38.7447 12.8231 38.4559 12.7035 38.243 12.4905C38.03 12.2776 37.9104 11.9887 37.9104 11.6876C37.9104 11.3865 38.03 11.0976 38.243 10.8847C38.4559 10.6718 38.7447 10.5521 39.0459 10.5521ZM30.4733 15.1536H41.0635V25.4324H30.4733V15.1536ZM11.8127 16.7942H15.2161V21.3331H11.8127V16.7942ZM44.5966 16.5393H48V21.0813H44.5966V16.5393ZM7.01587 22.6807C8.34059 22.6807 9.41655 21.6047 9.41655 20.2785C9.41655 19.7489 9.23952 19.2651 8.94649 18.8683L9.22273 17.7191L7.9331 17.9541L7.40657 17.1315L6.00095 18.0686L5.00588 17.658L4.76932 18.8301L3.77273 19.4177L4.65486 20.66C4.838 21.8047 5.82086 22.6807 7.01587 22.6807ZM8.52068 35.7647L7.89647 31.5204L4.74033 31.4868L6.17494 35.7647L5.25312 39.7495H5.14171V40.3753H8.65499V39.7495H7.93615L8.52068 35.7647ZM7.89647 31.2487V29.2036L5.40574 27.9247H5.38438V23.9719L7.24937 24.0024L7.24174 26.3237L7.89647 26.8167V23.0058H4.41372L3.89635 23.1859V23.0058C3.89635 23.0058 3.77883 23.0012 3.59569 23.0104V22.6181C3.59529 22.5552 3.57002 22.4951 3.52542 22.4508C3.48081 22.4064 3.42048 22.3816 3.3576 22.3816C3.32634 22.3814 3.29534 22.3873 3.26638 22.3991C3.23741 22.4109 3.21105 22.4283 3.1888 22.4502C3.16655 22.4722 3.14885 22.4983 3.1367 22.5271C3.12455 22.5559 3.11819 22.5869 3.11799 22.6181V23.0485C2.53194 23.1263 1.04544 23.3186 0.665416 23.8116C0 24.6831 0 30.9236 0 30.9236L3.89635 30.4612V30.0308L4.41372 30.3269V31.2487H7.89647ZM3.89635 28.9503V24.2054L4.41372 24.068V29.2479L3.89635 28.9503Z" fill="black"/>
<path d="M6.96638 24.2817L5.70117 24.271V27.6759L9.43269 29.6416L10.3896 28.3993L6.9969 26.5053L6.96638 24.2817Z" fill="black"/>
</mask>
<g mask="url(#mask0_830_15885)">
<rect y="11" width="11" height="32" fill="#F06030"/>
<rect x="12" y="7" width="36" height="36" fill="#3AA7CE"/>
</g>
</g>
<defs>
<clipPath id="clip0_830_15885">
<rect width="48" height="48" fill="white"/>
</clipPath>
</defs>
</svg>
