<svg width="20" height="20" viewBox="0 0 20 20" fill="none" xmlns="http://www.w3.org/2000/svg">
<g clip-path="url(#clip0_755_6653)">
<path d="M13.9062 4.60938H0.78125C0.349766 4.60938 0 4.95914 0 5.39062C0 5.82211 0.349766 6.17188 0.78125 6.17188H13.9062C14.3377 6.17188 14.6875 5.82211 14.6875 5.39062C14.6875 4.95914 14.3377 4.60938 13.9062 4.60938ZM19.2188 0H0.78125C0.349766 0 0 0.349766 0 0.78125C0 1.21273 0.349766 1.5625 0.78125 1.5625H19.2188C19.6502 1.5625 20 1.21273 20 0.78125C20 0.349766 19.6502 0 19.2188 0ZM19.2188 18.4375H0.78125C0.349766 18.4375 0 18.7873 0 19.2188C0 19.6502 0.349766 20 0.78125 20H19.2188C19.6502 20 20 19.6502 20 19.2188C20 18.7873 19.6502 18.4375 19.2188 18.4375ZM13.9062 13.8281H0.78125C0.349766 13.8281 0 14.1779 0 14.6094C0 15.0409 0.349766 15.3906 0.78125 15.3906H13.9062C14.3377 15.3906 14.6875 15.0409 14.6875 14.6094C14.6875 14.1779 14.3377 13.8281 13.9062 13.8281ZM19.2188 9.21875H0.78125C0.349766 9.21875 0 9.56852 0 10C0 10.4315 0.349766 10.7812 0.78125 10.7812H19.2188C19.6502 10.7812 20 10.4315 20 10C20 9.56852 19.6502 9.21875 19.2188 9.21875Z" fill="black"/>
</g>
<defs>
<clipPath id="clip0_755_6653">
<rect width="20" height="20" fill="white"/>
</clipPath>
</defs>
</svg>
