<svg width="48" height="48" viewBox="0 0 48 48" fill="none" xmlns="http://www.w3.org/2000/svg">
<g clip-path="url(#clip0_680_7820)">
<path d="M43.9058 33.6536C43.2249 33.2796 42.37 33.5283 41.9963 34.209C41.6223 34.8897 41.8709 35.7447 42.5516 36.1186C44.2267 37.0388 45.1875 38.059 45.1875 38.9176C45.1875 39.9677 43.6997 41.5952 39.5238 43.0139C35.3983 44.4156 29.8852 45.1875 24 45.1875C18.1148 45.1875 12.6017 44.4156 8.47622 43.0139C4.30031 41.5952 2.8125 39.9677 2.8125 38.9176C2.8125 38.059 3.77325 37.0388 5.44838 36.1185C6.12909 35.7446 6.37772 34.8896 6.00375 34.2089C5.62978 33.5282 4.77506 33.2795 4.09416 33.6535C2.22647 34.6796 0 36.4258 0 38.9176C0 40.8276 1.31363 43.5509 7.57144 45.6769C11.9807 47.175 17.8151 48 24 48C30.1849 48 36.0193 47.175 40.4286 45.6769C46.6864 43.5509 48 40.8276 48 38.9176C48 36.4258 45.7735 34.6796 43.9058 33.6536Z" fill="white"/>
<path d="M13.3829 40.9809C16.2376 41.7874 20.0082 42.2316 23.9999 42.2316C27.9917 42.2316 31.7623 41.7875 34.6169 40.9809C38.1094 39.9944 39.8803 38.5662 39.8803 36.7364C39.8803 34.9065 38.1094 33.4785 34.6169 32.492C33.8416 32.273 32.9984 32.0809 32.102 31.917C31.5983 32.7866 31.0882 33.6525 30.5717 34.5146C31.564 34.6635 32.4956 34.846 33.3416 35.0616C35.9118 35.7162 36.8508 36.4532 37.0438 36.7365C36.8507 37.0199 35.9119 37.7569 33.3417 38.4114C30.9089 39.031 27.779 39.3845 24.4825 39.4161C24.3219 39.4282 24.161 39.4343 23.9999 39.4345C23.8378 39.4345 23.6771 39.4279 23.5173 39.4161C20.2208 39.3845 17.0908 39.0311 14.6581 38.4114C12.0879 37.7569 11.149 37.0198 10.9559 36.7365C11.149 36.4532 12.088 35.7162 14.6582 35.0616C15.5042 34.8461 16.4358 34.6635 17.4282 34.5146C16.8948 33.624 16.3847 32.758 15.8979 31.917C15.0014 32.081 14.1582 32.273 13.3829 32.492C9.89047 33.4785 8.11963 34.9066 8.11963 36.7364C8.11963 38.5662 9.89047 39.9943 13.3829 40.9809Z" fill="white"/>
<path d="M24 36.6219C25.2518 36.6219 26.3889 35.9841 27.042 34.9156C31.6179 27.429 37.0725 17.5622 37.0725 13.0724C37.0725 5.86425 31.2082 0 24 0C16.7917 0 10.9275 5.86425 10.9275 13.0724C10.9275 17.5622 16.3821 27.429 20.958 34.9156C21.6111 35.9841 22.7482 36.6219 24 36.6219ZM18.7456 12.1748C18.7456 9.27769 21.1027 6.92062 24 6.92062C26.8972 6.92062 29.2544 9.27769 29.2544 12.1748C29.2544 15.0721 26.8972 17.4292 24 17.4292C21.1027 17.4292 18.7456 15.0722 18.7456 12.1748Z" fill="white"/>
</g>
<defs>
<clipPath id="clip0_680_7820">
<rect width="48" height="48" fill="white"/>
</clipPath>
</defs>
</svg>
