<svg width="28" height="28" viewBox="0 0 28 28" fill="none" xmlns="http://www.w3.org/2000/svg">
<path d="M14 0.875C11.2162 0.878127 8.54729 1.98538 6.57883 3.95383C4.61038 5.92229 3.50313 8.59119 3.5 11.375C3.5 19.3786 13.3219 26.7304 13.7401 27.0392C13.8154 27.0948 13.9065 27.1248 14 27.1248C14.0935 27.1248 14.1846 27.0948 14.2599 27.0392C14.6781 26.7304 24.5 19.3786 24.5 11.375C24.4969 8.59119 23.3896 5.92229 21.4212 3.95383C19.4527 1.98538 16.7838 0.878127 14 0.875ZM14 19.25C12.4425 19.25 10.9199 18.7881 9.62488 17.9228C8.32985 17.0575 7.32049 15.8276 6.72445 14.3886C6.12841 12.9497 5.97246 11.3663 6.27632 9.83866C6.58017 8.31106 7.3302 6.90787 8.43153 5.80653C9.53287 4.7052 10.9361 3.95517 12.4637 3.65132C13.9913 3.34746 15.5747 3.50341 17.0136 4.09945C18.4526 4.69549 19.6825 5.70485 20.5478 6.99988C21.4131 8.29492 21.875 9.81747 21.875 11.375C21.8727 13.4629 21.0423 15.4646 19.5659 16.9409C18.0896 18.4173 16.0879 19.2477 14 19.25ZM17.0625 6.125H10.9375C10.5897 6.12604 10.2565 6.26465 10.0106 6.51057C9.76465 6.75649 9.62604 7.08972 9.625 7.4375V13.5625C9.62604 13.9103 9.76465 14.2435 10.0106 14.4894C10.2565 14.7353 10.5897 14.874 10.9375 14.875H17.0625C17.4103 14.874 17.7435 14.7353 17.9894 14.4894C18.2353 14.2435 18.374 13.9103 18.375 13.5625V7.4375C18.374 7.08972 18.2353 6.75649 17.9894 6.51057C17.7435 6.26465 17.4103 6.12604 17.0625 6.125ZM12.6875 13.125H11.8125C11.6965 13.125 11.5852 13.0789 11.5031 12.9969C11.4211 12.9148 11.375 12.8035 11.375 12.6875C11.375 12.5715 11.4211 12.4602 11.5031 12.3781C11.5852 12.2961 11.6965 12.25 11.8125 12.25H12.6875C12.8035 12.25 12.9148 12.2961 12.9969 12.3781C13.0789 12.4602 13.125 12.5715 13.125 12.6875C13.125 12.8035 13.0789 12.9148 12.9969 12.9969C12.9148 13.0789 12.8035 13.125 12.6875 13.125ZM16.1875 13.125H15.3125C15.1965 13.125 15.0852 13.0789 15.0031 12.9969C14.9211 12.9148 14.875 12.8035 14.875 12.6875C14.875 12.5715 14.9211 12.4602 15.0031 12.3781C15.0852 12.2961 15.1965 12.25 15.3125 12.25H16.1875C16.3035 12.25 16.4148 12.2961 16.4969 12.3781C16.5789 12.4602 16.625 12.5715 16.625 12.6875C16.625 12.8035 16.5789 12.9148 16.4969 12.9969C16.4148 13.0789 16.3035 13.125 16.1875 13.125ZM17.5 10.5H10.5V7.4375C10.5003 7.32157 10.5466 7.2105 10.6285 7.12852C10.7105 7.04655 10.8216 7.00035 10.9375 7H17.0625C17.1784 7.00035 17.2895 7.04655 17.3715 7.12852C17.4534 7.2105 17.4997 7.32157 17.5 7.4375V10.5ZM10.9375 15.75H13.125C13.1243 15.9819 13.0319 16.204 12.868 16.368C12.704 16.5319 12.4819 16.6243 12.25 16.625H11.375C11.1431 16.6243 10.921 16.5319 10.757 16.368C10.5931 16.204 10.5007 15.9819 10.5 15.75V15.7063C10.6439 15.7364 10.7905 15.7511 10.9375 15.75ZM17.0625 15.75C17.2095 15.7511 17.3561 15.7364 17.5 15.7063V15.75C17.4993 15.9819 17.4069 16.204 17.243 16.368C17.079 16.5319 16.8569 16.6243 16.625 16.625H15.75C15.5181 16.6243 15.296 16.5319 15.132 16.368C14.9681 16.204 14.8757 15.9819 14.875 15.75H17.0625ZM20.125 9.1875V10.0625C20.125 10.1785 20.0789 10.2898 19.9969 10.3719C19.9148 10.4539 19.8035 10.5 19.6875 10.5C19.5715 10.5 19.4602 10.4539 19.3781 10.3719C19.2961 10.2898 19.25 10.1785 19.25 10.0625V7.95375C19.5053 8.04401 19.7264 8.21103 19.8831 8.43191C20.0397 8.65279 20.1242 8.91671 20.125 9.1875ZM8.75 7.95375V10.0625C8.75 10.1785 8.70391 10.2898 8.62186 10.3719C8.53981 10.4539 8.42853 10.5 8.3125 10.5C8.19647 10.5 8.08519 10.4539 8.00314 10.3719C7.92109 10.2898 7.875 10.1785 7.875 10.0625V9.1875C7.87576 8.91671 7.96026 8.65279 8.11691 8.43191C8.27356 8.21103 8.4947 8.04401 8.75 7.95375Z" fill="white"/>
</svg>
