<svg width="24" height="24" viewBox="0 0 24 24" fill="none" xmlns="http://www.w3.org/2000/svg">
<g clip-path="url(#clip0_152_2500)">
<path d="M2.54625 6.105L2.2065 5.1465C2.1736 5.05372 2.12276 4.96833 2.05686 4.89521C1.99096 4.82208 1.91131 4.76265 1.82244 4.7203C1.73358 4.67796 1.63724 4.65353 1.53893 4.64842C1.44063 4.64331 1.34228 4.65761 1.2495 4.6905C1.06212 4.75694 0.908815 4.89509 0.823299 5.07456C0.780955 5.16343 0.75653 5.25976 0.751417 5.35807C0.746304 5.45637 0.760604 5.55472 0.7935 5.6475L1.71075 8.235C1.83075 8.5725 2.187 8.77425 2.5365 8.72475L5.38575 8.26575C5.57892 8.23061 5.75061 8.12111 5.86394 7.96077C5.97727 7.80044 6.02321 7.60205 5.99188 7.40822C5.96056 7.21439 5.85448 7.04057 5.69641 6.9241C5.53835 6.80762 5.34091 6.75777 5.1465 6.78525L3.74625 7.01025C4.60624 5.57433 5.82429 4.38629 7.28121 3.56238C8.73813 2.73848 10.384 2.30694 12.0578 2.31C17.4008 2.31 21.7478 6.65775 21.7478 12.0008C21.7478 12.1997 21.8268 12.3904 21.9674 12.5311C22.1081 12.6717 22.2988 12.7508 22.4978 12.7508C22.6967 12.7508 22.8874 12.6717 23.0281 12.5311C23.1687 12.3904 23.2478 12.1997 23.2478 12.0008C23.1533 0.747753 8.4915 -3.375 2.54625 6.105ZM22.287 15.765C22.2248 15.6022 22.1094 15.4652 21.9594 15.3763C21.8095 15.2874 21.634 15.2518 21.4613 15.2753L18.6128 15.7343C18.4196 15.7694 18.2479 15.8789 18.1346 16.0392C18.0212 16.1996 17.9753 16.398 18.0066 16.5918C18.0379 16.7856 18.144 16.9594 18.3021 17.0759C18.4602 17.1924 18.6576 17.2422 18.852 17.2148L20.2515 16.9898C19.3916 18.4258 18.1736 19.6139 16.7167 20.4378C15.2597 21.2617 13.6138 21.6932 11.94 21.69C6.597 21.69 2.25 17.343 2.25 12C2.25 11.8011 2.17098 11.6103 2.03033 11.4697C1.88968 11.329 1.69891 11.25 1.5 11.25C1.30109 11.25 1.11032 11.329 0.96967 11.4697C0.829018 11.6103 0.75 11.8011 0.75 12C0.8445 23.2523 15.507 27.375 21.4515 17.895C21.6615 18.384 21.7748 19.389 22.4978 19.353C23.0025 19.3605 23.385 18.8288 23.205 18.3525L22.287 15.765Z" fill="#8C8C8C"/>
<path d="M12.0001 6.38991C11.1552 6.3907 10.3451 6.72658 9.74758 7.32385C9.15002 7.92113 8.81377 8.73104 8.81258 9.57591V10.3259H7.83008C7.63117 10.3259 7.4404 10.4049 7.29975 10.5456C7.1591 10.6862 7.08008 10.877 7.08008 11.0759V16.8607C7.08008 17.0596 7.1591 17.2503 7.29975 17.391C7.4404 17.5316 7.63117 17.6107 7.83008 17.6107H16.1701C16.369 17.6107 16.5598 17.5316 16.7004 17.391C16.8411 17.2503 16.9201 17.0596 16.9201 16.8607V11.0767C16.9201 10.8777 16.8411 10.687 16.7004 10.5463C16.5598 10.4057 16.369 10.3267 16.1701 10.3267H15.1876V9.57591C15.1866 8.73091 14.8504 7.92081 14.2528 7.32337C13.6553 6.72593 12.8451 6.38995 12.0001 6.38916V6.38991ZM10.3126 9.57591C10.3126 8.64591 11.0701 7.88916 12.0001 7.88916C12.9301 7.88916 13.6876 8.64591 13.6876 9.57591V10.3259H10.3126V9.57591ZM15.4201 11.8259V16.1107H8.58008V11.8267L15.4201 11.8259Z" fill="#8C8C8C"/>
</g>
<defs>
<clipPath id="clip0_152_2500">
<rect width="24" height="24" fill="white"/>
</clipPath>
</defs>
</svg>
