<svg width="68" height="68" viewBox="0 0 68 68" fill="none" xmlns="http://www.w3.org/2000/svg">
<path fill-rule="evenodd" clip-rule="evenodd" d="M9.91602 29.2337C9.91602 16.2007 20.807 5.66669 33.9808 5.66669C47.1917 5.66669 58.0827 16.2007 58.0827 29.2337C58.0827 35.8011 55.6942 41.8983 51.7629 47.0662C47.426 52.7667 42.0805 57.7333 36.0636 61.6319C34.6865 62.5329 33.4437 62.6009 31.9323 61.6319C25.8811 57.7333 20.5356 52.7667 16.2358 47.0662C12.3016 41.8983 9.91602 35.8011 9.91602 29.2337ZM26.0497 29.9675C26.0497 34.3335 29.6124 37.7674 33.9808 37.7674C38.352 37.7674 41.949 34.3335 41.949 29.9675C41.949 25.6354 38.352 22.0344 33.9808 22.0344C29.6124 22.0344 26.0497 25.6354 26.0497 29.9675Z" fill="#02BF43"/>
<circle cx="35" cy="31" r="10" fill="#02BF43"/>
<g clip-path="url(#clip0_215_3326)">
<path d="M34.9211 18.0805C37.1525 18.0805 38.9614 16.2716 38.9614 14.0403C38.9614 11.8089 37.1525 10 34.9211 10C32.6897 10 30.8809 11.8089 30.8809 14.0403C30.8809 16.2716 32.6897 18.0805 34.9211 18.0805Z" fill="white"/>
<path d="M36.3292 20.007C35.3081 19.8006 34.2549 19.8134 33.2391 20.0446C26.5221 20.8317 24.3411 28.6065 24.9569 34.5347C25.2241 37.0976 29.2643 37.1245 28.9945 34.5347C28.7704 32.3743 28.8663 29.1139 30.0146 26.7966V35.2456C30.0146 35.3451 30.0245 35.4383 30.029 35.5343C30.0263 35.58 30.0155 35.6185 30.0155 35.6651C30.0155 42.3696 30.0039 49.0714 29.7269 55.7705C29.6041 58.7485 34.2216 58.7369 34.3436 55.7705C34.5605 50.5201 34.6152 45.2669 34.6277 40.0129C34.8465 40.0272 35.0652 40.0272 35.2839 40.0147C35.2974 45.2687 35.3503 50.5219 35.5654 55.7705C35.6882 58.7369 40.3058 58.7485 40.1821 55.7705C39.9051 49.0714 39.8952 42.3696 39.8952 35.6651C39.8952 35.4572 39.8674 35.268 39.8253 35.086C39.819 32.1753 39.7079 29.2618 39.7419 26.3529C41.1171 28.681 41.2426 32.2318 41.0041 34.5329C40.7334 37.121 44.7746 37.095 45.0417 34.5329C45.6719 28.4819 43.386 20.5054 36.3292 20.007Z" fill="white"/>
</g>
<defs>
<clipPath id="clip0_215_3326">
<rect width="48" height="48" fill="white" transform="translate(11 10)"/>
</clipPath>
</defs>
</svg>
