<svg width="25" height="24" viewBox="0 0 25 24" fill="none" xmlns="http://www.w3.org/2000/svg">
<path d="M3.75781 12H20.2578M3.75781 15.75H20.2578M3.75781 19.5H20.2578M5.63281 4.5H18.3828C18.8801 4.5 19.357 4.69754 19.7086 5.04917C20.0603 5.40081 20.2578 5.87772 20.2578 6.375C20.2578 6.87228 20.0603 7.34919 19.7086 7.70083C19.357 8.05246 18.8801 8.25 18.3828 8.25H5.63281C5.13553 8.25 4.65862 8.05246 4.30699 7.70083C3.95536 7.34919 3.75781 6.87228 3.75781 6.375C3.75781 5.87772 3.95536 5.40081 4.30699 5.04917C4.65862 4.69754 5.13553 4.5 5.63281 4.5Z" stroke="#575757" stroke-width="1.5" stroke-linecap="round" stroke-linejoin="round"/>
</svg>
