<svg width="48" height="48" viewBox="0 0 48 48" fill="none" xmlns="http://www.w3.org/2000/svg">
<g clip-path="url(#clip0_680_7849)">
<path d="M43.8262 40.2075C46.5259 37.3109 47.9977 33.7301 47.9977 29.9992C47.9977 25.3309 45.6917 21.1032 41.9983 18.1035C41.9139 28.7993 31.8556 37.4984 19.5006 37.4984H11.1389C14.373 42.8323 20.9442 46.4975 28.4997 46.4975H46.4978C47.1071 46.4975 47.6508 46.1319 47.8852 45.5695C48.1195 45.007 47.9883 44.3602 47.5571 43.9384L43.8262 40.2075Z" fill="white"/>
<path d="M19.5005 1.5022C8.74843 1.5022 0.00243978 8.89832 0.00243978 18.0005C0.00243978 21.7314 1.47417 25.3029 4.17389 28.2089L0.44302 31.9397C0.0118138 32.3709 -0.119423 33.0177 0.114928 33.5708C0.34928 34.1333 0.892974 34.4988 1.50229 34.4988H19.5005C30.2525 34.4988 38.9985 27.1027 38.9985 18.0005C38.9985 8.89832 30.2525 1.5022 19.5005 1.5022Z" fill="#FFF4F4"/>
<path d="M28.4995 13.501H10.5013C9.6764 13.501 9.00146 14.1759 9.00146 15.0008C9.00146 15.8257 9.6764 16.5007 10.5013 16.5007H28.4995C29.3244 16.5007 29.9993 15.8257 29.9993 15.0008C29.9993 14.1759 29.3244 13.501 28.4995 13.501ZM22.5001 19.5004H10.5013C9.6764 19.5004 9.00146 20.1753 9.00146 21.0002C9.00146 21.8251 9.6764 22.5001 10.5013 22.5001H22.5001C23.325 22.5001 23.9999 21.8251 23.9999 21.0002C23.9999 20.1753 23.325 19.5004 22.5001 19.5004Z" fill="#3AA7CE"/>
</g>
<defs>
<clipPath id="clip0_680_7849">
<rect width="48" height="48" fill="white"/>
</clipPath>
</defs>
</svg>
