<svg width="70" height="70" viewBox="0 0 70 70" fill="none" xmlns="http://www.w3.org/2000/svg">
<circle cx="35" cy="35" r="35" fill="#3AA7CE"/>
<path d="M69.9634 35.5003C69.9634 54.8303 54.2947 70 34.9647 70C15.6347 70 34.9641 54.8303 34.9641 35.5003C34.9641 16.1703 15.6342 0 34.9641 0C54.2941 0 69.9634 16.1703 69.9634 35.5003Z" fill="#6FC9EA"/>
<path d="M50 17.5H20C17.9325 17.5 16.25 19.1825 16.25 21.25V41.25C16.25 43.3175 17.9325 45 20 45H23.75V51.25C23.7504 51.4853 23.8172 51.7158 23.9426 51.9149C24.0681 52.114 24.2471 52.2737 24.4592 52.3756C24.6713 52.4776 24.9079 52.5176 25.1417 52.4912C25.3756 52.4648 25.5972 52.373 25.7812 52.2262L34.8137 45H50C52.0675 45 53.75 43.3175 53.75 41.25V21.25C53.75 19.1825 52.0675 17.5 50 17.5ZM35 35H25C24.6685 35 24.3505 34.8683 24.1161 34.6339C23.8817 34.3995 23.75 34.0815 23.75 33.75C23.75 33.4185 23.8817 33.1005 24.1161 32.8661C24.3505 32.6317 24.6685 32.5 25 32.5H35C35.3315 32.5 35.6495 32.6317 35.8839 32.8661C36.1183 33.1005 36.25 33.4185 36.25 33.75C36.25 34.0815 36.1183 34.3995 35.8839 34.6339C35.6495 34.8683 35.3315 35 35 35ZM45 30H25C24.6685 30 24.3505 29.8683 24.1161 29.6339C23.8817 29.3995 23.75 29.0815 23.75 28.75C23.75 28.4185 23.8817 28.1005 24.1161 27.8661C24.3505 27.6317 24.6685 27.5 25 27.5H45C45.3315 27.5 45.6495 27.6317 45.8839 27.8661C46.1183 28.1005 46.25 28.4185 46.25 28.75C46.25 29.0815 46.1183 29.3995 45.8839 29.6339C45.6495 29.8683 45.3315 30 45 30Z" fill="white"/>
</svg>
