<svg width="24" height="24" viewBox="0 0 24 24" fill="none" xmlns="http://www.w3.org/2000/svg">
<path d="M20.5781 12.3749H19.83V5.62494C19.8173 5.53944 19.7992 5.45131 19.7374 5.38531C19.7377 5.35869 15.9829 1.63231 15.9701 1.60981C15.9011 1.55206 15.8198 1.50856 15.7279 1.50444C15.7046 1.48006 4.4805 1.51269 4.455 1.49994C4.35554 1.49994 4.26016 1.53945 4.18984 1.60977C4.11951 1.6801 4.08 1.77548 4.08 1.87494V12.3749H3.32812C3.22867 12.3749 3.13329 12.4144 3.06296 12.4848C2.99263 12.5551 2.95312 12.6505 2.95312 12.7499V19.8749C2.95312 19.9744 2.99263 20.0698 3.06296 20.1401C3.13329 20.2104 3.22867 20.2499 3.32812 20.2499H4.08V22.1249C4.08 22.2244 4.11951 22.3198 4.18984 22.3901C4.26016 22.4604 4.35554 22.4999 4.455 22.4999H19.455C19.5545 22.4999 19.6498 22.4604 19.7202 22.3901C19.7905 22.3198 19.83 22.2244 19.83 22.1249V20.2499H20.5781C20.6776 20.2499 20.773 20.2104 20.8433 20.1401C20.9136 20.0698 20.9531 19.9744 20.9531 19.8749V12.7499C20.9531 12.6505 20.9136 12.5551 20.8433 12.4848C20.773 12.4144 20.6776 12.3749 20.5781 12.3749ZM18.5479 5.24994H16.0781V2.78019L18.5479 5.24994ZM4.83 2.24994H15.3281V5.62494C15.3281 5.7244 15.3676 5.81978 15.438 5.8901C15.5083 5.96043 15.6037 5.99994 15.7031 5.99994H19.08V12.3749H4.83V2.24994ZM19.08 21.7499H4.83V20.2499H19.08V21.7499ZM20.2031 19.4999H3.70312V13.1249H20.2031V19.4999Z" fill="#8C8C8C"/>
<path d="M5.57855 15.75H10.8285C11.3198 15.7421 11.3228 15.0083 10.8285 15H5.57855C5.0873 15.0079 5.0843 15.7417 5.57855 15.75ZM14.2035 16.5H5.57855C5.08842 16.5075 5.08355 17.2414 5.57855 17.25H14.2035C14.6937 17.2429 14.6989 16.5083 14.2035 16.5ZM6.70355 7.125H10.8285C11.3202 7.11712 11.3224 6.38325 10.8285 6.375H6.70355C6.21192 6.38288 6.20967 7.11675 6.70355 7.125ZM13.5004 7.875H6.70355C6.60409 7.875 6.50871 7.91451 6.43838 7.98483C6.36806 8.05516 6.32855 8.15054 6.32855 8.25C6.32855 8.34946 6.36806 8.44484 6.43838 8.51517C6.50871 8.58549 6.60409 8.625 6.70355 8.625H13.5004C13.9913 8.6175 13.995 7.88325 13.5004 7.875Z" fill="#8C8C8C"/>
</svg>
