<svg width="24" height="24" viewBox="0 0 24 24" fill="none" xmlns="http://www.w3.org/2000/svg">
<g clip-path="url(#clip0_235_1449)">
<path d="M7.7214 10.6742C8.8749 10.6742 9.80999 9.73915 9.80999 8.58566C9.80999 7.43216 8.8749 6.49707 7.7214 6.49707C6.5679 6.49707 5.63281 7.43216 5.63281 8.58566C5.63281 9.73915 6.5679 10.6742 7.7214 10.6742Z" fill="#8C8C8C"/>
<path d="M16.278 10.6742C17.4315 10.6742 18.3666 9.73915 18.3666 8.58566C18.3666 7.43216 17.4315 6.49707 16.278 6.49707C15.1245 6.49707 14.1895 7.43216 14.1895 8.58566C14.1895 9.73915 15.1245 10.6742 16.278 10.6742Z" fill="#8C8C8C"/>
<path d="M7.5 15.5479H16.5V17.0479H7.5V15.5479Z" fill="#8C8C8C"/>
<path d="M3.3838 24H20.6162C22.4817 24 24 22.4817 24 20.6162V3.3838C24 1.51793 22.4817 0 20.6162 0H3.3838C1.51793 0 0 1.51793 0 3.3838V20.6162C0 22.4817 1.51793 24 3.3838 24ZM1.5 3.3838C1.5 2.34524 2.34524 1.5 3.3838 1.5H20.6162C21.6548 1.5 22.5 2.34524 22.5 3.3838V20.6162C22.5 21.6548 21.6548 22.5 20.6162 22.5H3.3838C2.34524 22.5 1.5 21.6548 1.5 20.6162V3.3838Z" fill="#8C8C8C"/>
</g>
<defs>
<clipPath id="clip0_235_1449">
<rect width="24" height="24" fill="white"/>
</clipPath>
</defs>
</svg>
