<svg width="48" height="48" viewBox="0 0 48 48" fill="none" xmlns="http://www.w3.org/2000/svg">
<path d="M41.0486 4.04981C40.2525 3.252 39.1937 2.8125 38.0672 2.8125H36.1973V4.6875C36.1973 6.75525 34.517 8.4375 32.4515 8.4375H15.5952C13.5297 8.4375 11.8493 6.75525 11.8493 4.6875V2.8125H9.97332C7.65225 2.8125 5.76188 4.70287 5.75925 7.02656L5.71875 43.7766C5.71744 44.9043 6.15525 45.9648 6.95128 46.7627C7.7475 47.5606 8.80632 48 9.93282 48H38.0266C40.3477 48 42.2381 46.1096 42.2407 43.7859L42.2813 7.03594C42.2826 5.90822 41.8448 4.84772 41.0486 4.04981ZM24.4776 16.875H34.4575C35.2333 16.875 35.8622 17.5046 35.8622 18.2812C35.8622 19.0579 35.2333 19.6875 34.4575 19.6875H24.4776C23.7018 19.6875 23.0729 19.0579 23.0729 18.2812C23.0729 17.5046 23.7018 16.875 24.4776 16.875ZM24.4776 26.25H34.4575C35.2333 26.25 35.8622 26.8796 35.8622 27.6562C35.8622 28.4329 35.2333 29.0625 34.4575 29.0625H24.4776C23.7018 29.0625 23.0729 28.4329 23.0729 27.6562C23.0729 26.8796 23.7018 26.25 24.4776 26.25ZM24.4776 35.625H34.4977C35.2734 35.625 35.9023 36.2546 35.9023 37.0312C35.9023 37.8079 35.2734 38.4375 34.4977 38.4375H24.4776C23.7018 38.4375 23.0729 37.8079 23.0729 37.0312C23.0729 36.2546 23.7018 35.625 24.4776 35.625ZM12.5092 16.9305C13.0578 16.3813 13.9471 16.3813 14.4957 16.9305L15.2595 17.6952L18.4989 14.4522C19.0476 13.9031 19.9369 13.9029 20.4854 14.4522C21.0339 15.0013 21.0339 15.8917 20.4854 16.4409L16.2527 20.6782C16.1223 20.8088 15.9675 20.9124 15.7971 20.9831C15.6266 21.0538 15.4439 21.0901 15.2594 21.0901C15.0749 21.0901 14.8922 21.0538 14.7218 20.9831C14.5513 20.9124 14.3965 20.8088 14.2661 20.6782L12.5091 18.9191C11.9605 18.37 11.9605 17.4796 12.5092 16.9305ZM12.5092 27.0215C13.0578 26.4723 13.9471 26.4723 14.4957 27.0215L15.2595 27.7861L18.4989 24.5431C19.0475 23.994 19.9369 23.994 20.4854 24.5431C21.0339 25.0922 21.0339 25.9826 20.4854 26.5318L16.2527 30.7692C16.1223 30.8998 15.9675 31.0033 15.797 31.074C15.6266 31.1447 15.4439 31.181 15.2594 31.181C15.0749 31.181 14.8922 31.1447 14.7218 31.074C14.5513 31.0033 14.3965 30.8998 14.2661 30.7692L12.5091 29.0101C11.9605 28.461 11.9605 27.5707 12.5092 27.0215ZM12.5092 36.3965C13.0578 35.8473 13.9471 35.8473 14.4957 36.3965L15.2595 37.1611L18.4989 33.9181C19.0475 33.369 19.9369 33.369 20.4854 33.9181C21.0339 34.4672 21.0339 35.3576 20.4854 35.9068L16.2527 40.1442C16.1223 40.2748 15.9675 40.3783 15.797 40.449C15.6266 40.5197 15.4439 40.556 15.2594 40.556C15.0749 40.556 14.8922 40.5197 14.7218 40.449C14.5513 40.3783 14.3965 40.2748 14.2661 40.1442L12.5091 38.3851C11.9605 37.836 11.9605 36.9457 12.5092 36.3965Z" fill="white"/>
<path d="M14.6588 4.6875C14.6588 5.20528 15.0781 5.625 15.5953 5.625H32.4515C32.9688 5.625 33.388 5.20528 33.388 4.6875V0.9375C33.388 0.419719 32.9688 0 32.4515 0H15.5953C15.0781 0 14.6588 0.419719 14.6588 0.9375V4.6875Z" fill="white"/>
</svg>
