<svg width="22" height="25" viewBox="0 0 22 25" fill="none" xmlns="http://www.w3.org/2000/svg">
<path d="M21 11.3354C20.7347 11.3354 20.4804 11.2257 20.2928 11.0303C20.1053 10.835 20 10.57 20 10.2937C20 7.37187 18.908 4.62604 16.925 2.55937C16.7375 2.36405 16.6321 2.09914 16.6321 1.82292C16.6321 1.54669 16.7375 1.28178 16.925 1.08646C17.1125 0.891137 17.3668 0.781407 17.632 0.781407C17.8971 0.781407 18.1515 0.891137 18.339 1.08646C19.5033 2.29277 20.4264 3.72767 21.0548 5.30811C21.6833 6.88854 22.0045 8.58312 22 10.2937C22 10.57 21.8946 10.835 21.7071 11.0303C21.5195 11.2257 21.2652 11.3354 21 11.3354ZM0.999998 11.3354C0.734782 11.3354 0.480429 11.2257 0.292893 11.0303C0.105357 10.835 0 10.57 0 10.2937C0 6.81562 1.3 3.54583 3.66099 1.08646C3.8485 0.891137 4.10281 0.781407 4.36799 0.781407C4.63317 0.781407 4.88748 0.891137 5.07499 1.08646C5.2625 1.28178 5.36784 1.54669 5.36784 1.82292C5.36784 2.09914 5.2625 2.36405 5.07499 2.55937C4.09697 3.57276 3.32162 4.77813 2.7938 6.10573C2.26597 7.43334 1.99617 8.8568 2 10.2937C2 10.57 1.89464 10.835 1.7071 11.0303C1.51957 11.2257 1.26521 11.3354 0.999998 11.3354ZM20.379 17.6177C19.633 16.9621 19.0335 16.1447 18.6226 15.2225C18.2117 14.3004 17.9992 13.2958 18 12.2792V9.375C18 5.70937 15.386 2.675 12 2.16667V1.04167C12 0.765399 11.8946 0.500448 11.7071 0.305097C11.5195 0.109747 11.2652 0 11 0C10.7348 0 10.4804 0.109747 10.2929 0.305097C10.1053 0.500448 9.99998 0.765399 9.99998 1.04167V2.16667C6.61299 2.675 3.99999 5.70937 3.99999 9.375V12.2792C4.00038 13.2979 3.78682 14.3044 3.37431 15.228C2.96179 16.1517 2.36029 16.9701 1.612 17.626C1.34156 17.8689 1.1488 18.192 1.05954 18.5521C0.970285 18.9122 0.988786 19.2922 1.11257 19.641C1.23635 19.9899 1.4595 20.291 1.75215 20.5041C2.04479 20.7172 2.39294 20.8321 2.74999 20.8333H19.25C20.215 20.8333 21 20.0156 21 19.0104C21 18.4771 20.777 17.9729 20.379 17.6177ZM11 25C11.864 24.9988 12.7012 24.6873 13.3704 24.118C14.0397 23.5488 14.5001 22.7566 14.674 21.875H7.32598C7.49989 22.7566 7.96027 23.5488 8.62952 24.118C9.29877 24.6873 10.136 24.9988 11 25Z" fill="black"/>
</svg>
