<svg width="30" height="30" viewBox="0 0 30 30" fill="none" xmlns="http://www.w3.org/2000/svg">
<circle cx="15" cy="15" r="15" fill="#FFE2E2"/>
<path d="M11.754 12.863C11.806 12.057 12.1137 11.4287 12.677 10.978C13.249 10.5273 13.977 10.302 14.861 10.302C15.4677 10.302 15.992 10.4103 16.434 10.627C16.876 10.8437 17.2097 11.1383 17.435 11.511C17.6603 11.8837 17.773 12.304 17.773 12.772C17.773 13.3093 17.63 13.7687 17.344 14.15C17.058 14.5313 16.7157 14.787 16.317 14.917V14.969C16.8283 15.125 17.227 15.411 17.513 15.827C17.799 16.2343 17.942 16.7587 17.942 17.4C17.942 17.9113 17.825 18.3663 17.591 18.765C17.357 19.1637 17.0103 19.48 16.551 19.714C16.0917 19.9393 15.5413 20.052 14.9 20.052C13.964 20.052 13.1927 19.8137 12.586 19.337C11.988 18.8517 11.6673 18.1583 11.624 17.257H13.054C13.0887 17.7163 13.2663 18.0933 13.587 18.388C13.9077 18.674 14.341 18.817 14.887 18.817C15.4157 18.817 15.823 18.674 16.109 18.388C16.395 18.0933 16.538 17.7163 16.538 17.257C16.538 16.6503 16.343 16.2213 15.953 15.97C15.5717 15.71 14.9823 15.58 14.185 15.58H13.847V14.358H14.198C14.9 14.3493 15.433 14.2323 15.797 14.007C16.1697 13.7817 16.356 13.4263 16.356 12.941C16.356 12.525 16.2217 12.1957 15.953 11.953C15.6843 11.7017 15.303 11.576 14.809 11.576C14.3237 11.576 13.9467 11.7017 13.678 11.953C13.4093 12.1957 13.249 12.499 13.197 12.863H11.754Z" fill="#FF0000"/>
</svg>
