<svg width="69" height="92" viewBox="0 0 69 92" fill="none" xmlns="http://www.w3.org/2000/svg">
<path d="M46.6885 32.1286H22.3099C18.3665 32.1286 15.1699 28.932 15.1699 24.9886V19.8438H53.8285V24.9886C53.8285 28.932 50.6319 32.1286 46.6885 32.1286Z" fill="#8C3F0A"/>
<path d="M68.2052 72.9414V86.9793C68.2052 89.5931 66.0877 91.7059 63.4786 91.7059H5.52149C2.91242 91.7059 0.794922 89.5931 0.794922 86.9793V72.9414C0.794922 62.5004 9.2602 54.0352 19.7012 54.0352H49.2989C59.7399 54.0352 68.2052 62.5004 68.2052 72.9414Z" fill="#58595B"/>
<path d="M52.686 54.3398C56.4167 57.7935 58.7521 62.7323 58.7521 68.2166V82.2545C58.7521 84.8649 56.636 86.981 54.0255 86.981H0.796875C0.796875 89.5915 2.91296 91.7076 5.52344 91.7076H63.4787C66.0891 91.7076 68.2052 89.5915 68.2052 86.981V72.9431C68.2052 63.6583 61.5115 55.9365 52.686 54.3398Z" fill="#414042"/>
<path d="M29.0508 43.9062V56.9828C29.0508 58.0226 29.3504 59.0412 29.9138 59.9165C32.0583 63.2478 36.9418 63.2478 39.0862 59.9165C39.6495 59.0417 39.9492 58.0233 39.9493 56.9828V43.9062H29.0508Z" fill="#FCC4AE"/>
<path d="M29.0508 48.1101C30.8075 48.6965 32.6475 48.9953 34.4996 48.9949C36.4053 48.9949 38.2364 48.681 39.9488 48.1096V43.9062H29.0508V48.1101Z" fill="#F2AD97"/>
<path d="M17.4108 35.2865C20.4509 35.2865 22.9154 32.822 22.9154 29.7819C22.9154 26.7418 20.4509 24.2773 17.4108 24.2773C14.3707 24.2773 11.9062 26.7418 11.9062 29.7819C11.9062 32.822 14.3707 35.2865 17.4108 35.2865Z" fill="#FFD2C0"/>
<path d="M17.4111 32.9471C19.1579 32.9471 20.5741 31.531 20.5741 29.7841C20.5741 28.0372 19.1579 26.6211 17.4111 26.6211C15.6642 26.6211 14.248 28.0372 14.248 29.7841C14.248 31.531 15.6642 32.9471 17.4111 32.9471Z" fill="#F2AD97"/>
<path d="M51.5885 35.2865C54.6286 35.2865 57.0931 32.822 57.0931 29.7819C57.0931 26.7418 54.6286 24.2773 51.5885 24.2773C48.5485 24.2773 46.084 26.7418 46.084 29.7819C46.084 32.822 48.5485 35.2865 51.5885 35.2865Z" fill="#FFD2C0"/>
<path d="M51.5888 32.9471C53.3357 32.9471 54.7518 31.531 54.7518 29.7841C54.7518 28.0372 53.3357 26.6211 51.5888 26.6211C49.8419 26.6211 48.4258 28.0372 48.4258 29.7841C48.4258 31.531 49.8419 32.9471 51.5888 32.9471Z" fill="#F2AD97"/>
<path d="M34.5 46.6291C25.045 46.6291 17.3809 38.9645 17.3809 29.5099V20.623C17.3809 11.1685 25.0455 3.50391 34.5 3.50391C43.9545 3.50391 51.6191 11.1685 51.6191 20.623V29.5095C51.6191 38.9645 43.9545 46.6291 34.5 46.6291Z" fill="#FFD2C0"/>
<path d="M34.5 46.6291C25.045 46.6291 17.3809 38.9645 17.3809 29.5099V20.623C17.3809 11.1685 25.0455 3.50391 34.5 3.50391C43.9545 3.50391 51.6191 11.1685 51.6191 20.623V29.5095C51.6191 38.9645 43.9545 46.6291 34.5 46.6291Z" fill="#FFD2C0"/>
<path d="M22.2871 54.0382L27.388 67.8757C27.4358 68.0051 27.5154 68.1203 27.6194 68.2109C27.7234 68.3015 27.8485 68.3645 27.9832 68.394C28.1179 68.4236 28.2579 68.4188 28.3903 68.3801C28.5227 68.3414 28.6432 68.27 28.7408 68.1725L34.5005 62.4123L29.8 55.0866C29.3112 54.3248 29.0514 53.4388 29.0513 52.5337V50.9844L22.2871 54.0382ZM46.7187 54.0382L41.6131 67.8757C41.5653 68.0051 41.4857 68.1203 41.3817 68.2109C41.2777 68.3015 41.1526 68.3645 41.0179 68.394C40.8832 68.4236 40.7432 68.4188 40.6108 68.3801C40.4784 68.3414 40.3579 68.27 40.2603 68.1725L34.5005 62.4123L39.2011 55.0866C39.6899 54.3248 39.9497 53.4388 39.9498 52.5337V50.9844L46.7187 54.0382Z" fill="#414042"/>
<path d="M37.5432 35.4102C38.0139 35.4102 38.3708 35.8497 38.2621 36.3082C38.0593 37.1535 37.5777 37.9058 36.8951 38.444C36.2125 38.9822 35.3685 39.2749 34.4993 39.2749C33.63 39.2749 32.7861 38.9822 32.1034 38.444C31.4208 37.9058 30.9393 37.1535 30.7365 36.3082C30.6277 35.8502 30.9841 35.4102 31.4554 35.4102H37.5432Z" fill="#E59076"/>
<path d="M42.2476 39.3757V44.7829C41.5102 45.1563 40.7445 45.4777 39.9552 45.7472V39.3757C39.9552 38.9307 39.7784 38.5039 39.4637 38.1893C39.1491 37.8746 38.7223 37.6978 38.2773 37.6978H30.7242C30.2792 37.6978 29.8524 37.8746 29.5377 38.1893C29.2231 38.5039 29.0463 38.9307 29.0463 39.3757V45.7472C28.257 45.4777 27.4913 45.1563 26.7539 44.7829V39.3757C26.7539 37.1873 28.5358 35.4102 30.7242 35.4102H38.2773C40.4657 35.4102 42.2476 37.1873 42.2476 39.3757Z" fill="#8C3F0A"/>
<path d="M34.5 3.50391C25.0455 3.50391 17.3809 11.1685 17.3809 20.623V29.5095C17.3809 38.964 25.0455 46.6286 34.5 46.6286C43.9545 46.6286 51.6191 38.964 51.6191 29.5095V20.623C51.6191 11.1685 43.9545 3.50391 34.5 3.50391ZM49.2629 28.8983C49.2629 37.0516 42.6533 43.6617 34.4995 43.6617C26.3462 43.6617 19.7361 37.0521 19.7361 28.8983V21.2347C19.7361 13.0813 26.3457 6.47124 34.4995 6.47124C42.6528 6.47124 49.2629 13.0809 49.2629 21.2347V28.8983Z" fill="#8C3F0A"/>
<path d="M18.3204 21.7981V19.7888C18.3204 11.3278 25.5643 4.46858 34.5003 4.46858C43.4364 4.46858 50.6803 11.3278 50.6803 19.7888V21.7981H53.8258V20.0516C53.8258 9.37854 45.1739 0.726562 34.5008 0.726562C23.8278 0.726562 15.1758 9.37854 15.1758 20.0516V21.7981H18.3204Z" fill="#8C3F0A"/>
<path d="M26.4551 27.9415C27.4173 27.9415 28.1973 27.1614 28.1973 26.1992C28.1973 25.237 27.4173 24.457 26.4551 24.457C25.4929 24.457 24.7129 25.237 24.7129 26.1992C24.7129 27.1614 25.4929 27.9415 26.4551 27.9415Z" fill="#8C3F0A"/>
<path d="M42.5449 27.9415C43.5071 27.9415 44.2872 27.1614 44.2872 26.1992C44.2872 25.237 43.5071 24.457 42.5449 24.457C41.5827 24.457 40.8027 25.237 40.8027 26.1992C40.8027 27.1614 41.5827 27.9415 42.5449 27.9415Z" fill="#8C3F0A"/>
<path d="M53.449 16.2292C51.8854 15.6918 48.6978 14.5976 47.1579 14.0692C45.1255 13.502 42.9985 13.4122 40.9283 13.8092C36.7595 14.608 29.3577 16.0024 24.4988 16.8059C22.6601 17.1131 20.6892 16.8011 18.7796 16.1725C15.9787 15.2981 12.6483 13.2808 10.631 11.8004C9.51557 10.9922 9.59592 9.30954 10.787 8.62419C20.2538 2.35015 37.0658 -6.0499 48.4908 6.71986C51.0914 9.52129 52.6743 12.5307 53.449 16.2292Z" fill="#8C3F0A"/>
<path d="M23.0086 15.0329C21.9168 15.0329 20.6931 14.8108 19.3644 14.3759L19.3408 14.3665C18.5987 14.1349 17.7669 13.7945 16.8693 13.3597C16.7571 13.3064 16.6567 13.2313 16.5738 13.1388C16.491 13.0463 16.4274 12.9382 16.3867 12.8209C16.3016 12.5845 16.3205 12.3293 16.4292 12.1024C16.6467 11.6487 17.2375 11.4407 17.6912 11.6629C18.4947 12.0504 19.2605 12.3624 19.908 12.5609L19.96 12.5798C21.4819 13.0808 22.8006 13.2557 23.8731 13.0761C29.2614 12.1828 37.746 10.571 40.2128 10.0936C40.7328 9.99912 41.2243 10.3442 41.3236 10.8452C41.3713 11.0957 41.3188 11.3462 41.1771 11.5542C41.0353 11.7621 40.8178 11.9039 40.5721 11.9512C37.3816 12.5609 29.3942 14.0781 24.1851 14.9384C23.8169 15.0045 23.4203 15.0329 23.0086 15.0329ZM13.9861 11.6014C13.8065 11.6014 13.6269 11.5494 13.4756 11.4549C13.4756 11.4549 13.4756 11.4502 13.4709 11.4502C13.2629 11.3131 13.1164 11.1051 13.0644 10.8594C13.0082 10.6136 13.0549 10.3631 13.1878 10.1504C13.4567 9.72498 14.0622 9.5879 14.4923 9.85732L14.497 9.86205C14.9319 10.1409 15.0642 10.727 14.7853 11.1666C14.61 11.4407 14.3075 11.6014 13.9861 11.6014Z" fill="#995222"/>
<path d="M43.7634 11.4459C44.4328 12.1659 45.0529 12.9302 45.6195 13.7336C46.1366 13.8154 46.6499 13.9274 47.1571 14.0692C48.697 14.5976 51.8846 15.6918 53.4481 16.2292C52.6734 12.5307 51.0905 9.52129 48.49 6.71986C37.0649 -6.0499 20.253 2.35015 10.7862 8.62419C9.93964 9.1115 9.65746 10.1012 9.96374 10.9241C19.6787 5.29527 33.7781 0.285588 43.7634 11.4459Z" fill="#7C3108"/>
<path d="M46.1276 9.08314C47.8438 10.9322 49.1082 12.8762 49.9982 15.0443L53.449 16.2292C52.6743 12.5307 51.0914 9.52129 48.4909 6.71986C37.0658 -6.0499 20.2539 2.35015 10.7871 8.62419C10.5284 8.77168 10.3089 8.97896 10.1468 9.2287C9.98475 9.47845 9.88484 9.76337 9.85547 10.0596C19.5128 3.94631 35.2579 -3.06602 46.1276 9.08314Z" fill="#6D2E03"/>
<path d="M17.7246 32.9453C18.7796 38.1237 22.1723 42.4519 26.7523 44.7802V41.4678L24.9161 38.2608C23.9697 36.608 22.5461 35.2796 20.8319 34.4498L17.7246 32.9453ZM51.2738 32.9453C50.2188 38.1237 46.8261 42.4519 42.246 44.7802V41.4678L44.0823 38.2608C45.0286 36.608 46.4522 35.2796 48.1665 34.4498L51.2738 32.9453Z" fill="#8C3F0A"/>
<path d="M39.0622 66.9718L35.6633 70.3706C35.355 70.6789 34.9368 70.852 34.5008 70.852C34.0648 70.852 33.6467 70.6789 33.3383 70.3706L29.9395 66.9718L34.5011 62.4102L39.0622 66.9718Z" fill="#FFA91A"/>
<path d="M35.6623 70.3721C35.3539 70.6804 34.9358 70.8535 34.4998 70.8535C34.0638 70.8535 33.6456 70.6804 33.3373 70.3721L32.1722 69.207L29.7441 91.7097H39.2554L36.8274 69.2075L35.6623 70.3721Z" fill="#F79219"/>
<path d="M30.2541 86.9844L29.7441 91.7109H39.2549L38.7449 86.9844H30.2541Z" fill="#EF7816"/>
</svg>
