<svg width="121" height="121" viewBox="0 0 121 121" fill="none" xmlns="http://www.w3.org/2000/svg">
<path d="M67.1366 4.70418L69.3072 12.7082C69.5165 13.5001 69.9265 14.2247 70.4974 14.8121C71.0683 15.3995 71.7809 15.8298 72.5666 16.0616C73.3522 16.2934 74.1843 16.3188 74.9827 16.1354C75.781 15.952 76.5186 15.5659 77.1243 15.0145L83.284 9.44501C88.1019 5.0855 95.589 9.896 93.6274 16.0888L91.1158 24.0085C90.8669 24.7869 90.8224 25.6162 90.9864 26.4168C91.1505 27.2174 91.5176 27.9623 92.0526 28.5801C92.5875 29.1979 93.2723 29.6678 94.0412 29.9446C94.8101 30.2215 95.6373 30.296 96.4433 30.161L104.623 28.8044C111.051 27.7411 114.747 35.8368 109.756 39.9873L103.366 45.2928C102.733 45.813 102.245 46.4873 101.949 47.2509C101.653 48.0144 101.559 48.8414 101.675 49.652C101.792 50.4627 102.115 51.2296 102.614 51.879C103.113 52.5283 103.771 53.0381 104.524 53.3592L112.151 56.6591C118.116 59.2257 116.851 68.0254 110.402 68.8247L102.156 69.833C101.342 69.9272 100.567 70.2295 99.904 70.7106C99.2413 71.1917 98.7137 71.8354 98.3722 72.5798C98.0306 73.3241 97.8866 74.1438 97.9539 74.96C98.0213 75.7761 98.2978 76.5612 98.7569 77.2394L103.395 84.1288C107.021 89.5186 101.195 96.2284 95.3286 93.4198L87.8489 89.812C87.1136 89.4545 86.2988 89.2922 85.4826 89.3406C84.6665 89.3891 83.8766 89.6466 83.1887 90.0885C82.5009 90.5303 81.9382 91.1417 81.5549 91.8638C81.1716 92.5859 80.9804 93.3945 80.9998 94.2118L81.1758 102.517C81.3151 109.014 72.7794 111.518 69.3805 105.978L65.0613 98.872C64.6358 98.174 64.038 97.5972 63.3253 97.197C62.6126 96.7968 61.8089 96.5866 60.9915 96.5866C60.174 96.5866 59.3704 96.7968 58.6576 97.197C57.9449 97.5972 57.3471 98.174 56.9216 98.872L52.5804 105.952C49.1815 111.492 40.6458 108.988 40.7851 102.491L40.9611 94.1861C40.9805 93.3688 40.7894 92.5602 40.406 91.8381C40.0227 91.116 39.46 90.5047 38.7722 90.0628C38.0843 89.6209 37.2944 89.3634 36.4783 89.315C35.6622 89.2665 34.8473 89.4289 34.112 89.7863L26.6323 93.3942C20.7658 96.2174 14.9544 89.493 18.5659 84.1031L23.2261 77.2394C23.6847 76.5624 23.9615 75.7789 24.0298 74.964C24.0982 74.1492 23.9557 73.3305 23.6162 72.5866C23.2766 71.8428 22.7515 71.1987 22.0911 70.7165C21.4307 70.2342 20.6574 69.93 19.8455 69.833L11.5921 68.8063C5.14269 68.018 3.8924 59.2147 9.84319 56.6408L17.4696 53.3409C18.223 53.0198 18.8809 52.51 19.38 51.8606C19.879 51.2113 20.2024 50.4443 20.3188 49.6337C20.4352 48.8231 20.3409 47.9961 20.0447 47.2326C19.7486 46.469 19.2608 45.7946 18.6282 45.2745L12.2264 39.9873C7.23628 35.8368 10.9322 27.7411 17.3596 28.8044L25.5543 30.161C26.3595 30.2938 27.1853 30.2177 27.9526 29.9399C28.7199 29.6621 29.403 29.192 29.9366 28.5745C30.4701 27.9571 30.8362 27.213 30.9998 26.4135C31.1634 25.614 31.119 24.7859 30.8708 24.0085L28.3592 16.0888C26.3976 9.896 33.8847 5.08916 38.7025 9.44501L44.8587 15.0145C45.4644 15.5659 46.202 15.952 47.0003 16.1354C47.7986 16.3188 48.6307 16.2934 49.4163 16.0616C50.202 15.8298 50.9146 15.3995 51.4856 14.8121C52.0565 14.2247 52.4664 13.5001 52.6757 12.7082L54.8463 4.68951C56.5439 -1.56561 65.439 -1.56561 67.1366 4.70418Z" fill="#DF7D69"/>
</svg>
