<svg width="28" height="28" viewBox="0 0 28 28" fill="none" xmlns="http://www.w3.org/2000/svg">
<g clip-path="url(#clip0_139_6683)">
<path d="M18.1033 13.5108H15.6356C15.262 13.5108 14.9564 13.2051 14.9564 12.8315L14.6168 7.07634C14.6168 7.07634 14.0673 2.30918 16.9175 1.68274C16.9175 1.68274 18.0764 -0.572413 21.788 0.150064C21.8387 0.159962 21.8875 0.178173 21.9367 0.193376C23.4613 0.666314 24.6649 1.74557 25.3289 3.0847C26.2233 4.88999 25.9313 6.23006 25.5735 12.8315C25.5735 13.2051 25.2678 13.5107 24.8942 13.5107H22.269" fill="black"/>
<path d="M18.5326 13.5109V12.7033C17.0082 12.0297 16.0422 10.5778 15.9739 8.97384C15.9687 8.8555 15.968 6.40348 15.9718 6.35819C15.9463 5.00205 16.1561 2.15699 18.3132 1.68296C18.3132 1.68296 19.0234 0.30128 21.1121 0.0474754C19.2348 -0.158806 17.8931 0.453093 17.1521 1.34773C16.9878 1.54613 16.9217 1.67733 16.9178 1.68296C14.9759 2.10974 14.5177 4.50642 14.5796 6.48545C14.5798 6.49371 14.9563 12.8254 14.9567 12.8318C14.9567 13.2053 15.2623 13.511 15.6359 13.511L18.5326 13.5109Z" fill="black"/>
<path d="M12.4838 26.1008L13.2771 19.012C13.4712 17.6653 13.3578 16.8585 14.0005 16.0787C13.8041 15.84 13.524 15.6173 13.3391 15.5045L13.3188 15.4995C12.6315 15.0878 12.0528 15.0705 10.7755 14.7191L9.46935 14.0939V12.5337C8.43839 12.9896 7.18162 13.0289 6.06337 12.5426L6.05774 14.1003L4.75722 14.7191C3.4881 15.0683 2.90261 15.0869 2.21388 15.4995L2.19359 15.5045C1.92776 15.6667 1.61024 15.9415 1.39489 16.2631C0.934309 16.951 0.99452 17.3522 0.538647 21.426C0.00435217 26.2773 -0.00084313 26.0769 0.00478966 26.406V26.408C-0.00379624 27.0424 0.385358 28.0002 1.56781 28.0002C1.65695 28.0002 13.9246 28.0006 14.0006 27.9993C13.0948 27.9841 12.3767 27.3389 12.4838 26.1008Z" fill="black"/>
<path d="M1.42285 26.1008L1.94605 21.4258C2.41286 16.7267 2.32098 16.3621 2.80228 15.6434C2.95087 15.4215 3.13019 15.235 3.34145 15.0712C3.24366 15.1022 2.74967 15.178 2.21314 15.4994L2.19285 15.5044C1.39283 15.9926 1.07963 16.6636 0.973268 17.5356L0.0147088 26.1008C0.00256821 26.2415 0.00404476 26.3278 0.00404476 26.4078C-0.00454114 27.0422 0.384614 28.0001 1.56706 28.0001H2.97521C1.90847 28.0001 1.32753 27.2052 1.42285 26.1008ZM7.46552 15.4325V12.8808C6.98559 12.8486 6.52299 12.7426 6.06263 12.5425L6.057 14.1002L7.46552 15.4325Z" fill="black"/>
<path d="M27.0279 17.5353C26.9265 16.7036 26.6335 16.008 25.8083 15.5041L25.788 15.4991C25.0644 15.0656 24.5383 15.0833 22.0963 14.4328C22.0031 14.3906 21.9385 14.2518 21.9385 14.0935V12.7103C20.8493 13.1854 19.5895 13.1704 18.5326 12.7031V14.0935C18.5326 14.2518 18.468 14.3906 18.3748 14.4328C15.9491 15.079 15.4095 15.0639 14.6831 15.4991L14.6628 15.5041C13.8316 16.0117 13.5436 16.7121 13.4432 17.5353C12.4388 26.5905 12.4683 26.0719 12.474 26.4056C12.4594 27.2492 13.0299 27.9998 14.037 27.9998H26.4342C27.4633 27.9998 28.0183 27.2158 27.9972 26.4056C28.0029 26.0723 28.0284 26.5552 27.0279 17.5353Z" fill="black"/>
<path d="M13.881 26.406C13.8754 26.0811 13.8568 26.5028 14.8502 17.0287C14.9526 16.1885 15.2388 15.5247 16.0458 15.0127C15.8089 15.0844 15.2688 15.1479 14.6819 15.4995L14.6616 15.5045C13.8305 16.0121 13.5424 16.7127 13.442 17.5357C12.4374 26.6494 12.4728 25.9659 12.4728 26.408C12.4642 27.0424 12.8534 28.0002 14.0358 28.0002H15.444C14.4227 28.0002 13.8722 27.2394 13.881 26.406Z" fill="black"/>
<path d="M27.463 21.4244C27.011 17.4122 27.0305 17.4587 26.9587 17.1112C26.8134 16.4085 26.3874 15.8578 25.8081 15.5041L25.7878 15.4991C25.0642 15.0656 24.5381 15.0833 22.0961 14.4328C22.0029 14.3906 21.9384 14.2518 21.9384 14.0934V12.7031C20.8685 13.1758 19.6165 13.1821 18.5324 12.7031V14.0935C18.5324 14.2518 18.4678 14.3906 18.3747 14.4328C15.9489 15.0791 15.4094 15.0639 14.6829 15.4991L14.6626 15.5042C13.8778 15.9832 13.5505 16.6543 13.443 17.5353L13.0078 21.4245L15.7512 21.7123C15.8215 21.7197 15.8862 21.7537 15.9322 21.8073C15.9781 21.861 16.0017 21.9302 15.9982 22.0008L15.6968 27.9998H24.7906L24.4746 22.024C24.4706 21.9472 24.4961 21.8718 24.5461 21.8134C24.596 21.7549 24.6664 21.7179 24.7429 21.7098L27.463 21.4244Z" fill="black"/>
<path d="M13.0078 21.4248L14.3716 21.5679C14.8565 17.0741 14.8271 17.055 14.9202 16.6047C15.062 15.919 15.4625 15.3834 16.0468 15.0127C15.8725 15.0692 15.2698 15.1479 14.6829 15.4995L14.6626 15.5045C14.0866 15.8561 13.6584 16.4039 13.512 17.1117C13.4238 17.5385 13.4404 17.6317 13.0078 21.4248Z" fill="black"/>
<path d="M13.3295 15.5044L13.3092 15.4994C12.6204 15.0867 12.0324 15.0673 10.7748 14.7212L10.776 14.7189L9.46982 14.0938L9.46036 14.108L9.46009 14.1029L7.75664 15.7067L6.05816 14.1001L4.75764 14.7189C3.48851 15.0681 2.90298 15.0868 2.2143 15.4993L2.19401 15.5044C1.39147 15.9944 1.08134 16.6589 0.974428 17.5355L0.539062 21.4257L3.23001 21.7081C3.31171 21.7167 3.38702 21.7562 3.44045 21.8186C3.49388 21.881 3.52138 21.9615 3.51728 22.0436L3.21808 28H12.3119L11.996 22.025C11.9919 21.948 12.0176 21.8725 12.0676 21.8139C12.1176 21.7553 12.1883 21.7181 12.2649 21.71L12.9842 21.6346L13.2777 19.0119C13.474 17.6287 13.3619 16.8611 13.9962 16.0848C13.8561 15.9132 13.4823 15.5977 13.3295 15.5044Z" fill="black"/>
<path d="M1.94721 21.4259C2.42945 16.5717 2.30968 16.2314 2.93552 15.4651C3.04769 15.3278 3.17976 15.1976 3.34262 15.0713C3.21476 15.1076 2.734 15.1881 2.2143 15.4994L2.19402 15.5045C1.83543 15.7234 1.51059 16.0427 1.29856 16.4221C0.896992 17.1408 1.01905 17.5894 0.539062 21.4259L1.93091 21.5719L1.94721 21.4259Z" fill="black"/>
<path d="M23.2445 14.7187L22.0961 14.4328C22.0029 14.3906 21.9384 14.2518 21.9384 14.0935V12.5342C20.8685 13.0069 19.6165 13.0131 18.5324 12.5342V14.0935C18.5324 14.2518 18.4678 14.3907 18.3746 14.4329L17.209 14.7231C18.6099 17.0794 21.8446 17.0803 23.2445 14.7187Z" fill="black"/>
<path d="M2.41813 6.81412C2.41956 5.25936 2.41452 5.32219 2.42338 5.1158C2.60112 0.923513 7.34903 -1.4444 10.8089 0.965841C13.1358 2.5905 13.0931 4.60158 13.0952 6.81412" fill="black"/>
<path d="M2.41813 6.81412C2.41956 5.25936 2.41452 5.32219 2.42338 5.1158C2.60112 0.923513 7.34903 -1.4444 10.8089 0.965841C13.1358 2.5905 13.0931 4.60158 13.0952 6.81412" fill="black"/>
<path d="M8.28893 0.0339884C5.22326 -0.270348 2.52842 2.06738 2.42173 5.15996C2.41511 5.35273 2.41954 5.30822 2.41817 6.81409H3.48272V5.34589C3.48267 2.60151 5.56713 0.304418 8.28893 0.0339884Z" fill="black"/>
<path d="M13.3607 7.29155C13.3607 7.90679 12.7652 8.40548 12.0305 8.40548V6.17773C12.7652 6.17773 13.3607 6.67638 13.3607 7.29155ZM2.15234 7.29155C2.15234 7.90679 2.74789 8.40548 3.48262 8.40548V6.17773C2.74789 6.17773 2.15234 6.67638 2.15234 7.29155Z" fill="black"/>
<path d="M12.0294 7.40434V8.40555C13.0278 8.40555 13.6585 7.52328 13.2176 6.79102C12.9987 7.15474 12.549 7.40434 12.0294 7.40434ZM2.29325 6.79102C1.85187 7.5241 2.4851 8.40555 3.4815 8.40555V7.40434C2.96192 7.40434 2.51222 7.15474 2.29325 6.79102Z" fill="black"/>
<path d="M11.6298 5.94685C11.2435 5.61205 11.0635 5.14338 11.0451 4.62998C11.0295 4.20161 10.6895 3.96782 10.3083 4.02666C9.99663 4.07445 9.6837 4.11375 9.36988 4.14451C7.93083 4.28577 6.55692 4.23694 5.17294 4.02201C4.83639 3.96957 4.48207 4.19975 4.46671 4.63009C4.45435 4.96915 4.37264 5.29503 4.19524 5.57962C3.93066 6.00591 3.5945 6.13197 3.48184 6.19705C3.48184 8.88007 3.42814 9.24396 3.66335 10.023C4.41804 12.5255 7.23127 13.7547 9.56965 12.6576C10.9285 12.0197 11.8926 10.692 12.0159 9.12813C12.0353 8.88302 12.0299 8.98649 12.0299 6.19705C12.0096 6.18682 11.8398 6.12852 11.6298 5.94685Z" fill="#313131"/>
<path d="M5.16642 10.8431C5.11085 10.6895 5.06272 10.5332 5.02221 10.3749C4.80242 9.5157 4.86919 9.01733 4.86788 6.70947C4.86788 6.29428 5.14739 6.2689 5.42799 5.92229C5.71679 5.56611 5.84339 5.11456 5.854 4.64879C5.85898 4.43682 5.95824 4.25482 6.1048 4.14074C5.79328 4.10955 5.48265 4.06998 5.17325 4.02207C4.81122 3.96568 4.47763 4.23759 4.46833 4.60383C4.45663 5.05271 4.32275 5.47697 4.02296 5.80882C3.7744 6.08428 3.53607 6.16593 3.48215 6.19704C3.48215 8.85759 3.36895 9.56136 3.92425 10.6819C4.23821 11.3154 4.60396 11.6645 4.63037 11.7012L4.63043 11.7012C5.22745 12.3385 5.9858 12.7579 6.70532 12.9295C6.62652 12.8707 5.51806 11.7988 5.16642 10.8431Z" fill="black"/>
<path d="M8.17891 18.7766V15.309L7.75645 15.7067L7.33398 15.3071V18.7765C7.33398 18.8885 7.37849 18.996 7.45772 19.0752C7.53695 19.1545 7.6444 19.199 7.75645 19.199C7.81192 19.199 7.86686 19.1881 7.91812 19.1668C7.96938 19.1456 8.01595 19.1145 8.05518 19.0753C8.09441 19.0361 8.12553 18.9895 8.14676 18.9382C8.16799 18.887 8.17891 18.832 8.17891 18.7766Z" fill="black"/>
<path d="M9.469 14.0938L7.75586 15.7067L8.68068 16.6387C8.85727 16.8166 9.14995 16.7993 9.30434 16.6017L10.7752 14.7189L9.469 14.0938Z" fill="black"/>
<path d="M10.1267 14.4085L9.469 14.0938L7.75586 15.7067L8.36781 16.3234L10.1267 14.4085ZM8.80646 16.7251C8.88305 16.7593 8.96816 16.7697 9.0507 16.7547L8.80646 16.7251Z" fill="#656565"/>
<path d="M6.0572 14.1001L7.75568 15.7067L6.83086 16.6386C6.65427 16.8166 6.36159 16.7993 6.2072 16.6017L4.73633 14.7189L6.0572 14.1001Z" fill="black"/>
<path d="M6.55871 15.7004L7.14414 16.3234L7.75609 15.7067L6.05766 14.1001L5.36133 14.4263L6.55871 15.7004Z" fill="#656565"/>
<path d="M19.9476 14.9542V12.8802C19.4411 12.8455 18.9628 12.7244 18.5324 12.5342C18.4895 13.7657 18.644 14.3108 18.3746 14.4329L17.209 14.7231C17.4992 15.2112 17.8915 15.6238 18.3541 15.9274L19.5643 15.4824C19.5643 15.4823 19.9476 15.2921 19.9476 14.9542Z" fill="black"/>
<path d="M24.087 7.38863C24.3275 7.39984 24.517 7.59786 24.517 7.83865V8.16185C24.5159 8.75757 24.7097 10.6298 22.975 12.0734C20.9946 13.7222 17.9772 13.2502 16.6059 11.0329C15.7683 9.67954 15.9719 8.49074 15.9689 6.61879V6.40234C15.9689 6.15083 16.1461 5.9358 16.3921 5.88374C16.8287 5.79142 17.534 5.54068 18.1738 4.85966C18.3346 4.68854 18.6089 4.69746 18.7584 4.87853C19.3793 5.6307 21.0558 7.24699 24.087 7.38863Z" fill="#313131"/>
<path d="M17.3809 8.95517C17.3758 8.82376 17.3773 9.12366 17.3773 5.49805C17.0012 5.71866 16.6499 5.82918 16.3923 5.88365C16.1463 5.93571 15.9691 6.15074 15.9691 6.40225V6.6187C15.9723 8.65816 15.7964 9.72452 16.6061 11.0328C17.4795 12.4463 19.1568 13.2985 20.9473 13.0018C18.9901 12.6774 17.4628 11.0152 17.3809 8.95517Z" fill="black"/>
<path d="M24.0676 14.9238L23.2437 14.7188C22.6128 15.7831 21.4969 16.491 20.2246 16.491C20.2246 16.491 24.0847 20.3515 24.0676 14.9238Z" fill="#656565"/>
<path d="M16.4004 14.9238L17.2244 14.7188C17.8553 15.7831 18.9712 16.491 20.2434 16.491C20.2434 16.491 16.3834 20.3515 16.4004 14.9238Z" fill="#656565"/>
<path d="M18.406 15.9508C17.725 16.3134 16.9401 16.4864 16.4375 15.814C16.8374 19.8964 20.2422 16.4914 20.2422 16.4914C19.5704 16.4913 18.9422 16.2938 18.406 15.9508Z" fill="#656565"/>
<path d="M22.0608 15.9508C22.7419 16.3134 23.5267 16.4864 24.0293 15.814C23.6294 19.8964 20.2246 16.4914 20.2246 16.4914C20.8964 16.4913 21.5245 16.2938 22.0608 15.9508Z" fill="#656565"/>
</g>
<defs>
<clipPath id="clip0_139_6683">
<rect width="28" height="28" fill="white"/>
</clipPath>
</defs>
</svg>
