<svg width="28" height="28" viewBox="0 0 28 28" fill="none" xmlns="http://www.w3.org/2000/svg">
<g clip-path="url(#clip0_192_19087)">
<path d="M18.1033 13.511H15.6356C15.262 13.511 14.9564 13.2054 14.9564 12.8318L14.6168 7.07659C14.6168 7.07659 14.0673 2.30943 16.9175 1.68298C16.9175 1.68298 18.0764 -0.572168 21.788 0.150308C21.8387 0.160207 21.8875 0.178417 21.9367 0.193621C23.4613 0.666558 24.6649 1.74582 25.3289 3.08495C26.2233 4.89024 25.9313 6.2303 25.5735 12.8317C25.5735 13.2053 25.2678 13.511 24.8942 13.511H22.269" fill="white"/>
<path d="M18.5326 13.5109V12.7033C17.0082 12.0297 16.0422 10.5778 15.9739 8.97384C15.9687 8.8555 15.968 6.40348 15.9718 6.35819C15.9463 5.00205 16.1561 2.15699 18.3132 1.68296C18.3132 1.68296 19.0234 0.30128 21.1121 0.0474754C19.2348 -0.158806 17.8931 0.453093 17.1521 1.34773C16.9878 1.54613 16.9217 1.67733 16.9178 1.68296C14.9759 2.10974 14.5177 4.50642 14.5796 6.48545C14.5798 6.49371 14.9563 12.8254 14.9567 12.8318C14.9567 13.2053 15.2623 13.511 15.6359 13.511L18.5326 13.5109Z" fill="white"/>
<path d="M12.4838 26.1006L13.2771 19.0118C13.4712 17.6651 13.3578 16.8582 14.0005 16.0784C13.8041 15.8397 13.524 15.6171 13.3391 15.5043L13.3188 15.4992C12.6315 15.0875 12.0528 15.0703 10.7755 14.7189L9.46935 14.0937V12.5334C8.43839 12.9893 7.18162 13.0286 6.06337 12.5424L6.05774 14.1001L4.75722 14.7189C3.4881 15.068 2.90261 15.0867 2.21388 15.4992L2.19359 15.5043C1.92776 15.6665 1.61024 15.9413 1.39489 16.2628C0.934309 16.9508 0.99452 17.352 0.538647 21.4257C0.00435217 26.2771 -0.00084313 26.0766 0.00478966 26.4058V26.4077C-0.00379624 27.0421 0.385358 28 1.56781 28C1.65695 28 13.9246 28.0003 14.0006 27.9991C13.0948 27.9839 12.3767 27.3386 12.4838 26.1006Z" fill="white"/>
<path d="M1.42285 26.1005L1.94605 21.4255C2.41286 16.7264 2.32098 16.3619 2.80228 15.6431C2.95087 15.4212 3.13019 15.2348 3.34145 15.071C3.24366 15.102 2.74967 15.1777 2.21314 15.4991L2.19285 15.5042C1.39283 15.9923 1.07963 16.6633 0.973268 17.5354L0.0147088 26.1005C0.00256821 26.2412 0.00404476 26.3275 0.00404476 26.4075C-0.00454114 27.042 0.384614 27.9998 1.56706 27.9998H2.97521C1.90847 27.9998 1.32753 27.2049 1.42285 26.1005ZM7.46552 15.4322V12.8806C6.98559 12.8484 6.52299 12.7423 6.06263 12.5422L6.057 14.0999L7.46552 15.4322Z" fill="white"/>
<path d="M27.0279 17.5355C26.9265 16.7039 26.6335 16.0082 25.8083 15.5043L25.788 15.4993C25.0644 15.0658 24.5383 15.0836 22.0963 14.433C22.0031 14.3908 21.9385 14.252 21.9385 14.0937V12.7106C20.8493 13.1856 19.5895 13.1706 18.5326 12.7034V14.0937C18.5326 14.252 18.468 14.3909 18.3748 14.433C15.9491 15.0793 15.4095 15.0642 14.6831 15.4993L14.6628 15.5043C13.8316 16.0119 13.5436 16.7124 13.4432 17.5355C12.4388 26.5907 12.4683 26.0722 12.474 26.4058C12.4594 27.2494 13.0299 28 14.037 28H26.4342C27.4633 28 28.0183 27.2161 27.9972 26.4058C28.0029 26.0726 28.0284 26.5554 27.0279 17.5355Z" fill="white"/>
<path d="M13.881 26.4057C13.8754 26.0808 13.8568 26.5026 14.8502 17.0285C14.9526 16.1883 15.2388 15.5245 16.0458 15.0125C15.8089 15.0842 15.2688 15.1476 14.6819 15.4992L14.6616 15.5043C13.8305 16.0118 13.5424 16.7124 13.442 17.5355C12.4374 26.6491 12.4728 25.9657 12.4728 26.4077C12.4642 27.0422 12.8534 28 14.0358 28H15.444C14.4227 27.9999 13.8722 27.2392 13.881 26.4057Z" fill="white"/>
<path d="M27.463 21.4247C27.011 17.4124 27.0305 17.459 26.9587 17.1115C26.8134 16.4088 26.3874 15.858 25.8081 15.5043L25.7878 15.4993C25.0642 15.0658 24.5381 15.0836 22.0961 14.433C22.0029 14.3908 21.9384 14.252 21.9384 14.0937V12.7034C20.8685 13.1761 19.6165 13.1823 18.5324 12.7034V14.0937C18.5324 14.252 18.4678 14.3909 18.3747 14.4331C15.9489 15.0793 15.4094 15.0642 14.6829 15.4994L14.6626 15.5044C13.8778 15.9835 13.5505 16.6546 13.443 17.5356L13.0078 21.4247L15.7512 21.7126C15.8215 21.7199 15.8862 21.7539 15.9322 21.8076C15.9781 21.8612 16.0017 21.9305 15.9982 22.001L15.6968 28H24.7906L24.4746 22.0242C24.4706 21.9475 24.4961 21.8721 24.5461 21.8136C24.596 21.7552 24.6664 21.7181 24.7429 21.7101L27.463 21.4247Z" fill="white"/>
<path d="M13.0078 21.4246L14.3716 21.5677C14.8565 17.0739 14.8271 17.0548 14.9202 16.6045C15.062 15.9187 15.4625 15.3832 16.0468 15.0125C15.8725 15.069 15.2698 15.1476 14.6829 15.4992L14.6626 15.5043C14.0866 15.8559 13.6584 16.4037 13.512 17.1114C13.4238 17.5382 13.4404 17.6314 13.0078 21.4246Z" fill="white"/>
<path d="M13.3295 15.5042L13.3092 15.4991C12.6204 15.0865 12.0324 15.0671 10.7748 14.7209L10.776 14.7187L9.46982 14.0935L9.46036 14.1078L9.46009 14.1026L7.75664 15.7065L6.05816 14.0999L4.75764 14.7187C3.48851 15.0679 2.90298 15.0865 2.2143 15.4991L2.19401 15.5041C1.39147 15.9941 1.08134 16.6586 0.974428 17.5353L0.539062 21.4255L3.23001 21.7078C3.31171 21.7164 3.38702 21.756 3.44045 21.8184C3.49388 21.8808 3.52138 21.9613 3.51728 22.0433L3.21808 27.9998H12.3119L11.996 22.0247C11.9919 21.9478 12.0176 21.8722 12.0676 21.8136C12.1176 21.755 12.1883 21.7179 12.2649 21.7098L12.9842 21.6343L13.2777 19.0116C13.474 17.6285 13.3619 16.8609 13.9962 16.0845C13.8561 15.913 13.4823 15.5975 13.3295 15.5042Z" fill="white"/>
<path d="M1.94721 21.4256C2.42945 16.5715 2.30968 16.2312 2.93552 15.4649C3.04769 15.3276 3.17976 15.1973 3.34262 15.071C3.21476 15.1074 2.734 15.1879 2.2143 15.4992L2.19402 15.5042C1.83543 15.7232 1.51059 16.0425 1.29856 16.4218C0.896992 17.1405 1.01905 17.5891 0.539062 21.4257L1.93091 21.5717L1.94721 21.4256Z" fill="white"/>
<path d="M23.2445 14.719L22.0961 14.4331C22.0029 14.3908 21.9384 14.252 21.9384 14.0937V12.5344C20.8685 13.0071 19.6165 13.0134 18.5324 12.5344V14.0938C18.5324 14.252 18.4678 14.3909 18.3746 14.4331L17.209 14.7233C18.6099 17.0796 21.8446 17.0805 23.2445 14.719Z" fill="white"/>
<path d="M2.41813 6.81412C2.41956 5.25936 2.41452 5.32219 2.42338 5.1158C2.60112 0.923513 7.34903 -1.4444 10.8089 0.965841C13.1358 2.5905 13.0931 4.60158 13.0952 6.81412" fill="white"/>
<path d="M2.41813 6.81412C2.41956 5.25936 2.41452 5.32219 2.42338 5.1158C2.60112 0.923513 7.34903 -1.4444 10.8089 0.965841C13.1358 2.5905 13.0931 4.60158 13.0952 6.81412" fill="white"/>
<path d="M8.28893 0.0339884C5.22326 -0.270348 2.52842 2.06738 2.42173 5.15996C2.41511 5.35273 2.41954 5.30822 2.41817 6.81409H3.48272V5.34589C3.48267 2.60151 5.56713 0.304418 8.28893 0.0339884Z" fill="white"/>
<path d="M13.3607 7.29155C13.3607 7.90679 12.7652 8.40548 12.0305 8.40548V6.17773C12.7652 6.17773 13.3607 6.67638 13.3607 7.29155ZM2.15234 7.29155C2.15234 7.90679 2.74789 8.40548 3.48262 8.40548V6.17773C2.74789 6.17773 2.15234 6.67638 2.15234 7.29155Z" fill="white"/>
<path d="M12.0294 7.40434V8.40555C13.0278 8.40555 13.6585 7.52328 13.2176 6.79102C12.9987 7.15474 12.549 7.40434 12.0294 7.40434ZM2.29325 6.79102C1.85187 7.5241 2.4851 8.40555 3.4815 8.40555V7.40434C2.96192 7.40434 2.51222 7.15474 2.29325 6.79102Z" fill="white"/>
<path d="M11.6298 5.94685C11.2435 5.61205 11.0635 5.14338 11.0451 4.62998C11.0295 4.20161 10.6895 3.96782 10.3083 4.02666C9.99663 4.07445 9.6837 4.11375 9.36988 4.14451C7.93083 4.28577 6.55692 4.23694 5.17294 4.02201C4.83639 3.96957 4.48207 4.19975 4.46671 4.63009C4.45435 4.96915 4.37264 5.29503 4.19524 5.57962C3.93066 6.00591 3.5945 6.13197 3.48184 6.19705C3.48184 8.88007 3.42814 9.24396 3.66335 10.023C4.41804 12.5255 7.23127 13.7547 9.56965 12.6576C10.9285 12.0197 11.8926 10.692 12.0159 9.12813C12.0353 8.88302 12.0299 8.98649 12.0299 6.19705C12.0096 6.18682 11.8398 6.12852 11.6298 5.94685Z" fill="white"/>
<path d="M5.16642 10.8431C5.11085 10.6895 5.06272 10.5332 5.02221 10.3749C4.80242 9.5157 4.86919 9.01733 4.86788 6.70947C4.86788 6.29428 5.14739 6.2689 5.42799 5.92229C5.71679 5.56611 5.84339 5.11456 5.854 4.64879C5.85898 4.43682 5.95824 4.25482 6.1048 4.14074C5.79328 4.10955 5.48265 4.06998 5.17325 4.02207C4.81122 3.96568 4.47763 4.23759 4.46833 4.60383C4.45663 5.05271 4.32275 5.47697 4.02296 5.80882C3.7744 6.08428 3.53607 6.16593 3.48215 6.19704C3.48215 8.85759 3.36895 9.56136 3.92425 10.6819C4.23821 11.3154 4.60396 11.6645 4.63037 11.7012L4.63043 11.7012C5.22745 12.3385 5.9858 12.7579 6.70532 12.9295C6.62652 12.8707 5.51806 11.7988 5.16642 10.8431Z" fill="white"/>
<path d="M8.17891 18.7763V15.3087L7.75645 15.7065L7.33398 15.3069V18.7763C7.33398 18.8883 7.37849 18.9958 7.45772 19.075C7.53695 19.1542 7.6444 19.1987 7.75645 19.1987C7.81192 19.1987 7.86686 19.1878 7.91812 19.1666C7.96938 19.1454 8.01595 19.1143 8.05518 19.075C8.09441 19.0358 8.12553 18.9892 8.14676 18.938C8.16799 18.8867 8.17891 18.8318 8.17891 18.7763Z" fill="white"/>
<path d="M9.469 14.0938L7.75586 15.7067L8.68068 16.6387C8.85727 16.8166 9.14995 16.7993 9.30434 16.6017L10.7752 14.7189L9.469 14.0938Z" fill="white"/>
<path d="M10.1267 14.4085L9.469 14.0938L7.75586 15.7067L8.36781 16.3234L10.1267 14.4085ZM8.80646 16.7251C8.88305 16.7593 8.96816 16.7697 9.0507 16.7547L8.80646 16.7251Z" fill="#656565"/>
<path d="M6.0572 14.1001L7.75568 15.7067L6.83086 16.6386C6.65427 16.8166 6.36159 16.7993 6.2072 16.6017L4.73633 14.7189L6.0572 14.1001Z" fill="white"/>
<path d="M6.55871 15.7004L7.14414 16.3234L7.75609 15.7067L6.05766 14.1001L5.36133 14.4263L6.55871 15.7004Z" fill="#656565"/>
<path d="M19.9476 14.9542V12.8802C19.4411 12.8455 18.9628 12.7244 18.5324 12.5342C18.4895 13.7657 18.644 14.3108 18.3746 14.4329L17.209 14.7231C17.4992 15.2112 17.8915 15.6238 18.3541 15.9274L19.5643 15.4824C19.5643 15.4823 19.9476 15.2921 19.9476 14.9542Z" fill="white"/>
<path d="M24.087 7.38863C24.3275 7.39984 24.517 7.59786 24.517 7.83865V8.16185C24.5159 8.75757 24.7097 10.6298 22.975 12.0734C20.9946 13.7222 17.9772 13.2502 16.6059 11.0329C15.7683 9.67954 15.9719 8.49074 15.9689 6.61879V6.40234C15.9689 6.15083 16.1461 5.9358 16.3921 5.88374C16.8287 5.79142 17.534 5.54068 18.1738 4.85966C18.3346 4.68854 18.6089 4.69746 18.7584 4.87853C19.3793 5.6307 21.0558 7.24699 24.087 7.38863Z" fill="white"/>
<path d="M17.3809 8.95517C17.3758 8.82376 17.3773 9.12366 17.3773 5.49805C17.0012 5.71866 16.6499 5.82918 16.3923 5.88365C16.1463 5.93571 15.9691 6.15074 15.9691 6.40225V6.6187C15.9723 8.65816 15.7964 9.72452 16.6061 11.0328C17.4795 12.4463 19.1568 13.2985 20.9473 13.0018C18.9901 12.6774 17.4628 11.0152 17.3809 8.95517Z" fill="white"/>
<path d="M24.0676 14.9241L23.2437 14.719C22.6128 15.7834 21.4969 16.4913 20.2246 16.4913C20.2246 16.4913 24.0847 20.3517 24.0676 14.9241Z" fill="#656565"/>
<path d="M16.4004 14.9241L17.2244 14.719C17.8553 15.7834 18.9712 16.4913 20.2434 16.4913C20.2434 16.4913 16.3834 20.3517 16.4004 14.9241Z" fill="#656565"/>
<path d="M18.406 15.9505C17.725 16.3132 16.9401 16.4862 16.4375 15.8137C16.8374 19.8961 20.2422 16.4911 20.2422 16.4911C19.5704 16.4911 18.9422 16.2935 18.406 15.9505Z" fill="#656565"/>
<path d="M22.0608 15.9505C22.7419 16.3132 23.5267 16.4862 24.0293 15.8137C23.6294 19.8961 20.2246 16.4911 20.2246 16.4911C20.8964 16.4911 21.5245 16.2935 22.0608 15.9505Z" fill="#656565"/>
</g>
<defs>
<clipPath id="clip0_192_19087">
<rect width="28" height="28" fill="white"/>
</clipPath>
</defs>
</svg>
