<svg width="22" height="24" viewBox="0 0 22 24" fill="none" xmlns="http://www.w3.org/2000/svg">
<path d="M19.9969 11.2736H19.9056V5.72608C19.9056 5.01897 19.6302 4.35424 19.1302 3.85426L16.0513 0.775362C15.5513 0.275345 14.8865 0 14.1795 0H4.74121C3.28151 0 2.09402 1.18749 2.09402 2.64718V11.2736H2.00262C1.0233 11.2736 0.226562 12.0704 0.226562 13.0497V18.9494C0.226562 19.9287 1.0233 20.7254 2.00262 20.7254H2.09398V21.3528C2.09398 22.8124 3.28147 23.9999 4.74116 23.9999H17.2584C18.7181 23.9999 19.9056 22.8124 19.9056 21.3528V20.7254H19.9969C20.9762 20.7254 21.773 19.9287 21.773 18.9494V13.0498C21.773 12.0704 20.9763 11.2736 19.9969 11.2736ZM15.6409 2.35323L17.693 4.40528H15.7981C15.7564 4.40525 15.7165 4.38868 15.687 4.35921C15.6575 4.32974 15.641 4.28979 15.6409 4.24811V2.35323ZM3.4999 2.64718C3.4999 1.96271 4.05669 1.40593 4.74116 1.40593H14.1795C14.198 1.40593 14.2165 1.40649 14.235 1.40729V4.24806C14.235 5.11 14.9362 5.81116 15.7981 5.81116H18.4996V11.2736H3.4999V2.64718ZM18.4996 21.3529C18.4996 22.0373 17.9429 22.5941 17.2584 22.5941H4.74116C4.05673 22.5941 3.4999 22.0373 3.4999 21.3529V20.7256H18.4996V21.3529H18.4996ZM20.3671 18.9495C20.3671 19.1536 20.2011 19.3196 19.9969 19.3196H2.00257C1.79847 19.3196 1.63244 19.1536 1.63244 18.9495V13.0498C1.63244 12.8457 1.79847 12.6796 2.00257 12.6796H19.9969C20.201 12.6796 20.3671 12.8457 20.3671 13.0498L20.3671 18.9495Z" fill="#C90000"/>
<path d="M8.52219 13.7784C8.21164 13.5111 7.79858 13.3774 7.28338 13.3774H5.78811C5.66286 13.3774 5.5617 13.4112 5.48469 13.4786C5.40758 13.5461 5.36914 13.6255 5.36914 13.717V18.3111C5.36914 18.4219 5.42445 18.5074 5.53527 18.5676C5.64594 18.6279 5.77841 18.6579 5.93258 18.6579C6.08661 18.6579 6.21903 18.6279 6.32984 18.5676C6.44056 18.5074 6.49597 18.422 6.49597 18.3111V16.7509H7.21109C7.74561 16.7509 8.17541 16.6149 8.50048 16.3428C8.82556 16.0708 8.98808 15.6482 8.98808 15.0751V15.0389C8.98813 14.4659 8.83278 14.0456 8.52219 13.7784ZM7.86125 15.1617C7.86125 15.6433 7.6445 15.884 7.21109 15.884H6.49602V14.3599H7.21114C7.64455 14.3599 7.8613 14.6008 7.8613 15.0822L7.86125 15.1617ZM12.542 13.7892C12.2193 13.5147 11.7883 13.3774 11.249 13.3774H9.97044C9.82597 13.3774 9.70789 13.4112 9.61648 13.4785C9.52494 13.546 9.47923 13.6255 9.47923 13.7169V18.3183C9.47923 18.4099 9.52498 18.4893 9.61648 18.5567C9.70794 18.6242 9.82597 18.6578 9.97044 18.6578H11.249C11.7882 18.6578 12.2193 18.5206 12.542 18.2461C12.8645 17.9716 13.026 17.5406 13.026 16.9531V15.0822C13.0259 14.4948 12.8645 14.0637 12.542 13.7892ZM11.8991 16.9531C11.8991 17.4347 11.6824 17.6755 11.249 17.6755H10.6061V14.3599H11.249C11.6824 14.3599 11.8991 14.6008 11.8991 15.0823V16.9531ZM16.9916 13.522C16.9338 13.4257 16.8495 13.3775 16.7388 13.3775H14.2322C14.0974 13.3775 13.9818 13.4077 13.8855 13.4679C13.7891 13.5281 13.7411 13.6136 13.7411 13.7243V18.3112C13.7411 18.422 13.7964 18.5075 13.9072 18.5677C14.0179 18.628 14.1503 18.658 14.3045 18.658C14.4585 18.658 14.591 18.628 14.7018 18.5677C14.8125 18.5075 14.8679 18.4221 14.8679 18.3112V16.4475H15.9586C16.0693 16.4475 16.1537 16.4042 16.2115 16.3175C16.2693 16.2308 16.2982 16.1322 16.2982 16.0213C16.2982 15.9011 16.268 15.7974 16.2079 15.7107C16.1476 15.624 16.0645 15.5807 15.9586 15.5807H14.8679V14.3599H16.7388C16.8446 14.3599 16.9277 14.3118 16.988 14.2155C17.0481 14.1191 17.0783 14.0013 17.0783 13.8615C17.0783 13.7315 17.0494 13.6183 16.9916 13.522Z" fill="#C90000"/>
</svg>
