<svg width="24" height="24" viewBox="0 0 24 24" fill="none" xmlns="http://www.w3.org/2000/svg">
<g clip-path="url(#clip0_253_4810)">
<path d="M22.3069 6.04664H19.6186V1.65752C19.6186 1.46507 19.5422 1.2805 19.4061 1.14442C19.27 1.00834 19.0854 0.931885 18.893 0.931885H5.10701C4.91456 0.931885 4.72999 1.00834 4.59391 1.14442C4.45783 1.2805 4.38138 1.46507 4.38138 1.65752V6.04664H1.69315C0.759594 6.04664 0 6.80613 0 7.73978V17.0497C0 17.9832 0.759594 18.7428 1.69315 18.7428H4.38138V22.3422C4.38138 22.5347 4.45783 22.7193 4.59391 22.8553C4.72999 22.9914 4.91456 23.0679 5.10701 23.0679H18.8929C19.0853 23.0679 19.2699 22.9914 19.406 22.8553C19.5421 22.7193 19.6185 22.5347 19.6185 22.3422V18.7428H22.3068C23.2403 18.7428 23.9999 17.9832 23.9999 17.0497V7.73978C24 6.80623 23.2404 6.04664 22.3069 6.04664ZM5.83264 2.38315H18.1673V6.04664H5.83264V2.38315ZM18.1673 21.6166H5.83264V14.4179H18.1673V21.6166ZM22.5487 17.0497C22.5487 17.1808 22.438 17.2915 22.3069 17.2915H19.6186V13.6923C19.6186 13.4999 19.5422 13.3153 19.4061 13.1792C19.27 13.0431 19.0854 12.9667 18.893 12.9667H5.10701C4.91456 12.9667 4.72999 13.0431 4.59391 13.1792C4.45783 13.3153 4.38138 13.4999 4.38138 13.6923V17.2915H1.69315C1.56205 17.2915 1.45127 17.1808 1.45127 17.0497V7.73978C1.45127 7.60859 1.56205 7.4979 1.69315 7.4979H22.3068C22.4379 7.4979 22.5486 7.60859 22.5486 7.73978V17.0497H22.5487Z" fill="#8C8C8C"/>
<path d="M18.8935 11.2645C19.4635 11.2645 19.9256 10.8024 19.9256 10.2323C19.9256 9.6623 19.4635 9.2002 18.8935 9.2002C18.3234 9.2002 17.8613 9.6623 17.8613 10.2323C17.8613 10.8024 18.3234 11.2645 18.8935 11.2645Z" fill="#8C8C8C"/>
<path d="M15.301 15.8499H8.69829C8.50584 15.8499 8.32127 15.9263 8.18519 16.0624C8.04911 16.1985 7.97266 16.383 7.97266 16.5755C7.97266 16.7679 8.04911 16.9525 8.18519 17.0886C8.32127 17.2247 8.50584 17.3011 8.69829 17.3011H15.301C15.4934 17.3011 15.678 17.2247 15.8141 17.0886C15.9502 16.9525 16.0266 16.7679 16.0266 16.5755C16.0266 16.383 15.9502 16.1985 15.8141 16.0624C15.678 15.9263 15.4934 15.8499 15.301 15.8499ZM15.301 18.7331H8.69829C8.50584 18.7331 8.32127 18.8096 8.18519 18.9457C8.04911 19.0818 7.97266 19.2663 7.97266 19.4588C7.97266 19.6512 8.04911 19.8358 8.18519 19.9719C8.32127 20.108 8.50584 20.1844 8.69829 20.1844H15.301C15.4934 20.1844 15.678 20.108 15.8141 19.9719C15.9502 19.8358 16.0266 19.6512 16.0266 19.4588C16.0266 19.0579 15.7018 18.7331 15.301 18.7331Z" fill="#8C8C8C"/>
</g>
<defs>
<clipPath id="clip0_253_4810">
<rect width="24" height="24" fill="white"/>
</clipPath>
</defs>
</svg>
