<svg width="24" height="24" viewBox="0 0 24 24" fill="none" xmlns="http://www.w3.org/2000/svg">
<g clip-path="url(#clip0_309_3715)">
<path d="M23.5999 10.4H17.5999V8.79997H18.7999C18.8862 8.79987 18.9701 8.7719 19.0391 8.72023C19.1082 8.66856 19.1587 8.59595 19.1831 8.51324C19.2075 8.43053 19.2046 8.34214 19.1746 8.26125C19.1447 8.18036 19.0895 8.1113 19.0171 8.06437L12.3999 3.78239V3.11239L16.8971 1.988C16.9836 1.96632 17.0604 1.91636 17.1152 1.84607C17.1701 1.77577 17.1999 1.68916 17.1999 1.6C17.1999 1.51083 17.1701 1.42422 17.1152 1.35393C17.0604 1.28363 16.9836 1.23368 16.8971 1.212L12.0971 0.0120035C12.0382 -0.00278161 11.9766 -0.00392391 11.9171 0.00866349C11.8576 0.0212509 11.8018 0.0472366 11.7538 0.0846447C11.7059 0.122053 11.6671 0.169899 11.6405 0.224544C11.6138 0.27919 11.5999 0.339197 11.6 0.400002V3.78239L4.98278 8.06437C4.91042 8.1113 4.85517 8.18036 4.82526 8.26125C4.79535 8.34214 4.79238 8.43053 4.81681 8.51324C4.84123 8.59595 4.89173 8.66856 4.96078 8.72023C5.02983 8.7719 5.11374 8.79987 5.19998 8.79997H6.39997V10.4H0.399998C0.293912 10.4 0.192171 10.4421 0.117157 10.5171C0.0421426 10.5921 0 10.6939 0 10.8V14.3999C0 14.506 0.0421426 14.6078 0.117157 14.6828C0.192171 14.7578 0.293912 14.7999 0.399998 14.7999V23.5999C0.399998 23.706 0.442141 23.8077 0.517155 23.8827C0.592169 23.9578 0.69391 23.9999 0.799997 23.9999H23.1999C23.306 23.9999 23.4077 23.9578 23.4827 23.8827C23.5578 23.8077 23.5999 23.706 23.5999 23.5999V14.7999C23.706 14.7999 23.8077 14.7578 23.8827 14.6828C23.9578 14.6078 23.9999 14.506 23.9999 14.3999V10.8C23.9999 10.6939 23.9578 10.5921 23.8827 10.5171C23.8077 10.4421 23.706 10.4 23.5999 10.4ZM12.3999 0.9124L15.1507 1.6L12.3999 2.28759V0.9124ZM6.39997 23.1999H1.2V14.7999H6.39997V23.1999ZM6.39997 13.9999H0.799997V11.2H6.39997V13.9999ZM11.6 23.1999H9.59996V18.3999H11.6V23.1999ZM14.3999 23.1999H12.3999V18.3999H14.3999V23.1999ZM14.3999 17.5999H9.59996V16.7999H14.3999V17.5999ZM17.1999 7.99997C17.0938 7.99997 16.9921 8.04211 16.9171 8.11713C16.8421 8.19214 16.7999 8.29388 16.7999 8.39997V23.1999H15.1999V16.3999C15.1999 16.2938 15.1578 16.1921 15.0828 16.1171C15.0078 16.0421 14.906 15.9999 14.7999 15.9999H9.19996C9.09388 15.9999 8.99213 16.0421 8.91712 16.1171C8.84211 16.1921 8.79996 16.2938 8.79996 16.3999V23.1999H7.19997V8.39997C7.19997 8.29388 7.15783 8.19214 7.08281 8.11713C7.0078 8.04211 6.90606 7.99997 6.79997 7.99997H6.55437L12 4.47638L17.4455 7.99997H17.1999ZM22.7999 23.1999H17.5999V14.7999H22.7999V23.1999ZM23.1999 13.9999H17.5999V11.2H23.1999V13.9999Z" fill="#575757"/>
<path d="M12.0004 8C10.0122 8 8.40039 9.61174 8.40039 11.6C8.40284 13.5872 10.0132 15.1975 12.0004 15.2C13.9886 15.2 15.6004 13.5882 15.6004 11.6C15.6004 9.61174 13.9886 8 12.0004 8ZM12.0004 14.4C10.454 14.4 9.20039 13.1464 9.20039 11.6C9.20214 10.0543 10.4547 8.80175 12.0004 8.8C13.5468 8.8 14.8004 10.0536 14.8004 11.6C14.8004 13.1464 13.5468 14.4 12.0004 14.4Z" fill="#575757"/>
<path d="M12 9.2002C11.8939 9.2002 11.7921 9.24234 11.7171 9.31735C11.6421 9.39237 11.6 9.49411 11.6 9.60019V11.3862L10.578 12.0662C10.506 12.1136 10.4513 12.183 10.4219 12.2641C10.3926 12.3451 10.3902 12.4335 10.4152 12.516C10.4401 12.5985 10.4911 12.6707 10.5604 12.7219C10.6297 12.7731 10.7138 12.8006 10.8 12.8002C10.8788 12.8001 10.9559 12.7767 11.0216 12.733L12.2216 11.933C12.2764 11.8965 12.3214 11.847 12.3525 11.789C12.3836 11.7309 12.3999 11.6661 12.4 11.6002V9.60019C12.4 9.49411 12.3578 9.39237 12.2828 9.31735C12.2078 9.24234 12.106 9.2002 12 9.2002ZM5.19999 15.6002H2.4C2.29391 15.6002 2.19217 15.6423 2.11716 15.7173C2.04214 15.7923 2 15.8941 2 16.0002V18.8002C2 18.9062 2.04214 19.008 2.11716 19.083C2.19217 19.158 2.29391 19.2002 2.4 19.2002H5.19999C5.30607 19.2002 5.40781 19.158 5.48283 19.083C5.55784 19.008 5.59998 18.9062 5.59998 18.8002V16.0002C5.59998 15.8941 5.55784 15.7923 5.48283 15.7173C5.40781 15.6423 5.30607 15.6002 5.19999 15.6002ZM4.79999 18.4002H2.8V16.4002H4.79999V18.4002ZM21.5999 15.6002H18.7999C18.6938 15.6002 18.5921 15.6423 18.5171 15.7173C18.4421 15.7923 18.3999 15.8941 18.3999 16.0002V18.8002C18.3999 18.9062 18.4421 19.008 18.5171 19.083C18.5921 19.158 18.6938 19.2002 18.7999 19.2002H21.5999C21.706 19.2002 21.8077 19.158 21.8828 19.083C21.9578 19.008 21.9999 18.9062 21.9999 18.8002V16.0002C21.9999 15.8941 21.9578 15.7923 21.8828 15.7173C21.8077 15.6423 21.706 15.6002 21.5999 15.6002ZM21.1999 18.4002H19.1999V16.4002H21.1999V18.4002Z" fill="#575757"/>
</g>
<defs>
<clipPath id="clip0_309_3715">
<rect width="24" height="24" fill="white"/>
</clipPath>
</defs>
</svg>
