<svg width="20" height="20" viewBox="0 0 20 20" fill="none" xmlns="http://www.w3.org/2000/svg">
<g clip-path="url(#clip0_296_10009)">
<path d="M19.2896 2.75895C18.8599 2.71977 18.4798 3.03637 18.4407 3.46605L18.3371 4.60156C16.5809 1.84352 13.5323 0 9.99996 0C6.19992 0 2.85105 2.16883 1.18863 5.42398C0.992379 5.80824 1.1448 6.27883 1.52906 6.47508C1.91339 6.67133 2.3839 6.51895 2.58015 6.13465C3.98707 3.3798 6.81234 1.5625 9.99996 1.5625C12.9053 1.5625 15.5273 3.07543 17.0294 5.44563L15.9154 4.65004C15.5643 4.3993 15.0764 4.48063 14.8256 4.83172C14.5749 5.18285 14.6562 5.67074 15.0073 5.92152L18.3852 8.33406C18.8803 8.68699 19.5632 8.36391 19.6173 7.76926L19.9966 3.60793C20.0359 3.1782 19.7193 2.79813 19.2896 2.75895ZM18.4709 13.5249C18.0866 13.3287 17.616 13.4811 17.4198 13.8654C16.0128 16.6202 13.1876 18.4375 9.99996 18.4375C7.0946 18.4375 4.47265 16.9246 2.97054 14.5544L4.08449 15.35C4.43562 15.6007 4.92351 15.5194 5.17429 15.1683C5.42503 14.8171 5.34371 14.3293 4.99261 14.0785L1.61468 11.6659C1.12566 11.3166 0.437301 11.63 0.382614 12.2307L0.00327764 16.3921C-0.035902 16.8218 0.2807 17.2018 0.710348 17.241C1.14058 17.2801 1.52015 16.9632 1.55929 16.5339L1.66281 15.3984C3.41898 18.1565 6.46757 20 9.99996 20C13.8 20 17.1489 17.8312 18.8113 14.576C19.0075 14.1918 18.8551 13.7212 18.4709 13.5249Z" fill="#8C8C8C"/>
</g>
<defs>
<clipPath id="clip0_296_10009">
<rect width="20" height="20" fill="white"/>
</clipPath>
</defs>
</svg>
