<svg width="20" height="20" viewBox="0 0 20 20" fill="none" xmlns="http://www.w3.org/2000/svg">
<g clip-path="url(#clip0_755_6650)">
<path d="M19.2188 4.60938H6.09375C5.66227 4.60938 5.3125 4.95914 5.3125 5.39062C5.3125 5.82211 5.66227 6.17188 6.09375 6.17188H19.2188C19.6502 6.17188 20 5.82211 20 5.39062C20 4.95914 19.6502 4.60938 19.2188 4.60938ZM19.2188 0H0.78125C0.349766 0 0 0.349766 0 0.78125C0 1.21273 0.349766 1.5625 0.78125 1.5625H19.2188C19.6502 1.5625 20 1.21273 20 0.78125C20 0.349766 19.6502 0 19.2188 0ZM19.2188 18.4375H0.78125C0.349766 18.4375 0 18.7873 0 19.2188C0 19.6502 0.349766 20 0.78125 20H19.2188C19.6502 20 20 19.6502 20 19.2188C20 18.7873 19.6502 18.4375 19.2188 18.4375ZM19.2188 13.8281H6.09375C5.66227 13.8281 5.3125 14.1779 5.3125 14.6094C5.3125 15.0409 5.66227 15.3906 6.09375 15.3906H19.2188C19.6502 15.3906 20 15.0409 20 14.6094C20 14.1779 19.6502 13.8281 19.2188 13.8281ZM19.2188 9.21875H0.78125C0.349766 9.21875 0 9.56852 0 10C0 10.4315 0.349766 10.7812 0.78125 10.7812H19.2188C19.6502 10.7812 20 10.4315 20 10C20 9.56852 19.6502 9.21875 19.2188 9.21875Z" fill="#575757"/>
</g>
<defs>
<clipPath id="clip0_755_6650">
<rect width="20" height="20" fill="white"/>
</clipPath>
</defs>
</svg>
