<svg width="121" height="121" viewBox="0 0 121 121" fill="none" xmlns="http://www.w3.org/2000/svg">
<path d="M14.8301 17.2188H106.397V103.2H14.8301V17.2188Z" fill="#808285"/>
<path d="M14.8301 17.2188H60.6135V103.2H14.8301V17.2188Z" fill="#939598"/>
<path d="M14.8301 17.2188H37.7218V103.2H14.8301V17.2188Z" fill="#808285"/>
<path d="M17.666 46.67C17.4153 46.67 17.1749 46.5704 16.9976 46.3931C16.8203 46.2158 16.7207 45.9754 16.7207 45.7246V23.5098C16.7207 23.2591 16.8203 23.0186 16.9976 22.8414C17.1749 22.6641 17.4153 22.5645 17.666 22.5645C17.9167 22.5645 18.1572 22.6641 18.3345 22.8414C18.5117 23.0186 18.6113 23.2591 18.6113 23.5098V45.7246C18.6113 45.9754 18.5117 46.2158 18.3345 46.3931C18.1572 46.5704 17.9167 46.67 17.666 46.67ZM17.666 20.6739C17.4153 20.6739 17.1749 20.5743 16.9976 20.397C16.8203 20.2197 16.7207 19.9793 16.7207 19.7286V19.582C16.7207 19.3313 16.8203 19.0909 16.9976 18.9136C17.1749 18.7363 17.4153 18.6367 17.666 18.6367C17.9167 18.6367 18.1572 18.7363 18.3345 18.9136C18.5117 19.0909 18.6113 19.3313 18.6113 19.582V19.7286C18.6113 19.9793 18.5117 20.2197 18.3345 20.397C18.1572 20.5743 17.9167 20.6739 17.666 20.6739Z" fill="#939598"/>
<path d="M83.5059 17.2188H106.398V103.2H83.5059V17.2188Z" fill="#58595B"/>
<path d="M35.1094 45.7244H22.8789C22.3775 45.7244 21.8966 45.5252 21.542 45.1707C21.1875 44.8161 20.9883 44.3352 20.9883 43.8338V28.4961C20.9883 27.9947 21.1875 27.5138 21.542 27.1592C21.8966 26.8047 22.3775 26.6055 22.8789 26.6055H35.1094C35.6108 26.6055 36.0917 26.8047 36.4462 27.1592C36.8008 27.5138 37 27.9947 37 28.4961V43.8338C37 44.3352 36.8008 44.8161 36.4462 45.1707C36.0917 45.5252 35.6108 45.7244 35.1094 45.7244Z" fill="#414042"/>
<path d="M34.1924 43.8607H23.7949C23.5442 43.8607 23.3038 43.7611 23.1265 43.5838C22.9492 43.4065 22.8496 43.1661 22.8496 42.9154V29.4102C22.8496 29.1594 22.9492 28.919 23.1265 28.7417C23.3038 28.5644 23.5442 28.4648 23.7949 28.4648H34.1924C34.4431 28.4648 34.6836 28.5644 34.8608 28.7417C35.0381 28.919 35.1377 29.1594 35.1377 29.4102V42.9154C35.1377 43.1661 35.0381 43.4065 34.8608 43.5838C34.6836 43.7611 34.4431 43.8607 34.1924 43.8607Z" fill="#478CF7"/>
<path d="M34.1934 28.4648H31.8301C32.0808 28.4648 32.3212 28.5644 32.4985 28.7417C32.6758 28.919 32.7754 29.1594 32.7754 29.4102V42.9154C32.7754 43.1661 32.6758 43.4065 32.4985 43.5838C32.3212 43.7611 32.0808 43.8607 31.8301 43.8607H34.1934C34.4441 43.8607 34.6845 43.7611 34.8618 43.5838C35.0391 43.4065 35.1387 43.1661 35.1387 42.9154V29.4102C35.1387 29.1594 35.0391 28.919 34.8618 28.7417C34.6845 28.5644 34.4441 28.4648 34.1934 28.4648Z" fill="#377DE2"/>
<path d="M56.5039 45.7244H44.2734C43.772 45.7244 43.2911 45.5252 42.9366 45.1707C42.582 44.8161 42.3828 44.3352 42.3828 43.8338V28.4961C42.3828 27.9947 42.582 27.5138 42.9366 27.1592C43.2911 26.8047 43.772 26.6055 44.2734 26.6055H56.5039C57.0053 26.6055 57.4862 26.8047 57.8408 27.1592C58.1953 27.5138 58.3945 27.9947 58.3945 28.4961V43.8338C58.3945 44.3352 58.1953 44.8161 57.8408 45.1707C57.4862 45.5252 57.0053 45.7244 56.5039 45.7244Z" fill="#414042"/>
<path d="M55.5889 43.8607H45.1914C44.9407 43.8607 44.7002 43.7611 44.523 43.5838C44.3457 43.4065 44.2461 43.1661 44.2461 42.9154V29.4102C44.2461 29.1594 44.3457 28.919 44.523 28.7417C44.7002 28.5644 44.9407 28.4648 45.1914 28.4648H55.5889C55.8396 28.4648 56.0801 28.5644 56.2573 28.7417C56.4346 28.919 56.5342 29.1594 56.5342 29.4102V42.9154C56.5342 43.1661 56.4346 43.4065 56.2573 43.5838C56.0801 43.7611 55.8396 43.8607 55.5889 43.8607Z" fill="#478CF7"/>
<path d="M55.5879 28.4648H53.2246C53.4753 28.4648 53.7158 28.5644 53.893 28.7417C54.0703 28.919 54.1699 29.1594 54.1699 29.4102V42.9154C54.1699 43.1661 54.0703 43.4065 53.893 43.5838C53.7158 43.7611 53.4753 43.8607 53.2246 43.8607H55.5879C55.8386 43.8607 56.079 43.7611 56.2563 43.5838C56.4336 43.4065 56.5332 43.1661 56.5332 42.9154V29.4102C56.5332 29.1594 56.4336 28.919 56.2563 28.7417C56.079 28.5644 55.8386 28.4648 55.5879 28.4648Z" fill="#377DE2"/>
<path d="M76.9551 45.7244H64.7246C64.2232 45.7244 63.7423 45.5252 63.3877 45.1707C63.0332 44.8161 62.834 44.3352 62.834 43.8338V28.4961C62.834 27.9947 63.0332 27.5138 63.3877 27.1592C63.7423 26.8047 64.2232 26.6055 64.7246 26.6055H76.9551C77.4565 26.6055 77.9374 26.8047 78.2919 27.1592C78.6465 27.5138 78.8457 27.9947 78.8457 28.4961V43.8338C78.8457 44.3352 78.6465 44.8161 78.2919 45.1707C77.9374 45.5252 77.4565 45.7244 76.9551 45.7244Z" fill="#414042"/>
<path d="M76.0381 43.8607H65.6406C65.3899 43.8607 65.1495 43.7611 64.9722 43.5838C64.7949 43.4065 64.6953 43.1661 64.6953 42.9154V29.4102C64.6953 29.1594 64.7949 28.919 64.9722 28.7417C65.1495 28.5644 65.3899 28.4648 65.6406 28.4648H76.0381C76.2888 28.4648 76.5293 28.5644 76.7066 28.7417C76.8838 28.919 76.9834 29.1594 76.9834 29.4102V42.9154C76.9834 43.1661 76.8838 43.4065 76.7066 43.5838C76.5293 43.7611 76.2888 43.8607 76.0381 43.8607Z" fill="#478CF7"/>
<path d="M76.0391 28.4648H73.6758C73.9265 28.4648 74.1669 28.5644 74.3442 28.7417C74.5215 28.919 74.6211 29.1594 74.6211 29.4102V42.9154C74.6211 43.1661 74.5215 43.4065 74.3442 43.5838C74.1669 43.7611 73.9265 43.8607 73.6758 43.8607H76.0391C76.2898 43.8607 76.5302 43.7611 76.7075 43.5838C76.8848 43.4065 76.9844 43.1661 76.9844 42.9154V29.4102C76.9844 29.1594 76.8848 28.919 76.7075 28.7417C76.5302 28.5644 76.2898 28.4648 76.0391 28.4648Z" fill="#377DE2"/>
<path d="M98.3496 45.7244H86.1191C85.6177 45.7244 85.1368 45.5252 84.7823 45.1707C84.4277 44.8161 84.2285 44.3352 84.2285 43.8338V28.4961C84.2285 27.9947 84.4277 27.5138 84.7823 27.1592C85.1368 26.8047 85.6177 26.6055 86.1191 26.6055H98.3496C98.851 26.6055 99.3319 26.8047 99.6865 27.1592C100.041 27.5138 100.24 27.9947 100.24 28.4961V43.8338C100.24 44.3352 100.041 44.8161 99.6865 45.1707C99.3319 45.5252 98.851 45.7244 98.3496 45.7244Z" fill="#414042"/>
<path d="M97.4326 43.8607H87.0352C86.7844 43.8607 86.544 43.7611 86.3667 43.5838C86.1894 43.4065 86.0898 43.1661 86.0898 42.9154V29.4102C86.0898 29.1594 86.1894 28.919 86.3667 28.7417C86.544 28.5644 86.7844 28.4648 87.0352 28.4648H97.4326C97.6834 28.4648 97.9238 28.5644 98.1011 28.7417C98.2784 28.919 98.378 29.1594 98.378 29.4102V42.9154C98.378 43.1661 98.2784 43.4065 98.1011 43.5838C97.9238 43.7611 97.6834 43.8607 97.4326 43.8607Z" fill="#478CF7"/>
<path d="M97.4336 28.4648H95.0703C95.321 28.4648 95.5615 28.5644 95.7387 28.7417C95.916 28.919 96.0156 29.1594 96.0156 29.4102V42.9154C96.0156 43.1661 95.916 43.4065 95.7387 43.5838C95.5615 43.7611 95.321 43.8607 95.0703 43.8607H97.4336C97.6843 43.8607 97.9247 43.7611 98.102 43.5838C98.2793 43.4065 98.3789 43.1661 98.3789 42.9154V29.4102C98.3789 29.1594 98.2793 28.919 98.102 28.7417C97.9247 28.5644 97.6843 28.4648 97.4336 28.4648Z" fill="#377DE2"/>
<path d="M33.2187 81.1384H20.9883C20.4869 81.1384 20.006 80.9392 19.6514 80.5847C19.2968 80.2301 19.0977 79.7492 19.0977 79.2478V61.1172C19.0977 60.6158 19.2968 60.1349 19.6514 59.7803C20.006 59.4258 20.4869 59.2266 20.9883 59.2266H33.2187C33.7202 59.2266 34.201 59.4258 34.5556 59.7803C34.9102 60.1349 35.1094 60.6158 35.1094 61.1172V79.2478C35.1094 79.7492 34.9102 80.2301 34.5556 80.5847C34.201 80.9392 33.7202 81.1384 33.2187 81.1384Z" fill="#414042"/>
<path d="M32.3018 79.2781H21.9043C21.6536 79.2781 21.4131 79.1785 21.2359 79.0013C21.0586 78.824 20.959 78.5835 20.959 78.3328V62.0352C20.959 61.7844 21.0586 61.544 21.2359 61.3667C21.4131 61.1894 21.6536 61.0898 21.9043 61.0898H32.3018C32.5525 61.0898 32.7929 61.1894 32.9702 61.3667C33.1475 61.544 33.2471 61.7844 33.2471 62.0352V78.3328C33.2471 78.5835 33.1475 78.824 32.9702 79.0013C32.7929 79.1785 32.5525 79.2781 32.3018 79.2781Z" fill="#478CF7"/>
<path d="M32.3027 61.0898H29.9395C30.1902 61.0898 30.4306 61.1894 30.6079 61.3667C30.7852 61.544 30.8848 61.7844 30.8848 62.0352V78.3328C30.8848 78.5835 30.7852 78.824 30.6079 79.0013C30.4306 79.1785 30.1902 79.2781 29.9395 79.2781H32.3027C32.5534 79.2781 32.7939 79.1785 32.9712 79.0013C33.1485 78.824 33.248 78.5835 33.248 78.3328V62.0352C33.248 61.7844 33.1485 61.544 32.9712 61.3667C32.7939 61.1894 32.5534 61.0898 32.3027 61.0898Z" fill="#377DE2"/>
<path d="M100.24 81.1384H88.0098C87.5083 81.1384 87.0275 80.9392 86.6729 80.5847C86.3183 80.2301 86.1191 79.7492 86.1191 79.2478V61.1172C86.1191 60.6158 86.3183 60.1349 86.6729 59.7803C87.0275 59.4258 87.5083 59.2266 88.0098 59.2266H100.24C100.742 59.2266 101.223 59.4258 101.577 59.7803C101.932 60.1349 102.131 60.6158 102.131 61.1172V79.2478C102.131 79.7492 101.932 80.2301 101.577 80.5847C101.223 80.9392 100.742 81.1384 100.24 81.1384Z" fill="#414042"/>
<path d="M99.3233 79.2781H88.9258C88.6751 79.2781 88.4346 79.1785 88.2573 79.0013C88.0801 78.824 87.9805 78.5835 87.9805 78.3328V62.0352C87.9805 61.7844 88.0801 61.544 88.2573 61.3667C88.4346 61.1894 88.6751 61.0898 88.9258 61.0898H99.3233C99.574 61.0898 99.8144 61.1894 99.9917 61.3667C100.169 61.544 100.269 61.7844 100.269 62.0352V78.3328C100.269 78.5835 100.169 78.824 99.9917 79.0013C99.8144 79.1785 99.574 79.2781 99.3233 79.2781Z" fill="#478CF7"/>
<path d="M99.3242 61.0898H96.9609C97.2116 61.0898 97.4521 61.1894 97.6294 61.3667C97.8066 61.544 97.9062 61.7844 97.9062 62.0352V78.3328C97.9062 78.5835 97.8066 78.824 97.6294 79.0013C97.4521 79.1785 97.2116 79.2781 96.9609 79.2781H99.3242C99.5749 79.2781 99.8154 79.1785 99.9926 79.0013C100.17 78.824 100.27 78.5835 100.27 78.3328V62.0352C100.27 61.7844 100.17 61.544 99.9926 61.3667C99.8154 61.1894 99.5749 61.0898 99.3242 61.0898Z" fill="#377DE2"/>
<path d="M108.231 103.199H12.998C12.4966 103.199 12.0157 103.398 11.6612 103.753C11.3066 104.108 11.1074 104.588 11.1074 105.09V111.528H110.121V105.09C110.121 104.046 109.275 103.199 108.231 103.199Z" fill="#D1D3D4"/>
<path d="M11.1074 109.164H110.121V111.527H11.1074V109.164Z" fill="#E6E7E8"/>
<path d="M81.2338 103.2H39.9336V58.3281C39.9336 57.8267 40.1328 57.3458 40.4873 56.9912C40.8419 56.6367 41.3228 56.4375 41.8242 56.4375H79.3432C79.8446 56.4375 80.3255 56.6367 80.6801 56.9912C81.0346 57.3458 81.2338 57.8267 81.2338 58.3281V103.2Z" fill="#414042"/>
<path d="M57.8374 84.5794H43.7324C43.4817 84.5794 43.2413 84.4798 43.064 84.3025C42.8867 84.1252 42.7871 83.8848 42.7871 83.6341V60.1719C42.7871 59.9212 42.8867 59.6807 43.064 59.5034C43.2413 59.3262 43.4817 59.2266 43.7324 59.2266H57.8374C58.0881 59.2266 58.3286 59.3262 58.5059 59.5034C58.6831 59.6807 58.7827 59.9212 58.7827 60.1719V83.6341C58.7827 83.8848 58.6831 84.1252 58.5059 84.3025C58.3286 84.4798 58.0881 84.5794 57.8374 84.5794Z" fill="#478CF7"/>
<path d="M57.8379 59.2266H55.4746C55.7253 59.2266 55.9658 59.3262 56.143 59.5034C56.3203 59.6807 56.4199 59.9212 56.4199 60.1719V83.6341C56.4199 83.8848 56.3203 84.1252 56.143 84.3025C55.9658 84.4798 55.7253 84.5794 55.4746 84.5794H57.8379C58.0886 84.5794 58.329 84.4798 58.5063 84.3025C58.6836 84.1252 58.7832 83.8848 58.7832 83.6341V60.1719C58.7832 59.9212 58.6836 59.6807 58.5063 59.5034C58.329 59.3262 58.0886 59.2266 57.8379 59.2266Z" fill="#377DE2"/>
<path d="M57.8374 88.3047H43.7324C43.4817 88.3047 43.2413 88.4043 43.064 88.5816C42.8867 88.7588 42.7871 88.9993 42.7871 89.25V98.7088C42.7871 98.9595 42.8867 99.2 43.064 99.3772C43.2413 99.5545 43.4817 99.6541 43.7324 99.6541H57.8374C58.0881 99.6541 58.3286 99.5545 58.5059 99.3772C58.6831 99.2 58.7827 98.9595 58.7827 98.7088V89.25C58.7827 88.9993 58.6831 88.7588 58.5059 88.5816C58.3286 88.4043 58.0881 88.3047 57.8374 88.3047Z" fill="#808285"/>
<path d="M55.0455 91.0977H46.5254C46.2747 91.0977 46.0342 91.1973 45.857 91.3745C45.6797 91.5518 45.5801 91.7923 45.5801 92.043V95.9169C45.5801 96.1676 45.6797 96.408 45.857 96.5853C46.0342 96.7626 46.2747 96.8622 46.5254 96.8622H55.0455C55.2962 96.8622 55.5366 96.7626 55.7139 96.5853C55.8912 96.408 55.9908 96.1676 55.9908 95.9169V92.043C55.9908 91.7923 55.8912 91.5518 55.7139 91.3745C55.5366 91.1973 55.2962 91.0977 55.0455 91.0977Z" fill="#58595B"/>
<path d="M77.4346 84.5794H62.3984C62.1477 84.5794 61.9073 84.4798 61.73 84.3025C61.5527 84.1252 61.4531 83.8848 61.4531 83.6341V60.1719C61.4531 59.9212 61.5527 59.6807 61.73 59.5034C61.9073 59.3262 62.1477 59.2266 62.3984 59.2266H77.4346C77.6853 59.2266 77.9257 59.3262 78.103 59.5034C78.2803 59.6807 78.3799 59.9212 78.3799 60.1719V83.6341C78.3799 83.8848 78.2803 84.1252 78.103 84.3025C77.9257 84.4798 77.6853 84.5794 77.4346 84.5794Z" fill="#478CF7"/>
<path d="M77.4336 59.2266H75.0703C75.321 59.2266 75.5615 59.3262 75.7388 59.5034C75.916 59.6807 76.0156 59.9212 76.0156 60.1719V83.6341C76.0156 83.8848 75.916 84.1252 75.7388 84.3025C75.5615 84.4798 75.321 84.5794 75.0703 84.5794H77.4336C77.6843 84.5794 77.9248 84.4798 78.102 84.3025C78.2793 84.1252 78.3789 83.8848 78.3789 83.6341V60.1719C78.3789 59.9212 78.2793 59.6807 78.102 59.5034C77.9248 59.3262 77.6843 59.2266 77.4336 59.2266Z" fill="#377DE2"/>
<path d="M77.4346 88.3047H62.3984C62.1477 88.3047 61.9073 88.4043 61.73 88.5816C61.5527 88.7588 61.4531 88.9993 61.4531 89.25V98.7088C61.4531 98.9595 61.5527 99.2 61.73 99.3772C61.9073 99.5545 62.1477 99.6541 62.3984 99.6541H77.4346C77.6853 99.6541 77.9257 99.5545 78.103 99.3772C78.2803 99.2 78.3799 98.9595 78.3799 98.7088V89.25C78.3799 88.9993 78.2803 88.7588 78.103 88.5816C77.9257 88.4043 77.6853 88.3047 77.4346 88.3047Z" fill="#808285"/>
<path d="M74.6422 91.0977H65.1914C64.9407 91.0977 64.7002 91.1973 64.523 91.3745C64.3457 91.5518 64.2461 91.7923 64.2461 92.043V95.9169C64.2461 96.1676 64.3457 96.408 64.523 96.5853C64.7002 96.7626 64.9407 96.8622 65.1914 96.8622H74.6422C74.8929 96.8622 75.1333 96.7626 75.3106 96.5853C75.4879 96.408 75.5875 96.1676 75.5875 95.9169V92.043C75.5875 91.7923 75.4879 91.5518 75.3106 91.3745C75.1333 91.1973 74.8929 91.0977 74.6422 91.0977Z" fill="#58595B"/>
<path d="M106.856 51.6906H14.373C14.1223 51.6906 13.8819 51.591 13.7046 51.4137C13.5273 51.2364 13.4277 50.996 13.4277 50.7453V49.1836C13.4277 48.9329 13.5273 48.6924 13.7046 48.5152C13.8819 48.3379 14.1223 48.2383 14.373 48.2383H106.856C107.107 48.2383 107.347 48.3379 107.525 48.5152C107.702 48.6924 107.802 48.9329 107.802 49.1836V50.7453C107.802 50.8694 107.777 50.9924 107.73 51.1071C107.682 51.2218 107.612 51.3261 107.525 51.4139C107.437 51.5016 107.332 51.5713 107.218 51.6187C107.103 51.6662 106.98 51.6906 106.856 51.6906Z" fill="#D1D3D4"/>
<path d="M106.856 50.7461H14.373C14.1223 50.7461 13.8819 50.6465 13.7046 50.4692C13.5273 50.2919 13.4277 50.0515 13.4277 49.8008V50.7461C13.4277 50.9968 13.5273 51.2373 13.7046 51.4145C13.8819 51.5918 14.1223 51.6914 14.373 51.6914H106.856C107.107 51.6914 107.347 51.5918 107.525 51.4145C107.702 51.2373 107.802 50.9968 107.802 50.7461V49.8008C107.801 50.0515 107.702 50.2919 107.524 50.4691C107.347 50.6463 107.107 50.746 106.856 50.7461Z" fill="#E6E7E8"/>
<path d="M108.231 9.45312H12.998C12.4966 9.45312 12.0157 9.65232 11.6612 10.0069C11.3066 10.3614 11.1074 10.8423 11.1074 11.3438V15.3264C11.1074 15.8278 11.3066 16.3087 11.6612 16.6632C12.0157 17.0178 12.4966 17.217 12.998 17.217H108.23C108.732 17.217 109.213 17.0178 109.567 16.6632C109.922 16.3087 110.121 15.8278 110.121 15.3264V11.3438C110.121 10.2997 109.275 9.45312 108.231 9.45312Z" fill="#D1D3D4"/>
<path d="M108.231 14.8555H12.998C12.4966 14.8555 12.0157 14.6563 11.6612 14.3017C11.3066 13.9472 11.1074 13.4663 11.1074 12.9648V15.3281C11.1074 15.8296 11.3066 16.3104 11.6612 16.665C12.0157 17.0196 12.4966 17.2188 12.998 17.2188H108.23C108.732 17.2188 109.213 17.0196 109.567 16.665C109.922 16.3104 110.121 15.8296 110.121 15.3281V12.9648C110.121 14.0089 109.275 14.8555 108.231 14.8555Z" fill="#E6E7E8"/>
</svg>
