<svg width="126" height="120" viewBox="0 0 126 120" fill="none" xmlns="http://www.w3.org/2000/svg">
<path d="M70.0292 5.13563L72.5155 13.8738C72.7553 14.7383 73.2249 15.5294 73.8788 16.1706C74.5328 16.8119 75.3491 17.2817 76.249 17.5347C77.1489 17.7878 78.1021 17.8155 79.0165 17.6153C79.9309 17.4151 80.7758 16.9936 81.4696 16.3916L88.5254 10.3113C94.044 5.55192 102.62 10.8036 100.373 17.5644L97.4963 26.2105C97.2112 27.0603 97.1602 27.9657 97.3481 28.8397C97.536 29.7137 97.9566 30.527 98.5693 31.2014C99.1821 31.8759 99.9665 32.3888 100.847 32.6911C101.728 32.9933 102.675 33.0746 103.599 32.9273L112.969 31.4462C120.331 30.2854 124.564 39.1236 118.848 43.6548L111.528 49.4469C110.803 50.0148 110.245 50.751 109.905 51.5846C109.566 52.4182 109.458 53.321 109.591 54.206C109.725 55.091 110.095 55.9283 110.667 56.6372C111.239 57.346 111.992 57.9026 112.855 58.2531L121.591 61.8557C128.424 64.6577 126.975 74.2645 119.588 75.1371L110.142 76.2378C109.21 76.3407 108.322 76.6707 107.563 77.196C106.804 77.7212 106.199 78.424 105.808 79.2366C105.417 80.0491 105.252 80.9441 105.329 81.8351C105.406 82.7261 105.723 83.5831 106.249 84.3236L111.562 91.8449C115.715 97.729 109.042 105.054 102.322 101.988L93.7542 98.0492C92.912 97.659 91.9786 97.4818 91.0438 97.5347C90.1089 97.5876 89.2041 97.8687 88.4162 98.3511C87.6283 98.8335 86.9838 99.501 86.5447 100.289C86.1056 101.078 85.8866 101.96 85.9088 102.853L86.1104 111.919C86.27 119.012 76.4928 121.746 72.5995 115.698L67.6521 107.94C67.1647 107.178 66.4799 106.549 65.6635 106.112C64.8471 105.675 63.9265 105.445 62.9902 105.445C62.0539 105.445 61.1333 105.675 60.3169 106.112C59.5005 106.549 58.8158 107.178 58.3284 107.94L53.3557 115.67C49.4625 121.718 39.6852 118.984 39.8448 111.891L40.0464 102.825C40.0686 101.932 39.8496 101.05 39.4105 100.261C38.9714 99.4729 38.327 98.8055 37.5391 98.3231C36.7512 97.8407 35.8463 97.5595 34.9115 97.5067C33.9767 97.4538 33.0433 97.631 32.2011 98.0212L23.6334 101.96C16.9136 105.042 10.2568 97.701 14.3937 91.8168L19.7317 84.3236C20.257 83.5845 20.5741 82.7291 20.6524 81.8395C20.7306 80.95 20.5674 80.0562 20.1785 79.2441C19.7896 78.432 19.188 77.7289 18.4316 77.2024C17.6752 76.6759 16.7894 76.3438 15.8594 76.2378L6.40554 75.1171C-0.982013 74.2564 -2.41416 64.6457 4.4022 61.8357L13.1379 58.2331C14.0009 57.8826 14.7545 57.326 15.3262 56.6171C15.8978 55.9083 16.2682 55.0709 16.4015 54.186C16.5349 53.301 16.4268 52.3982 16.0876 51.5646C15.7484 50.731 15.1896 49.9948 14.4651 49.4269L7.13211 43.6548C1.41611 39.1236 5.64956 30.2854 13.0119 31.4462L22.3986 32.9273C23.3209 33.0722 24.2668 32.9891 25.1457 32.6859C26.0246 32.3826 26.8071 31.8694 27.4183 31.1953C28.0294 30.5212 28.4488 29.7089 28.6361 28.8361C28.8235 27.9632 28.7726 27.0592 28.4884 26.2105L25.6115 17.5644C23.3646 10.8036 31.9407 5.55593 37.4593 10.3113L44.5108 16.3916C45.2046 16.9936 46.0495 17.4151 46.9639 17.6153C47.8784 17.8155 48.8315 17.7878 49.7315 17.5347C50.6314 17.2817 51.4477 16.8119 52.1016 16.1706C52.7556 15.5294 53.2251 14.7383 53.4649 13.8738L55.9513 5.11962C57.8958 -1.70921 68.0846 -1.70921 70.0292 5.13563Z" fill="#FF89F4"/>
</svg>
