<svg width="48" height="48" viewBox="0 0 48 48" fill="none" xmlns="http://www.w3.org/2000/svg">
<g clip-path="url(#clip0_320_6425)">
<path d="M48 24C48 37.255 37.255 48 24 48C10.745 48 0 37.255 0 24C0 10.745 10.745 0 24 0C37.255 0 48 10.745 48 24Z" fill="#FFE047"/>
<path d="M47.7058 27.76L30.6276 10.6814C29.0207 8.83494 26.589 8 23.9999 8C20.0741 8 16.5095 9.91784 15.6356 14.3739C14.7498 18.8904 16.5995 20.7024 13.0802 19.9802C11.2997 19.6152 10.4263 20.7387 11.3264 21.7728L14.7117 25.1603C14.2023 26.9434 12.2427 29.2088 10.3274 29.5918C8.20266 30.0165 7.49438 31.0017 8.34038 31.7422L24.7019 47.9891C36.3613 47.6541 45.9367 39.0038 47.7058 27.76Z" fill="#FFCF00"/>
</g>
<path d="M12.8254 20.3064C13.2778 20.3993 13.6641 20.4558 13.9912 20.468C14.315 20.4801 14.6158 20.4505 14.8767 20.3424C15.1548 20.2272 15.3579 20.035 15.49 19.7837C15.6132 19.5494 15.6644 19.2837 15.689 19.0253C15.7138 18.7644 15.7147 18.4677 15.7115 18.1542C15.7106 18.0683 15.7093 17.9808 15.7081 17.8912C15.7047 17.6453 15.7011 17.3836 15.7033 17.0971C15.7093 16.3232 15.7584 15.3959 15.972 14.3065L15.972 14.3065C16.385 12.2009 17.4242 10.7223 18.8044 9.76291C20.1937 8.79726 21.9603 8.33643 23.8457 8.33643C25.7311 8.33643 27.4977 8.79726 28.8869 9.76292C30.2672 10.7223 31.3064 12.2009 31.7193 14.3066L31.7193 14.3066L13.7464 22.3411C12.8016 22.1272 12.1744 21.8184 11.7944 21.5134C11.4104 21.2051 11.3152 20.9351 11.3139 20.7811C11.3129 20.6476 11.3805 20.4968 11.6075 20.3809C11.8452 20.2594 12.2519 20.1888 12.8254 20.3064ZM12.8254 20.3064L12.926 19.8166L12.8255 20.3065C12.8255 20.3064 12.8255 20.3064 12.8254 20.3064ZM14.7861 22.9484C14.5337 22.6407 14.1782 22.4387 13.7465 22.3411L34.7654 19.8166L34.8658 20.3065C34.8659 20.3064 34.8659 20.3064 34.8659 20.3064C35.4394 20.1888 35.8461 20.2594 36.0838 20.3809C36.3108 20.4969 36.3785 20.6477 36.3774 20.7812C36.3762 20.9352 36.2809 21.2053 35.8969 21.5135C35.5169 21.8186 34.8898 22.1273 33.9449 22.3411C33.5132 22.4387 33.1576 22.6406 32.9053 22.9484C32.6551 23.2535 32.5389 23.6228 32.5125 24.0011C32.461 24.7396 32.7439 25.5886 33.1787 26.3746C33.6203 27.1727 34.2513 27.9657 34.9765 28.6027C35.6977 29.2362 36.5437 29.7429 37.4202 29.9181C38.1435 30.0628 38.6552 30.269 38.9743 30.4804C39.3048 30.6992 39.3518 30.8663 39.3534 30.923C39.3547 30.967 39.3315 31.1173 39.0166 31.3212C38.7077 31.5213 38.1929 31.7165 37.4342 31.8456C36.6366 31.9814 36.0919 32.1322 35.7438 32.3416C35.558 32.4533 35.4021 32.5967 35.3024 32.787C35.2024 32.9778 35.1845 33.1673 35.191 33.3238C35.1987 33.5095 35.2255 33.6565 35.2492 33.7864C35.3049 34.0919 35.3433 34.3021 35.0745 34.6965C34.938 34.8965 34.7623 34.9761 34.4677 34.9731C34.1364 34.9697 33.7291 34.8589 33.2231 34.7032C33.1704 34.687 33.1168 34.6704 33.0622 34.6534C32.6231 34.5171 32.1275 34.3631 31.6477 34.293C31.1013 34.2131 30.5004 34.2286 29.9559 34.5463L29.9558 34.5463C29.4697 34.83 29.0401 35.1613 28.6084 35.4942C27.4319 36.4016 26.2397 37.321 23.8457 37.321C21.4516 37.321 20.2595 36.4016 19.0829 35.4943C18.6512 35.1613 18.2216 34.83 17.7355 34.5463L17.7355 34.5463C17.1909 34.2286 16.59 34.2131 16.0437 34.293C15.5638 34.3631 15.0682 34.5171 14.6292 34.6534C14.5746 34.6704 14.5209 34.687 14.4682 34.7032C13.9623 34.8589 13.555 34.9697 13.2236 34.9731C12.9291 34.9761 12.7534 34.8965 12.6169 34.6965C12.348 34.3021 12.3864 34.0919 12.4421 33.7864C12.4658 33.6566 12.4926 33.5095 12.5004 33.3239C12.5069 33.1674 12.4889 32.9779 12.3889 32.787C12.2892 32.5968 12.1333 32.4534 11.9476 32.3416C11.5994 32.1322 11.0548 31.9814 10.2571 31.8456C9.49846 31.7165 8.98361 31.5213 8.6747 31.3212C8.35982 31.1173 8.33668 30.967 8.33796 30.923C8.3396 30.8663 8.38654 30.6992 8.717 30.4804C9.03617 30.269 9.54786 30.0628 10.2712 29.9181C11.1476 29.7429 11.9937 29.2362 12.7149 28.6027C13.4401 27.9657 14.0711 27.1727 14.5126 26.3746C14.9474 25.5886 15.2304 24.7396 15.1789 24.0011C15.1525 23.6228 15.0363 23.2535 14.7861 22.9484Z" fill="white" stroke="black"/>
<defs>
<clipPath id="clip0_320_6425">
<rect width="48" height="48" fill="white"/>
</clipPath>
</defs>
</svg>
