<svg width="24" height="24" viewBox="0 0 24 24" fill="none" xmlns="http://www.w3.org/2000/svg">
<path d="M7.99961 2H15.9996V2.8H7.99961V2ZM19.7996 15C19.7996 14.2281 19.1715 13.6 18.3996 13.6H17.5996V8H16.7996V13.6H15.7996C15.0277 13.6 14.3996 14.2282 14.3996 15C14.3996 15.3919 14.5625 15.7456 14.8229 16C14.5625 16.2544 14.3996 16.6081 14.3996 17C14.3996 17.2697 14.4799 17.5195 14.6126 17.7334C14.1341 17.9563 13.7996 18.4384 13.7996 19C13.7996 19.2155 13.8527 19.4174 13.9401 19.6H10.7996C10.7996 18.3769 10.1867 17.2945 9.25196 16.6438C10.1559 16.2992 10.7996 15.4235 10.7996 14.4C10.7996 14.1791 10.6207 14 10.3996 14H7.19961V10H6.39961V14C5.73791 14 5.19961 14.5383 5.19961 15.2V24H5.99961V15.2C5.99961 14.9795 6.17891 14.8 6.39961 14.8H9.94881C9.77106 15.4893 9.14371 16 8.39961 16H7.19961C6.97851 16 6.79961 16.1791 6.79961 16.4C6.79961 16.6209 6.97851 16.8 7.19961 16.8C8.74336 16.8 9.99961 18.056 9.99961 19.6V20C9.99961 20.2209 10.1785 20.4 10.3996 20.4H12.7401C12.6527 20.5826 12.5996 20.7845 12.5996 21C12.5996 21.7719 13.2278 22.4 13.9996 22.4V24H14.7996V22.4H16.5996C17.3715 22.4 17.9996 21.7719 17.9996 21C17.9996 20.7822 17.9453 20.5784 17.8561 20.3943C18.6013 20.3639 19.1996 19.7526 19.1996 19C19.1996 18.7304 19.1194 18.4805 18.9867 18.2666C19.4652 18.0438 19.7996 17.5616 19.7996 17C19.7996 16.6081 19.6367 16.2544 19.3763 16C19.6367 15.7456 19.7996 15.3919 19.7996 15ZM16.5996 21.6H13.9996C13.6688 21.6 13.3996 21.3309 13.3996 21C13.3996 20.6691 13.6688 20.4 13.9996 20.4H16.5996C16.9305 20.4 17.1996 20.6691 17.1996 21C17.1996 21.3309 16.9305 21.6 16.5996 21.6ZM17.7996 19.6H15.1996C14.8688 19.6 14.5996 19.3309 14.5996 19C14.5996 18.6691 14.8688 18.4 15.1996 18.4H17.7996C18.1305 18.4 18.3996 18.6691 18.3996 19C18.3996 19.3309 18.1305 19.6 17.7996 19.6ZM18.3996 17.6H15.7996C15.4688 17.6 15.1996 17.3309 15.1996 17C15.1996 16.6692 15.4688 16.4 15.7996 16.4H18.3996C18.7305 16.4 18.9996 16.6692 18.9996 17C18.9996 17.3309 18.7305 17.6 18.3996 17.6ZM18.3996 15.6H15.7996C15.4688 15.6 15.1996 15.3309 15.1996 15C15.1996 14.6692 15.4688 14.4 15.7996 14.4H18.3996C18.7305 14.4 18.9996 14.6692 18.9996 15C18.9996 15.3309 18.7305 15.6 18.3996 15.6ZM5.99846 5.0914C5.99446 5.03463 5.97838 4.97936 5.95129 4.92931C5.92421 4.87925 5.88674 4.83556 5.84141 4.80115L5.42501 4.4855C5.32541 3.98125 4.88281 3.6 4.35351 3.6C3.75626 3.6 3.26911 4.08555 3.26131 4.68535C2.93965 4.62898 2.6335 4.50539 2.36286 4.32265L2.22341 4.2285C2.16324 4.1878 2.09312 4.16427 2.02057 4.16045C1.94803 4.15663 1.87582 4.17265 1.81171 4.2068C1.74765 4.2409 1.69408 4.29177 1.65672 4.35398C1.61935 4.41619 1.59961 4.48739 1.59961 4.55995V4.8881C1.59961 5.37015 1.74491 5.8299 2.01446 6.21605L1.71526 6.5188C1.65979 6.57492 1.62216 6.64618 1.60709 6.72364C1.59203 6.80109 1.60021 6.88127 1.6306 6.95408C1.661 7.0269 1.71225 7.0891 1.77791 7.13286C1.84357 7.17661 1.9207 7.19998 1.99961 7.2H3.93791C4.71096 7.2 5.35001 6.61075 5.43596 5.8545L5.88401 5.4012C5.92402 5.36067 5.95493 5.31207 5.97466 5.25865C5.9944 5.20523 6.00251 5.14821 5.99846 5.0914ZM4.76131 5.39885C4.68718 5.47368 4.64561 5.57477 4.64566 5.6801C4.64566 6.077 4.32806 6.4 3.93786 6.4H2.92031C2.95219 6.32664 2.96139 6.24541 2.9467 6.16678C2.93201 6.08814 2.89412 6.01571 2.83791 5.9588C2.65121 5.76975 2.51761 5.53185 2.45001 5.2754C2.83338 5.4371 3.24529 5.52025 3.66136 5.51995C3.88246 5.51995 4.06136 5.34085 4.06136 5.11995V4.7C4.06136 4.53455 4.19261 4.4 4.35356 4.4C4.51451 4.4 4.64576 4.53455 4.64576 4.7C4.64576 4.76173 4.66004 4.82263 4.68748 4.87793C4.71493 4.93322 4.75479 4.98142 4.80396 5.01875L4.99461 5.1631L4.76131 5.39885Z" fill="#575757"/>
<path d="M13.2008 6.8V6H12.0008C11.7797 6 11.6008 6.1791 11.6008 6.4V7.6H10.8008V8.4H11.6008V10H12.4008V8.4H13.2008V7.6H12.4008V6.8H13.2008Z" fill="#575757"/>
<path d="M14.4 4.4H9.6C8.9383 4.4 8.4 4.9383 8.4 5.6V10.4C8.4 11.0617 8.9383 11.6 9.6 11.6H14.4C15.0617 11.6 15.6 11.0617 15.6 10.4V5.6C15.6 4.9383 15.0617 4.4 14.4 4.4ZM14.8 10.4C14.8 10.6205 14.6207 10.8 14.4 10.8H9.6C9.3793 10.8 9.2 10.6205 9.2 10.4V5.6C9.2 5.3795 9.3793 5.2 9.6 5.2H14.4C14.6207 5.2 14.8 5.3795 14.8 5.6V10.4ZM6 2H1.2C0.5383 2 0 2.5383 0 3.2V8C0 8.6617 0.5383 9.2 1.2 9.2H6C6.6617 9.2 7.2 8.6617 7.2 8V3.2C7.2 2.5383 6.6617 2 6 2ZM6.4 8C6.4 8.2205 6.2207 8.4 6 8.4H1.2C0.9793 8.4 0.8 8.2205 0.8 8V3.2C0.8 2.9795 0.9793 2.8 1.2 2.8H6C6.2207 2.8 6.4 2.9795 6.4 3.2V8ZM22.8 0H18C17.3383 0 16.8 0.5383 16.8 1.2V6C16.8 6.6617 17.3383 7.2 18 7.2H22.8C23.4617 7.2 24 6.6617 24 6V1.2C24 0.5383 23.4617 0 22.8 0ZM23.2 6C23.2 6.2205 23.0207 6.4 22.8 6.4H18C17.7793 6.4 17.6 6.2205 17.6 6V4H18.4405C18.6263 4.9117 19.4342 5.6 20.4 5.6C21.3658 5.6 22.1737 4.9117 22.3596 4H23.2V6ZM19.2 3.6C19.2 2.9383 19.7383 2.4 20.4 2.4C21.0617 2.4 21.6 2.9383 21.6 3.6C21.6 4.2617 21.0617 4.8 20.4 4.8C19.7383 4.8 19.2 4.2617 19.2 3.6ZM23.2 3.2H22.3596C22.1737 2.2883 21.3658 1.6 20.4 1.6C19.4342 1.6 18.6263 2.2883 18.4405 3.2H17.6V1.2C17.6 0.9795 17.7793 0.8 18 0.8H22.8C23.0207 0.8 23.2 0.9795 23.2 1.2V3.2ZM11.6 16.4H12.4V17.2H11.6V16.4Z" fill="#575757"/>
</svg>
