<svg width="124" height="82" viewBox="0 0 124 82" fill="none" xmlns="http://www.w3.org/2000/svg">
<path d="M58.4854 65.6029V77.6146C58.4855 78.1458 58.381 78.6718 58.1778 79.1625C57.9746 79.6533 57.6767 80.0993 57.3011 80.4749C56.9255 80.8505 56.4796 81.1484 55.9888 81.3516C55.498 81.5548 54.972 81.6593 54.4408 81.6591H4.84925C4.31807 81.6593 3.79206 81.5548 3.30128 81.3516C2.81051 81.1484 2.36458 80.8505 1.98897 80.4749C1.61337 80.0993 1.31546 79.6533 1.11225 79.1625C0.909048 78.6718 0.804536 78.1458 0.804688 77.6146V65.6029C0.804688 56.6691 8.04802 49.4258 16.9818 49.4258H42.3071C51.242 49.4252 58.4854 56.6685 58.4854 65.6029Z" fill="#478CF7"/>
<path d="M45.2061 49.6836C48.3979 52.6384 50.3965 56.8645 50.3965 61.5577V73.5694C50.3965 74.6421 49.9703 75.6708 49.2118 76.4293C48.4533 77.1878 47.4246 77.614 46.3519 77.614H0.806641C0.806641 78.6867 1.23276 79.7154 1.99127 80.4739C2.74977 81.2324 3.77852 81.6585 4.8512 81.6585H54.441C55.5137 81.6585 56.5425 81.2324 57.301 80.4739C58.0595 79.7154 58.4856 78.6867 58.4856 77.614V65.6023C58.485 57.6571 52.7575 51.0497 45.2061 49.6836Z" fill="#377DE2"/>
<path d="M24.998 40.7539V52.2569C24.998 53.1466 25.2536 54.0178 25.734 54.7671C27.5632 57.6178 31.7286 57.6178 33.5578 54.7671C34.0382 54.018 34.2936 53.1468 34.2937 52.2569V40.7539H24.998Z" fill="#FCC4AE"/>
<path d="M24.998 44.3504C28.0142 45.3612 31.2776 45.3612 34.2937 44.3504V40.7539H24.998V44.3504Z" fill="#F2AD97"/>
<path d="M29.6446 43.0881C21.5543 43.0881 14.9961 36.5298 14.9961 28.4395V20.836C14.9961 12.7457 21.5543 6.1875 29.6446 6.1875C37.7349 6.1875 44.2932 12.7457 44.2932 20.836V28.4395C44.2932 36.5298 37.7349 43.0881 29.6446 43.0881Z" fill="#FFD2C0"/>
<path d="M14.9961 20.8344V24.7437C20.7039 20.9333 24.3559 14.4317 24.3328 7.30399L24.3322 7.17969C18.869 9.30661 14.9961 14.6184 14.9961 20.8344Z" fill="#F2AD97"/>
<path d="M38.9433 9.51562C41.0999 12.1336 42.277 15.4212 42.2721 18.813V26.4165C42.2721 34.5068 35.7139 41.0651 27.6236 41.0651C24.2317 41.0699 20.9441 39.8929 18.3262 37.7362C21.0127 41.0032 25.0856 43.0873 29.6453 43.0873C37.7356 43.0873 44.2938 36.5291 44.2938 28.4388V20.8347C44.2944 16.2751 42.2102 12.2022 38.9433 9.51562Z" fill="#FCC4AE"/>
<path d="M14.9964 28.4409V23.8633C13.7578 23.8827 12.5766 24.3883 11.7076 25.271C10.8386 26.1537 10.3516 27.3427 10.3516 28.5814C10.3516 29.82 10.8386 31.009 11.7076 31.8917C12.5766 32.7744 13.7578 33.28 14.9964 33.2994C15.271 33.2994 15.5386 33.2711 15.8005 33.226C15.2677 31.6869 14.9959 30.0696 14.9964 28.4409ZM44.2928 23.8633V28.4409C44.2928 30.1174 44.0072 31.7264 43.4887 33.2266C43.7506 33.2717 44.0182 33.3 44.2928 33.3C45.5352 33.2863 46.722 32.7831 47.5956 31.8997C48.4693 31.0164 48.9593 29.8241 48.9593 28.5816C48.9593 27.3392 48.4693 26.1469 47.5956 25.2636C46.722 24.3802 45.5352 23.877 44.2928 23.8633Z" fill="#FFD2C0"/>
<path d="M47.2018 24.8633C47.7343 25.5438 48.0698 26.3575 48.1715 27.2157C48.2732 28.0738 48.1372 28.9434 47.7785 29.7295C47.4198 30.5157 46.8521 31.1882 46.1372 31.6738C45.4224 32.1593 44.588 32.4392 43.725 32.483C43.6535 32.7323 43.5753 32.9797 43.4902 33.2247C43.7521 33.2698 44.0198 33.2981 44.2944 33.2981C45.2765 33.298 46.2341 32.9915 47.0336 32.4213C47.8332 31.8511 48.435 31.0456 48.755 30.1171C49.075 29.1887 49.0974 28.1835 48.819 27.2417C48.5406 26.2999 47.9752 25.4685 47.2018 24.8633Z" fill="#FCC4AE"/>
<path d="M24.3333 3.26061C24.3581 11.0387 20.0077 18.0704 13.3853 21.6739C11.9845 22.4364 10.2646 21.3392 10.4045 19.7505C10.8809 14.3531 13.2795 9.41359 17.0495 5.93444C19.1167 4.01357 21.5834 2.57393 24.2726 1.71875C24.3126 2.23173 24.3329 2.74607 24.3333 3.26061Z" fill="#7C3108"/>
<path d="M47.696 20.3902C35.4167 26.7294 19.979 19.4935 17.0508 5.93362C19.1062 4.0242 21.5563 2.59012 24.2276 1.73297C35.6439 -1.97281 47.0202 6.71467 48.7534 18.3263C48.8134 18.7375 48.7438 19.1573 48.5543 19.5271C48.3648 19.897 48.0648 20.1987 47.696 20.3902Z" fill="#8C3F0A"/>
<path d="M48.7534 18.3263C47.0202 6.71467 35.6433 -1.97281 24.2276 1.73297C21.5563 2.59012 19.1062 4.0242 17.0508 5.93362C17.1259 6.28281 17.2098 6.62737 17.3017 6.96847C18.2281 6.49333 19.192 6.09502 20.1836 5.77753C31.375 2.14459 42.5282 10.4222 44.5961 21.6881C45.6627 21.3395 46.6996 20.9057 47.6966 20.3908C48.0654 20.1991 48.3653 19.8973 48.5546 19.5273C48.744 19.1573 48.8135 18.7376 48.7534 18.3263Z" fill="#7C3108"/>
<path d="M48.7534 18.3263C47.0202 6.71467 35.6433 -1.97281 24.2276 1.73297C21.5563 2.59012 19.1062 4.0242 17.0508 5.93362C17.0751 6.0452 17.0999 6.1562 17.1259 6.2672C18.6847 5.18147 20.3969 4.3348 22.2059 3.75525C33.6216 0.0494654 44.9985 8.73695 46.7317 20.3486C46.7572 20.5186 46.7595 20.6879 46.7415 20.8539C47.0638 20.7076 47.3822 20.5532 47.6966 20.3908C48.0654 20.1991 48.3653 19.8973 48.5546 19.5273C48.744 19.1573 48.8135 18.7376 48.7534 18.3263Z" fill="#6D2E03"/>
<path d="M23.4135 28.2958C24.3937 28.2958 25.1884 27.5012 25.1884 26.5209C25.1884 25.5407 24.3937 24.7461 23.4135 24.7461C22.4333 24.7461 21.6387 25.5407 21.6387 26.5209C21.6387 27.5012 22.4333 28.2958 23.4135 28.2958Z" fill="#995222"/>
<path d="M37.1811 28.2958C38.1613 28.2958 38.9559 27.5012 38.9559 26.5209C38.9559 25.5407 38.1613 24.7461 37.1811 24.7461C36.2009 24.7461 35.4062 25.5407 35.4062 26.5209C35.4062 27.5012 36.2009 28.2958 37.1811 28.2958Z" fill="#995222"/>
<path d="M14.9966 28.4375V25.8672C14.2775 25.8672 13.5878 26.1529 13.0793 26.6613C12.5708 27.1698 12.2852 27.8595 12.2852 28.5786C12.2852 29.2977 12.5708 29.9874 13.0793 30.4958C13.5878 31.0043 14.2775 31.29 14.9966 31.29C15.092 31.29 15.1821 31.2715 15.2746 31.2617C15.0912 30.3315 14.998 29.3857 14.9966 28.4375ZM44.2954 28.4375V25.8672C45.0145 25.8672 45.7041 26.1529 46.2126 26.6613C46.7211 27.1698 47.0068 27.8595 47.0068 28.5786C47.0068 29.2977 46.7211 29.9874 46.2126 30.4958C45.7041 31.0043 45.0145 31.29 44.2954 31.29C44.2 31.29 44.1098 31.2715 44.0173 31.2617C44.1959 30.3471 44.2954 29.4042 44.2954 28.4375Z" fill="#F2AD97"/>
<path d="M32.0459 33.8672C32.4489 33.8672 32.7541 34.2435 32.6611 34.6355C32.4885 35.3596 32.0769 36.0044 31.4927 36.4657C30.9085 36.927 30.1858 37.1779 29.4415 37.1779C28.6971 37.1779 27.9745 36.927 27.3903 36.4657C26.8061 36.0044 26.3945 35.3596 26.2219 34.6355C26.1288 34.2435 26.4341 33.8672 26.837 33.8672H32.0459Z" fill="#E59076"/>
<path d="M40.1003 49.425L34.3087 46.8125V49.3244L29.6461 56.5909L24.9835 49.3244V46.8125L19.1953 49.425L29.6455 77.7908L40.1003 49.425Z" fill="#D1D3D4"/>
<path d="M19.1953 49.4256L23.5602 61.2656C23.601 61.3763 23.6691 61.475 23.7581 61.5524C23.8471 61.6299 23.9542 61.6838 24.0694 61.7091C24.1847 61.7344 24.3045 61.7302 24.4177 61.6971C24.531 61.664 24.6341 61.6028 24.7176 61.5194L29.6461 56.5909L24.9835 49.3245V46.8125L19.1953 49.4256Z" fill="#F1F2F2"/>
<path d="M40.0993 49.4256L35.7304 61.2656C35.6896 61.3763 35.6215 61.475 35.5325 61.5524C35.4435 61.6299 35.3364 61.6838 35.2212 61.7091C35.1059 61.7344 34.9861 61.7302 34.8729 61.6971C34.7596 61.664 34.6565 61.6028 34.573 61.5194L29.6445 56.5909L34.3071 49.3245V46.8125L40.0993 49.4256Z" fill="#F1F2F2"/>
<path d="M33.5494 60.4928L30.6414 63.4007C30.0922 63.95 29.2013 63.95 28.6521 63.4007L25.7441 60.4928L29.6471 56.5898L33.5494 60.4928Z" fill="#E63950"/>
<path d="M30.6394 63.4029C30.0902 63.9522 29.1993 63.9522 28.65 63.4029L27.6534 62.4062L26.7891 70.0427L29.645 77.7942L32.5009 70.0427L31.6366 62.4062L30.6394 63.4029Z" fill="#B7022D"/>
<path d="M29.6457 77.7899L15.8343 62.8298C15.7706 62.7611 15.7213 62.6803 15.6893 62.5923C15.6574 62.5042 15.6434 62.4106 15.6483 62.3171C15.6532 62.2235 15.6769 62.1319 15.7179 62.0477C15.7589 61.9635 15.8163 61.8883 15.8869 61.8267L18.3659 59.6385C18.8273 59.2338 18.5845 58.4736 17.9774 58.4088L15.0614 58.0972C14.9555 58.0857 14.8536 58.0502 14.7634 57.9936C14.6732 57.937 14.597 57.8606 14.5406 57.7703C14.4841 57.68 14.4489 57.578 14.4376 57.4721C14.4263 57.3662 14.4391 57.2591 14.4751 57.1589L17.2819 49.4219H19.195L29.6457 77.7899Z" fill="#5E9CF7"/>
<path d="M44.2289 58.1L41.3128 58.4116C40.7064 58.4763 40.4636 59.2366 40.9243 59.6412L43.4033 61.8295C43.4739 61.8911 43.5314 61.9662 43.5724 62.0504C43.6134 62.1347 43.637 62.2263 43.6419 62.3198C43.6468 62.4134 43.6329 62.507 43.6009 62.595C43.569 62.6831 43.5197 62.7639 43.4559 62.8325L29.6445 77.7926L40.0993 49.4258H42.0205L44.8151 57.1628C44.8512 57.263 44.864 57.37 44.8527 57.4758C44.8414 57.5817 44.8061 57.6836 44.7497 57.7738C44.6932 57.8641 44.617 57.9403 44.5268 57.9968C44.4366 58.0533 44.3347 58.0886 44.2289 58.1Z" fill="#5E9CF7"/>
<path d="M117.852 57.9639C117.486 54.6466 119.859 54.3847 119.493 51.0675C119.127 47.7502 116.753 48.0121 116.387 44.6948C116.021 41.3781 118.395 41.1162 118.028 37.7995C117.663 34.4828 115.289 34.7447 114.923 31.428C114.557 28.1124 116.931 27.8505 116.565 24.535C116.199 21.2189 113.803 21.4808 113.437 18.1641H75.3114C74.9454 21.4802 72.5104 21.2183 72.1444 24.535C71.7785 27.8505 74.1523 28.1124 73.7863 31.428C73.4204 34.7447 71.0466 34.4828 70.6806 37.7995C70.3147 41.1162 72.6884 41.3781 72.3219 44.6948C71.956 48.0121 69.5822 47.7502 69.2162 51.0675C68.8503 54.3847 71.2235 54.6466 70.8575 57.9639H117.852Z" fill="#6D2E03"/>
<path d="M123.194 65.6029V77.6146C123.195 78.1458 123.09 78.6718 122.887 79.1625C122.684 79.6533 122.386 80.0993 122.01 80.4749C121.634 80.8505 121.189 81.1484 120.698 81.3516C120.207 81.5548 119.681 81.6593 119.15 81.6591H69.5582C69.0271 81.6593 68.501 81.5548 68.0103 81.3516C67.5195 81.1484 67.0736 80.8505 66.698 80.4749C66.3224 80.0993 66.0244 79.6533 65.8212 79.1625C65.618 78.6718 65.5135 78.1458 65.5137 77.6146V65.6029C65.5137 56.6691 72.757 49.4258 81.6908 49.4258H107.016C115.951 49.4252 123.194 56.6685 123.194 65.6029Z" fill="#E63950"/>
<path d="M109.915 49.6836C113.107 52.6384 115.105 56.8645 115.105 61.5577V73.5694C115.105 74.6421 114.679 75.6708 113.921 76.4293C113.162 77.1878 112.134 77.614 111.061 77.614H65.5156C65.5156 78.6867 65.9417 79.7154 66.7002 80.4739C67.4587 81.2324 68.4875 81.6585 69.5602 81.6585H119.15C120.223 81.6585 121.251 81.2324 122.01 80.4739C122.768 79.7154 123.195 78.6867 123.195 77.614V65.6023C123.195 57.6571 117.467 51.0497 109.915 49.6836Z" fill="#D10028"/>
<path d="M89.707 40.7539V52.2569C89.707 53.1466 89.9626 54.0178 90.443 54.7671C92.2722 57.6178 96.4376 57.6178 98.2668 54.7671C98.7472 54.018 99.0026 53.1468 99.0027 52.2569V40.7539H89.707Z" fill="#FCC4AE"/>
<path d="M89.707 44.3504C92.7232 45.3612 95.9866 45.3612 99.0027 44.3504V40.7539H89.707V44.3504Z" fill="#F2AD97"/>
<path d="M94.3536 43.0881C86.2633 43.0881 79.7051 36.5298 79.7051 28.4395V20.836C79.7051 12.7457 86.2633 6.1875 94.3536 6.1875C102.444 6.1875 109.002 12.7457 109.002 20.836V28.4395C109.002 36.5298 102.444 43.0881 94.3536 43.0881Z" fill="#FFD2C0"/>
<path d="M79.7051 20.8344V24.7437C85.4129 20.9333 89.0649 14.4317 89.0418 7.30399L89.0412 7.17969C83.5774 9.30661 79.7051 14.6184 79.7051 20.8344Z" fill="#F2AD97"/>
<path d="M103.652 9.51562C105.809 12.1336 106.986 15.4212 106.981 18.813V26.4165C106.981 34.5068 100.423 41.0651 92.3326 41.0651C88.9407 41.0699 85.6531 39.8929 83.0352 37.7362C85.7217 41.0032 89.7946 43.0873 94.3543 43.0873C102.445 43.0873 109.003 36.5291 109.003 28.4388V20.8347C109.003 16.2751 106.919 12.2022 103.652 9.51562Z" fill="#FCC4AE"/>
<path d="M79.7053 28.4409V23.8633C78.4668 23.8827 77.2856 24.3883 76.4166 25.271C75.5476 26.1537 75.0605 27.3427 75.0605 28.5814C75.0605 29.82 75.5476 31.009 76.4166 31.8917C77.2856 32.7744 78.4668 33.28 79.7053 33.2994C79.98 33.2994 80.2476 33.2711 80.5095 33.226C79.9767 31.6869 79.7049 30.0696 79.7053 28.4409ZM109.002 23.8633V28.4409C109.002 30.1174 108.716 31.7264 108.198 33.2266C108.46 33.2717 108.727 33.3 109.002 33.3C110.253 33.3 111.453 32.8029 112.338 31.918C113.223 31.0332 113.72 29.833 113.72 28.5816C113.72 27.3303 113.223 26.1301 112.338 25.2453C111.453 24.3604 110.253 23.8633 109.002 23.8633Z" fill="#FFD2C0"/>
<path d="M111.911 24.8633C112.443 25.5438 112.779 26.3575 112.88 27.2157C112.982 28.0738 112.846 28.9434 112.488 29.7295C112.129 30.5157 111.561 31.1882 110.846 31.6738C110.131 32.1593 109.297 32.4392 108.434 32.483C108.363 32.7323 108.284 32.9797 108.199 33.2247C108.461 33.2698 108.729 33.2981 109.003 33.2981C109.986 33.2984 110.943 32.9921 111.743 32.4219C112.543 31.8517 113.145 31.0462 113.465 30.1175C113.785 29.1889 113.807 28.1835 113.529 27.2416C113.25 26.2998 112.685 25.4683 111.911 24.8633Z" fill="#FCC4AE"/>
<path d="M89.0422 3.26061C89.0671 11.0387 84.7167 18.0704 78.0943 21.6739C76.6935 22.4364 74.9736 21.3392 75.1135 19.7505C75.5899 14.3531 77.9885 9.41359 81.7584 5.93444C83.8257 4.01357 86.2923 2.57393 88.9815 1.71875C89.0216 2.23173 89.0418 2.74607 89.0422 3.26061Z" fill="#6D2E03"/>
<path d="M112.405 20.3902C100.126 26.7294 84.688 19.4935 81.7598 5.93362C83.8152 4.0242 86.2653 2.59012 88.9366 1.73297C100.353 -1.97281 111.729 6.71467 113.462 18.3263C113.522 18.7375 113.453 19.1573 113.263 19.5271C113.074 19.897 112.774 20.1987 112.405 20.3902Z" fill="#8C3F0A"/>
<path d="M113.462 18.3263C111.729 6.71467 100.352 -1.97281 88.9366 1.73297C86.2653 2.59012 83.8152 4.0242 81.7598 5.93362C81.8349 6.28281 81.9188 6.62737 82.0107 6.96847C82.9371 6.49333 83.901 6.09502 84.8926 5.77753C96.084 2.14459 107.237 10.4222 109.305 21.6881C110.372 21.3395 111.409 20.9057 112.406 20.3908C112.774 20.1991 113.074 19.8973 113.264 19.5273C113.453 19.1574 113.523 18.7376 113.462 18.3263Z" fill="#7C3108"/>
<path d="M113.462 18.3263C111.729 6.71467 100.352 -1.97281 88.9366 1.73297C86.2653 2.59012 83.8152 4.0242 81.7598 5.93362C81.784 6.0452 81.8089 6.1562 81.8349 6.2672C83.3936 5.18147 85.1059 4.3348 86.9149 3.75525C98.3306 0.0494654 109.707 8.73695 111.441 20.3486C111.466 20.5186 111.468 20.6879 111.451 20.8539C111.773 20.7076 112.091 20.5532 112.406 20.3908C112.774 20.1991 113.074 19.8973 113.264 19.5273C113.453 19.1574 113.523 18.7376 113.462 18.3263Z" fill="#6D2E03"/>
<path d="M88.1225 28.2958C89.1027 28.2958 89.8973 27.5012 89.8973 26.5209C89.8973 25.5407 89.1027 24.7461 88.1225 24.7461C87.1423 24.7461 86.3477 25.5407 86.3477 26.5209C86.3477 27.5012 87.1423 28.2958 88.1225 28.2958Z" fill="#995222"/>
<path d="M101.89 28.2958C102.87 28.2958 103.665 27.5012 103.665 26.5209C103.665 25.5407 102.87 24.7461 101.89 24.7461C100.91 24.7461 100.115 25.5407 100.115 26.5209C100.115 27.5012 100.91 28.2958 101.89 28.2958Z" fill="#995222"/>
<path d="M79.7055 28.4375V25.8672C78.9864 25.8672 78.2968 26.1529 77.7883 26.6613C77.2798 27.1698 76.9941 27.8595 76.9941 28.5786C76.9941 29.2977 77.2798 29.9874 77.7883 30.4958C78.2968 31.0043 78.9864 31.29 79.7055 31.29C79.8009 31.29 79.8911 31.2715 79.9836 31.2617C79.8001 30.3315 79.707 29.3857 79.7055 28.4375ZM109.004 28.4375V25.8672C109.723 25.8672 110.413 26.1529 110.922 26.6613C111.43 27.1698 111.716 27.8595 111.716 28.5786C111.716 29.2977 111.43 29.9874 110.922 30.4958C110.413 31.0043 109.723 31.29 109.004 31.29C108.909 31.29 108.819 31.2715 108.726 31.2617C108.905 30.3471 109.004 29.4042 109.004 28.4375Z" fill="#F2AD97"/>
<path d="M96.7549 33.8672C97.1579 33.8672 97.4631 34.2435 97.37 34.6355C97.1975 35.3596 96.7858 36.0044 96.2016 36.4657C95.6175 36.927 94.8948 37.1779 94.1505 37.1779C93.4061 37.1779 92.6835 36.927 92.0993 36.4657C91.5151 36.0044 91.1035 35.3596 90.9309 34.6355C90.8378 34.2435 91.1431 33.8672 91.546 33.8672H96.7549Z" fill="#E59076"/>
<path d="M104.809 49.425L99.0176 46.8125V49.3244L94.3551 56.5909L89.6925 49.3244V46.8125L83.9043 49.425L94.3551 77.7908L104.809 49.425Z" fill="#D1D3D4"/>
<path d="M83.9043 49.4256L88.2691 61.2656C88.31 61.3763 88.3781 61.475 88.4671 61.5524C88.5561 61.6299 88.6632 61.6838 88.7784 61.7091C88.8937 61.7344 89.0135 61.7302 89.1267 61.6971C89.24 61.664 89.3431 61.6028 89.4265 61.5194L94.3551 56.5909L89.6925 49.3245V46.8125L83.9043 49.4256Z" fill="#F1F2F2"/>
<path d="M104.808 49.4256L100.439 61.2656C100.399 61.3763 100.33 61.475 100.241 61.5524C100.152 61.6299 100.045 61.6838 99.9301 61.7091C99.8149 61.7344 99.6951 61.7302 99.5818 61.6971C99.4686 61.664 99.3655 61.6028 99.282 61.5194L94.3535 56.5909L99.0161 49.3245V46.8125L104.808 49.4256Z" fill="#F1F2F2"/>
<path d="M98.2584 60.4928L95.3504 63.4007C94.8012 63.95 93.9103 63.95 93.3611 63.4007L90.4531 60.4928L94.3561 56.5898L98.2584 60.4928Z" fill="#58595B"/>
<path d="M95.3503 63.4029C94.8011 63.9522 93.9102 63.9522 93.361 63.4029L92.3643 62.4062L91.5 70.0427L94.3559 77.7942L97.2119 70.0427L96.3476 62.4062L95.3503 63.4029Z" fill="#414042"/>
<path d="M94.3547 77.7899L80.5433 62.8298C80.4796 62.7611 80.4302 62.6803 80.3983 62.5923C80.3664 62.5042 80.3524 62.4106 80.3573 62.3171C80.3622 62.2235 80.3859 62.1319 80.4269 62.0477C80.4678 61.9635 80.5253 61.8883 80.5959 61.8267L83.0749 59.6385C83.5363 59.2338 83.2934 58.4736 82.6864 58.4088L79.7704 58.0972C79.6645 58.0857 79.5626 58.0502 79.4724 57.9936C79.3822 57.937 79.306 57.8606 79.2495 57.7703C79.1931 57.68 79.1579 57.578 79.1466 57.4721C79.1352 57.3662 79.1481 57.2591 79.1841 57.1589L81.9909 49.4219H83.9039L94.3547 77.7899Z" fill="#E8566F"/>
<path d="M108.938 58.1L106.022 58.4116C105.415 58.4763 105.173 59.2366 105.633 59.6412L108.112 61.8295C108.183 61.8911 108.24 61.9662 108.281 62.0504C108.322 62.1347 108.346 62.2263 108.351 62.3198C108.356 62.4134 108.342 62.507 108.31 62.595C108.278 62.6831 108.229 62.7639 108.165 62.8325L94.3535 77.7926L104.808 49.4258H106.729L109.524 57.1628C109.56 57.263 109.573 57.37 109.561 57.4758C109.55 57.5816 109.515 57.6834 109.458 57.7736C109.402 57.8638 109.326 57.9401 109.236 57.9966C109.145 58.0531 109.044 58.0885 108.938 58.1Z" fill="#E8566F"/>
<path d="M4.27344 73.76C3.6375 73.76 3.11719 73.2397 3.11719 72.6038V65.6027C3.11719 63.666 3.51031 61.7871 4.29078 60.0238C5.03539 58.3262 6.1149 56.7964 7.46469 55.526C7.91562 55.1039 8.67875 55.1271 9.10078 55.5722C9.3102 55.7956 9.42247 56.0929 9.41297 56.3989C9.40719 56.7111 9.28 56.9944 9.05453 57.2083C6.71891 59.4167 5.42969 62.3999 5.42969 65.6027V72.6038C5.42969 73.2397 4.90938 73.76 4.27344 73.76ZM12.1128 55.0172C11.6445 55.0172 11.2283 54.7397 11.0491 54.3061C10.9895 54.1664 10.9583 54.0163 10.9573 53.8644C10.9563 53.7126 10.9855 53.562 11.0433 53.4216C11.1647 53.1383 11.3844 52.9128 11.6677 52.7972C12.2516 52.5544 12.9453 52.8435 13.1823 53.4216C13.298 53.7049 13.3038 54.0171 13.1823 54.3003C13.0667 54.5894 12.847 54.8091 12.558 54.9305C12.4192 54.9883 12.2689 55.0172 12.1128 55.0172Z" fill="#5E9CF7"/>
</svg>
