<svg width="28" height="28" viewBox="0 0 28 28" fill="none" xmlns="http://www.w3.org/2000/svg">
<path d="M25.0229 14.8336C25.0135 14.8051 24.9966 14.7797 24.9738 14.7602C24.951 14.7406 24.9234 14.7276 24.8938 14.7226C24.8642 14.7176 24.8338 14.7207 24.8059 14.7317C24.778 14.7427 24.7536 14.761 24.7353 14.7848C24.5855 14.9673 24.3908 15.109 24.18 15.1942L23.8805 17.8606L24.3382 19.2139C24.3501 19.2556 24.3717 19.2939 24.4013 19.3256C24.4309 19.3573 24.4676 19.3816 24.5083 19.3964C24.8221 19.5197 25.1692 19.5284 25.4887 19.4209C25.8082 19.3134 26.0796 19.0967 26.2549 18.8088C26.3037 18.7358 26.3075 18.6467 26.2791 18.5615L25.0229 14.8336ZM4.24609 12.9733C4.22236 12.9243 4.19528 12.877 4.16506 12.8316L3.5287 13.0141C3.25953 13.0936 2.97085 13.075 2.71415 12.9615C2.617 13.1558 2.5033 13.3462 2.39385 13.5329C2.1427 13.9584 1.89536 14.3882 1.74561 14.854C1.41258 15.8705 1.55088 16.8768 2.63694 17.1844C2.82318 17.237 3.17573 17.3464 3.39464 17.2735L4.24609 12.9733ZM5.14167 20.1057L5.39282 26.4074C5.40436 26.721 5.53708 27.0178 5.76307 27.2355C5.98906 27.4532 6.29068 27.5747 6.60446 27.5745C6.64688 27.5541 7.87082 27.5104 7.82033 26.3102L7.59336 20.5881C6.75758 20.5428 5.93229 20.3804 5.14167 20.1057ZM8.37949 26.3102C8.33876 27.4375 9.55252 27.5541 9.59536 27.5745C9.9094 27.5742 10.2112 27.4527 10.4378 27.2352C10.6643 27.0177 10.7981 26.7212 10.8112 26.4074L11.0624 20.1057C10.27 20.3799 9.44356 20.5435 8.60646 20.5919L8.37949 26.3102ZM5.61173 12.4222L4.71615 12.6776L4.47688 13.8935C4.92726 13.4632 5.30988 12.9671 5.61173 12.4222Z" fill="white"/>
<path d="M8.07943 16.9692L8.87362 12.5478L11.5442 13.0259L11.5565 13.0301L11.5523 13.0059L11.1955 11.1902V9.56915L12.4385 11.7667L10.9728 15.7571C10.9361 15.8571 10.9194 15.9632 10.9238 16.0696C10.9281 16.1759 10.9534 16.2804 10.9981 16.377C11.0884 16.5721 11.2525 16.7233 11.4543 16.7974C11.6561 16.8715 11.879 16.8624 12.0741 16.7721C12.2692 16.6818 12.4204 16.5177 12.4945 16.3159L14.0897 11.9733C14.1302 11.863 14.1463 11.7452 14.1367 11.628C14.1271 11.5109 14.0921 11.3972 14.0341 11.295L11.4267 6.6843C11.0907 6.09078 8.77349 5.19012 6.63277 5.75521C6.81519 6.53327 7.0744 8.08557 6.85974 9.77915C7.04154 9.8432 7.20511 9.95038 7.33641 10.0915C7.46771 10.2326 7.56283 10.4035 7.61362 10.5894C7.6576 10.7427 7.67088 10.9032 7.6527 11.0616C7.63451 11.22 7.58521 11.3732 7.50763 11.5125C7.43006 11.6518 7.32573 11.7745 7.20064 11.8733C7.07555 11.9722 6.93216 12.0454 6.77871 12.0887L6.14658 12.2669C5.72422 13.1507 5.10946 13.9288 4.34737 14.5442L3.48828 18.8927C6.4181 20.6351 9.78574 20.6351 12.7117 18.8927L12.489 17.7621L8.07943 16.9692Z" fill="white"/>
<path d="M8.1015 5.09595C9.39157 5.09595 10.4374 4.05014 10.4374 2.76007C10.4374 1.47 9.39157 0.424194 8.1015 0.424194C6.81143 0.424194 5.76562 1.47 5.76562 2.76007C5.76562 4.05014 6.81143 5.09595 8.1015 5.09595Z" fill="white"/>
<path d="M23.3772 16.0329C23.25 16.1296 23.1049 16.2001 22.9503 16.2404C22.7956 16.2808 22.6346 16.2901 22.4763 16.2678C22.3181 16.2456 22.1658 16.1922 22.0283 16.1108C21.8908 16.0294 21.7708 15.9216 21.6752 15.7936C21.5071 15.5714 21.421 15.298 21.4314 15.0196C21.4417 14.7412 21.5479 14.475 21.732 14.2659C19.2154 11.348 18.5425 7.36051 18.3847 6.0636C17.9795 6.25501 17.5881 6.47445 17.2134 6.72033C16.566 7.20396 17.0959 9.60942 15.0824 15.7855C15.0202 15.9887 15.0402 16.2082 15.1382 16.3967C15.2361 16.5853 15.4042 16.7278 15.6062 16.7937C15.8082 16.8596 16.028 16.8436 16.2183 16.749C16.4086 16.6545 16.5542 16.489 16.6237 16.2883C16.9304 15.3437 17.2042 14.3887 17.4446 13.4251L17.6308 17.8083C17.6351 17.942 17.7441 18.0476 17.8739 18.0514L17.935 18.0535L16.843 22.0032C16.8197 22.0867 16.8057 22.1725 16.801 22.2591L16.5749 26.2923C16.5569 26.6142 16.6675 26.9301 16.8824 27.1705C17.0973 27.4108 17.3989 27.556 17.7208 27.574C18.0427 27.592 18.3586 27.4814 18.5989 27.2665C18.8393 27.0516 18.9844 26.75 19.0024 26.4281L19.2213 22.5251L20.3782 18.3407C20.3954 18.2744 20.407 18.2067 20.413 18.1384L20.7473 18.1498V26.3602C20.7473 26.6827 20.8754 26.9919 21.1035 27.22C21.3315 27.448 21.6407 27.5761 21.9632 27.5761C22.2857 27.5761 22.5949 27.448 22.823 27.22C23.051 26.9919 23.1791 26.6827 23.1791 26.3602V18.233L23.1952 18.2334C23.2591 18.2364 23.3218 18.2152 23.3707 18.1738C23.4196 18.1325 23.451 18.0742 23.4587 18.0107L23.6814 15.9968C23.6359 15.9671 23.5913 15.936 23.5478 15.9035L23.3772 16.0329Z" fill="white"/>
<path d="M18.7734 5.89772C18.899 6.99991 19.5027 11.0726 22.0397 13.9986L24.0782 12.4629L24.236 11.0472L24.6687 12.524L22.1585 14.4152C21.9868 14.5446 21.8736 14.7368 21.8437 14.9496C21.8138 15.1625 21.8696 15.3784 21.999 15.5501C22.1283 15.7217 22.3205 15.835 22.5333 15.8649C22.7462 15.8948 22.9622 15.8389 23.1338 15.7096L26.0916 13.4811C26.361 13.2783 26.4764 12.9295 26.3818 12.6058L24.8193 7.27185C24.6581 6.72033 22.111 4.56645 18.7734 5.89772Z" fill="white"/>
<path d="M23.4443 2.88416C23.4899 1.57989 22.4695 0.485644 21.1652 0.440098C19.8609 0.394552 18.7667 1.41495 18.7211 2.71922C18.6756 4.02349 19.696 5.11773 21.0003 5.16328C22.3045 5.20883 23.3988 4.18843 23.4443 2.88416Z" fill="white"/>
<path d="M11.4027 13.4149L9.20212 13.0178L8.54963 16.6409L11.1676 17.1109C10.9078 16.9738 10.7064 16.7472 10.6007 16.4731C10.4949 16.199 10.492 15.8958 10.5924 15.6197L11.4027 13.4149ZM12.8739 16.4542C12.714 16.9069 12.2965 17.1911 11.8931 17.2403L14.0894 17.6374L14.7419 14.0144L13.8302 13.8523L12.8739 16.4542ZM3.41715 12.625L6.66769 11.701C6.77006 11.6719 6.8657 11.6229 6.94914 11.5568C7.03258 11.4908 7.10219 11.4089 7.15399 11.3159C7.20579 11.223 7.23878 11.1207 7.25106 11.015C7.26334 10.9093 7.25468 10.8022 7.22557 10.6998C7.19646 10.5974 7.14747 10.5018 7.0814 10.4183C7.01533 10.3349 6.93348 10.2653 6.84051 10.2135C6.74754 10.1617 6.64527 10.1287 6.53955 10.1164C6.43383 10.1041 6.32673 10.1128 6.22436 10.1419L4.69751 10.5759L5.01188 9.91536V10.0643L6.11406 9.75202C6.23157 9.71978 6.34909 9.70324 6.46236 9.70748C6.66515 8.10257 6.41781 6.62366 6.24769 5.87402C5.67624 6.05899 4.92788 6.3199 4.72339 6.75051L2.46388 11.4965C2.39666 11.6373 2.37149 11.7944 2.39139 11.9491C2.41129 12.1038 2.47541 12.2495 2.57606 12.3686C2.67671 12.4878 2.80961 12.5753 2.95881 12.6208C3.108 12.6663 3.26715 12.6677 3.41715 12.625Z" fill="white"/>
</svg>
