<svg width="28" height="28" viewBox="0 0 28 28" fill="none" xmlns="http://www.w3.org/2000/svg">
<path d="M25.0229 14.8338C25.0135 14.8053 24.9966 14.7799 24.9738 14.7603C24.951 14.7408 24.9234 14.7278 24.8938 14.7227C24.8642 14.7177 24.8338 14.7209 24.8059 14.7318C24.778 14.7428 24.7536 14.7612 24.7353 14.785C24.5855 14.9674 24.3908 15.1091 24.18 15.1944L23.8805 17.8607L24.3382 19.2141C24.3501 19.2558 24.3717 19.294 24.4013 19.3257C24.4309 19.3575 24.4676 19.3817 24.5083 19.3965C24.8221 19.5198 25.1692 19.5285 25.4887 19.421C25.8082 19.3135 26.0796 19.0968 26.2549 18.8089C26.3037 18.7359 26.3075 18.6468 26.2791 18.5616L25.0229 14.8338ZM4.24609 12.9735C4.22236 12.9244 4.19528 12.8771 4.16506 12.8318L3.5287 13.0142C3.25953 13.0937 2.97085 13.0751 2.71415 12.9616C2.617 13.1559 2.5033 13.3464 2.39385 13.533C2.1427 13.9585 1.89536 14.3883 1.74561 14.8541C1.41258 15.8706 1.55088 16.8769 2.63694 17.1845C2.82318 17.2371 3.17573 17.3465 3.39464 17.2736L4.24609 12.9735ZM5.14167 20.1058L5.39282 26.4075C5.40436 26.7211 5.53708 27.0179 5.76307 27.2356C5.98906 27.4533 6.29068 27.5748 6.60446 27.5746C6.64688 27.5542 7.87082 27.5105 7.82033 26.3104L7.59336 20.5882C6.75758 20.5429 5.93229 20.3806 5.14167 20.1058ZM8.37949 26.3104C8.33876 27.4376 9.55252 27.5542 9.59536 27.5746C9.9094 27.5743 10.2112 27.4528 10.4378 27.2353C10.6643 27.0178 10.7981 26.7213 10.8112 26.4075L11.0624 20.1058C10.27 20.38 9.44356 20.5436 8.60646 20.592L8.37949 26.3104ZM5.61173 12.4224L4.71615 12.6778L4.47688 13.8936C4.92726 13.4633 5.30988 12.9673 5.61173 12.4224Z" fill="black"/>
<path d="M8.07943 16.9697L8.87362 12.5482L11.5442 13.0264L11.5565 13.0306L11.5523 13.0064L11.1955 11.1907V9.56963L12.4385 11.7672L10.9728 15.7576C10.9361 15.8576 10.9194 15.9637 10.9238 16.0701C10.9281 16.1764 10.9534 16.2809 10.9981 16.3775C11.0884 16.5726 11.2525 16.7238 11.4543 16.7979C11.6561 16.872 11.879 16.8629 12.0741 16.7726C12.2692 16.6823 12.4204 16.5182 12.4945 16.3164L14.0897 11.9738C14.1302 11.8635 14.1463 11.7457 14.1367 11.6285C14.1271 11.5114 14.0921 11.3977 14.0341 11.2955L11.4267 6.68479C11.0907 6.09127 8.77349 5.1906 6.63277 5.75569C6.81519 6.53376 7.0744 8.08606 6.85974 9.77963C7.04154 9.84369 7.20511 9.95087 7.33641 10.092C7.46771 10.2331 7.56283 10.404 7.61362 10.5899C7.6576 10.7432 7.67088 10.9036 7.6527 11.0621C7.63451 11.2205 7.58521 11.3737 7.50763 11.513C7.43006 11.6523 7.32573 11.7749 7.20064 11.8738C7.07555 11.9727 6.93216 12.0459 6.77871 12.0892L6.14658 12.2674C5.72422 13.1512 5.10946 13.9293 4.34737 14.5447L3.48828 18.8932C6.4181 20.6356 9.78574 20.6356 12.7117 18.8932L12.489 17.7626L8.07943 16.9697Z" fill="black"/>
<path d="M8.1015 5.09607C9.39157 5.09607 10.4374 4.05027 10.4374 2.7602C10.4374 1.47013 9.39157 0.424316 8.1015 0.424316C6.81143 0.424316 5.76562 1.47013 5.76562 2.7602C5.76562 4.05027 6.81143 5.09607 8.1015 5.09607Z" fill="black"/>
<path d="M23.3772 16.0332C23.25 16.1299 23.1049 16.2005 22.9503 16.2408C22.7956 16.2811 22.6346 16.2904 22.4763 16.2682C22.3181 16.2459 22.1658 16.1926 22.0283 16.1112C21.8908 16.0298 21.7708 15.922 21.6752 15.794C21.5071 15.5718 21.421 15.2984 21.4314 15.02C21.4417 14.7416 21.5479 14.4754 21.732 14.2663C19.2154 11.3483 18.5425 7.36087 18.3847 6.06396C17.9795 6.25538 17.5881 6.47482 17.2134 6.72069C16.566 7.20433 17.0959 9.60978 15.0824 15.7859C15.0202 15.9891 15.0402 16.2085 15.1382 16.3971C15.2361 16.5857 15.4042 16.7282 15.6062 16.7941C15.8082 16.86 16.028 16.8439 16.2183 16.7494C16.4086 16.6549 16.5542 16.4894 16.6237 16.2886C16.9304 15.344 17.2042 14.389 17.4446 13.4254L17.6308 17.8087C17.6351 17.9423 17.7441 18.048 17.8739 18.0518L17.935 18.0539L16.843 22.0036C16.8197 22.0871 16.8057 22.1729 16.801 22.2594L16.5749 26.2927C16.5569 26.6146 16.6675 26.9305 16.8824 27.1708C17.0973 27.4112 17.3989 27.5563 17.7208 27.5743C18.0427 27.5923 18.3586 27.4817 18.5989 27.2668C18.8393 27.0519 18.9844 26.7504 19.0024 26.4284L19.2213 22.5254L20.3782 18.3411C20.3954 18.2747 20.407 18.2071 20.413 18.1388L20.7473 18.1502V26.3606C20.7473 26.683 20.8754 26.9923 21.1035 27.2203C21.3315 27.4483 21.6407 27.5765 21.9632 27.5765C22.2857 27.5765 22.5949 27.4483 22.823 27.2203C23.051 26.9923 23.1791 26.683 23.1791 26.3606V18.2334L23.1952 18.2338C23.2591 18.2368 23.3218 18.2155 23.3707 18.1742C23.4196 18.1329 23.451 18.0746 23.4587 18.0111L23.6814 15.9972C23.6359 15.9675 23.5913 15.9364 23.5478 15.9038L23.3772 16.0332Z" fill="black"/>
<path d="M18.7734 5.89809C18.899 7.00027 19.5027 11.073 22.0397 13.999L24.0782 12.4632L24.236 11.0475L24.6687 12.5243L22.1585 14.4156C21.9868 14.5449 21.8736 14.7372 21.8437 14.95C21.8138 15.1628 21.8696 15.3788 21.999 15.5505C22.1283 15.7221 22.3205 15.8353 22.5333 15.8652C22.7462 15.8952 22.9622 15.8393 23.1338 15.71L26.0916 13.4814C26.361 13.2786 26.4764 12.9299 26.3818 12.6062L24.8193 7.27221C24.6581 6.7207 22.111 4.56682 18.7734 5.89809Z" fill="black"/>
<path d="M23.4443 2.8844C23.4899 1.58013 22.4695 0.485888 21.1652 0.440342C19.8609 0.394796 18.7667 1.41519 18.7211 2.71946C18.6756 4.02373 19.696 5.11798 21.0003 5.16352C22.3045 5.20907 23.3988 4.18867 23.4443 2.8844Z" fill="black"/>
<path d="M11.4027 13.4149L9.20212 13.0178L8.54963 16.6409L11.1676 17.1109C10.9078 16.9738 10.7064 16.7472 10.6007 16.4731C10.4949 16.199 10.492 15.8958 10.5924 15.6197L11.4027 13.4149ZM12.8739 16.4542C12.714 16.9069 12.2965 17.1911 11.8931 17.2403L14.0894 17.6374L14.7419 14.0144L13.8302 13.8523L12.8739 16.4542ZM3.41715 12.625L6.66769 11.701C6.77006 11.6719 6.8657 11.6229 6.94914 11.5568C7.03258 11.4908 7.10219 11.4089 7.15399 11.3159C7.20579 11.223 7.23878 11.1207 7.25106 11.015C7.26334 10.9093 7.25468 10.8022 7.22557 10.6998C7.19646 10.5974 7.14747 10.5018 7.0814 10.4183C7.01533 10.3349 6.93348 10.2653 6.84051 10.2135C6.74754 10.1617 6.64527 10.1287 6.53955 10.1164C6.43383 10.1041 6.32673 10.1128 6.22436 10.1419L4.69751 10.5759L5.01188 9.91536V10.0643L6.11406 9.75202C6.23157 9.71978 6.34909 9.70324 6.46236 9.70748C6.66515 8.10257 6.41781 6.62366 6.24769 5.87402C5.67624 6.05899 4.92788 6.3199 4.72339 6.75051L2.46388 11.4965C2.39666 11.6373 2.37149 11.7944 2.39139 11.9491C2.41129 12.1038 2.47541 12.2495 2.57606 12.3686C2.67671 12.4878 2.80961 12.5753 2.95881 12.6208C3.108 12.6663 3.26715 12.6677 3.41715 12.625Z" fill="black"/>
</svg>
