<svg width="100" height="100" viewBox="0 0 100 100" fill="none" xmlns="http://www.w3.org/2000/svg">
<path d="M91.9796 38.6894L84.1992 35.9106L87.6192 28.6005C89.8519 23.901 88.8177 18.2994 85.0542 14.7071C81.4242 11.16 75.9805 10.2244 71.3744 12.3559L64.1499 15.7757L61.3284 7.9953C60.7279 6.31769 59.7629 4.79408 58.5029 3.53411C57.2429 2.27415 55.7193 1.30917 54.0417 0.708619C47.7734 -1.53532 40.8727 1.72699 38.6285 7.9953L35.8927 15.7757L28.6252 12.3559C26.9141 11.4715 25.016 11.0099 23.0898 11.0099C21.1637 11.0099 19.2655 11.4715 17.5544 12.3559C11.6398 15.413 9.32333 22.6861 12.3804 28.6007L15.8004 35.9108L8.02001 38.6467C6.32761 39.2436 4.79047 40.2122 3.52153 41.4811C2.25259 42.7501 1.28411 44.2873 0.687244 45.9797C-1.51942 52.2362 1.76352 59.0972 8.02021 61.3039L15.8006 64.0827L12.3806 71.3501C11.4583 73.0858 10.976 75.0213 10.976 76.9869C10.976 78.9524 11.4583 80.888 12.3806 82.6237C15.4939 88.4822 22.7667 90.7079 28.6254 87.5947L35.8929 84.1747L38.6287 91.8269C40.3467 96.6285 44.9003 99.8297 50.0001 99.8209C55.0709 99.8618 59.6211 96.7143 61.3715 91.9551L64.1503 84.1747L71.3748 87.5947C73.1105 88.517 75.0461 88.9993 77.0116 88.9993C78.9771 88.9993 80.9127 88.517 82.6484 87.5947C88.5069 84.4815 90.7326 77.2086 87.6194 71.3499L84.1994 64.0825L91.9798 61.3466C93.6722 60.7496 95.2094 59.7811 96.4784 58.5121C97.7473 57.2432 98.7159 55.706 99.3128 54.0136C101.519 47.7569 98.2363 40.8961 91.9796 38.6894Z" fill="#AB93FF"/>
</svg>
