<svg width="28" height="28" viewBox="0 0 28 28" fill="none" xmlns="http://www.w3.org/2000/svg">
<path d="M23.52 10.7363C17.3748 8.47461 10.6252 8.47461 4.48 10.7363C4.12033 11.7869 3.93702 12.8897 3.9375 14.0001C3.93757 14.5082 3.9756 15.0157 4.05125 15.5182C5.04668 15.4869 6.03754 15.6656 6.9594 16.0424C7.88125 16.4193 8.71345 16.986 9.40188 17.7057C11.0294 19.3463 11.9306 21.5688 11.515 23.7388C13.1432 24.1501 14.8481 24.1501 16.4763 23.7388C16.0388 21.5513 16.9619 19.3638 18.5894 17.7057C19.2778 16.986 20.11 16.4193 21.0319 16.0424C21.9537 15.6656 22.9446 15.4869 23.94 15.5182C24.0186 15.0159 24.0595 14.5085 24.0625 14.0001C24.063 12.8897 23.8797 11.7869 23.52 10.7363Z" fill="black"/>
<path d="M14 1.3125C11.4907 1.3125 9.03766 2.05661 6.95121 3.45073C4.86476 4.84485 3.23857 6.82637 2.27828 9.1447C1.318 11.463 1.06674 14.0141 1.55629 16.4752C2.04584 18.9363 3.25421 21.197 5.02859 22.9714C6.80297 24.7458 9.06366 25.9542 11.5248 26.4437C13.9859 26.9333 16.537 26.682 18.8553 25.7217C21.1736 24.7614 23.1552 23.1352 24.5493 21.0488C25.9434 18.9623 26.6875 16.5094 26.6875 14C26.6875 10.6351 25.3508 7.40795 22.9714 5.02858C20.5921 2.64921 17.3649 1.3125 14 1.3125ZM14 24.0625C12.0098 24.0625 10.0643 23.4723 8.40958 22.3667C6.75481 21.261 5.46507 19.6894 4.70347 17.8508C3.94186 16.0121 3.74259 13.9888 4.13085 12.0369C4.51912 10.085 5.47748 8.292 6.88474 6.88474C8.29201 5.47747 10.085 4.51911 12.0369 4.13085C13.9888 3.74258 16.0121 3.94186 17.8508 4.70346C19.6894 5.46507 21.261 6.7548 22.3667 8.40957C23.4724 10.0643 24.0625 12.0098 24.0625 14C24.0625 16.6687 23.0024 19.2282 21.1153 21.1153C19.2282 23.0023 16.6687 24.0625 14 24.0625Z" fill="black"/>
<path d="M16.3795 22.6844C16.3782 23.0427 16.4119 23.4002 16.4801 23.7519C14.8522 24.166 13.1467 24.166 11.5188 23.7519C11.6926 22.8195 11.6385 21.8589 11.3613 20.9519C13.061 21.5967 14.9379 21.5967 16.6376 20.9519C16.467 21.5136 16.38 22.0974 16.3795 22.6844Z" fill="black"/>
<path d="M22.9727 22.9731C20.5935 25.3509 17.3675 26.6866 14.0039 26.6866C10.6403 26.6866 7.41431 25.3509 5.03516 22.9731L6.89453 21.1138C8.78149 22.9999 11.3403 24.0595 14.0083 24.0595C16.6763 24.0595 19.2351 22.9999 21.122 21.1138L22.9727 22.9731Z" fill="black"/>
<path d="M24.0625 13.9999C24.0624 14.5081 24.0244 15.0156 23.9488 15.5181C22.9985 15.4641 22.0485 15.6272 21.1706 15.9949C21.4609 14.9341 21.5149 13.8226 21.329 12.7386C21.143 11.6546 20.7216 10.6246 20.0944 9.72119C21.2582 9.98607 22.4038 10.3251 23.5244 10.7362C23.8826 11.787 24.0644 12.8898 24.0625 13.9999ZM6.83375 15.9949C5.95591 15.6272 5.00586 15.4641 4.05563 15.5181C3.97851 15.0157 3.93902 14.5082 3.9375 13.9999C3.93702 12.8895 4.12033 11.7867 4.48 10.7362C5.60053 10.3251 6.7462 9.98607 7.91 9.72119C7.28279 10.6246 6.86135 11.6546 6.6754 12.7386C6.48945 13.8226 6.5435 14.9341 6.83375 15.9949Z" fill="black"/>
<path d="M22.9736 5.02689L21.1142 6.88627C19.2273 5.00011 16.6685 3.94054 14.0005 3.94054C11.3325 3.94054 8.77368 5.00011 6.88672 6.88627L5.02734 5.02689C7.40649 2.64916 10.6325 1.31348 13.9961 1.31348C17.3597 1.31348 20.5857 2.64916 22.9648 5.02689H22.9736Z" fill="black"/>
<path d="M14 15.3125C14.9665 15.3125 15.75 14.529 15.75 13.5625C15.75 12.596 14.9665 11.8125 14 11.8125C13.0335 11.8125 12.25 12.596 12.25 13.5625C12.25 14.529 13.0335 15.3125 14 15.3125Z" fill="black"/>
<path d="M18.8125 14C19.2957 14 19.6875 13.6082 19.6875 13.125C19.6875 12.6418 19.2957 12.25 18.8125 12.25C18.3293 12.25 17.9375 12.6418 17.9375 13.125C17.9375 13.6082 18.3293 14 18.8125 14Z" fill="black"/>
<path d="M9.1875 14C9.67075 14 10.0625 13.6082 10.0625 13.125C10.0625 12.6418 9.67075 12.25 9.1875 12.25C8.70425 12.25 8.3125 12.6418 8.3125 13.125C8.3125 13.6082 8.70425 14 9.1875 14Z" fill="black"/>
<path d="M14 18.8125C14.4832 18.8125 14.875 18.4207 14.875 17.9375C14.875 17.4543 14.4832 17.0625 14 17.0625C13.5168 17.0625 13.125 17.4543 13.125 17.9375C13.125 18.4207 13.5168 18.8125 14 18.8125Z" fill="black"/>
</svg>
