<svg width="24" height="24" viewBox="0 0 24 24" fill="none" xmlns="http://www.w3.org/2000/svg">
<path d="M22.1883 0H14.3907C14.0024 0 13.6875 0.314812 13.6875 0.703125V3.93553C13.6876 4.07129 13.7269 4.20414 13.8007 4.31804C13.8746 4.43195 13.9798 4.52203 14.1038 4.57743C14.2277 4.63282 14.3651 4.65114 14.4992 4.63019C14.6333 4.60924 14.7585 4.54991 14.8597 4.45936C15.0455 4.29243 15.2893 4.20493 15.5389 4.21561C16.0358 4.23525 16.4397 4.63987 16.4585 5.13675C16.4685 5.40089 16.3734 5.65073 16.1909 5.8403C16.0082 6.03005 15.7626 6.13453 15.4992 6.13453C15.2632 6.13465 15.0354 6.04756 14.8596 5.88998C14.7585 5.79943 14.6333 5.7401 14.4991 5.71915C14.365 5.6982 14.2277 5.71653 14.1037 5.77193C13.9798 5.82732 13.8745 5.91742 13.8007 6.03133C13.7268 6.14524 13.6875 6.2781 13.6875 6.41386V9.60938C13.6875 9.99769 14.0023 10.3125 14.3906 10.3125H16.4937C16.4652 10.4778 16.4543 10.6457 16.461 10.8133C16.5095 12.0393 17.508 13.0361 18.7342 13.0824C18.7652 13.0836 18.796 13.0842 18.8268 13.0842C19.442 13.0842 20.0212 12.8512 20.4663 12.4226C20.934 11.9724 21.1914 11.367 21.1914 10.7181C21.1914 10.5812 21.1796 10.4456 21.1565 10.3125H23.2969C23.6852 10.3125 24 9.99774 24 9.60942V1.81177C24 0.812766 23.1873 0 22.1883 0ZM22.5938 8.90625H20.0645C19.9287 8.90621 19.7958 8.94549 19.6819 9.01935C19.568 9.0932 19.4778 9.19847 19.4225 9.32244C19.3671 9.44641 19.3487 9.58377 19.3697 9.71792C19.3907 9.85207 19.4501 9.97727 19.5407 10.0784C19.6983 10.2542 19.7853 10.482 19.7852 10.7181C19.7852 10.9813 19.6808 11.2269 19.491 11.4097C19.3015 11.5922 19.0525 11.6868 18.7875 11.6772C18.2905 11.6585 17.886 11.2545 17.8663 10.7577C17.8564 10.5063 17.943 10.2651 18.11 10.0784C18.2005 9.97724 18.2599 9.85204 18.2808 9.7179C18.3017 9.58377 18.2834 9.44645 18.228 9.32251C18.1726 9.19857 18.0825 9.09332 17.9686 9.01945C17.8547 8.94559 17.7218 8.90627 17.5861 8.90625H15.0938V7.50595C15.2268 7.52902 15.3623 7.54083 15.4991 7.54083H15.4994C16.1483 7.54083 16.7537 7.28334 17.2039 6.81572C17.654 6.34833 17.8883 5.73319 17.8637 5.08369C17.8174 3.85748 16.8206 2.85895 15.5945 2.81048C15.4269 2.8037 15.2591 2.81467 15.0938 2.8432V1.40625H22.1883C22.4119 1.40625 22.5938 1.58817 22.5938 1.81177V8.90625Z" fill="#575757"/>
<path d="M18.5156 13.6875H15.2832C15.1474 13.6875 15.0145 13.7267 14.9006 13.8006C14.7867 13.8745 14.6966 13.9797 14.6412 14.1037C14.5858 14.2277 14.5674 14.365 14.5884 14.4992C14.6094 14.6333 14.6688 14.7585 14.7594 14.8597C14.917 15.0354 15.004 15.2632 15.0039 15.4993C15.0039 15.7626 14.8995 16.0082 14.7097 16.1909C14.5201 16.3734 14.2715 16.4678 14.0062 16.4585C13.5092 16.4397 13.1047 16.0358 13.085 15.5389C13.0751 15.2876 13.1617 15.0463 13.3287 14.8597C13.4192 14.7585 13.4786 14.6333 13.4995 14.4992C13.5204 14.365 13.5021 14.2277 13.4467 14.1038C13.3913 13.9798 13.3012 13.8746 13.1873 13.8007C13.0734 13.7268 12.9406 13.6875 12.8048 13.6875H10.3125V12.2875C10.4761 12.3158 10.6438 12.327 10.8132 12.3202C12.0393 12.2717 13.0361 11.2732 13.0824 10.047C13.107 9.3975 12.8727 8.78236 12.4226 8.31497C11.9724 7.84734 11.367 7.58986 10.7181 7.58986C10.5812 7.58986 10.4456 7.60167 10.3125 7.62478V5.48438C10.3125 5.09606 9.99774 4.78125 9.60942 4.78125H1.81177C0.812766 4.78125 0 5.59402 0 6.59302V22.1882C0 23.1872 0.812766 24 1.81177 24H17.4069C18.406 24 19.2188 23.1872 19.2188 22.1882V14.3906C19.2188 14.0023 18.9039 13.6875 18.5156 13.6875ZM1.40625 6.59302C1.40625 6.36937 1.58817 6.1875 1.81177 6.1875H8.90625V8.71678C8.90625 8.99414 9.06928 9.24553 9.3225 9.35869C9.44644 9.41411 9.58378 9.43245 9.71792 9.4115C9.85207 9.39054 9.97727 9.33119 10.0784 9.24061C10.2542 9.08304 10.482 8.99596 10.7181 8.99606C10.9813 8.99606 11.2269 9.10055 11.4097 9.2903C11.5922 9.47986 11.6872 9.7297 11.6772 9.99384C11.6585 10.4907 11.2545 10.8953 10.7577 10.915C10.5064 10.9249 10.2651 10.8383 10.0784 10.6713C9.97725 10.5808 9.85206 10.5214 9.71794 10.5005C9.58381 10.4796 9.4465 10.4979 9.32256 10.5533C9.19863 10.6087 9.09338 10.6987 9.01951 10.8126C8.94564 10.9265 8.90633 11.0594 8.9063 11.1951V13.6875H7.506C7.52906 13.5545 7.54087 13.4189 7.54087 13.282C7.54087 12.633 7.28339 12.0276 6.81577 11.5774C6.34837 11.1273 5.73286 10.8922 5.08373 10.9176C3.85753 10.9639 2.859 11.9607 2.81053 13.1868C2.80384 13.3544 2.81479 13.5222 2.8432 13.6875H1.40625V6.59302ZM1.40625 22.1882V15.0938H3.93553C4.07131 15.0938 4.20419 15.0545 4.31813 14.9806C4.43206 14.9068 4.52216 14.8015 4.57756 14.6775C4.63295 14.5536 4.65126 14.4162 4.63028 14.2821C4.6093 14.1479 4.54992 14.0227 4.45931 13.9216C4.29225 13.735 4.20567 13.4937 4.21561 13.2424C4.23525 12.7455 4.63987 12.3416 5.13675 12.3228C5.40028 12.3138 5.65069 12.4078 5.8403 12.5904C6.03005 12.7731 6.13453 13.0187 6.13453 13.282C6.13464 13.5181 6.04755 13.7459 5.88998 13.9216C5.70506 14.1283 5.6588 14.4244 5.77195 14.6775C5.88511 14.9307 6.13664 15.0938 6.41395 15.0938H8.90625V16.4937C8.74096 16.4653 8.57312 16.4543 8.40553 16.461C7.17942 16.5095 6.18263 17.508 6.13631 18.7343C6.11175 19.3837 6.34608 19.9989 6.79612 20.4663C7.24636 20.9339 7.85175 21.1914 8.50069 21.1914C8.63756 21.1914 8.77317 21.1796 8.9062 21.1565V22.5938H1.81177C1.58817 22.5938 1.40625 22.4118 1.40625 22.1882ZM17.8125 22.1882C17.8125 22.4119 17.6306 22.5938 17.407 22.5938H10.3125V20.0645C10.3125 19.9287 10.2733 19.7958 10.1994 19.6819C10.1255 19.5679 10.0203 19.4778 9.89631 19.4224C9.77234 19.367 9.63498 19.3487 9.50083 19.3697C9.36668 19.3907 9.24148 19.45 9.14034 19.5406C8.96455 19.6982 8.73676 19.7853 8.50069 19.7852C8.23744 19.7852 7.99181 19.6807 7.80909 19.491C7.62656 19.3014 7.53155 19.0515 7.54153 18.7874C7.56028 18.2905 7.96425 17.8859 8.46108 17.8663C8.71062 17.8558 8.95437 17.9433 9.14034 18.11C9.24149 18.2005 9.36669 18.2598 9.50082 18.2808C9.63495 18.3018 9.77227 18.2834 9.89622 18.228C10.0202 18.1726 10.1254 18.0826 10.1993 17.9687C10.2731 17.8547 10.3124 17.7219 10.3125 17.5861V15.0938H11.7124C11.684 15.259 11.673 15.4269 11.6798 15.5945C11.7282 16.8206 12.7267 17.8174 13.953 17.8637C14.6022 17.8889 15.2176 17.6539 15.685 17.2039C16.1526 16.7536 16.4101 16.1483 16.4101 15.4993C16.4101 15.3624 16.3983 15.2268 16.3752 15.0938H17.8125V22.1882Z" fill="#575757"/>
</svg>
