<svg width="28" height="28" viewBox="0 0 28 28" fill="none" xmlns="http://www.w3.org/2000/svg">
<path d="M6.02733 12.9454H2.1597C1.86274 12.945 1.57775 13.0624 1.36728 13.2719C1.15682 13.4814 1.03807 13.7658 1.03711 14.0628V22.679C1.03779 22.9765 1.15629 23.2617 1.36667 23.472C1.57704 23.6824 1.86218 23.8009 2.1597 23.8016H6.02785C6.32528 23.8008 6.61028 23.6822 6.82055 23.4719C7.03082 23.2615 7.14924 22.9764 7.14992 22.679V14.0628C7.14896 13.7658 7.03022 13.4814 6.81975 13.2719C6.60928 13.0624 6.32429 12.945 6.02733 12.9454ZM3.90037 22.0832C3.76658 22.0839 3.63398 22.0582 3.51017 22.0074C3.38637 21.9567 3.2738 21.8821 3.17893 21.7877C3.08407 21.6934 3.00877 21.5812 2.95737 21.4577C2.90597 21.3342 2.87947 21.2018 2.87941 21.068C2.87941 20.5038 3.33622 20.0475 3.90037 20.0475C4.45881 20.0475 4.91563 20.5038 4.91563 21.068C4.91563 21.6321 4.45933 22.0832 3.90037 22.0832ZM26.9288 18.2955C26.8911 18.125 26.8174 17.9645 26.7128 17.8246C26.6082 17.6848 26.475 17.5688 26.3221 17.4845C26.1706 17.3967 26.0021 17.3422 25.8279 17.3246C25.6536 17.307 25.4776 17.3266 25.3116 17.3823L17.19 20.0413C16.926 20.1342 16.6481 20.1816 16.3681 20.1813H12.2693C12.2162 20.1818 12.1636 20.1717 12.1145 20.1516C12.0654 20.1315 12.0208 20.1019 11.9833 20.0644C11.9458 20.0269 11.9161 19.9823 11.896 19.9332C11.876 19.8841 11.8659 19.8315 11.8664 19.7784C11.8664 19.558 12.0437 19.3755 12.2693 19.3755H16.3681C16.5558 19.3755 16.7332 19.3486 16.9053 19.2894C16.9105 19.2894 16.9157 19.2843 16.9209 19.2843L16.9266 19.2791C17.2504 19.1637 17.5306 18.951 17.7287 18.6701C17.9268 18.3891 18.0331 18.0538 18.0331 17.71C18.0338 17.2677 17.8588 16.8433 17.5466 16.53C17.2343 16.2167 16.8105 16.0402 16.3681 16.0394H13.7035C13.3895 16.0394 13.079 15.9735 12.7921 15.8457C12.5053 15.718 12.2485 15.5313 12.0385 15.2979L11.4744 14.6752C11.3379 14.5261 11.1719 14.4071 10.987 14.3256C10.802 14.2442 10.6021 14.2022 10.4 14.2023H7.9557V22.6795C7.9557 22.8195 7.94015 22.9533 7.91266 23.0824L11.6787 25.2254C12.4523 25.664 13.327 25.8933 14.2163 25.8906C15.1056 25.8878 15.9788 25.6532 16.7498 25.2099L26.332 19.6659C26.5666 19.5333 26.7517 19.3278 26.8593 19.0807C26.9669 18.8335 26.9911 18.5581 26.9283 18.296L26.9288 18.2955ZM13.6553 8.40626C12.6135 9.04778 11.8071 10.0088 11.3561 11.1461H7.59066C6.85437 11.1461 6.33896 10.4098 6.59666 9.72226C6.89609 8.92254 7.43252 8.23329 8.13422 7.74664C8.83593 7.26 9.66947 6.99916 10.5234 6.999C11.1156 6.99694 11.7013 7.12143 12.2414 7.36413C12.7816 7.60683 13.2636 7.96214 13.6553 8.40626ZM12.5156 4.101C12.5156 5.2013 11.6247 6.09212 10.5239 6.09212C9.42311 6.09212 8.53281 5.2013 8.53281 4.101C8.53281 3.00019 9.42311 2.10938 10.5239 2.10938C11.6247 2.10938 12.515 3.00019 12.515 4.10049L12.5156 4.101ZM25.7632 11.1461H21.9386C21.4928 10.0227 20.7005 9.07057 19.6768 8.42804C20.0707 7.97805 20.5565 7.61767 21.1013 7.37117C21.6462 7.12467 22.2376 6.99776 22.8356 6.999C24.6297 6.999 26.1604 8.13249 26.7567 9.72226C26.815 9.88226 26.834 10.054 26.812 10.2229C26.79 10.3917 26.7276 10.5528 26.6301 10.6925C26.5327 10.8322 26.403 10.9463 26.2521 11.0253C26.1012 11.1042 25.9335 11.1457 25.7632 11.1461ZM24.8241 4.101C24.8241 5.2013 23.9328 6.09212 22.8325 6.09212C21.7322 6.09212 20.8409 5.2013 20.8409 4.101C20.8408 3.83948 20.8923 3.58051 20.9923 3.33888C21.0923 3.09725 21.239 2.87769 21.4239 2.69274C21.6088 2.5078 21.8283 2.36108 22.0699 2.26099C22.3115 2.16089 22.5705 2.10938 22.832 2.10938C23.0936 2.10924 23.3526 2.16064 23.5943 2.26064C23.836 2.36064 24.0556 2.50729 24.2406 2.69219C24.4256 2.8771 24.5724 3.09664 24.6725 3.33828C24.7726 3.57992 24.8241 3.83944 24.8241 4.101ZM20.0693 13.1937C20.927 13.1937 21.5264 12.3351 21.2261 11.5314C20.5339 9.67715 18.7471 8.35493 16.6518 8.35493C14.5513 8.35493 12.7629 9.67715 12.0701 11.5314C11.7704 12.3351 12.3693 13.1937 13.227 13.1937H20.0693ZM18.9716 4.88967C18.9716 6.17404 17.932 7.21315 16.6487 7.21315C15.3653 7.21315 14.3247 6.17404 14.3247 4.89019C14.3247 3.60582 15.3643 2.56671 16.6481 2.56671C17.932 2.56671 18.9716 3.60582 18.9716 4.88967Z" fill="black"/>
</svg>
