<svg width="48" height="48" viewBox="0 0 48 48" fill="none" xmlns="http://www.w3.org/2000/svg">
<g clip-path="url(#clip0_461_4558)">
<path d="M31.9454 5.15762L30.539 3.31133L31.9454 1.46527C32.0486 1.32996 32.1119 1.16845 32.1282 0.999017C32.1444 0.829583 32.1129 0.658987 32.0372 0.506525C31.9616 0.354064 31.8447 0.225824 31.7 0.136311C31.5552 0.0467983 31.3883 -0.000414016 31.218 1.50342e-05H24.018C23.7741 -0.00137373 23.5394 0.0935009 23.365 0.26405C23.1905 0.434598 23.0904 0.66706 23.0863 0.910987V9.02859H24.9148V6.62859H31.218C31.3886 6.62819 31.5556 6.58023 31.7003 6.4901C31.8451 6.39997 31.9618 6.27124 32.0373 6.11839C32.1129 5.96555 32.1444 5.79465 32.1281 5.62491C32.1119 5.45518 32.0486 5.29335 31.9454 5.15762ZM3.0705 28.8C2.3257 28.7961 1.71873 29.3967 1.71484 30.1414V48H13.2577V28.8H3.0705ZM6.0577 42.9714C6.0577 43.2139 5.96137 43.4465 5.78991 43.6179C5.61845 43.7894 5.3859 43.8857 5.14342 43.8857C4.90093 43.8857 4.66838 43.7894 4.49692 43.6179C4.32546 43.4465 4.22913 43.2139 4.22913 42.9714V41.0068C4.22913 40.7643 4.32546 40.5317 4.49692 40.3603C4.66838 40.1888 4.90093 40.0925 5.14342 40.0925C5.3859 40.0925 5.61845 40.1888 5.78991 40.3603C5.96137 40.5317 6.0577 40.7643 6.0577 41.0068V42.9714ZM6.0577 35.3191C6.0577 35.5616 5.96137 35.7941 5.78991 35.9656C5.61845 36.1371 5.3859 36.2334 5.14342 36.2334C4.90093 36.2334 4.66838 36.1371 4.49692 35.9656C4.32546 35.7941 4.22913 35.5616 4.22913 35.3191V33.3543C4.22913 33.1118 4.32546 32.8793 4.49692 32.7078C4.66838 32.5363 4.90093 32.44 5.14342 32.44C5.3859 32.44 5.61845 32.5363 5.78991 32.7078C5.96137 32.8793 6.0577 33.1118 6.0577 33.3543V35.3191ZM10.7434 42.9714C10.7434 43.2139 10.6471 43.4465 10.4756 43.6179C10.3042 43.7894 10.0716 43.8857 9.82913 43.8857C9.58665 43.8857 9.35409 43.7894 9.18263 43.6179C9.01117 43.4465 8.91484 43.2139 8.91484 42.9714V41.0068C8.91484 40.7643 9.01117 40.5317 9.18263 40.3603C9.35409 40.1888 9.58665 40.0925 9.82913 40.0925C10.0716 40.0925 10.3042 40.1888 10.4756 40.3603C10.6471 40.5317 10.7434 40.7643 10.7434 41.0068V42.9714ZM10.7434 35.3191C10.7434 35.5616 10.6471 35.7941 10.4756 35.9656C10.3042 36.1371 10.0716 36.2334 9.82913 36.2334C9.58665 36.2334 9.35409 36.1371 9.18263 35.9656C9.01117 35.7941 8.91484 35.5616 8.91484 35.3191V33.3543C8.91484 33.1118 9.01117 32.8793 9.18263 32.7078C9.35409 32.5363 9.58665 32.44 9.82913 32.44C10.0716 32.44 10.3042 32.5363 10.4756 32.7078C10.6471 32.8793 10.7434 33.1118 10.7434 33.3543V35.3191ZM23.8536 16.0572L15.0863 23.5148V48H19.0863V38.4788C19.0833 38.3623 19.1041 38.2465 19.1474 38.1384C19.1906 38.0303 19.2555 37.9321 19.3379 37.8499C19.4204 37.7677 19.5188 37.7031 19.627 37.6601C19.7353 37.6172 19.8511 37.5967 19.9675 37.6H27.8267C27.942 37.5971 28.0567 37.618 28.1636 37.6614C28.2705 37.7048 28.3672 37.7697 28.4479 37.8522C28.5286 37.9346 28.5914 38.0328 28.6324 38.1406C28.6734 38.2484 28.6917 38.3635 28.6863 38.4788V48H32.572V23.5063L23.8536 16.0572ZM27.8267 32.4572H19.9159C19.6734 32.4572 19.4408 32.3608 19.2694 32.1894C19.0979 32.0179 19.0016 31.7854 19.0016 31.5429C19.0016 31.3004 19.0979 31.0678 19.2694 30.8964C19.4408 30.7249 19.6734 30.6286 19.9159 30.6286H27.8267C28.0692 30.6286 28.3018 30.7249 28.4732 30.8964C28.6447 31.0678 28.741 31.3004 28.741 31.5429C28.741 31.7854 28.6447 32.0179 28.4732 32.1894C28.3018 32.3608 28.0692 32.4572 27.8267 32.4572ZM44.9484 28.8H34.4006V48H46.2863V30.1592C46.2922 29.4144 45.6931 28.806 44.9484 28.8ZM39.0863 42.9714C39.0863 43.2139 38.99 43.4465 38.8185 43.6179C38.647 43.7894 38.4145 43.8857 38.172 43.8857C37.9295 43.8857 37.697 43.7894 37.5255 43.6179C37.354 43.4465 37.2577 43.2139 37.2577 42.9714V41.0068C37.2577 40.7643 37.354 40.5317 37.5255 40.3603C37.697 40.1888 37.9295 40.0925 38.172 40.0925C38.4145 40.0925 38.647 40.1888 38.8185 40.3603C38.99 40.5317 39.0863 40.7643 39.0863 41.0068V42.9714ZM39.0863 35.3191C39.0863 35.5616 38.99 35.7941 38.8185 35.9656C38.647 36.1371 38.4145 36.2334 38.172 36.2334C37.9295 36.2334 37.697 36.1371 37.5255 35.9656C37.354 35.7941 37.2577 35.5616 37.2577 35.3191V33.3543C37.2577 33.1118 37.354 32.8793 37.5255 32.7078C37.697 32.5363 37.9295 32.44 38.172 32.44C38.4145 32.44 38.647 32.5363 38.8185 32.7078C38.99 32.8793 39.0863 33.1118 39.0863 33.3543V35.3191ZM43.6577 42.9714C43.6577 43.2139 43.5614 43.4465 43.3899 43.6179C43.2185 43.7894 42.9859 43.8857 42.7434 43.8857C42.5009 43.8857 42.2684 43.7894 42.0969 43.6179C41.9255 43.4465 41.8291 43.2139 41.8291 42.9714V41.0068C41.8291 40.7643 41.9255 40.5317 42.0969 40.3603C42.2684 40.1888 42.5009 40.0925 42.7434 40.0925C42.9859 40.0925 43.2185 40.1888 43.3899 40.3603C43.5614 40.5317 43.6577 40.7643 43.6577 41.0068V42.9714ZM43.6577 35.3191C43.6577 35.5616 43.5614 35.7941 43.3899 35.9656C43.2185 36.1371 42.9859 36.2334 42.7434 36.2334C42.5009 36.2334 42.2684 36.1371 42.0969 35.9656C41.9255 35.7941 41.8291 35.5616 41.8291 35.3191V33.3543C41.8291 33.1118 41.9255 32.8793 42.0969 32.7078C42.2684 32.5363 42.5009 32.44 42.7434 32.44C42.9859 32.44 43.2185 32.5363 43.3899 32.7078C43.5614 32.8793 43.6577 33.1118 43.6577 33.3543V35.3191Z" fill="#3AA7CE"/>
<path d="M23.8982 10.2666L10.8145 21.4677L12.4679 23.3917L23.3046 14.158C23.4703 14.0168 23.6809 13.9394 23.8986 13.9396C24.1163 13.9398 24.3268 14.0177 24.4922 14.1593L35.2838 23.3955L36.9753 21.4625L23.8982 10.2666ZM20.9154 39.4282H26.8582V47.9996H20.9154V39.4282Z" fill="#3AA7CE"/>
</g>
<defs>
<clipPath id="clip0_461_4558">
<rect width="48" height="48" fill="white"/>
</clipPath>
</defs>
</svg>
