<svg width="28" height="28" viewBox="0 0 28 28" fill="none" xmlns="http://www.w3.org/2000/svg">
<path d="M25.5868 11.4012L24.0599 11.0189C23.8519 10.3168 23.5704 9.63874 23.2199 8.99588L24.031 7.644C24.1313 7.47676 24.1729 7.2808 24.1491 7.08724C24.1253 6.89368 24.0376 6.71361 23.8997 6.57562L21.4244 4.10112C21.2865 3.96318 21.1064 3.87533 20.9128 3.85155C20.7192 3.82776 20.5232 3.86942 20.356 3.96988L19.005 4.78012C18.3592 4.42925 17.6829 4.14837 16.9803 3.94012L16.5987 2.41237C16.5513 2.22316 16.4421 2.05521 16.2883 1.9352C16.1345 1.81519 15.9451 1.75001 15.75 1.75H12.25C12.0549 1.75001 11.8655 1.81519 11.7117 1.9352C11.5579 2.05521 11.4487 2.22316 11.4012 2.41237L11.0189 3.94012C10.3171 4.14837 9.63987 4.42925 8.99588 4.78012L7.644 3.969C7.47667 3.86899 7.28078 3.8276 7.0873 3.85137C6.89382 3.87514 6.71377 3.96271 6.57562 4.10025L4.10112 6.5765C3.96332 6.71449 3.87556 6.89456 3.85178 7.08812C3.828 7.28168 3.86957 7.47764 3.96988 7.64488L4.78012 8.99675C4.42925 9.64075 4.14837 10.318 3.94012 11.0197L2.41237 11.4021C2.2233 11.4495 2.05546 11.5586 1.93547 11.7122C1.81547 11.8658 1.7502 12.0551 1.75 12.25V15.75C1.75001 15.9451 1.81519 16.1345 1.9352 16.2883C2.05521 16.4421 2.22316 16.5513 2.41237 16.5987L3.94012 16.9811C4.14837 17.6829 4.42925 18.3601 4.78012 19.0041L3.969 20.356C3.86869 20.5232 3.82713 20.7192 3.85091 20.9128C3.87469 21.1063 3.96244 21.2864 4.10025 21.4244L6.57562 23.8989C6.71353 24.0368 6.89362 24.1247 7.08721 24.1485C7.28081 24.1722 7.4768 24.1306 7.644 24.0301L8.99588 23.2199C9.63987 23.5708 10.3171 23.8516 11.0189 24.0599L11.4012 25.5876C11.4487 25.7768 11.5579 25.9448 11.7117 26.0648C11.8655 26.1848 12.0549 26.25 12.25 26.25H15.75C15.9451 26.25 16.1345 26.1848 16.2883 26.0648C16.4421 25.9448 16.5513 25.7768 16.5987 25.5876L16.9803 24.0599C17.6828 23.8519 18.3615 23.5703 19.005 23.2199L20.356 24.031C20.5232 24.1313 20.7192 24.1729 20.9128 24.1491C21.1063 24.1253 21.2864 24.0376 21.4244 23.8997L23.8989 21.4244C24.0367 21.2864 24.1244 21.1063 24.1482 20.9128C24.172 20.7192 24.1304 20.5232 24.0301 20.356L23.2199 19.0041C23.5708 18.3592 23.8525 17.6829 24.0599 16.9811L25.5868 16.5987C25.7761 16.5515 25.9443 16.4423 26.0645 16.2885C26.1846 16.1347 26.2499 15.9452 26.25 15.75V12.25C26.2499 12.0548 26.1846 11.8653 26.0645 11.7115C25.9443 11.5577 25.7761 11.4485 25.5868 11.4012ZM14 22.75C9.17525 22.75 5.25 18.8247 5.25 14C5.25 9.17525 9.17525 5.25 14 5.25C18.8247 5.25 22.75 9.17525 22.75 14C22.75 18.8247 18.8247 22.75 14 22.75Z" fill="black"/>
<path d="M14 6.125C11.9114 6.125 9.90838 6.95468 8.43153 8.43153C6.95468 9.90838 6.125 11.9114 6.125 14C6.125 16.0886 6.95468 18.0916 8.43153 19.5685C9.90838 21.0453 11.9114 21.875 14 21.875C16.0886 21.875 18.0916 21.0453 19.5685 19.5685C21.0453 18.0916 21.875 16.0886 21.875 14C21.875 11.9114 21.0453 9.90838 19.5685 8.43153C18.0916 6.95468 16.0886 6.125 14 6.125ZM9.625 8.75H10.5C12.0846 8.75 12.88 9.38 14 10.5C15.12 9.38 15.9154 8.75 17.5 8.75H18.375V16.625H17.5C15.9154 16.625 15.12 17.255 14 18.375C12.88 17.255 12.0846 16.625 10.5 16.625H9.625V8.75ZM19.25 18.375H17.5C15.9154 18.375 15.12 19.005 14 20.125C12.88 19.005 12.0846 18.375 10.5 18.375H8.75C8.51794 18.375 8.29538 18.2828 8.13128 18.1187C7.96719 17.9546 7.875 17.7321 7.875 17.5V10.5C7.875 10.2679 7.96719 10.0454 8.13128 9.88128C8.29538 9.71719 8.51794 9.625 8.75 9.625V17.5H10.5C12.0846 17.5 12.88 18.13 14 19.25C15.12 18.13 15.9154 17.5 17.5 17.5H19.25V9.625C19.4821 9.625 19.7046 9.71719 19.8687 9.88128C20.0328 10.0454 20.125 10.2679 20.125 10.5V17.5C20.125 17.7321 20.0328 17.9546 19.8687 18.1187C19.7046 18.2828 19.4821 18.375 19.25 18.375Z" fill="black"/>
</svg>
