<svg width="28" height="28" viewBox="0 0 28 28" fill="none" xmlns="http://www.w3.org/2000/svg">
<path fill-rule="evenodd" clip-rule="evenodd" d="M18.8507 9.60434C18.8507 12.3456 16.6653 14.5437 13.9399 14.5437C11.2144 14.5437 9.02905 12.3456 9.02905 9.60434C9.02905 6.862 11.2144 4.66602 13.9399 4.66602C16.6653 4.66602 18.8507 6.862 18.8507 9.60434ZM13.9399 23.3327C9.93684 23.3327 6.51879 22.6981 6.51879 20.1595C6.51879 17.62 9.9149 16.9622 13.9399 16.9622C17.9429 16.9622 21.361 17.5969 21.361 20.1364C21.361 22.6749 17.9649 23.3327 13.9399 23.3327ZM20.9493 9.69344C20.9493 11.0909 20.5325 12.3927 19.8012 13.4749C19.726 13.5863 19.7929 13.7366 19.9255 13.7597C20.1084 13.7912 20.2974 13.8091 20.4896 13.8143C22.4066 13.8648 24.1271 12.6239 24.6024 10.7557C25.3065 7.98079 23.2391 5.48956 20.6066 5.48956C20.3204 5.48956 20.0467 5.52003 19.7803 5.57467C19.7438 5.58307 19.7051 5.59988 19.6842 5.63246C19.6592 5.67238 19.678 5.72597 19.703 5.76064C20.4938 6.87544 20.9493 8.23506 20.9493 9.69344ZM24.1239 15.764C25.412 16.0172 26.2592 16.5342 26.6102 17.2854C26.9069 17.9022 26.9069 18.6177 26.6102 19.2334C26.0732 20.3987 24.3423 20.7727 23.6695 20.8694C23.5306 20.8904 23.4188 20.7696 23.4334 20.6298C23.7771 17.401 21.0433 15.8701 20.3361 15.5181C20.3058 15.5024 20.2995 15.4782 20.3027 15.4635C20.3047 15.453 20.3173 15.4362 20.3403 15.433C21.8707 15.4047 23.516 15.6148 24.1239 15.764ZM7.50931 13.8142C7.70152 13.809 7.88956 13.7921 8.07341 13.7596C8.20608 13.7365 8.27294 13.5862 8.19772 13.4748C7.46648 12.3926 7.04967 11.0908 7.04967 9.69334C7.04967 8.23496 7.50513 6.87534 8.29592 5.76054C8.32099 5.72586 8.33875 5.67228 8.31472 5.63235C8.29383 5.60083 8.25414 5.58297 8.21862 5.57456C7.95119 5.51993 7.6775 5.48946 7.39127 5.48946C4.75878 5.48946 2.69145 7.98068 3.39658 10.7556C3.87189 12.6238 5.5924 13.8646 7.50931 13.8142ZM7.69578 15.4629C7.69891 15.4786 7.69264 15.5018 7.66339 15.5186C6.95513 15.8706 4.22132 17.4014 4.565 20.6292C4.57963 20.77 4.4689 20.8898 4.32996 20.8698C3.65721 20.7732 1.92625 20.3991 1.38931 19.2339C1.09159 18.6171 1.09159 17.9026 1.38931 17.2859C1.7403 16.5346 2.58646 16.0177 3.8745 15.7634C4.48352 15.6152 6.12778 15.4051 7.65922 15.4335C7.6822 15.4366 7.69369 15.4534 7.69578 15.4629Z" fill="white"/>
</svg>
