<svg width="48" height="48" viewBox="0 0 48 48" fill="none" xmlns="http://www.w3.org/2000/svg">
<g clip-path="url(#clip0_320_6396)">
<path d="M24 47.4375C36.9442 47.4375 47.4375 36.9442 47.4375 24C47.4375 11.0558 36.9442 0.5625 24 0.5625C11.0558 0.5625 0.5625 11.0558 0.5625 24C0.5625 36.9442 11.0558 47.4375 24 47.4375Z" fill="#005FAB"/>
<path opacity="0.49" d="M47.4369 23.9998C47.438 21.9435 47.1688 19.896 46.6361 17.9099L38.7754 10.0487C38.7304 10.0059 38.6735 9.97765 38.6121 9.96778C38.5508 9.9579 38.4879 9.96684 38.4317 9.99342C35.5827 11.012 22.1889 15.8504 4.46606 22.3621C4.38587 22.3892 4.31935 22.4464 4.28052 22.5216C4.24169 22.5968 4.23359 22.6842 4.25793 22.7653L28.4432 47.0146C39.2619 44.9378 47.4369 35.4242 47.4369 23.9998Z" fill="url(#paint0_linear_320_6396)"/>
<path fill-rule="evenodd" clip-rule="evenodd" d="M38.4322 9.99365C38.6911 9.88452 38.9132 10.1028 38.8762 10.3574L33.0302 37.7869C33.0168 37.8395 32.9906 37.888 32.9539 37.9281C32.9172 37.9681 32.8712 37.9985 32.82 38.0165C32.7688 38.0345 32.7139 38.0395 32.6602 38.0312C32.6065 38.0228 32.5558 38.0013 32.5124 37.9686L23.2996 31.4205L18.1567 36.2955C18.113 36.3298 18.0619 36.3536 18.0075 36.3649C17.9531 36.3762 17.8968 36.3747 17.843 36.3606C17.7892 36.3466 17.7395 36.3202 17.6976 36.2837C17.6557 36.2471 17.6229 36.2014 17.6017 36.15L14.0865 25.9274L4.46662 22.9807C4.4018 22.959 4.34546 22.9174 4.30554 22.8619C4.26562 22.8064 4.24414 22.7397 4.24414 22.6714C4.24414 22.603 4.26562 22.5363 4.30554 22.4808C4.34546 22.4253 4.4018 22.3838 4.46662 22.362C22.1894 15.8503 35.5832 11.0119 38.4323 9.99327L38.4322 9.99365ZM32.2902 14.9775C32.2536 14.9725 26.7777 18.397 15.8994 25.1998L18.1935 32.6211L18.6749 27.928C28.0354 19.5974 32.7218 15.4139 32.7342 15.3776C32.9563 15.1593 32.4383 14.9974 32.2902 14.9775Z" fill="white"/>
</g>
<defs>
<linearGradient id="paint0_linear_320_6396" x1="15.9294" y1="10.8516" x2="43.1106" y2="38.0328" gradientUnits="userSpaceOnUse">
<stop stop-color="#1D1D1B"/>
<stop offset="0.369" stop-color="#1D1D1B" stop-opacity="0.856"/>
<stop offset="0.75" stop-color="#1D1D1B" stop-opacity="0.429"/>
<stop offset="1" stop-color="#1D1D1B" stop-opacity="0"/>
</linearGradient>
<clipPath id="clip0_320_6396">
<rect width="48" height="48" fill="white"/>
</clipPath>
</defs>
</svg>
