<svg width="28" height="28" viewBox="0 0 28 28" fill="none" xmlns="http://www.w3.org/2000/svg">
<g clip-path="url(#clip0_745_8108)">
<path d="M11.9024 12.1035L3.98621 19.7276C3.34848 18.9753 2.99894 18.0207 3 17.0345V7.17243C2.99886 6.18622 3.34859 5.23149 3.98621 4.47932L11.9024 12.1035ZM21.4686 21.5104L21.9579 24.5486C21.9729 24.6292 21.9615 24.7124 21.9253 24.7858C21.8891 24.8593 21.8301 24.9191 21.7571 24.9562C21.684 24.9934 21.601 25.0059 21.5203 24.9919C21.4396 24.9779 21.3656 24.9382 21.3093 24.8786L18.1307 21.3321C18.0947 21.2924 18.0508 21.2608 18.0018 21.2392C17.9528 21.2177 17.8998 21.2066 17.8462 21.2069H7.17242C6.20811 21.2092 5.27318 20.8752 4.52862 20.2624L12.4524 12.6269C12.869 13.0257 13.4234 13.2483 14 13.2483C14.5767 13.2483 15.131 13.0257 15.5476 12.6269L23.4486 20.2397C22.9515 20.6457 22.3694 20.9347 21.7455 21.0855C21.6543 21.1085 21.5752 21.1649 21.5238 21.2437C21.4725 21.3225 21.4528 21.4177 21.4686 21.5104ZM20.8276 3.00001H7.17242C6.20811 2.9977 5.27318 3.3317 4.52862 3.94449L12.9493 12.0579C13.2324 12.3282 13.6087 12.479 14 12.479C14.3914 12.479 14.7677 12.3282 15.0507 12.0579L15.2859 11.8304L23.4714 3.94449C22.7268 3.3317 21.7919 2.9977 20.8276 3.00001ZM6.79311 4.89656C6.69251 4.89656 6.59603 4.8566 6.52489 4.78547C6.45376 4.71433 6.4138 4.61785 6.4138 4.51725C6.4138 4.41665 6.45376 4.32017 6.52489 4.24904C6.59603 4.17791 6.69251 4.13794 6.79311 4.13794C6.89371 4.13794 6.99018 4.17791 7.06132 4.24904C7.13245 4.32017 7.17242 4.41665 7.17242 4.51725C7.17242 4.61785 7.13245 4.71433 7.06132 4.78547C6.99018 4.8566 6.89371 4.89656 6.79311 4.89656ZM13.6207 4.89656H8.31035C8.20975 4.89656 8.11327 4.8566 8.04213 4.78547C7.971 4.71433 7.93104 4.61785 7.93104 4.51725C7.93104 4.41665 7.971 4.32017 8.04213 4.24904C8.11327 4.17791 8.20975 4.13794 8.31035 4.13794H13.6207C13.7213 4.13794 13.8178 4.17791 13.8889 4.24904C13.96 4.32017 14 4.41665 14 4.51725C14 4.61785 13.96 4.71433 13.8889 4.78547C13.8178 4.8566 13.7213 4.89656 13.6207 4.89656ZM25 7.17243V17.0345C25 18.0188 24.6412 18.9697 23.991 19.7086L16.0976 12.1035L24.0138 4.47932C24.6515 5.23165 25.0011 6.18617 25 7.17243Z" fill="white"/>
</g>
<defs>
<clipPath id="clip0_745_8108">
<rect width="22" height="22" fill="white" transform="translate(3 3)"/>
</clipPath>
</defs>
</svg>
