<svg width="28" height="28" viewBox="0 0 28 28" fill="none" xmlns="http://www.w3.org/2000/svg">
<g clip-path="url(#clip0_253_4560)">
<mask id="mask0_253_4560" style="mask-type:alpha" maskUnits="userSpaceOnUse" x="0" y="4" width="28" height="20">
<path d="M9.3176 22.0077H10.4215V23.5523H13.1796V22.0077H21.7859V23.5523H24.5431V22.0077H25.4253V21.0506H9.3176V22.0077ZM9.3176 6.30234V20.3874H25.4253V6.30234C25.4253 6.30234 23.8086 4.68471 17.4093 4.46481C11.0091 4.24403 9.3176 6.30234 9.3176 6.30234ZM11.8923 6.30234C12.0681 6.30234 12.2367 6.37217 12.361 6.49647C12.4853 6.62077 12.5551 6.78936 12.5551 6.96515C12.5551 7.14094 12.4853 7.30952 12.361 7.43383C12.2367 7.55813 12.0681 7.62796 11.8923 7.62796C11.7165 7.62796 11.5479 7.55813 11.4236 7.43383C11.2993 7.30952 11.2295 7.14094 11.2295 6.96515C11.2295 6.78936 11.2993 6.62077 11.4236 6.49647C11.5479 6.37217 11.7165 6.30234 11.8923 6.30234ZM10.5675 8.83962H16.746V14.8356H10.5675V8.83962ZM11.7997 19.0288C11.6186 19.0288 11.4394 18.9931 11.2721 18.9238C11.1048 18.8545 10.9529 18.7529 10.8249 18.6248C10.6969 18.4968 10.5954 18.3447 10.5262 18.1774C10.457 18.0101 10.4214 17.8308 10.4215 17.6498C10.4169 17.4658 10.4491 17.2827 10.5162 17.1114C10.5834 16.94 10.6842 16.7839 10.8127 16.6521C10.9412 16.5203 11.0947 16.4156 11.2643 16.344C11.4339 16.2725 11.6161 16.2357 11.8001 16.2357C11.9842 16.2357 12.1664 16.2725 12.3359 16.344C12.5055 16.4156 12.6591 16.5203 12.7876 16.6521C12.916 16.7839 13.0168 16.94 13.084 17.1114C13.1512 17.2827 13.1834 17.4658 13.1787 17.6498C13.1788 17.8309 13.1432 18.0103 13.074 18.1776C13.0047 18.345 12.9032 18.4971 12.7751 18.6252C12.647 18.7532 12.4949 18.8548 12.3276 18.9241C12.1602 18.9933 11.9808 19.0289 11.7997 19.0288ZM20.4968 19.6538H14.3192V18.9184H20.4968V19.6538ZM20.4968 18.2925H14.3192V17.5572H20.4968V18.2925ZM20.4968 16.8948H14.3192V16.1586H20.4968V16.8948ZM24.5431 17.6498C24.5428 18.0157 24.3972 18.3666 24.1383 18.6253C23.8793 18.8839 23.5282 19.029 23.1623 19.0288C22.7963 19.0286 22.4454 18.883 22.1868 18.624C21.9281 18.365 21.783 18.014 21.7832 17.648C21.7833 17.4668 21.8191 17.2874 21.8886 17.12C21.9581 16.9526 22.0598 16.8005 22.188 16.6725C22.3162 16.5444 22.4684 16.4429 22.6359 16.3737C22.8034 16.3044 22.9828 16.2688 23.164 16.269C23.3452 16.2691 23.5247 16.3049 23.692 16.3743C23.8594 16.4438 24.0115 16.5455 24.1395 16.6738C24.2676 16.802 24.3691 16.9542 24.4384 17.1216C24.5076 17.2891 24.5432 17.4686 24.5431 17.6498ZM22.7768 6.15544C22.9524 6.15544 23.1209 6.22523 23.2451 6.34945C23.3693 6.47366 23.4391 6.64214 23.4391 6.81781C23.4391 6.99348 23.3693 7.16195 23.2451 7.28617C23.1209 7.41039 22.9524 7.48017 22.7768 7.48017C22.6011 7.48017 22.4326 7.41039 22.3084 7.28617C22.1842 7.16195 22.1144 6.99348 22.1144 6.81781C22.1144 6.64214 22.1842 6.47366 22.3084 6.34945C22.4326 6.22523 22.6011 6.15544 22.7768 6.15544ZM17.7761 8.83962H23.9537V14.8356H17.7761V8.83962ZM6.89072 9.79666H8.87603V12.4443H6.89072V9.79666ZM26.0147 9.64799H28V12.2974H26.0147V9.64799ZM4.09259 13.2304C4.86535 13.2304 5.49299 12.6028 5.49299 11.8292C5.49299 11.5202 5.38972 11.238 5.21878 11.0065L5.37992 10.3362L4.62764 10.4733L4.3205 9.99341L3.50056 10.54L2.9201 10.3006L2.78211 10.9843L2.20076 11.327L2.71533 12.0517C2.82217 12.7194 3.3955 13.2304 4.09259 13.2304ZM4.9704 20.8628L4.60628 18.3869L2.76519 18.3673L3.60205 20.8628L3.06432 23.1873H2.99933V23.5523H5.04874V23.1873H4.62942L4.9704 20.8628ZM4.60628 18.2284V17.0355L3.15335 16.2894H3.14089V13.9836L4.2288 14.0014L4.22435 15.3555L4.60628 15.6431V13.4201H2.57467L2.27287 13.5251V13.4201C2.27287 13.4201 2.20432 13.4174 2.09748 13.4227V13.1939C2.09725 13.1573 2.08251 13.1222 2.05649 13.0963C2.03047 13.0705 1.99528 13.056 1.9586 13.056C1.94036 13.0558 1.92228 13.0593 1.90539 13.0662C1.88849 13.0731 1.87311 13.0832 1.86014 13.096C1.84716 13.1088 1.83683 13.1241 1.82974 13.1409C1.82265 13.1577 1.81895 13.1757 1.81883 13.1939V13.445C1.47696 13.4904 0.609838 13.6026 0.388159 13.8901C0 14.3985 0 18.0388 0 18.0388L2.27287 17.7691V17.518L2.57467 17.6907V18.2284H4.60628ZM2.27287 16.8877V14.1198L2.57467 14.0397V17.0613L2.27287 16.8877Z" fill="black"/>
<path d="M4.06421 14.1644L3.32617 14.1582V16.1444L5.50289 17.2911L6.06109 16.5664L4.08201 15.4616L4.06421 14.1644Z" fill="black"/>
</mask>
<g mask="url(#mask0_253_4560)">
<rect y="6.41699" width="6.41667" height="18.6667" fill="white"/>
<rect x="7" y="4.08301" width="21" height="21" fill="white"/>
</g>
</g>
<defs>
<clipPath id="clip0_253_4560">
<rect width="28" height="28" fill="white"/>
</clipPath>
</defs>
</svg>
