<svg width="24" height="24" viewBox="0 0 24 24" fill="none" xmlns="http://www.w3.org/2000/svg">
<path d="M3.66577 11.1117C3.25156 11.1129 2.84615 11.2313 2.49643 11.4533C2.14671 11.6752 1.86698 11.9917 1.6896 12.366C1.51222 12.7403 1.44444 13.1571 1.4941 13.5684C1.54376 13.9796 1.70883 14.3683 1.97022 14.6897L7.54237 21.5155C7.74104 21.7622 7.99571 21.958 8.28522 22.0865C8.57473 22.215 8.89073 22.2726 9.20695 22.2544C9.88329 22.2181 10.4939 21.8563 10.8832 21.2614L22.458 2.62025C22.4599 2.61714 22.4619 2.61406 22.4639 2.61102C22.5725 2.44427 22.5373 2.11381 22.3131 1.90621C22.2515 1.8492 22.1789 1.8054 22.0998 1.77751C22.0206 1.74961 21.9366 1.73822 21.8529 1.74403C21.7692 1.74983 21.6875 1.77272 21.613 1.81127C21.5385 1.84982 21.4726 1.90322 21.4195 1.96819C21.4153 1.9733 21.4111 1.97833 21.4067 1.98328L9.73334 15.1724C9.68892 15.2226 9.63497 15.2634 9.57463 15.2926C9.51428 15.3218 9.44875 15.3387 9.38182 15.3423C9.3149 15.3459 9.24792 15.3362 9.18478 15.3137C9.12164 15.2912 9.0636 15.2564 9.01403 15.2113L5.13988 11.6858C4.73751 11.3169 4.21161 11.1121 3.66577 11.1117Z" fill="#F06030"/>
</svg>
