<svg width="48" height="48" viewBox="0 0 48 48" fill="none" xmlns="http://www.w3.org/2000/svg">
<g clip-path="url(#clip0_320_6408)">
<path d="M24 47.4375C36.9442 47.4375 47.4375 36.9442 47.4375 24C47.4375 11.0558 36.9442 0.5625 24 0.5625C11.0558 0.5625 0.5625 11.0558 0.5625 24C0.5625 36.9442 11.0558 47.4375 24 47.4375Z" fill="#03A9F4"/>
<path opacity="0.49" d="M47.4368 24.0002C47.437 22.55 47.3032 21.1029 47.0373 19.6773L39.2214 11.8613C39.2214 11.8613 36.5413 13.1225 35.0407 13.4378C33.8614 12.1766 32.1462 11.4409 30.2167 11.4409C25.9626 11.4409 22.9479 15.2221 23.7849 19.3236C18.318 19.0082 13.3868 16.4858 10.1711 12.7021C9.61398 13.6599 9.31823 14.7472 9.31352 15.8551C9.31352 18.0622 10.4927 20.0592 12.2079 21.1102C11.1497 21.1067 10.1123 20.8161 9.20627 20.2694C9.1862 23.3328 11.4337 26.0459 14.459 26.5755C13.4995 26.7638 12.4246 26.9176 11.4575 26.6806C11.909 27.9698 12.7498 29.0868 13.8635 29.8776C14.9773 30.6683 16.3091 31.0937 17.675 31.0949C15.0448 33.0596 11.2223 34.3703 7.91992 33.7224L21.5025 47.3053C22.3319 47.3933 23.1653 47.4375 23.9993 47.4377C36.9434 47.4377 47.4368 36.9444 47.4368 24.0002Z" fill="url(#paint0_linear_320_6408)"/>
<path fill-rule="evenodd" clip-rule="evenodd" d="M35.0407 13.4378C33.8614 12.1766 32.1462 11.4409 30.2167 11.4409C25.9626 11.4409 22.9479 15.2221 23.7849 19.3235C18.318 19.0082 13.3868 16.4858 10.1711 12.7021C9.61398 13.6599 9.31823 14.7472 9.31352 15.8551C9.31352 18.0622 10.4927 20.0593 12.2079 21.1102C11.1497 21.1067 10.1123 20.8161 9.20627 20.2695C9.1862 23.3328 11.4337 26.0459 14.459 26.5755C13.4995 26.7637 12.4246 26.9176 11.4575 26.6806C11.909 27.9698 12.7498 29.0868 13.8635 29.8776C14.9773 30.6683 16.3091 31.0937 17.675 31.095C15.0448 33.0596 11.2223 34.3703 7.91992 33.7224C14.3568 37.6963 23.1543 37.5229 29.2909 33.0302C34.2388 29.4078 36.756 23.6775 36.756 17.6418C38.0156 16.7223 39.135 15.6249 40.0792 14.3837C38.8999 14.9093 37.6135 15.2246 36.3273 15.4348C37.6135 14.5939 38.6856 13.4379 39.2215 11.8613C39.2213 11.8613 36.5413 13.1225 35.0407 13.4378Z" fill="white"/>
</g>
<defs>
<linearGradient id="paint0_linear_320_6408" x1="11.8258" y1="11.0472" x2="40.9619" y2="40.1833" gradientUnits="userSpaceOnUse">
<stop stop-color="#1D1D1B"/>
<stop offset="0.369" stop-color="#1D1D1B" stop-opacity="0.856"/>
<stop offset="0.75" stop-color="#1D1D1B" stop-opacity="0.429"/>
<stop offset="1" stop-color="#1D1D1B" stop-opacity="0"/>
</linearGradient>
<clipPath id="clip0_320_6408">
<rect width="48" height="48" fill="white"/>
</clipPath>
</defs>
</svg>
