<svg width="24" height="24" viewBox="0 0 24 24" fill="none" xmlns="http://www.w3.org/2000/svg">
<path d="M13.812 0.116787C13.7535 0.0671568 13.6849 0.0319921 13.6115 0.0139271C13.5381 -0.00413794 13.4617 -0.00463504 13.388 0.012473L0.388053 3.14238C0.276996 3.16901 0.177987 3.23441 0.107421 3.32776C0.0368545 3.42111 -0.00103657 3.5368 2.15761e-05 3.65568V21.3918C6.59045e-05 21.5164 0.0428383 21.6369 0.120603 21.7314C0.198367 21.8259 0.30599 21.8883 0.424006 21.9072L13.424 23.9939C13.6969 24.0376 13.9522 23.8423 13.9942 23.5576C13.998 23.5314 14 23.505 14 23.4785V0.525778C14.0002 0.447237 13.9834 0.36966 13.9509 0.298839C13.9183 0.228019 13.8708 0.165785 13.812 0.116787Z" fill="#4CAF50"/>
<path d="M23.5 21.9133H13.5C13.2239 21.9133 13 21.6797 13 21.3916C13 21.1035 13.2239 20.87 13.5 20.87H23V3.13386H13.5C13.2239 3.13386 13 2.90029 13 2.61219C13 2.3241 13.2239 2.09058 13.5 2.09058H23.5C23.7761 2.09058 24 2.32415 24 2.61224V21.3917C24 21.6798 23.7762 21.9133 23.5 21.9133Z" fill="#4CAF50"/>
<path d="M9.50084 16.6971C9.41604 16.6971 9.33264 16.6746 9.25847 16.6317C9.1843 16.5888 9.1218 16.527 9.07685 16.452L4.07684 8.10552C3.92314 7.86618 3.98455 7.54214 4.21395 7.38178C4.44336 7.22142 4.75395 7.28548 4.90765 7.52482C4.9137 7.53421 4.91942 7.5438 4.92486 7.55358L9.92487 15.9C10.0707 16.1447 9.99874 16.4663 9.76423 16.6185C9.68515 16.6697 9.59394 16.697 9.50084 16.6971Z" fill="#FAFAFA"/>
<path d="M4.50094 16.697C4.2248 16.6964 4.00139 16.4624 4.00195 16.1743C4.00215 16.0769 4.02847 15.9814 4.07794 15.8988L9.07795 7.5524C9.21642 7.30313 9.52237 7.21818 9.76125 7.36265C10.0002 7.50711 10.0816 7.82631 9.94312 8.07553C9.93769 8.08531 9.93197 8.0949 9.92592 8.10429L4.92595 16.4507C4.88104 16.5261 4.81843 16.5883 4.74406 16.6314C4.66969 16.6744 4.58601 16.697 4.50094 16.697Z" fill="#FAFAFA"/>
<path d="M17.5 21.9134C17.2239 21.9134 17 21.6798 17 21.3917V2.61224C17 2.32415 17.2239 2.09058 17.5 2.09058C17.7762 2.09058 18 2.32415 18 2.61224V21.3917C18 21.6798 17.7762 21.9134 17.5 21.9134Z" fill="#4CAF50"/>
<path d="M23.5 18.7837H13.5C13.2239 18.7837 13 18.5501 13 18.262C13 17.9739 13.2239 17.7403 13.5 17.7403H23.5C23.7761 17.7403 24 17.9739 24 18.262C24 18.5501 23.7762 18.7837 23.5 18.7837ZM23.5 15.6538H13.5C13.2239 15.6538 13 15.4202 13 15.1321C13 14.844 13.2239 14.6104 13.5 14.6104H23.5C23.7761 14.6104 24 14.844 24 15.1321C24 15.4202 23.7762 15.6538 23.5 15.6538ZM23.5 12.5239H13.5C13.2239 12.5239 13 12.2903 13 12.0022C13 11.7141 13.2239 11.4805 13.5 11.4805H23.5C23.7761 11.4805 24 11.7141 24 12.0022C24 12.2903 23.7762 12.5239 23.5 12.5239ZM23.5 9.39395H13.5C13.2239 9.39395 13 9.16038 13 8.87228C13 8.58418 13.2239 8.35061 13.5 8.35061H23.5C23.7761 8.35061 24 8.58418 24 8.87228C24 9.16038 23.7762 9.39395 23.5 9.39395ZM23.5 6.26404H13.5C13.2239 6.26404 13 6.03047 13 5.74237C13 5.45427 13.2239 5.2207 13.5 5.2207H23.5C23.7761 5.2207 24 5.45427 24 5.74237C24 6.03052 23.7762 6.26404 23.5 6.26404Z" fill="#4CAF50"/>
</svg>
