<svg width="48" height="48" viewBox="0 0 48 48" fill="none" xmlns="http://www.w3.org/2000/svg">
<path d="M18.4238 15.5308H30.7039V31.8817H18.4238V15.5308Z" fill="#2D77FC"/>
<path d="M28.4903 15.5215L25.3388 20.3511L24.5616 21.5425L23.7844 20.3511L20.6348 15.5215H28.4903Z" fill="#F7F8F8"/>
<path d="M25.3396 20.3509L24.5624 21.5424L23.7852 20.3509L24.0396 17.8733L24.0699 17.563H25.0542L25.0825 17.8313L25.3396 20.3509Z" fill="#F24E66"/>
<path d="M25.5527 17.2922L24.9609 17.9682C24.9084 18.0281 24.8437 18.0761 24.7711 18.109C24.6985 18.1419 24.6198 18.1589 24.5401 18.1589C24.4604 18.1589 24.3816 18.1419 24.3091 18.109C24.2365 18.0761 24.1718 18.0281 24.1193 17.9682L23.5275 17.2922C23.4566 17.2113 23.4105 17.1117 23.3947 17.0054C23.379 16.899 23.3942 16.7903 23.4386 16.6923C23.483 16.5944 23.5547 16.5113 23.6451 16.453C23.7355 16.3947 23.8407 16.3638 23.9483 16.3638H25.1319C25.2394 16.3638 25.3447 16.3947 25.4351 16.453C25.5255 16.5113 25.5972 16.5944 25.6416 16.6923C25.686 16.7903 25.7012 16.899 25.6854 17.0054C25.6697 17.1117 25.6236 17.2113 25.5527 17.2922Z" fill="#F24E66"/>
<path d="M26.3152 12.9829V15.5276L24.5642 16.364L22.8086 15.5276V12.9829H26.3152Z" fill="#F9B29C"/>
<path d="M26.3152 12.9829V14.3223C25.8089 14.6076 25.2374 14.7571 24.6563 14.7563C24.0001 14.7572 23.358 14.5666 22.8086 14.2079V12.9829H26.3152Z" fill="#ED8768"/>
<path d="M27.3493 15.5295L25.977 17.3831L24.5646 16.3639L26.3183 14.8364L27.3243 15.5268L27.3493 15.5295ZM21.7793 15.5295L23.1522 17.3831L24.5646 16.3639L22.8103 14.8364L21.8043 15.5268L21.7793 15.5295Z" fill="#E6E8E8"/>
<path d="M36.521 16.5412L30.7031 23.6386V15.5292L33.0656 13.4192L33.5693 7.44088L36.6979 7.3291L37.3593 13.9275C37.4153 14.8727 37.1163 15.8048 36.521 16.5412Z" fill="#2D77FC"/>
<path d="M31.4014 22.7858L30.7031 23.6386V17.563L31.4014 22.7858Z" fill="#125AC4"/>
<path d="M37.0205 5.42977L36.7102 7.44051H33.5704L32.7748 6.03339C32.7121 5.92083 32.6963 5.78806 32.7308 5.66391C32.7654 5.53976 32.8476 5.43427 32.9595 5.37035C33.0714 5.30643 33.204 5.28925 33.3285 5.32254C33.453 5.35582 33.5593 5.43689 33.6244 5.54813L33.8729 5.9775L33.9137 5.25026C33.9182 5.04108 33.9647 4.83495 34.0507 4.64417C34.1366 4.4534 34.2601 4.2819 34.4138 4.13992C34.5675 3.99794 34.7482 3.88839 34.9451 3.81782C35.1421 3.74724 35.3513 3.71709 35.5602 3.72916C35.7691 3.74122 35.9734 3.79527 36.1609 3.88806C36.3484 3.98085 36.5153 4.11049 36.6516 4.26922C36.7879 4.42796 36.8909 4.61254 36.9542 4.81194C37.0176 5.01134 37.0402 5.22146 37.0205 5.42977Z" fill="#F9B29C"/>
<path d="M12.6067 16.5412L18.4246 23.6386V15.5292L16.0627 13.4192L15.5584 7.44088L12.4298 7.3291L11.7684 13.9275C11.7124 14.8727 12.0114 15.8048 12.6067 16.5412Z" fill="#2D77FC"/>
<path d="M17.7246 22.7858L18.4229 23.6386V17.563L17.7246 22.7858Z" fill="#125AC4"/>
<path d="M12.1065 5.42977L12.4168 7.44051H15.5566L16.3522 6.03339C16.4149 5.92083 16.4308 5.78806 16.3962 5.66391C16.3616 5.53976 16.2795 5.43427 16.1676 5.37035C16.0557 5.30643 15.9231 5.28925 15.7986 5.32254C15.6741 5.35582 15.5677 5.43689 15.5026 5.54813L15.2541 5.9775L15.2133 5.25026C15.2089 5.04108 15.1623 4.83495 15.0763 4.64417C14.9904 4.4534 14.8669 4.2819 14.7132 4.13992C14.5596 3.99794 14.3788 3.88839 14.1819 3.81782C13.9849 3.74724 13.7757 3.71709 13.5668 3.72916C13.358 3.74122 13.1536 3.79527 12.9661 3.88806C12.7786 3.98085 12.6117 4.11049 12.4754 4.26922C12.3391 4.42796 12.2361 4.61254 12.1728 4.81194C12.1094 5.01134 12.0868 5.22146 12.1065 5.42977Z" fill="#F9B29C"/>
<path d="M24.0713 44.5196L24.5907 35.0617L25.0707 44.5196H30.6926L30.6499 31.8818H18.4809L18.4355 44.5196H24.0713Z" fill="#29275C"/>
<path d="M21.3076 11.0721C21.7645 11.0721 22.1348 10.64 22.1348 10.1069C22.1348 9.57376 21.7645 9.1416 21.3076 9.1416C20.8508 9.1416 20.4805 9.57376 20.4805 10.1069C20.4805 10.64 20.8508 11.0721 21.3076 11.0721Z" fill="#F9B29C"/>
<path d="M21.0237 10.4205C20.9771 10.3822 20.9393 10.3344 20.9128 10.2803C20.8862 10.2262 20.8716 10.1671 20.8699 10.1068C20.8716 10.0466 20.8862 9.98739 20.9127 9.93328C20.9393 9.87916 20.9771 9.83139 21.0237 9.79317C21.0356 9.7805 21.0423 9.76385 21.0426 9.74648C21.0428 9.7291 21.0366 9.71226 21.0251 9.69926C21.0135 9.68625 20.9976 9.67802 20.9803 9.67618C20.963 9.67433 20.9457 9.67901 20.9317 9.68928C20.8702 9.74038 20.8203 9.80411 20.7856 9.87615C20.7509 9.9482 20.7321 10.0269 20.7305 10.1068C20.7305 10.2613 20.8015 10.4093 20.931 10.5244C21.0001 10.5848 21.0928 10.4816 21.0237 10.4205Z" fill="#ED8768"/>
<path d="M27.8741 11.0721C28.3309 11.0721 28.7012 10.64 28.7012 10.1069C28.7012 9.57376 28.3309 9.1416 27.8741 9.1416C27.4172 9.1416 27.0469 9.57376 27.0469 10.1069C27.0469 10.64 27.4172 11.0721 27.8741 11.0721Z" fill="#F9B29C"/>
<path d="M28.1587 10.4205C28.2052 10.3822 28.2431 10.3344 28.2696 10.2803C28.2962 10.2262 28.3108 10.1671 28.3125 10.1068C28.3109 10.0466 28.2964 9.98747 28.27 9.93336C28.2435 9.87925 28.2058 9.83145 28.1593 9.79317C28.1474 9.7805 28.1407 9.76385 28.1404 9.74648C28.1402 9.7291 28.1464 9.71226 28.158 9.69926C28.1695 9.68625 28.1855 9.67802 28.2027 9.67618C28.22 9.67433 28.2374 9.67901 28.2514 9.68928C28.3809 9.8037 28.4519 9.9523 28.4519 10.1068C28.4503 10.1867 28.4315 10.2653 28.3969 10.3373C28.3623 10.4094 28.3127 10.4731 28.2514 10.5244C28.1817 10.5855 28.0896 10.481 28.1587 10.4205Z" fill="#ED8768"/>
<path d="M21.1973 9.0541V10.8314C21.2097 11.7298 21.5753 12.5871 22.215 13.218C22.8547 13.8488 23.717 14.2025 24.6155 14.2025C25.5139 14.2025 26.3762 13.8488 27.0159 13.218C27.6556 12.5871 28.0212 11.7298 28.0336 10.8314V9.0541C28.0339 8.60513 27.9457 8.16051 27.7739 7.74568C27.6022 7.33084 27.3504 6.95393 27.0329 6.63649C26.7154 6.31905 26.3385 6.06732 25.9236 5.89568C25.5087 5.72405 25.0641 5.63589 24.6151 5.63623C24.1662 5.63597 23.7217 5.7242 23.3069 5.89587C22.8921 6.06754 22.5152 6.31929 22.1978 6.63672C21.8803 6.95415 21.6286 7.33104 21.4569 7.74583C21.2852 8.16062 21.197 8.60518 21.1973 9.0541Z" fill="#F9B29C"/>
<path d="M25.6566 9.87714C25.6566 10.1139 25.7867 10.3045 25.9485 10.3045C26.1109 10.3045 26.2444 10.1139 26.2444 9.87714C26.2444 9.63977 26.1109 9.4458 25.9485 9.4458C25.7867 9.4458 25.6566 9.63977 25.6566 9.87714ZM22.9883 9.87714C22.9883 10.1139 23.1185 10.3045 23.2809 10.3045C23.4426 10.3045 23.5761 10.1139 23.5761 9.87714C23.5761 9.63977 23.4426 9.4458 23.2802 9.4458C23.1185 9.4458 22.9883 9.63977 22.9883 9.87714Z" fill="#15144F"/>
<path d="M25.8094 11.7217C25.8094 11.7388 25.814 11.7552 25.814 11.773C25.814 12.0907 25.6878 12.3954 25.4631 12.6201C25.2385 12.8448 24.9337 12.971 24.616 12.971C24.2983 12.971 23.9935 12.8448 23.7689 12.6201C23.5442 12.3954 23.418 12.0907 23.418 11.773C23.418 11.7552 23.4226 11.7388 23.4232 11.7217H25.8094Z" fill="white"/>
<path d="M21.1474 9.67208L21.1973 9.71219C21.1973 9.71219 21.6103 9.75954 21.6103 9.71219C21.6103 9.66617 21.7181 8.92513 21.7181 8.92513C21.7181 8.92513 22.4559 7.89477 21.9292 6.94924C22.0226 6.99921 24.2299 8.16436 27.1132 7.02814C27.1132 7.02814 27.5143 7.35888 27.388 8.26036C27.3236 8.70288 27.5228 9.34398 27.7129 10.014H28.035L28.2954 9.27362C28.2954 9.27362 29.8761 7.87439 28.4532 6.68885C28.4743 6.62967 28.492 6.57444 28.5032 6.51921C28.5144 6.48079 28.5232 6.4417 28.5295 6.40217C28.5361 6.38178 28.5387 6.36074 28.5413 6.34036C28.6617 5.62036 29.3107 4.91614 28.7636 4.49729C28.7636 4.49729 28.761 4.49466 28.7577 4.49466C27.0165 3.16578 21.5807 2.79559 21.1474 5.55329C21.1474 5.55329 20.1525 5.65324 19.9507 6.5488C19.7429 7.44436 21.1474 9.67208 21.1474 9.67208Z" fill="#15144F"/>
<path d="M27.0164 26.9751C26.4043 26.9752 25.8127 27.1957 25.3498 27.5961C24.8868 27.9966 24.5836 28.5504 24.4954 29.1561L22.6504 41.8479L26.2247 41.9859L30.477 30.0471L27.0164 26.9751Z" fill="#03C88B"/>
<path d="M27.0164 31.3838L25.4844 41.928L26.2254 41.9872L28.7405 35.1501L27.0164 31.3838Z" fill="#02B07E"/>
<path d="M27.0156 26.9751H38.4186V43.326H27.0156V26.9751Z" fill="#03C88B"/>
<path d="M34.4689 24.4272V26.9719L32.7185 27.8076L30.9629 26.9719V24.4272H34.4689Z" fill="#F9B29C"/>
<path d="M34.4689 24.4272V25.7666C33.9629 26.0515 33.3919 26.2008 32.8112 26.2C32.1549 26.201 31.5125 26.0104 30.9629 25.6516V24.4272H34.4689Z" fill="#ED8768"/>
<path d="M35.5023 26.9738L34.1293 28.8274L32.7176 27.8082L34.4713 26.2808L35.4773 26.9712L35.5023 26.9738ZM29.9316 26.9738L31.3046 28.8274L32.7176 27.8082L30.9633 26.2808L29.9573 26.9712L29.9316 26.9738Z" fill="#02B07E"/>
<path d="M36.1339 22.573C36.5929 22.573 36.965 22.1388 36.965 21.6032C36.965 21.0675 36.5929 20.6333 36.1339 20.6333C35.6748 20.6333 35.3027 21.0675 35.3027 21.6032C35.3027 22.1388 35.6748 22.573 36.1339 22.573Z" fill="#F9B29C"/>
<path d="M36.419 21.9179C36.4658 21.8795 36.5039 21.8314 36.5305 21.7769C36.5572 21.7225 36.5718 21.6629 36.5735 21.6023C36.5717 21.542 36.5571 21.4827 36.5305 21.4285C36.504 21.3743 36.4662 21.3264 36.4196 21.288C36.4057 21.2758 36.3971 21.2586 36.3959 21.2401C36.3947 21.2216 36.4008 21.2033 36.413 21.1894C36.4253 21.1754 36.4425 21.1669 36.461 21.1657C36.4795 21.1644 36.4977 21.1706 36.5117 21.1828C36.5735 21.2343 36.6235 21.2984 36.6584 21.3709C36.6932 21.4434 36.712 21.5226 36.7135 21.603C36.7119 21.6832 36.6931 21.7622 36.6584 21.8346C36.6237 21.9069 36.5739 21.971 36.5123 22.0225C36.442 22.0836 36.3499 21.9798 36.419 21.9179Z" fill="#ED8768"/>
<path d="M29.5362 22.573C29.9952 22.573 30.3673 22.1388 30.3673 21.6032C30.3673 21.0675 29.9952 20.6333 29.5362 20.6333C29.0772 20.6333 28.7051 21.0675 28.7051 21.6032C28.7051 22.1388 29.0772 22.573 29.5362 22.573Z" fill="#F9B29C"/>
<path d="M29.2575 22.0166C29.2696 22.0026 29.2757 21.9844 29.2745 21.9659C29.2732 21.9475 29.2648 21.9302 29.251 21.9179C29.2041 21.8795 29.1661 21.8314 29.1394 21.7769C29.1127 21.7225 29.0981 21.6629 29.0964 21.6023C29.0964 21.4879 29.1517 21.3761 29.251 21.288C29.2649 21.2758 29.2734 21.2586 29.2747 21.2401C29.2759 21.2216 29.2697 21.2033 29.2575 21.1894C29.2453 21.1754 29.2281 21.1669 29.2096 21.1657C29.1911 21.1644 29.1728 21.1706 29.1589 21.1828C29.0971 21.2343 29.047 21.2984 29.0122 21.3709C28.9774 21.4434 28.9585 21.5226 28.957 21.603C28.957 21.7582 29.0287 21.9074 29.1582 22.0225C29.1872 22.0475 29.2312 22.0462 29.2575 22.0166Z" fill="#ED8768"/>
<path d="M36.2456 20.5451V22.331C36.2456 23.2418 35.8837 24.1154 35.2397 24.7594C34.5956 25.4035 33.7221 25.7653 32.8113 25.7653C31.9004 25.7653 31.0269 25.4035 30.3828 24.7594C29.7388 24.1154 29.377 23.2418 29.377 22.331V20.5451C29.3767 20.0941 29.4653 19.6474 29.6378 19.2306C29.8103 18.8138 30.0633 18.4351 30.3823 18.1161C30.7012 17.7972 31.0799 17.5442 31.4967 17.3717C31.9135 17.1992 32.3602 17.1106 32.8113 17.1108C33.7601 17.1108 34.6182 17.4942 35.2402 18.1169C35.5596 18.4354 35.8128 18.8139 35.9854 19.2306C36.1579 19.6474 36.2463 20.0941 36.2456 20.5451Z" fill="#F9B29C"/>
<path d="M31.7656 21.3725C31.7656 21.6105 31.6341 21.8025 31.4717 21.8025C31.3093 21.8025 31.1758 21.6105 31.1758 21.3725C31.1758 21.1338 31.3093 20.9385 31.4717 20.9385C31.6347 20.9385 31.7656 21.1338 31.7656 21.3725ZM34.4464 21.3725C34.4464 21.6105 34.3149 21.8025 34.1524 21.8025C33.99 21.8025 33.8565 21.6105 33.8565 21.3725C33.8565 21.1338 33.99 20.9385 34.1524 20.9385C34.3155 20.9385 34.4464 21.1338 34.4464 21.3725Z" fill="#15144F"/>
<path d="M31.6127 23.2251C31.6127 23.2429 31.6074 23.2593 31.6074 23.277C31.6074 23.5964 31.7343 23.9026 31.96 24.1284C32.1858 24.3541 32.4921 24.481 32.8114 24.481C33.1307 24.481 33.4369 24.3541 33.6627 24.1284C33.8885 23.9026 34.0153 23.5964 34.0153 23.277C34.0153 23.2593 34.0107 23.2429 34.0101 23.2251H31.6127Z" fill="white"/>
<path d="M36.2939 21.1653L36.2465 21.2067C36.2465 21.2067 35.8297 21.2547 35.8297 21.2067C35.8297 21.1593 35.7225 20.415 35.7225 20.415C35.7225 20.415 34.9788 19.3787 35.5141 18.4266C35.5141 18.4266 33.2587 19.6759 30.2998 18.5088C30.2998 18.5088 29.8974 18.8415 30.0263 19.7476C30.0894 20.1915 29.8882 20.8378 29.6975 21.5098H29.3766L29.1143 20.7668C29.1143 20.7668 27.8465 18.4325 29.2754 17.2424C29.2754 17.2424 28.7691 15.3369 30.9001 14.6583L31.2519 15.7827C31.2519 15.7827 32.0909 14.461 33.7637 14.39C35.443 14.3131 35.0794 15.8366 35.0794 15.8366C35.0794 15.8366 36.1453 15.3369 36.5562 15.8958C36.9613 16.456 36.2939 17.0274 36.2939 17.0274C36.2939 17.0274 36.8298 17.4147 37.0323 18.3135C37.2407 19.2124 36.2939 21.1653 36.2939 21.1653Z" fill="#15144F"/>
<path d="M44.2378 27.9855L38.4199 35.0829V26.9735L40.7818 24.8635L41.2861 18.8852L44.4147 18.7734L45.0755 25.3718C45.1316 26.317 44.8328 27.249 44.2378 27.9855Z" fill="#03C88B"/>
<path d="M39.1182 34.2308L38.4199 35.0829V29.0073L39.1182 34.2308Z" fill="#02B07E"/>
<path d="M44.7367 16.8741L44.4263 18.8848H41.2872L40.4916 17.4777C40.4289 17.3652 40.413 17.2324 40.4476 17.1082C40.4822 16.9841 40.5643 16.8786 40.6762 16.8147C40.7882 16.7508 40.9208 16.7336 41.0453 16.7669C41.1698 16.8002 41.2761 16.8812 41.3412 16.9925L41.5897 17.4218L41.6305 16.6946C41.635 16.4854 41.6815 16.2793 41.7675 16.0885C41.8534 15.8977 41.9769 15.7262 42.1306 15.5843C42.2843 15.4423 42.465 15.3327 42.6619 15.2622C42.8589 15.1916 43.0681 15.1614 43.277 15.1735C43.4858 15.1856 43.6902 15.2396 43.8777 15.3324C44.0652 15.4252 44.2321 15.5548 44.3684 15.7136C44.5047 15.8723 44.6077 16.0569 44.671 16.2563C44.7344 16.4557 44.7563 16.6658 44.7367 16.8741Z" fill="#F9B29C"/>
<path d="M38.3707 44.5196L38.3661 43.3262H27.0749L27.0703 44.5196H38.3707Z" fill="#393982"/>
<path d="M26.2472 43.6186C26.1821 43.6517 26.1099 43.6684 26.0368 43.6672C25.9608 43.6678 25.8859 43.6497 25.8186 43.6145C25.7513 43.5793 25.6937 43.5281 25.6508 43.4654L25.3964 43.084L25.2951 44.5174H21.9805L22.6512 41.8472L26.2249 41.9872L26.4839 43.1057C26.5063 43.2053 26.4952 43.3095 26.4524 43.4022C26.4096 43.4949 26.3375 43.5709 26.2472 43.6186Z" fill="#F9B29C"/>
<path d="M6.58551 31.53C6.58551 32.2289 16.0494 32.2289 16.0494 31.53C15.142 28.7223 18.4908 21.9721 14.443 19.3182C11.0153 17.0701 9.29587 19.7851 9.29587 19.7851C9.29587 19.7851 8.40162 19.2459 6.96162 20.4959C4.89696 22.2896 6.77225 26.0803 6.77225 26.0803C7.08589 27.3014 6.74792 30.2853 6.58551 31.53Z" fill="#15144F"/>
<path d="M7.03906 32.3164H15.9703V44.5189H7.03906V32.3164Z" fill="#FF8E2E"/>
<path d="M13.3906 29.0195L13.4182 32.3177H9.59793L9.57031 29.0195H13.3906Z" fill="#F9B29C"/>
<path d="M13.4179 29.0195V31.0053C12.0647 31.0691 10.7977 30.7456 9.59766 30.0979V29.0195H13.4179Z" fill="#ED8768"/>
<path d="M15.4046 32.3223C15.4046 32.3223 15.0798 34.8702 13.7989 35.2944C12.3852 35.7632 11.4805 34.3863 11.4805 34.3863L14.2092 32.3184L15.4046 32.3223Z" fill="#CAF5FE"/>
<path d="M7.60742 32.3223C7.60742 32.3223 7.9329 34.8702 9.21312 35.2944C10.6268 35.7632 11.5322 34.3863 11.5322 34.3863L8.80348 32.3184L7.60742 32.3223Z" fill="#CAF5FE"/>
<path d="M14.3035 32.3174C14.1305 32.9294 13.7625 33.4681 13.2553 33.8518C12.7481 34.2355 12.1295 34.4431 11.4936 34.4431C10.8576 34.4431 10.239 34.2355 9.73185 33.8518C9.22467 33.4681 8.85661 32.9294 8.68359 32.3174H14.3035Z" fill="#F9B29C"/>
<path d="M15.3827 26.8289C15.9242 26.8289 16.3631 26.317 16.3631 25.6854C16.3631 25.0539 15.9242 24.542 15.3827 24.542C14.8413 24.542 14.4023 25.0539 14.4023 25.6854C14.4023 26.317 14.8413 26.8289 15.3827 26.8289Z" fill="#F9B29C"/>
<path d="M15.7203 26.057C15.7754 26.0116 15.8202 25.955 15.8516 25.8909C15.883 25.8269 15.9004 25.7568 15.9024 25.6855C15.9003 25.6142 15.883 25.5443 15.8516 25.4803C15.8201 25.4163 15.7754 25.3598 15.7203 25.3146C15.7063 25.2995 15.6984 25.2798 15.6981 25.2592C15.6978 25.2387 15.7052 25.2187 15.7188 25.2033C15.7325 25.1879 15.7513 25.1781 15.7718 25.1758C15.7922 25.1735 15.8128 25.1789 15.8295 25.191C15.9833 25.3264 16.0675 25.502 16.0675 25.6855C16.0675 25.8696 15.9833 26.0445 15.8295 26.1806C15.7473 26.2529 15.6388 26.1293 15.7203 26.057Z" fill="#ED8768"/>
<path d="M7.60538 26.8289C8.14683 26.8289 8.58577 26.317 8.58577 25.6854C8.58577 25.0539 8.14683 24.542 7.60538 24.542C7.06393 24.542 6.625 25.0539 6.625 25.6854C6.625 26.317 7.06393 26.8289 7.60538 26.8289Z" fill="#F9B29C"/>
<path d="M7.2671 26.0571C7.21197 26.0118 7.16719 25.9552 7.13578 25.8911C7.10436 25.827 7.08703 25.757 7.08496 25.6856C7.08496 25.5502 7.15006 25.4187 7.2671 25.3148C7.28057 25.2997 7.28806 25.2802 7.28815 25.26C7.28823 25.2397 7.28091 25.2202 7.26757 25.205C7.25422 25.1898 7.23577 25.18 7.2157 25.1774C7.19563 25.1749 7.17532 25.1798 7.15861 25.1912C7.08567 25.2516 7.02661 25.3271 6.98542 25.4124C6.94424 25.4977 6.9219 25.5909 6.91992 25.6856C6.91992 25.8697 7.00474 26.0446 7.15795 26.1808C7.24014 26.2531 7.34929 26.1301 7.26776 26.0571H7.2671Z" fill="#ED8768"/>
<path d="M15.5428 23.4098V26.5462C15.5428 28.7818 13.7294 30.5946 11.4944 30.5946C10.9626 30.595 10.436 30.4905 9.94463 30.2872C9.45326 30.0839 9.00678 29.7857 8.63073 29.4097C8.25467 29.0337 7.95642 28.5873 7.75302 28.0959C7.54961 27.6046 7.44505 27.078 7.44531 26.5462V23.4098C7.44514 22.878 7.54976 22.3514 7.75319 21.8601C7.95663 21.3688 8.25488 20.9224 8.63092 20.5465C9.00696 20.1705 9.4534 19.8723 9.94473 19.669C10.4361 19.4656 10.9627 19.3611 11.4944 19.3613C13.7294 19.3613 15.5428 21.1748 15.5428 23.4098Z" fill="#F9B29C"/>
<path d="M10.2601 25.4136C10.2601 25.695 10.1056 25.9212 9.91426 25.9212C9.72292 25.9212 9.56445 25.695 9.56445 25.4136C9.56445 25.1321 9.72226 24.9033 9.91426 24.9033C10.1063 24.9033 10.2601 25.1328 10.2601 25.4136ZM13.4209 25.4136C13.4209 25.695 13.2664 25.9212 13.0744 25.9212C12.8824 25.9212 12.7252 25.695 12.7252 25.4136C12.7252 25.1321 12.883 24.9033 13.0744 24.9033C13.2664 24.9033 13.4209 25.1328 13.4209 25.4136Z" fill="#15144F"/>
<path d="M10.0808 27.5991C10.0795 27.6195 10.0742 27.6386 10.0742 27.6596C10.0742 28.036 10.2238 28.397 10.4899 28.6632C10.7561 28.9294 11.1171 29.0789 11.4935 29.0789C11.8699 29.0789 12.2309 28.9294 12.4971 28.6632C12.7633 28.397 12.9128 28.036 12.9128 27.6596C12.9128 27.6386 12.9075 27.6195 12.9062 27.5991H10.0808Z" fill="white"/>
<path d="M15.7326 23.3138L15.5531 24.571C15.5531 25.894 14.9258 26.6903 14.9258 26.6903C14.9258 26.6903 14.7522 25.4409 14.0138 24.1495C13.276 22.8575 10.851 22.0356 9.7707 21.6509C9.56212 21.5808 9.37261 21.4633 9.21706 21.3077C9.11185 22.6622 7.51996 26.3372 7.45618 26.2208L7.41016 23.4125C7.41016 21.142 9.12435 19.2568 11.4494 19.2568C12.5672 19.2568 13.5798 19.7105 14.3123 20.443C15.0448 21.1755 15.7326 22.1967 15.7326 23.3138Z" fill="#15144F"/>
<path d="M20.0191 44.5196V36.0808C20.0191 35.0824 19.6225 34.1249 18.9166 33.419C18.2106 32.713 17.2531 32.3164 16.2548 32.3164H15.9707V44.5196H20.0191Z" fill="#FF8E2E"/>
<path d="M16.1074 38.5879H16.427V44.5195H16.1074V38.5879Z" fill="#F67112"/>
<path d="M7.04844 44.5196V32.3164H6.76438C5.76601 32.3164 4.80852 32.713 4.10256 33.419C3.3966 34.1249 3 35.0824 3 36.0808V44.5196H7.04844Z" fill="#FF8E2E"/>
<path d="M6.26562 38.5879H6.58519V44.5195H6.26562V38.5879Z" fill="#F67112"/>
</svg>
