<svg width="57" height="58" viewBox="0 0 57 58" fill="none" xmlns="http://www.w3.org/2000/svg">
<rect x="0.306152" y="0.681641" width="56.3879" height="56.3879" rx="10" fill="#BDBDBD" fill-opacity="0.4"/>
<path d="M41.4099 31.0506C41.2569 31.1814 40.6795 31.7408 40.1416 32.2009C36.9881 35.0948 28.7614 39.8313 24.4556 41.2771C23.8017 41.5095 22.1485 42.0012 21.2651 42.0327C20.4188 42.0327 19.6119 41.8703 18.842 41.541C17.8822 41.0809 17.1123 40.3569 16.6904 39.502C16.4188 38.9088 15.9969 37.1338 15.9969 37.1022C15.5751 35.1602 15.343 32.0047 15.343 28.5177C15.343 25.1953 15.5751 22.1684 15.9205 20.1971C15.96 20.1655 16.3819 17.9596 16.8433 17.204C17.6897 15.8236 19.343 14.9666 21.1122 14.9666H21.2651C22.4174 15.0004 24.8406 15.8575 24.8406 15.8891C28.9143 17.3371 36.9511 21.8414 40.1811 24.8344C40.1811 24.8344 41.0908 25.6036 41.4863 26.084C42.1033 26.7742 42.4092 27.629 42.4092 28.4839C42.4092 29.4379 42.0638 30.3266 41.4099 31.0506Z" fill="white"/>
</svg>
