<svg width="48" height="48" viewBox="0 0 48 48" fill="none" xmlns="http://www.w3.org/2000/svg">
<g clip-path="url(#clip0_320_6401)">
<path d="M24 47.4375C36.9442 47.4375 47.4375 36.9442 47.4375 24C47.4375 11.0558 36.9442 0.5625 24 0.5625C11.0558 0.5625 0.5625 11.0558 0.5625 24C0.5625 36.9442 11.0558 47.4375 24 47.4375Z" fill="#27A737"/>
<path opacity="0.49" fill-rule="evenodd" clip-rule="evenodd" d="M34.8713 13.2888C33.4831 11.9088 31.8329 10.8204 30.0178 10.0876C28.2026 9.35487 26.2593 8.99262 24.3021 9.02218C16.1265 9.02218 9.465 15.5345 9.465 23.65C9.465 26.3551 10.2725 28.96 11.5845 31.1642L8.85938 38.9791L15.8681 45.9878C18.471 46.9496 21.2243 47.4405 23.9993 47.4376C36.3422 47.4376 46.4565 37.8963 47.3694 25.787L34.8713 13.2888ZM17.5399 33.8694L12.6948 35.3719L14.2088 30.7632C12.6365 28.687 11.7859 26.1538 11.7863 23.5495C11.7863 16.7365 17.4387 11.2261 24.302 11.2261C31.1652 11.2261 36.8176 16.7365 36.9186 23.5495C36.9196 26.0417 36.1514 28.4734 34.7187 30.5127L31.5754 27.3693C31.5338 27.3283 31.4856 27.2945 31.4328 27.2694L29.193 26.2486L20.1562 17.2057C20.0712 17.1245 19.96 17.0763 19.8427 17.0698L18.8697 17.0135C18.5639 16.9968 18.2632 17.0974 18.029 17.2948C17.5567 17.6987 16.8008 18.497 16.5649 19.5208C16.2154 21.0517 16.7538 22.9301 18.1423 24.8083C18.7448 25.6339 19.4105 26.4115 20.1334 27.1341L28.2669 35.2688C26.486 35.8385 24.6013 36.0084 22.7472 35.7666C20.8931 35.5247 19.1151 34.8769 17.5399 33.8694Z" fill="url(#paint0_linear_320_6401)"/>
<path d="M24.3021 9.02214C16.1265 9.02214 9.465 15.5345 9.465 23.65C9.465 26.355 10.2725 28.9599 11.5845 31.1642L8.85938 38.979L17.1358 36.3741C19.2555 37.4763 21.6777 38.1775 24.3021 38.1775C32.4776 38.1775 39.1391 31.6652 39.1391 23.5497C39.1391 15.4343 32.4776 8.92192 24.3021 9.02214ZM24.403 35.8732C21.9689 35.8876 19.5836 35.1912 17.5396 33.8694L12.6948 35.3719L14.2088 30.7631C12.6365 28.687 11.7859 26.1538 11.7863 23.5494C11.7863 16.7364 17.4387 11.226 24.302 11.226C31.1652 11.226 36.8176 16.7364 36.9186 23.5494C36.9187 30.3626 31.2664 35.8732 24.403 35.8732Z" fill="white"/>
<path fill-rule="evenodd" clip-rule="evenodd" d="M18.8695 17.0134L19.8425 17.0696C19.9366 17.0755 20.0273 17.1077 20.1041 17.1624C20.1809 17.2172 20.2408 17.2924 20.277 17.3795L21.6939 20.6855C21.7299 20.7725 21.7411 20.8677 21.7261 20.9606C21.7111 21.0535 21.6705 21.1404 21.6089 21.2116L20.3714 22.6297C20.323 22.6859 20.2926 22.7554 20.2843 22.8291C20.2759 22.9028 20.29 22.9774 20.3245 23.043C21.9588 26.1612 24.9249 27.401 25.8128 27.711C25.886 27.737 25.9657 27.7393 26.0403 27.7174C26.1149 27.6955 26.1808 27.6506 26.2284 27.5891L27.5221 25.9174C27.5928 25.8271 27.6918 25.7633 27.8031 25.7361C27.9145 25.7089 28.0317 25.7199 28.1361 25.7674L31.4328 27.2701C31.5364 27.3186 31.6206 27.4006 31.672 27.5028C31.7234 27.605 31.739 27.7215 31.7162 27.8336L31.5648 28.5562C31.479 28.962 31.3138 29.3468 31.0787 29.6885C30.8436 30.0302 30.5434 30.3221 30.1951 30.5474C29.2977 31.1109 28.1453 31.3927 26.6717 30.9795C22.1093 29.6927 19.5305 26.6872 18.1419 24.8088C16.7532 22.9303 16.2149 21.0519 16.5644 19.5213C16.8006 18.4975 17.5562 17.6991 18.0285 17.2953C18.2627 17.0978 18.5634 16.9972 18.8693 17.014L18.8695 17.0134Z" fill="white"/>
</g>
<defs>
<linearGradient id="paint0_linear_320_6401" x1="11.4205" y1="15.6891" x2="38.4381" y2="42.7067" gradientUnits="userSpaceOnUse">
<stop stop-color="#1D1D1B"/>
<stop offset="0.369" stop-color="#1D1D1B" stop-opacity="0.856"/>
<stop offset="0.75" stop-color="#1D1D1B" stop-opacity="0.429"/>
<stop offset="1" stop-color="#1D1D1B" stop-opacity="0"/>
</linearGradient>
<clipPath id="clip0_320_6401">
<rect width="48" height="48" fill="white"/>
</clipPath>
</defs>
</svg>
